G75*
G70*
%OFA0B0*%
%FSLAX24Y24*%
%IPPOS*%
%LPD*%
%AMOC8*
5,1,8,0,0,1.08239X$1,22.5*
%
%ADD10C,0.0000*%
D10*
X001951Y002918D02*
X001951Y026462D01*
X040691Y026462D01*
X040691Y002918D01*
X001951Y002918D01*
X002974Y004572D02*
X002977Y004629D01*
X002984Y004686D01*
X002997Y004742D01*
X003015Y004796D01*
X003038Y004849D01*
X003066Y004899D01*
X003098Y004947D01*
X003134Y004991D01*
X003174Y005032D01*
X003218Y005070D01*
X003264Y005103D01*
X003314Y005131D01*
X003366Y005155D01*
X003420Y005175D01*
X003476Y005189D01*
X003532Y005198D01*
X003590Y005202D01*
X003647Y005201D01*
X003704Y005194D01*
X003760Y005182D01*
X003815Y005166D01*
X003868Y005144D01*
X003919Y005118D01*
X003967Y005087D01*
X004013Y005052D01*
X004055Y005012D01*
X004093Y004970D01*
X004127Y004923D01*
X004157Y004874D01*
X004182Y004823D01*
X004202Y004769D01*
X004218Y004714D01*
X004228Y004658D01*
X004233Y004601D01*
X004233Y004543D01*
X004228Y004486D01*
X004218Y004430D01*
X004202Y004375D01*
X004182Y004321D01*
X004157Y004270D01*
X004127Y004221D01*
X004093Y004174D01*
X004055Y004132D01*
X004013Y004092D01*
X003967Y004057D01*
X003919Y004026D01*
X003868Y004000D01*
X003815Y003978D01*
X003760Y003962D01*
X003704Y003950D01*
X003647Y003943D01*
X003590Y003942D01*
X003532Y003946D01*
X003476Y003955D01*
X003420Y003969D01*
X003366Y003989D01*
X003314Y004013D01*
X003264Y004041D01*
X003218Y004074D01*
X003174Y004112D01*
X003134Y004153D01*
X003098Y004197D01*
X003066Y004245D01*
X003038Y004295D01*
X003015Y004348D01*
X002997Y004402D01*
X002984Y004458D01*
X002977Y004515D01*
X002974Y004572D01*
X009521Y003952D02*
X009524Y004010D01*
X009532Y004068D01*
X009545Y004125D01*
X009563Y004180D01*
X009586Y004233D01*
X009614Y004285D01*
X009647Y004333D01*
X009683Y004378D01*
X009724Y004420D01*
X009769Y004458D01*
X009816Y004491D01*
X009867Y004520D01*
X009919Y004545D01*
X009974Y004564D01*
X010031Y004579D01*
X010088Y004588D01*
X010146Y004592D01*
X010205Y004591D01*
X010263Y004584D01*
X010320Y004572D01*
X010375Y004555D01*
X010429Y004533D01*
X010481Y004506D01*
X010530Y004475D01*
X010576Y004439D01*
X010619Y004399D01*
X010657Y004356D01*
X010692Y004309D01*
X010722Y004259D01*
X010748Y004207D01*
X010769Y004153D01*
X010784Y004096D01*
X010795Y004039D01*
X010800Y003981D01*
X010800Y003923D01*
X010795Y003865D01*
X010784Y003808D01*
X010769Y003751D01*
X010748Y003697D01*
X010722Y003645D01*
X010692Y003595D01*
X010657Y003548D01*
X010619Y003505D01*
X010576Y003465D01*
X010530Y003429D01*
X010481Y003398D01*
X010429Y003371D01*
X010375Y003349D01*
X010320Y003332D01*
X010263Y003320D01*
X010205Y003313D01*
X010146Y003312D01*
X010088Y003316D01*
X010031Y003325D01*
X009974Y003340D01*
X009919Y003359D01*
X009867Y003384D01*
X009816Y003413D01*
X009769Y003446D01*
X009724Y003484D01*
X009683Y003526D01*
X009647Y003571D01*
X009614Y003619D01*
X009586Y003671D01*
X009563Y003724D01*
X009545Y003779D01*
X009532Y003836D01*
X009524Y003894D01*
X009521Y003952D01*
X012521Y003952D02*
X012524Y004010D01*
X012532Y004068D01*
X012545Y004125D01*
X012563Y004180D01*
X012586Y004233D01*
X012614Y004285D01*
X012647Y004333D01*
X012683Y004378D01*
X012724Y004420D01*
X012769Y004458D01*
X012816Y004491D01*
X012867Y004520D01*
X012919Y004545D01*
X012974Y004564D01*
X013031Y004579D01*
X013088Y004588D01*
X013146Y004592D01*
X013205Y004591D01*
X013263Y004584D01*
X013320Y004572D01*
X013375Y004555D01*
X013429Y004533D01*
X013481Y004506D01*
X013530Y004475D01*
X013576Y004439D01*
X013619Y004399D01*
X013657Y004356D01*
X013692Y004309D01*
X013722Y004259D01*
X013748Y004207D01*
X013769Y004153D01*
X013784Y004096D01*
X013795Y004039D01*
X013800Y003981D01*
X013800Y003923D01*
X013795Y003865D01*
X013784Y003808D01*
X013769Y003751D01*
X013748Y003697D01*
X013722Y003645D01*
X013692Y003595D01*
X013657Y003548D01*
X013619Y003505D01*
X013576Y003465D01*
X013530Y003429D01*
X013481Y003398D01*
X013429Y003371D01*
X013375Y003349D01*
X013320Y003332D01*
X013263Y003320D01*
X013205Y003313D01*
X013146Y003312D01*
X013088Y003316D01*
X013031Y003325D01*
X012974Y003340D01*
X012919Y003359D01*
X012867Y003384D01*
X012816Y003413D01*
X012769Y003446D01*
X012724Y003484D01*
X012683Y003526D01*
X012647Y003571D01*
X012614Y003619D01*
X012586Y003671D01*
X012563Y003724D01*
X012545Y003779D01*
X012532Y003836D01*
X012524Y003894D01*
X012521Y003952D01*
X015021Y003952D02*
X015024Y004010D01*
X015032Y004068D01*
X015045Y004125D01*
X015063Y004180D01*
X015086Y004233D01*
X015114Y004285D01*
X015147Y004333D01*
X015183Y004378D01*
X015224Y004420D01*
X015269Y004458D01*
X015316Y004491D01*
X015367Y004520D01*
X015419Y004545D01*
X015474Y004564D01*
X015531Y004579D01*
X015588Y004588D01*
X015646Y004592D01*
X015705Y004591D01*
X015763Y004584D01*
X015820Y004572D01*
X015875Y004555D01*
X015929Y004533D01*
X015981Y004506D01*
X016030Y004475D01*
X016076Y004439D01*
X016119Y004399D01*
X016157Y004356D01*
X016192Y004309D01*
X016222Y004259D01*
X016248Y004207D01*
X016269Y004153D01*
X016284Y004096D01*
X016295Y004039D01*
X016300Y003981D01*
X016300Y003923D01*
X016295Y003865D01*
X016284Y003808D01*
X016269Y003751D01*
X016248Y003697D01*
X016222Y003645D01*
X016192Y003595D01*
X016157Y003548D01*
X016119Y003505D01*
X016076Y003465D01*
X016030Y003429D01*
X015981Y003398D01*
X015929Y003371D01*
X015875Y003349D01*
X015820Y003332D01*
X015763Y003320D01*
X015705Y003313D01*
X015646Y003312D01*
X015588Y003316D01*
X015531Y003325D01*
X015474Y003340D01*
X015419Y003359D01*
X015367Y003384D01*
X015316Y003413D01*
X015269Y003446D01*
X015224Y003484D01*
X015183Y003526D01*
X015147Y003571D01*
X015114Y003619D01*
X015086Y003671D01*
X015063Y003724D01*
X015045Y003779D01*
X015032Y003836D01*
X015024Y003894D01*
X015021Y003952D01*
X018021Y003952D02*
X018024Y004010D01*
X018032Y004068D01*
X018045Y004125D01*
X018063Y004180D01*
X018086Y004233D01*
X018114Y004285D01*
X018147Y004333D01*
X018183Y004378D01*
X018224Y004420D01*
X018269Y004458D01*
X018316Y004491D01*
X018367Y004520D01*
X018419Y004545D01*
X018474Y004564D01*
X018531Y004579D01*
X018588Y004588D01*
X018646Y004592D01*
X018705Y004591D01*
X018763Y004584D01*
X018820Y004572D01*
X018875Y004555D01*
X018929Y004533D01*
X018981Y004506D01*
X019030Y004475D01*
X019076Y004439D01*
X019119Y004399D01*
X019157Y004356D01*
X019192Y004309D01*
X019222Y004259D01*
X019248Y004207D01*
X019269Y004153D01*
X019284Y004096D01*
X019295Y004039D01*
X019300Y003981D01*
X019300Y003923D01*
X019295Y003865D01*
X019284Y003808D01*
X019269Y003751D01*
X019248Y003697D01*
X019222Y003645D01*
X019192Y003595D01*
X019157Y003548D01*
X019119Y003505D01*
X019076Y003465D01*
X019030Y003429D01*
X018981Y003398D01*
X018929Y003371D01*
X018875Y003349D01*
X018820Y003332D01*
X018763Y003320D01*
X018705Y003313D01*
X018646Y003312D01*
X018588Y003316D01*
X018531Y003325D01*
X018474Y003340D01*
X018419Y003359D01*
X018367Y003384D01*
X018316Y003413D01*
X018269Y003446D01*
X018224Y003484D01*
X018183Y003526D01*
X018147Y003571D01*
X018114Y003619D01*
X018086Y003671D01*
X018063Y003724D01*
X018045Y003779D01*
X018032Y003836D01*
X018024Y003894D01*
X018021Y003952D01*
X020521Y003952D02*
X020524Y004010D01*
X020532Y004068D01*
X020545Y004125D01*
X020563Y004180D01*
X020586Y004233D01*
X020614Y004285D01*
X020647Y004333D01*
X020683Y004378D01*
X020724Y004420D01*
X020769Y004458D01*
X020816Y004491D01*
X020867Y004520D01*
X020919Y004545D01*
X020974Y004564D01*
X021031Y004579D01*
X021088Y004588D01*
X021146Y004592D01*
X021205Y004591D01*
X021263Y004584D01*
X021320Y004572D01*
X021375Y004555D01*
X021429Y004533D01*
X021481Y004506D01*
X021530Y004475D01*
X021576Y004439D01*
X021619Y004399D01*
X021657Y004356D01*
X021692Y004309D01*
X021722Y004259D01*
X021748Y004207D01*
X021769Y004153D01*
X021784Y004096D01*
X021795Y004039D01*
X021800Y003981D01*
X021800Y003923D01*
X021795Y003865D01*
X021784Y003808D01*
X021769Y003751D01*
X021748Y003697D01*
X021722Y003645D01*
X021692Y003595D01*
X021657Y003548D01*
X021619Y003505D01*
X021576Y003465D01*
X021530Y003429D01*
X021481Y003398D01*
X021429Y003371D01*
X021375Y003349D01*
X021320Y003332D01*
X021263Y003320D01*
X021205Y003313D01*
X021146Y003312D01*
X021088Y003316D01*
X021031Y003325D01*
X020974Y003340D01*
X020919Y003359D01*
X020867Y003384D01*
X020816Y003413D01*
X020769Y003446D01*
X020724Y003484D01*
X020683Y003526D01*
X020647Y003571D01*
X020614Y003619D01*
X020586Y003671D01*
X020563Y003724D01*
X020545Y003779D01*
X020532Y003836D01*
X020524Y003894D01*
X020521Y003952D01*
X023521Y003952D02*
X023524Y004010D01*
X023532Y004068D01*
X023545Y004125D01*
X023563Y004180D01*
X023586Y004233D01*
X023614Y004285D01*
X023647Y004333D01*
X023683Y004378D01*
X023724Y004420D01*
X023769Y004458D01*
X023816Y004491D01*
X023867Y004520D01*
X023919Y004545D01*
X023974Y004564D01*
X024031Y004579D01*
X024088Y004588D01*
X024146Y004592D01*
X024205Y004591D01*
X024263Y004584D01*
X024320Y004572D01*
X024375Y004555D01*
X024429Y004533D01*
X024481Y004506D01*
X024530Y004475D01*
X024576Y004439D01*
X024619Y004399D01*
X024657Y004356D01*
X024692Y004309D01*
X024722Y004259D01*
X024748Y004207D01*
X024769Y004153D01*
X024784Y004096D01*
X024795Y004039D01*
X024800Y003981D01*
X024800Y003923D01*
X024795Y003865D01*
X024784Y003808D01*
X024769Y003751D01*
X024748Y003697D01*
X024722Y003645D01*
X024692Y003595D01*
X024657Y003548D01*
X024619Y003505D01*
X024576Y003465D01*
X024530Y003429D01*
X024481Y003398D01*
X024429Y003371D01*
X024375Y003349D01*
X024320Y003332D01*
X024263Y003320D01*
X024205Y003313D01*
X024146Y003312D01*
X024088Y003316D01*
X024031Y003325D01*
X023974Y003340D01*
X023919Y003359D01*
X023867Y003384D01*
X023816Y003413D01*
X023769Y003446D01*
X023724Y003484D01*
X023683Y003526D01*
X023647Y003571D01*
X023614Y003619D01*
X023586Y003671D01*
X023563Y003724D01*
X023545Y003779D01*
X023532Y003836D01*
X023524Y003894D01*
X023521Y003952D01*
X026021Y003952D02*
X026024Y004010D01*
X026032Y004068D01*
X026045Y004125D01*
X026063Y004180D01*
X026086Y004233D01*
X026114Y004285D01*
X026147Y004333D01*
X026183Y004378D01*
X026224Y004420D01*
X026269Y004458D01*
X026316Y004491D01*
X026367Y004520D01*
X026419Y004545D01*
X026474Y004564D01*
X026531Y004579D01*
X026588Y004588D01*
X026646Y004592D01*
X026705Y004591D01*
X026763Y004584D01*
X026820Y004572D01*
X026875Y004555D01*
X026929Y004533D01*
X026981Y004506D01*
X027030Y004475D01*
X027076Y004439D01*
X027119Y004399D01*
X027157Y004356D01*
X027192Y004309D01*
X027222Y004259D01*
X027248Y004207D01*
X027269Y004153D01*
X027284Y004096D01*
X027295Y004039D01*
X027300Y003981D01*
X027300Y003923D01*
X027295Y003865D01*
X027284Y003808D01*
X027269Y003751D01*
X027248Y003697D01*
X027222Y003645D01*
X027192Y003595D01*
X027157Y003548D01*
X027119Y003505D01*
X027076Y003465D01*
X027030Y003429D01*
X026981Y003398D01*
X026929Y003371D01*
X026875Y003349D01*
X026820Y003332D01*
X026763Y003320D01*
X026705Y003313D01*
X026646Y003312D01*
X026588Y003316D01*
X026531Y003325D01*
X026474Y003340D01*
X026419Y003359D01*
X026367Y003384D01*
X026316Y003413D01*
X026269Y003446D01*
X026224Y003484D01*
X026183Y003526D01*
X026147Y003571D01*
X026114Y003619D01*
X026086Y003671D01*
X026063Y003724D01*
X026045Y003779D01*
X026032Y003836D01*
X026024Y003894D01*
X026021Y003952D01*
X029021Y003952D02*
X029024Y004010D01*
X029032Y004068D01*
X029045Y004125D01*
X029063Y004180D01*
X029086Y004233D01*
X029114Y004285D01*
X029147Y004333D01*
X029183Y004378D01*
X029224Y004420D01*
X029269Y004458D01*
X029316Y004491D01*
X029367Y004520D01*
X029419Y004545D01*
X029474Y004564D01*
X029531Y004579D01*
X029588Y004588D01*
X029646Y004592D01*
X029705Y004591D01*
X029763Y004584D01*
X029820Y004572D01*
X029875Y004555D01*
X029929Y004533D01*
X029981Y004506D01*
X030030Y004475D01*
X030076Y004439D01*
X030119Y004399D01*
X030157Y004356D01*
X030192Y004309D01*
X030222Y004259D01*
X030248Y004207D01*
X030269Y004153D01*
X030284Y004096D01*
X030295Y004039D01*
X030300Y003981D01*
X030300Y003923D01*
X030295Y003865D01*
X030284Y003808D01*
X030269Y003751D01*
X030248Y003697D01*
X030222Y003645D01*
X030192Y003595D01*
X030157Y003548D01*
X030119Y003505D01*
X030076Y003465D01*
X030030Y003429D01*
X029981Y003398D01*
X029929Y003371D01*
X029875Y003349D01*
X029820Y003332D01*
X029763Y003320D01*
X029705Y003313D01*
X029646Y003312D01*
X029588Y003316D01*
X029531Y003325D01*
X029474Y003340D01*
X029419Y003359D01*
X029367Y003384D01*
X029316Y003413D01*
X029269Y003446D01*
X029224Y003484D01*
X029183Y003526D01*
X029147Y003571D01*
X029114Y003619D01*
X029086Y003671D01*
X029063Y003724D01*
X029045Y003779D01*
X029032Y003836D01*
X029024Y003894D01*
X029021Y003952D01*
X037226Y004572D02*
X037229Y004629D01*
X037236Y004686D01*
X037249Y004742D01*
X037267Y004796D01*
X037290Y004849D01*
X037318Y004899D01*
X037350Y004947D01*
X037386Y004991D01*
X037426Y005032D01*
X037470Y005070D01*
X037516Y005103D01*
X037566Y005131D01*
X037618Y005155D01*
X037672Y005175D01*
X037728Y005189D01*
X037784Y005198D01*
X037842Y005202D01*
X037899Y005201D01*
X037956Y005194D01*
X038012Y005182D01*
X038067Y005166D01*
X038120Y005144D01*
X038171Y005118D01*
X038219Y005087D01*
X038265Y005052D01*
X038307Y005012D01*
X038345Y004970D01*
X038379Y004923D01*
X038409Y004874D01*
X038434Y004823D01*
X038454Y004769D01*
X038470Y004714D01*
X038480Y004658D01*
X038485Y004601D01*
X038485Y004543D01*
X038480Y004486D01*
X038470Y004430D01*
X038454Y004375D01*
X038434Y004321D01*
X038409Y004270D01*
X038379Y004221D01*
X038345Y004174D01*
X038307Y004132D01*
X038265Y004092D01*
X038219Y004057D01*
X038171Y004026D01*
X038120Y004000D01*
X038067Y003978D01*
X038012Y003962D01*
X037956Y003950D01*
X037899Y003943D01*
X037842Y003942D01*
X037784Y003946D01*
X037728Y003955D01*
X037672Y003969D01*
X037618Y003989D01*
X037566Y004013D01*
X037516Y004041D01*
X037470Y004074D01*
X037426Y004112D01*
X037386Y004153D01*
X037350Y004197D01*
X037318Y004245D01*
X037290Y004295D01*
X037267Y004348D01*
X037249Y004402D01*
X037236Y004458D01*
X037229Y004515D01*
X037226Y004572D01*
X037226Y020320D02*
X037229Y020377D01*
X037236Y020434D01*
X037249Y020490D01*
X037267Y020544D01*
X037290Y020597D01*
X037318Y020647D01*
X037350Y020695D01*
X037386Y020739D01*
X037426Y020780D01*
X037470Y020818D01*
X037516Y020851D01*
X037566Y020879D01*
X037618Y020903D01*
X037672Y020923D01*
X037728Y020937D01*
X037784Y020946D01*
X037842Y020950D01*
X037899Y020949D01*
X037956Y020942D01*
X038012Y020930D01*
X038067Y020914D01*
X038120Y020892D01*
X038171Y020866D01*
X038219Y020835D01*
X038265Y020800D01*
X038307Y020760D01*
X038345Y020718D01*
X038379Y020671D01*
X038409Y020622D01*
X038434Y020571D01*
X038454Y020517D01*
X038470Y020462D01*
X038480Y020406D01*
X038485Y020349D01*
X038485Y020291D01*
X038480Y020234D01*
X038470Y020178D01*
X038454Y020123D01*
X038434Y020069D01*
X038409Y020018D01*
X038379Y019969D01*
X038345Y019922D01*
X038307Y019880D01*
X038265Y019840D01*
X038219Y019805D01*
X038171Y019774D01*
X038120Y019748D01*
X038067Y019726D01*
X038012Y019710D01*
X037956Y019698D01*
X037899Y019691D01*
X037842Y019690D01*
X037784Y019694D01*
X037728Y019703D01*
X037672Y019717D01*
X037618Y019737D01*
X037566Y019761D01*
X037516Y019789D01*
X037470Y019822D01*
X037426Y019860D01*
X037386Y019901D01*
X037350Y019945D01*
X037318Y019993D01*
X037290Y020043D01*
X037267Y020096D01*
X037249Y020150D01*
X037236Y020206D01*
X037229Y020263D01*
X037226Y020320D01*
X002974Y020320D02*
X002977Y020377D01*
X002984Y020434D01*
X002997Y020490D01*
X003015Y020544D01*
X003038Y020597D01*
X003066Y020647D01*
X003098Y020695D01*
X003134Y020739D01*
X003174Y020780D01*
X003218Y020818D01*
X003264Y020851D01*
X003314Y020879D01*
X003366Y020903D01*
X003420Y020923D01*
X003476Y020937D01*
X003532Y020946D01*
X003590Y020950D01*
X003647Y020949D01*
X003704Y020942D01*
X003760Y020930D01*
X003815Y020914D01*
X003868Y020892D01*
X003919Y020866D01*
X003967Y020835D01*
X004013Y020800D01*
X004055Y020760D01*
X004093Y020718D01*
X004127Y020671D01*
X004157Y020622D01*
X004182Y020571D01*
X004202Y020517D01*
X004218Y020462D01*
X004228Y020406D01*
X004233Y020349D01*
X004233Y020291D01*
X004228Y020234D01*
X004218Y020178D01*
X004202Y020123D01*
X004182Y020069D01*
X004157Y020018D01*
X004127Y019969D01*
X004093Y019922D01*
X004055Y019880D01*
X004013Y019840D01*
X003967Y019805D01*
X003919Y019774D01*
X003868Y019748D01*
X003815Y019726D01*
X003760Y019710D01*
X003704Y019698D01*
X003647Y019691D01*
X003590Y019690D01*
X003532Y019694D01*
X003476Y019703D01*
X003420Y019717D01*
X003366Y019737D01*
X003314Y019761D01*
X003264Y019789D01*
X003218Y019822D01*
X003174Y019860D01*
X003134Y019901D01*
X003098Y019945D01*
X003066Y019993D01*
X003038Y020043D01*
X003015Y020096D01*
X002997Y020150D01*
X002984Y020206D01*
X002977Y020263D01*
X002974Y020320D01*
M02*
