<?xml version="1.0" encoding="UTF-8" standalone="no"?>
<!-- Created with Inkscape (http://www.inkscape.org/) -->
<svg
   xmlns:dc="http://purl.org/dc/elements/1.1/"
   xmlns:cc="http://web.resource.org/cc/"
   xmlns:rdf="http://www.w3.org/1999/02/22-rdf-syntax-ns#"
   xmlns:svg="http://www.w3.org/2000/svg"
   xmlns="http://www.w3.org/2000/svg"
   xmlns:sodipodi="http://sodipodi.sourceforge.net/DTD/sodipodi-0.dtd"
   xmlns:inkscape="http://www.inkscape.org/namespaces/inkscape"
   width="744.09448"
   height="1052.3622"
   id="svg2"
   sodipodi:version="0.32"
   inkscape:version="0.45.1"
   sodipodi:docbase="/home/rob/Desktop"
   sodipodi:docname="led-drawing.svg"
   inkscape:output_extension="org.inkscape.output.svg.inkscape"
   version="1.0">
  <defs
     id="defs4" />
  <sodipodi:namedview
     id="base"
     pagecolor="#ffffff"
     bordercolor="#666666"
     borderopacity="1.0"
     gridtolerance="10000"
     guidetolerance="10"
     objecttolerance="10"
     inkscape:pageopacity="0.0"
     inkscape:pageshadow="2"
     inkscape:zoom="0.98994949"
     inkscape:cx="451.53214"
     inkscape:cy="593.16962"
     inkscape:document-units="px"
     inkscape:current-layer="layer1"
     inkscape:window-width="1280"
     inkscape:window-height="951"
     inkscape:window-x="0"
     inkscape:window-y="25"
     width="744.09449px"
     height="1052.3622px" />
  <metadata
     id="metadata7">
    <rdf:RDF>
      <cc:Work
         rdf:about="">
        <dc:format>image/svg+xml</dc:format>
        <dc:type
           rdf:resource="http://purl.org/dc/dcmitype/StillImage" />
      </cc:Work>
    </rdf:RDF>
  </metadata>
  <g
     inkscape:label="Layer 1"
     inkscape:groupmode="layer"
     id="layer1">
    <path
       sodipodi:type="arc"
       style="fill:none;fill-opacity:1;stroke:#000000;stroke-width:2;stroke-miterlimit:4;stroke-dasharray:none;stroke-dashoffset:0;stroke-opacity:1"
       id="path3143"
       sodipodi:cx="230"
       sodipodi:cy="370.93362"
       sodipodi:rx="31.428572"
       sodipodi:ry="32.857143"
       d="M 261.42857 370.93362 A 31.428572 32.857143 0 1 1  198.57143,370.93362 A 31.428572 32.857143 0 1 1  261.42857 370.93362 z"
       transform="matrix(0.560451,0,0,0.560451,118.32235,44.145089)" />
    <path
       sodipodi:type="arc"
       style="fill:none;fill-opacity:1;stroke:#000000;stroke-width:2;stroke-miterlimit:4;stroke-dasharray:none;stroke-dashoffset:0;stroke-opacity:1"
       id="path3145"
       sodipodi:cx="230"
       sodipodi:cy="370.93362"
       sodipodi:rx="31.428572"
       sodipodi:ry="32.857143"
       d="M 261.42857 370.93362 A 31.428572 32.857143 0 1 1  198.57143,370.93362 A 31.428572 32.857143 0 1 1  261.42857 370.93362 z"
       transform="matrix(0.560451,0,0,0.560451,117.52171,90.58245)" />
    <path
       sodipodi:type="arc"
       style="fill:none;fill-opacity:1;stroke:#000000;stroke-width:2;stroke-miterlimit:4;stroke-dasharray:none;stroke-dashoffset:0;stroke-opacity:1"
       id="path3147"
       sodipodi:cx="230"
       sodipodi:cy="370.93362"
       sodipodi:rx="31.428572"
       sodipodi:ry="32.857143"
       d="M 261.42857 370.93362 A 31.428572 32.857143 0 1 1  198.57143,370.93362 A 31.428572 32.857143 0 1 1  261.42857 370.93362 z"
       transform="matrix(0.560451,0,0,0.560451,118.32235,135.41853)" />
    <path
       sodipodi:type="arc"
       style="fill:none;fill-opacity:1;stroke:#000000;stroke-width:2;stroke-miterlimit:4;stroke-dasharray:none;stroke-dashoffset:0;stroke-opacity:1"
       id="path3149"
       sodipodi:cx="230"
       sodipodi:cy="370.93362"
       sodipodi:rx="31.428572"
       sodipodi:ry="32.857143"
       d="M 261.42857 370.93362 A 31.428572 32.857143 0 1 1  198.57143,370.93362 A 31.428572 32.857143 0 1 1  261.42857 370.93362 z"
       transform="matrix(0.560451,0,0,0.560451,117.52171,-2.2922886)" />
    <path
       sodipodi:type="arc"
       style="fill:none;fill-opacity:1;stroke:#000000;stroke-width:2;stroke-miterlimit:4;stroke-dasharray:none;stroke-dashoffset:0;stroke-opacity:1"
       id="path3151"
       sodipodi:cx="230"
       sodipodi:cy="370.93362"
       sodipodi:rx="31.428572"
       sodipodi:ry="32.857143"
       d="M 261.42857 370.93362 A 31.428572 32.857143 0 1 1  198.57143,370.93362 A 31.428572 32.857143 0 1 1  261.42857 370.93362 z"
       transform="matrix(0.560451,0,0,0.560451,117.52171,183.45718)" />
    <path
       sodipodi:type="arc"
       style="fill:none;fill-opacity:1;stroke:#000000;stroke-width:2;stroke-miterlimit:4;stroke-dasharray:none;stroke-dashoffset:0;stroke-opacity:1"
       id="path3153"
       sodipodi:cx="230"
       sodipodi:cy="370.93362"
       sodipodi:rx="31.428572"
       sodipodi:ry="32.857143"
       d="M 261.42857 370.93362 A 31.428572 32.857143 0 1 1  198.57143,370.93362 A 31.428572 32.857143 0 1 1  261.42857 370.93362 z"
       transform="matrix(0.560451,0,0,0.560451,116.72106,229.09391)" />
    <path
       sodipodi:type="arc"
       style="fill:none;fill-opacity:1;stroke:#000000;stroke-width:2;stroke-miterlimit:4;stroke-dasharray:none;stroke-dashoffset:0;stroke-opacity:1"
       id="path3155"
       sodipodi:cx="230"
       sodipodi:cy="370.93362"
       sodipodi:rx="31.428572"
       sodipodi:ry="32.857143"
       d="M 261.42857 370.93362 A 31.428572 32.857143 0 1 1  198.57143,370.93362 A 31.428572 32.857143 0 1 1  261.42857 370.93362 z"
       transform="matrix(0.560451,0,0,0.560451,117.52171,275.53128)" />
    <path
       style="fill:none;fill-rule:evenodd;stroke:#000000;stroke-width:0.56045097px;stroke-linecap:butt;stroke-linejoin:miter;stroke-opacity:1"
       d="M 212.79838,159.96111 L 213.59902,517.04846 L 536.25867,517.04846"
       id="path3157" />
    <path
       style="fill:none;fill-rule:evenodd;stroke:#000000;stroke-width:0.56045097px;stroke-linecap:butt;stroke-linejoin:miter;stroke-opacity:1"
       d="M 356.1137,309.68159 L 355.31306,501.03558 L 416.16202,558.68196 L 518.64449,557.88132 L 578.69281,500.23493 L 577.09153,308.0803 L 356.1137,309.68159 z "
       id="path3159" />
    <path
       sodipodi:type="arc"
       style="fill:#000000;fill-opacity:1;stroke:#000000;stroke-width:2;stroke-miterlimit:4;stroke-dasharray:none;stroke-dashoffset:0;stroke-opacity:1"
       id="path3179"
       sodipodi:cx="257.5889"
       sodipodi:cy="288.68686"
       sodipodi:rx="8.0812206"
       sodipodi:ry="10.101525"
       d="M 265.67012 288.68686 A 8.0812206 10.101525 0 1 1  249.50768,288.68686 A 8.0812206 10.101525 0 1 1  265.67012 288.68686 z"
       transform="matrix(0.560451,0,0,0.560451,118.32235,44.145089)" />
    <path
       sodipodi:type="arc"
       style="fill:#000000;fill-opacity:1;stroke:#000000;stroke-width:2;stroke-miterlimit:4;stroke-dasharray:none;stroke-dashoffset:0;stroke-opacity:1"
       id="path3181"
       sodipodi:cx="257.5889"
       sodipodi:cy="288.68686"
       sodipodi:rx="8.0812206"
       sodipodi:ry="10.101525"
       d="M 265.67012 288.68686 A 8.0812206 10.101525 0 1 1  249.50768,288.68686 A 8.0812206 10.101525 0 1 1  265.67012 288.68686 z"
       transform="matrix(0.560451,0,0,0.560451,120.02077,90.002511)" />
    <path
       sodipodi:type="arc"
       style="fill:#000000;fill-opacity:1;stroke:#000000;stroke-width:2;stroke-miterlimit:4;stroke-dasharray:none;stroke-dashoffset:0;stroke-opacity:1"
       id="path3183"
       sodipodi:cx="257.5889"
       sodipodi:cy="288.68686"
       sodipodi:rx="8.0812206"
       sodipodi:ry="10.101525"
       d="M 265.67012 288.68686 A 8.0812206 10.101525 0 1 1  249.50768,288.68686 A 8.0812206 10.101525 0 1 1  265.67012 288.68686 z"
       transform="matrix(0.560451,0,0,0.560451,118.32235,136.99222)" />
    <path
       sodipodi:type="arc"
       style="fill:#000000;fill-opacity:1;stroke:#000000;stroke-width:2;stroke-miterlimit:4;stroke-dasharray:none;stroke-dashoffset:0;stroke-opacity:1"
       id="path3185"
       sodipodi:cx="257.5889"
       sodipodi:cy="288.68686"
       sodipodi:rx="8.0812206"
       sodipodi:ry="10.101525"
       d="M 265.67012 288.68686 A 8.0812206 10.101525 0 1 1  249.50768,288.68686 A 8.0812206 10.101525 0 1 1  265.67012 288.68686 z"
       transform="matrix(0.560451,0,0,0.560451,120.02077,181.71735)" />
    <path
       sodipodi:type="arc"
       style="fill:#000000;fill-opacity:1;stroke:#000000;stroke-width:2;stroke-miterlimit:4;stroke-dasharray:none;stroke-dashoffset:0;stroke-opacity:1"
       id="path3187"
       sodipodi:cx="257.5889"
       sodipodi:cy="288.68686"
       sodipodi:rx="8.0812206"
       sodipodi:ry="10.101525"
       d="M 265.67012 288.68686 A 8.0812206 10.101525 0 1 1  249.50768,288.68686 A 8.0812206 10.101525 0 1 1  265.67012 288.68686 z"
       transform="matrix(0.560451,0,0,0.560451,86.052314,230.40548)" />
    <path
       sodipodi:type="arc"
       style="fill:#000000;fill-opacity:1;stroke:#000000;stroke-width:2;stroke-miterlimit:4;stroke-dasharray:none;stroke-dashoffset:0;stroke-opacity:1"
       id="path3189"
       sodipodi:cx="257.5889"
       sodipodi:cy="288.68686"
       sodipodi:rx="8.0812206"
       sodipodi:ry="10.101525"
       d="M 265.67012 288.68686 A 8.0812206 10.101525 0 1 1  249.50768,288.68686 A 8.0812206 10.101525 0 1 1  265.67012 288.68686 z"
       transform="matrix(0.560451,0,0,0.560451,83.787749,276.82904)" />
    <path
       sodipodi:type="arc"
       style="fill:#000000;fill-opacity:1;stroke:#000000;stroke-width:2;stroke-miterlimit:4;stroke-dasharray:none;stroke-dashoffset:0;stroke-opacity:1"
       id="path3191"
       sodipodi:cx="257.5889"
       sodipodi:cy="288.68686"
       sodipodi:rx="8.0812206"
       sodipodi:ry="10.101525"
       d="M 265.67012 288.68686 A 8.0812206 10.101525 0 1 1  249.50768,288.68686 A 8.0812206 10.101525 0 1 1  265.67012 288.68686 z"
       transform="matrix(0.560451,0,0,0.560451,83.221609,323.81875)" />
    <text
       xml:space="preserve"
       style="font-size:44.58467102px;font-style:normal;font-weight:normal;fill:#000000;fill-opacity:1;stroke:none;stroke-width:1px;stroke-linecap:butt;stroke-linejoin:miter;stroke-opacity:1;font-family:Bitstream Vera Sans"
       x="-527.49023"
       y="-388.564"
       id="text3193"
       transform="scale(-1,-1)"><tspan
         sodipodi:role="line"
         id="tspan3195"
         x="-527.49023"
         y="-388.564">XBee</tspan></text>
    <path
       sodipodi:type="arc"
       style="fill:#000000;fill-opacity:1;stroke:#000000;stroke-width:2;stroke-miterlimit:4;stroke-dasharray:none;stroke-dashoffset:0;stroke-opacity:1"
       id="path3235"
       sodipodi:cx="257.5889"
       sodipodi:cy="288.68686"
       sodipodi:rx="8.0812206"
       sodipodi:ry="10.101525"
       d="M 265.67012 288.68686 A 8.0812206 10.101525 0 1 1  249.50768,288.68686 A 8.0812206 10.101525 0 1 1  265.67012 288.68686 z"
       transform="matrix(0.560451,0,0,0.560451,2.106164,493.57739)" />
    <text
       xml:space="preserve"
       style="font-size:13.38958359px;font-style:normal;font-weight:normal;fill:#000000;fill-opacity:1;stroke:none;stroke-width:1px;stroke-linecap:butt;stroke-linejoin:miter;stroke-opacity:1;font-family:Bitstream Vera Sans"
       x="160.47787"
       y="660.13391"
       id="text3237"><tspan
         sodipodi:role="line"
         id="tspan3239"
         x="160.47787"
         y="660.13391">Indicates the long leg of the LED (anode)</tspan></text>
  </g>
</svg>
