G75*
G70*
%OFA0B0*%
%FSLAX24Y24*%
%IPPOS*%
%LPD*%
%AMOC8*
5,1,8,0,0,1.08239X$1,22.5*
%
%ADD10C,0.0000*%
D10*
X003675Y001917D02*
X003675Y020421D01*
X041470Y020421D01*
X041470Y001917D01*
X003675Y001917D01*
X004856Y003492D02*
X004858Y003546D01*
X004866Y003599D01*
X004878Y003651D01*
X004895Y003703D01*
X004916Y003752D01*
X004942Y003799D01*
X004972Y003844D01*
X005006Y003885D01*
X005044Y003924D01*
X005085Y003959D01*
X005129Y003990D01*
X005175Y004017D01*
X005224Y004039D01*
X005275Y004057D01*
X005327Y004071D01*
X005380Y004079D01*
X005434Y004083D01*
X005487Y004082D01*
X005541Y004076D01*
X005593Y004065D01*
X005645Y004049D01*
X005695Y004029D01*
X005742Y004004D01*
X005788Y003975D01*
X005830Y003942D01*
X005870Y003905D01*
X005905Y003865D01*
X005937Y003822D01*
X005965Y003776D01*
X005989Y003727D01*
X006008Y003677D01*
X006023Y003625D01*
X006032Y003572D01*
X006037Y003519D01*
X006037Y003465D01*
X006032Y003412D01*
X006023Y003359D01*
X006008Y003307D01*
X005989Y003257D01*
X005965Y003208D01*
X005937Y003162D01*
X005905Y003119D01*
X005870Y003079D01*
X005830Y003042D01*
X005788Y003009D01*
X005743Y002980D01*
X005695Y002955D01*
X005645Y002935D01*
X005593Y002919D01*
X005541Y002908D01*
X005487Y002902D01*
X005434Y002901D01*
X005380Y002905D01*
X005327Y002913D01*
X005275Y002927D01*
X005224Y002945D01*
X005175Y002967D01*
X005129Y002994D01*
X005085Y003025D01*
X005044Y003060D01*
X005006Y003099D01*
X004972Y003140D01*
X004942Y003185D01*
X004916Y003232D01*
X004895Y003281D01*
X004878Y003333D01*
X004866Y003385D01*
X004858Y003438D01*
X004856Y003492D01*
X013950Y005223D02*
X013953Y005281D01*
X013961Y005339D01*
X013974Y005396D01*
X013992Y005451D01*
X014015Y005504D01*
X014043Y005556D01*
X014076Y005604D01*
X014112Y005649D01*
X014153Y005691D01*
X014198Y005729D01*
X014245Y005762D01*
X014296Y005791D01*
X014348Y005816D01*
X014403Y005835D01*
X014460Y005850D01*
X014517Y005859D01*
X014575Y005863D01*
X014634Y005862D01*
X014692Y005855D01*
X014749Y005843D01*
X014804Y005826D01*
X014858Y005804D01*
X014910Y005777D01*
X014959Y005746D01*
X015005Y005710D01*
X015048Y005670D01*
X015086Y005627D01*
X015121Y005580D01*
X015151Y005530D01*
X015177Y005478D01*
X015198Y005424D01*
X015213Y005367D01*
X015224Y005310D01*
X015229Y005252D01*
X015229Y005194D01*
X015224Y005136D01*
X015213Y005079D01*
X015198Y005022D01*
X015177Y004968D01*
X015151Y004916D01*
X015121Y004866D01*
X015086Y004819D01*
X015048Y004776D01*
X015005Y004736D01*
X014959Y004700D01*
X014910Y004669D01*
X014858Y004642D01*
X014804Y004620D01*
X014749Y004603D01*
X014692Y004591D01*
X014634Y004584D01*
X014575Y004583D01*
X014517Y004587D01*
X014460Y004596D01*
X014403Y004611D01*
X014348Y004630D01*
X014296Y004655D01*
X014245Y004684D01*
X014198Y004717D01*
X014153Y004755D01*
X014112Y004797D01*
X014076Y004842D01*
X014043Y004890D01*
X014015Y004942D01*
X013992Y004995D01*
X013974Y005050D01*
X013961Y005107D01*
X013953Y005165D01*
X013950Y005223D01*
X016950Y005223D02*
X016953Y005281D01*
X016961Y005339D01*
X016974Y005396D01*
X016992Y005451D01*
X017015Y005504D01*
X017043Y005556D01*
X017076Y005604D01*
X017112Y005649D01*
X017153Y005691D01*
X017198Y005729D01*
X017245Y005762D01*
X017296Y005791D01*
X017348Y005816D01*
X017403Y005835D01*
X017460Y005850D01*
X017517Y005859D01*
X017575Y005863D01*
X017634Y005862D01*
X017692Y005855D01*
X017749Y005843D01*
X017804Y005826D01*
X017858Y005804D01*
X017910Y005777D01*
X017959Y005746D01*
X018005Y005710D01*
X018048Y005670D01*
X018086Y005627D01*
X018121Y005580D01*
X018151Y005530D01*
X018177Y005478D01*
X018198Y005424D01*
X018213Y005367D01*
X018224Y005310D01*
X018229Y005252D01*
X018229Y005194D01*
X018224Y005136D01*
X018213Y005079D01*
X018198Y005022D01*
X018177Y004968D01*
X018151Y004916D01*
X018121Y004866D01*
X018086Y004819D01*
X018048Y004776D01*
X018005Y004736D01*
X017959Y004700D01*
X017910Y004669D01*
X017858Y004642D01*
X017804Y004620D01*
X017749Y004603D01*
X017692Y004591D01*
X017634Y004584D01*
X017575Y004583D01*
X017517Y004587D01*
X017460Y004596D01*
X017403Y004611D01*
X017348Y004630D01*
X017296Y004655D01*
X017245Y004684D01*
X017198Y004717D01*
X017153Y004755D01*
X017112Y004797D01*
X017076Y004842D01*
X017043Y004890D01*
X017015Y004942D01*
X016992Y004995D01*
X016974Y005050D01*
X016961Y005107D01*
X016953Y005165D01*
X016950Y005223D01*
X039304Y003492D02*
X039306Y003546D01*
X039314Y003599D01*
X039326Y003651D01*
X039343Y003703D01*
X039364Y003752D01*
X039390Y003799D01*
X039420Y003844D01*
X039454Y003885D01*
X039492Y003924D01*
X039533Y003959D01*
X039577Y003990D01*
X039623Y004017D01*
X039672Y004039D01*
X039723Y004057D01*
X039775Y004071D01*
X039828Y004079D01*
X039882Y004083D01*
X039935Y004082D01*
X039989Y004076D01*
X040041Y004065D01*
X040093Y004049D01*
X040143Y004029D01*
X040190Y004004D01*
X040236Y003975D01*
X040278Y003942D01*
X040318Y003905D01*
X040353Y003865D01*
X040385Y003822D01*
X040413Y003776D01*
X040437Y003727D01*
X040456Y003677D01*
X040471Y003625D01*
X040480Y003572D01*
X040485Y003519D01*
X040485Y003465D01*
X040480Y003412D01*
X040471Y003359D01*
X040456Y003307D01*
X040437Y003257D01*
X040413Y003208D01*
X040385Y003162D01*
X040353Y003119D01*
X040318Y003079D01*
X040278Y003042D01*
X040236Y003009D01*
X040191Y002980D01*
X040143Y002955D01*
X040093Y002935D01*
X040041Y002919D01*
X039989Y002908D01*
X039935Y002902D01*
X039882Y002901D01*
X039828Y002905D01*
X039775Y002913D01*
X039723Y002927D01*
X039672Y002945D01*
X039623Y002967D01*
X039577Y002994D01*
X039533Y003025D01*
X039492Y003060D01*
X039454Y003099D01*
X039420Y003140D01*
X039390Y003185D01*
X039364Y003232D01*
X039343Y003281D01*
X039326Y003333D01*
X039314Y003385D01*
X039306Y003438D01*
X039304Y003492D01*
X039304Y018650D02*
X039306Y018704D01*
X039314Y018757D01*
X039326Y018809D01*
X039343Y018861D01*
X039364Y018910D01*
X039390Y018957D01*
X039420Y019002D01*
X039454Y019043D01*
X039492Y019082D01*
X039533Y019117D01*
X039577Y019148D01*
X039623Y019175D01*
X039672Y019197D01*
X039723Y019215D01*
X039775Y019229D01*
X039828Y019237D01*
X039882Y019241D01*
X039935Y019240D01*
X039989Y019234D01*
X040041Y019223D01*
X040093Y019207D01*
X040143Y019187D01*
X040190Y019162D01*
X040236Y019133D01*
X040278Y019100D01*
X040318Y019063D01*
X040353Y019023D01*
X040385Y018980D01*
X040413Y018934D01*
X040437Y018885D01*
X040456Y018835D01*
X040471Y018783D01*
X040480Y018730D01*
X040485Y018677D01*
X040485Y018623D01*
X040480Y018570D01*
X040471Y018517D01*
X040456Y018465D01*
X040437Y018415D01*
X040413Y018366D01*
X040385Y018320D01*
X040353Y018277D01*
X040318Y018237D01*
X040278Y018200D01*
X040236Y018167D01*
X040191Y018138D01*
X040143Y018113D01*
X040093Y018093D01*
X040041Y018077D01*
X039989Y018066D01*
X039935Y018060D01*
X039882Y018059D01*
X039828Y018063D01*
X039775Y018071D01*
X039723Y018085D01*
X039672Y018103D01*
X039623Y018125D01*
X039577Y018152D01*
X039533Y018183D01*
X039492Y018218D01*
X039454Y018257D01*
X039420Y018298D01*
X039390Y018343D01*
X039364Y018390D01*
X039343Y018439D01*
X039326Y018491D01*
X039314Y018543D01*
X039306Y018596D01*
X039304Y018650D01*
X004659Y018650D02*
X004661Y018704D01*
X004669Y018757D01*
X004681Y018809D01*
X004698Y018861D01*
X004719Y018910D01*
X004745Y018957D01*
X004775Y019002D01*
X004809Y019043D01*
X004847Y019082D01*
X004888Y019117D01*
X004932Y019148D01*
X004978Y019175D01*
X005027Y019197D01*
X005078Y019215D01*
X005130Y019229D01*
X005183Y019237D01*
X005237Y019241D01*
X005290Y019240D01*
X005344Y019234D01*
X005396Y019223D01*
X005448Y019207D01*
X005498Y019187D01*
X005545Y019162D01*
X005591Y019133D01*
X005633Y019100D01*
X005673Y019063D01*
X005708Y019023D01*
X005740Y018980D01*
X005768Y018934D01*
X005792Y018885D01*
X005811Y018835D01*
X005826Y018783D01*
X005835Y018730D01*
X005840Y018677D01*
X005840Y018623D01*
X005835Y018570D01*
X005826Y018517D01*
X005811Y018465D01*
X005792Y018415D01*
X005768Y018366D01*
X005740Y018320D01*
X005708Y018277D01*
X005673Y018237D01*
X005633Y018200D01*
X005591Y018167D01*
X005546Y018138D01*
X005498Y018113D01*
X005448Y018093D01*
X005396Y018077D01*
X005344Y018066D01*
X005290Y018060D01*
X005237Y018059D01*
X005183Y018063D01*
X005130Y018071D01*
X005078Y018085D01*
X005027Y018103D01*
X004978Y018125D01*
X004932Y018152D01*
X004888Y018183D01*
X004847Y018218D01*
X004809Y018257D01*
X004775Y018298D01*
X004745Y018343D01*
X004719Y018390D01*
X004698Y018439D01*
X004681Y018491D01*
X004669Y018543D01*
X004661Y018596D01*
X004659Y018650D01*
M02*
