%
M48
M72
T01C0.0197
T02C0.0236
T03C0.0280
T04C0.0320
T05C0.0350
T06C0.0400
T07C0.0433
T08C0.0591
%
T01
X10289Y5445
X11793Y5240
X12250Y6406
X11762Y7004
X11762Y7768
X12053Y8099
X12494Y8099
X12423Y8894
X12297Y9335
X11132Y8894
X9746Y7555
X7329Y8295
X5927Y8437
X6210Y6398
X7376Y6051
X13888Y7933
X14092Y8839
X17132Y8571
X19132Y8272
X20053Y8768
X20376Y8469
X21116Y8744
X23014Y8768
X23384Y8469
X23982Y8784
X24470Y8169
X27620Y8177
X29864Y8862
X31266Y8461
X33258Y7272
X34116Y7571
X34415Y8540
X35809Y8894
X36069Y8138
X35769Y7272
X36069Y6894
X38620Y7327
X38565Y7933
X38565Y8894
X34415Y9540
X30462Y11020
X27510Y10059
X25116Y11973
X23722Y11421
X23281Y11421
X23171Y12020
X22344Y12059
X21958Y13555
X24880Y13555
X25266Y13791
X25864Y13540
X23014Y10122
X20486Y9736
X19021Y10516
X19565Y10831
X19454Y11374
X17699Y13020
X15289Y13689
X14699Y13689
X14108Y13689
X11549Y13689
X10958Y13689
X10368Y13689
X9447Y10839
X14801Y10807
X20958Y7603
X19533Y6807
X18195Y6406
X18817Y5358
X20061Y5295
X27675Y6894
X31266Y7106
X32494Y5154
X11793Y16847
X13321Y17725
X13911Y17725
X14502Y17725
X15092Y17725
X15092Y18315
X14502Y18315
X13911Y18315
X13321Y18315
X13321Y18906
X13911Y18906
X14502Y18906
X15092Y18906
X9974Y18807
X9384Y18807
X8793Y18807
X8793Y18217
X9384Y18217
X9974Y18217
X9974Y17626
X9384Y17626
X8793Y17626
X8203Y17626
X8203Y18217
X8203Y18807
X27140Y19004
X27848Y19004
X28478Y19004
X29029Y19004
X29029Y18295
X28478Y18295
X27848Y18295
X27140Y18295
X27140Y17508
X27848Y17508
X28478Y17508
X29029Y17508
X32100Y17587
X32730Y17587
X33360Y17587
X33911Y17587
X33911Y18295
X33360Y18295
X32730Y18295
X32100Y18295
X32100Y19004
X32730Y19004
X33360Y19004
X33911Y19004
T02
X9029Y5067
X6982Y7492
X18305Y13453
X17120Y16717
X20289Y17902
X20683Y17902
X21077Y17902
X30982Y18079
X22258Y7036
X20998Y5382
X29108Y3965
X29895Y3965
X30447Y3965
X31234Y3965
X34147Y5146
T03
X18592Y11929
X17892Y11929
T04
X21496Y10195
X22496Y10195
T05
X16840Y7723
X15840Y7723
X15340Y8723
X16340Y8723
T06
X24547Y9199
X25547Y9199
X26547Y9199
X27547Y9199
T07
X27391Y5571
X26391Y5571
X25391Y5571
X24391Y5571
X24391Y3575
X25391Y3575
X26391Y3575
X27391Y3575
T08
X29777Y16445
X32730Y16445
X22179Y18414
X19226Y18414
X13045Y16445
X10092Y16445
M30
