<?xml version="1.0" encoding="UTF-8" standalone="no"?>
<!-- Created with Inkscape (http://www.inkscape.org/) -->

<svg
   xmlns:dc="http://purl.org/dc/elements/1.1/"
   xmlns:cc="http://creativecommons.org/ns#"
   xmlns:rdf="http://www.w3.org/1999/02/22-rdf-syntax-ns#"
   xmlns:svg="http://www.w3.org/2000/svg"
   xmlns="http://www.w3.org/2000/svg"
   xmlns:sodipodi="http://sodipodi.sourceforge.net/DTD/sodipodi-0.dtd"
   xmlns:inkscape="http://www.inkscape.org/namespaces/inkscape"
   id="svg2"
   version="1.1"
   inkscape:version="0.47 r22583"
   width="852.76501"
   height="300.86499"
   xml:space="preserve"
   sodipodi:docname="bitbox-logo.eps"><metadata
     id="metadata8"><rdf:RDF><cc:Work
         rdf:about=""><dc:format>image/svg+xml</dc:format><dc:type
           rdf:resource="http://purl.org/dc/dcmitype/StillImage" /><dc:title></dc:title></cc:Work></rdf:RDF></metadata><defs
     id="defs6"><inkscape:perspective
       sodipodi:type="inkscape:persp3d"
       inkscape:vp_x="0 : 0.5 : 1"
       inkscape:vp_y="0 : 1000 : 0"
       inkscape:vp_z="1 : 0.5 : 1"
       inkscape:persp3d-origin="0.5 : 0.33333333 : 1"
       id="perspective10" /></defs><sodipodi:namedview
     pagecolor="#ffffff"
     bordercolor="#666666"
     borderopacity="1"
     objecttolerance="10"
     gridtolerance="10"
     guidetolerance="10"
     inkscape:pageopacity="0"
     inkscape:pageshadow="2"
     inkscape:window-width="1680"
     inkscape:window-height="977"
     id="namedview4"
     showgrid="false"
     inkscape:zoom="0.47676768"
     inkscape:cx="940.62295"
     inkscape:cy="108.42299"
     inkscape:window-x="0"
     inkscape:window-y="24"
     inkscape:window-maximized="1"
     inkscape:current-layer="g16" /><g
     id="g12"
     inkscape:groupmode="layer"
     inkscape:label="ink_ext_XXXXXX"
     transform="matrix(1.25,0,0,-1.25,0,300.865)"><g
       id="g14"
       transform="scale(0.1,0.1)"><g
         id="g16"><g
           id="g18"
           clip-path="none"><path
             d="m 6345.94,1652.25 0,333.43 c 0,112.5 -43.82,218.28 -123.39,297.85 -79.56,79.57 -185.34,123.39 -297.84,123.39 l -5503.472,0 c -112.504,0 -218.277,-43.82 -297.843,-123.39 C 43.8242,2203.96 0,2098.18 0,1985.68 L 0,421.289 C 0,308.77 43.8242,202.988 123.391,123.422 202.953,43.8516 308.73,0 421.238,0 L 5924.71,0 c 112.5,0 218.28,43.8516 297.84,123.422 79.57,79.566 123.39,185.348 123.39,261.289 l 0,145.559 -92.32,171.531 -94.17,-171.531 0,-108.981 C 6159.45,291.84 6054.14,186.5 5924.71,186.5 l -5503.472,0 c -129.437,0 -234.746,105.34 -234.746,234.789 l 0,1564.391 c 0,129.44 105.309,234.75 234.746,234.75 l 5503.472,0 c 129.43,0 234.74,-105.31 234.74,-234.75 l 0,-333.43 94.17,-167.24 92.32,167.24"
             style="fill:#1f286d;fill-opacity:1;fill-rule:nonzero;stroke:none"
             id="path24" /><path
             d="m 988.004,1117.15 -53.859,-2.01 0,-393.73 c 24.699,-8.129 56.128,-14.199 101.025,-14.199 148.19,0 220.07,54.801 220.07,192.789 0,142.05 -60.64,225.25 -267.236,217.15 z m 42.666,570.3 c -40.397,0 -69.6,-4.06 -96.525,-12.18 l 0,-367.32 53.859,-2.04 c 186.376,-6.11 246.996,58.84 246.996,194.83 0,125.82 -60.62,186.71 -204.33,186.71 z m 11.24,-1215.669 c -231.265,0 -406.398,28.399 -529.922,83.199 l 0,1270.47 c 114.532,50.75 291.93,83.22 514.202,83.22 437.84,0 630.94,-170.47 630.94,-383.59 0,-174.53 -148.16,-269.91 -262.71,-298.33 l 0,-4.06 c 136.97,-38.56 300.88,-160.33 300.88,-340.952 0,-276.019 -235.76,-409.957 -653.39,-409.957"
             style="fill:#1f286d;fill-opacity:1;fill-rule:nonzero;stroke:none"
             id="path26" /><path
             d="m 1890.63,491.66 0,1045.53 426.62,0 0,-1045.53 -426.62,0 z m 213.3,1133.16 c -121.23,0 -220.03,77.68 -220.03,171.3 0,93.61 98.8,169.33 220.03,169.33 123.49,0 222.29,-75.72 222.29,-169.33 0,-93.62 -98.8,-171.3 -222.29,-171.3"
             style="fill:#1f286d;fill-opacity:1;fill-rule:nonzero;stroke:none"
             id="path28" /><path
             d="m 3029.02,471.781 c -271.69,0 -397.43,153.899 -397.43,347.321 l 0,456.668 -125.74,0 0,257.9 125.74,0 0,228.81 426.6,99.79 0,-328.6 175.17,0 0,-257.9 -175.17,0 0,-423.391 c 0,-83.199 31.46,-114.391 94.33,-114.391 31.44,0 47.14,4.16 80.84,16.641 l 0,-243.359 c -31.43,-16.598 -105.53,-39.489 -204.34,-39.489"
             style="fill:#1f286d;fill-opacity:1;fill-rule:nonzero;stroke:none"
             id="path30" /><path
             d="m 3812,1159.8 -87.54,-2.05 0,-501.301 c 49.39,-18.269 103.28,-26.347 179.6,-26.347 184.14,0 314.38,66.929 314.38,247.558 0,192.82 -114.53,288.17 -406.44,282.14 z m 83.12,602.75 c -67.38,0 -119.04,-8.13 -170.66,-24.35 l 0,-452.6 87.54,-2.02 c 273.99,-6.1 366,79.17 366,247.6 0,154.25 -96.54,231.37 -282.88,231.37 z m 17.91,-1290.769 c -195.32,0 -352.49,28.399 -458.04,79.141 l 0,1278.578 c 94.34,46.7 253.74,79.17 440.13,79.17 372.7,0 556.8,-154.25 556.8,-361.27 0,-190.76 -157.14,-290.19 -287.38,-316.59 l 0,-4.06 c 141.47,-28.41 339.06,-150.19 339.06,-353.16 0,-278.02 -237.99,-401.809 -590.57,-401.809"
             style="fill:#ee2722;fill-opacity:1;fill-rule:nonzero;stroke:none"
             id="path32" /><path
             d="m 5170.54,1538.31 c -214.5,0 -256.85,-219.07 -256.85,-446.98 0,-225.682 47.34,-435.881 256.85,-435.881 217.02,0 256.93,210.199 256.93,435.881 0,227.91 -39.91,446.98 -256.93,446.98 z m 0,-1066.529 c -376.6,0 -558.69,265.489 -558.69,617.329 0,356.26 182.09,619.59 558.69,619.59 379.18,0 558.74,-263.33 558.74,-619.59 0,-351.84 -182.07,-617.329 -558.74,-617.329"
             style="fill:#ee2722;fill-opacity:1;fill-rule:nonzero;stroke:none"
             id="path34" /><path
             d="m 6420.43,1091.63 401.69,-597.739 -304.84,0 -261.35,433.687 0,0 -266.51,-433.687 -304.66,0 416.5,597.739 -0.1,0 -414.78,596.71 303.04,0 264.77,-430.19 0,0 263.09,431.26 303.06,0 -399.91,-597.78 0,0"
             style="fill:#ee2722;fill-opacity:1;fill-rule:nonzero;stroke:none"
             id="path36" /></g></g></g></g></svg>