%
M48
M72
T01C0.0197
T02C0.0236
T03C0.0320
T04C0.0350
T05C0.0400
T06C0.0433
%
T01
X10210Y7049
X11313Y6950
X10958Y7876
X10289Y7994
X9836Y9313
X11372Y10671
X12100Y9962
X13045Y9962
X13045Y9332
X13045Y8702
X13911Y8702
X13911Y9332
X13911Y9962
X14856Y9962
X13911Y10671
X14069Y11222
X15329Y11222
X16352Y12797
X15958Y13348
X14384Y13348
X13281Y13348
X12021Y13348
X10919Y13348
X10132Y13033
X9580Y13348
X9423Y12561
X8478Y13348
X7061Y13348
X6903Y15080
X11785Y11852
X12809Y11222
X9895Y11380
X7691Y10120
X7691Y9647
X7140Y9332
X6431Y9883
X6037Y10198
X6431Y10513
X6037Y9569
X12100Y8702
X13911Y7915
X14856Y8702
X15958Y8545
T02
X10958Y9903
X4699Y13269
X4777Y13899
X17376Y13348
T03
X5219Y13066
X3831Y12811
X2831Y12811
X5219Y12066
T04
X7784Y6457
X8784Y6457
X8284Y7457
X9284Y7457
T05
X5664Y15508
X4664Y15508
X3664Y15508
X2664Y15508
T06
X7922Y15860
X8922Y15860
X9922Y15860
X10922Y15860
X11922Y15860
X12922Y15860
X13922Y15860
X14922Y15860
X14922Y17856
X13922Y17856
X12922Y17856
X11922Y17856
X10922Y17856
X9922Y17856
X8922Y17856
X7922Y17856
X17210Y12337
X17210Y11337
X17210Y10337
X17210Y9337
X19206Y9337
X19206Y10337
X19206Y11337
X19206Y12337
X15302Y6112
X14302Y6112
X13302Y6112
X12302Y6112
X12302Y4116
X13302Y4116
X14302Y4116
X15302Y4116
X4549Y8000
X4549Y9000
X4549Y10000
X4549Y11000
X2553Y11000
X2553Y10000
X2553Y9000
X2553Y8000
M30
