G75*
G70*
%OFA0B0*%
%FSLAX24Y24*%
%IPPOS*%
%LPD*%
%AMOC8*
5,1,8,0,0,1.08239X$1,22.5*
%
%ADD10C,0.0030*%
%ADD11C,0.0039*%
%ADD12C,0.0050*%
%ADD13C,0.0060*%
%ADD14C,0.0040*%
%ADD15C,0.0080*%
%ADD16C,0.0020*%
%ADD17R,0.0350X0.0450*%
%ADD18R,0.0300X0.0450*%
%ADD19R,0.0230X0.0160*%
%ADD20C,0.0160*%
%ADD21R,0.0118X0.0059*%
%ADD22R,0.0118X0.0118*%
D10*
X008361Y002100D02*
X008423Y002038D01*
X008670Y002038D01*
X008732Y002100D01*
X008732Y002224D01*
X008670Y002285D01*
X008670Y002407D02*
X008732Y002468D01*
X008732Y002592D01*
X008670Y002654D01*
X008423Y002654D01*
X008361Y002592D01*
X008361Y002468D01*
X008423Y002407D01*
X008670Y002407D01*
X008423Y002285D02*
X008361Y002224D01*
X008361Y002100D01*
X008361Y002775D02*
X008732Y003022D01*
X008361Y003022D01*
X008485Y003143D02*
X008361Y003267D01*
X008732Y003267D01*
X008732Y003390D02*
X008732Y003143D01*
X008732Y002775D02*
X008361Y002775D01*
X008423Y003512D02*
X008361Y003573D01*
X008361Y003697D01*
X008423Y003758D01*
X008670Y003512D01*
X008732Y003573D01*
X008732Y003697D01*
X008670Y003758D01*
X008423Y003758D01*
X008423Y003512D02*
X008670Y003512D01*
X011985Y004006D02*
X012046Y003944D01*
X012293Y003944D01*
X012355Y004006D01*
X012355Y004129D01*
X012293Y004191D01*
X012293Y004312D02*
X012046Y004312D01*
X011985Y004374D01*
X011985Y004497D01*
X012046Y004559D01*
X012293Y004559D01*
X012355Y004497D01*
X012355Y004374D01*
X012293Y004312D01*
X012046Y004191D02*
X011985Y004129D01*
X011985Y004006D01*
X011985Y004681D02*
X012355Y004927D01*
X011985Y004927D01*
X012108Y005049D02*
X011985Y005172D01*
X012355Y005172D01*
X012355Y005049D02*
X012355Y005296D01*
X012293Y005417D02*
X012355Y005479D01*
X012355Y005602D01*
X012293Y005664D01*
X012231Y005664D01*
X012170Y005602D01*
X012170Y005541D01*
X012170Y005602D02*
X012108Y005664D01*
X012046Y005664D01*
X011985Y005602D01*
X011985Y005479D01*
X012046Y005417D01*
X013040Y005467D02*
X013101Y005405D01*
X013040Y005467D02*
X013040Y005591D01*
X013101Y005652D01*
X013163Y005652D01*
X013410Y005405D01*
X013410Y005652D01*
X013410Y005284D02*
X013410Y005037D01*
X013410Y004916D02*
X013040Y004916D01*
X013163Y005037D02*
X013040Y005161D01*
X013410Y005161D01*
X013410Y004916D02*
X013040Y004669D01*
X013410Y004669D01*
X013348Y004547D02*
X013101Y004547D01*
X013040Y004486D01*
X013040Y004362D01*
X013101Y004301D01*
X013348Y004301D01*
X013410Y004362D01*
X013410Y004486D01*
X013348Y004547D01*
X013348Y004179D02*
X013410Y004117D01*
X013410Y003994D01*
X013348Y003932D01*
X013101Y003932D01*
X013040Y003994D01*
X013040Y004117D01*
X013101Y004179D01*
X012355Y004681D02*
X011985Y004681D01*
X013992Y004626D02*
X014363Y004872D01*
X013992Y004872D01*
X014116Y004994D02*
X013992Y005117D01*
X014363Y005117D01*
X014363Y004994D02*
X014363Y005241D01*
X014363Y005362D02*
X014363Y005609D01*
X014363Y005486D02*
X013992Y005486D01*
X014116Y005362D01*
X015048Y005320D02*
X015418Y005320D01*
X015418Y005197D02*
X015418Y005444D01*
X015171Y005197D02*
X015048Y005320D01*
X015048Y005075D02*
X015418Y005075D01*
X015048Y004828D01*
X015418Y004828D01*
X015356Y004707D02*
X015109Y004707D01*
X015048Y004645D01*
X015048Y004522D01*
X015109Y004460D01*
X015356Y004460D01*
X015418Y004522D01*
X015418Y004645D01*
X015356Y004707D01*
X015356Y004339D02*
X015418Y004277D01*
X015418Y004154D01*
X015356Y004092D01*
X015109Y004092D01*
X015048Y004154D01*
X015048Y004277D01*
X015109Y004339D01*
X014363Y004319D02*
X014301Y004257D01*
X014054Y004257D01*
X013992Y004319D01*
X013992Y004442D01*
X014054Y004504D01*
X014301Y004504D01*
X014363Y004442D01*
X014363Y004319D01*
X014301Y004136D02*
X014363Y004074D01*
X014363Y003951D01*
X014301Y003889D01*
X014054Y003889D01*
X013992Y003951D01*
X013992Y004074D01*
X014054Y004136D01*
X013992Y004626D02*
X014363Y004626D01*
X013759Y008449D02*
X013759Y008819D01*
X013574Y008634D01*
X013821Y008634D01*
X013779Y008722D02*
X013779Y009092D01*
X013656Y008969D01*
X013534Y009031D02*
X013534Y008784D01*
X013473Y008722D01*
X013349Y008722D01*
X013287Y008784D01*
X013287Y009031D01*
X013349Y009092D01*
X013473Y009092D01*
X013534Y009031D01*
X013411Y008845D02*
X013534Y008722D01*
X013656Y008722D02*
X013903Y008722D01*
X014024Y008722D02*
X014271Y008722D01*
X014147Y008722D02*
X014147Y009092D01*
X014024Y008969D01*
X013329Y008819D02*
X013329Y008449D01*
X013206Y008449D02*
X013452Y008449D01*
X013206Y008696D02*
X013329Y008819D01*
X013084Y008757D02*
X013084Y008510D01*
X013022Y008449D01*
X012899Y008449D01*
X012837Y008510D01*
X012837Y008757D01*
X012899Y008819D01*
X013022Y008819D01*
X013084Y008757D01*
X012961Y008572D02*
X013084Y008449D01*
X013096Y009618D02*
X013034Y009680D01*
X013034Y009927D01*
X013096Y009988D01*
X013219Y009988D01*
X013281Y009927D01*
X013281Y009680D01*
X013219Y009618D01*
X013096Y009618D01*
X013157Y009741D02*
X013281Y009618D01*
X013402Y009680D02*
X013464Y009618D01*
X013588Y009618D01*
X013649Y009680D01*
X013649Y009927D01*
X013588Y009988D01*
X013464Y009988D01*
X013402Y009927D01*
X013402Y009865D01*
X013464Y009803D01*
X013649Y009803D01*
X013605Y010092D02*
X013482Y010215D01*
X013543Y010092D02*
X013420Y010092D01*
X013358Y010154D01*
X013358Y010401D01*
X013420Y010462D01*
X013543Y010462D01*
X013605Y010401D01*
X013605Y010154D01*
X013543Y010092D01*
X013727Y010092D02*
X013973Y010092D01*
X013850Y010092D02*
X013850Y010462D01*
X013727Y010339D01*
X014095Y010277D02*
X014095Y010154D01*
X014157Y010092D01*
X014280Y010092D01*
X014342Y010154D01*
X014342Y010215D01*
X014280Y010277D01*
X014095Y010277D01*
X014218Y010401D01*
X014342Y010462D01*
X017535Y011109D02*
X017597Y011048D01*
X017720Y011048D01*
X017782Y011109D01*
X017903Y011109D02*
X017965Y011048D01*
X018089Y011048D01*
X018150Y011109D01*
X018150Y011356D01*
X018089Y011418D01*
X017965Y011418D01*
X017903Y011356D01*
X017903Y011109D01*
X017782Y011356D02*
X017720Y011418D01*
X017597Y011418D01*
X017535Y011356D01*
X017535Y011109D01*
X018272Y011048D02*
X018272Y011418D01*
X018519Y011048D01*
X018519Y011418D01*
X018640Y011295D02*
X018764Y011418D01*
X018764Y011048D01*
X018887Y011048D02*
X018640Y011048D01*
X019008Y011109D02*
X019070Y011048D01*
X019194Y011048D01*
X019255Y011109D01*
X019255Y011356D01*
X019194Y011418D01*
X019070Y011418D01*
X019008Y011356D01*
X019008Y011295D01*
X019070Y011233D01*
X019255Y011233D01*
X019233Y012028D02*
X019109Y012028D01*
X019048Y012090D01*
X019048Y012151D01*
X019109Y012213D01*
X019233Y012213D01*
X019295Y012151D01*
X019295Y012090D01*
X019233Y012028D01*
X019233Y012213D02*
X019295Y012275D01*
X019295Y012337D01*
X019233Y012398D01*
X019109Y012398D01*
X019048Y012337D01*
X019048Y012275D01*
X019109Y012213D01*
X018926Y012028D02*
X018679Y012028D01*
X018558Y012028D02*
X018558Y012398D01*
X018679Y012275D02*
X018803Y012398D01*
X018803Y012028D01*
X018558Y012028D02*
X018311Y012398D01*
X018311Y012028D01*
X018190Y012090D02*
X018190Y012337D01*
X018128Y012398D01*
X018005Y012398D01*
X017943Y012337D01*
X017943Y012090D01*
X018005Y012028D01*
X018128Y012028D01*
X018190Y012090D01*
X017821Y012090D02*
X017760Y012028D01*
X017636Y012028D01*
X017575Y012090D01*
X017575Y012337D01*
X017636Y012398D01*
X017760Y012398D01*
X017821Y012337D01*
X017807Y010410D02*
X017683Y010410D01*
X017622Y010348D01*
X017622Y010102D01*
X017683Y010040D01*
X017807Y010040D01*
X017869Y010102D01*
X017990Y010102D02*
X017990Y010348D01*
X018052Y010410D01*
X018175Y010410D01*
X018237Y010348D01*
X018237Y010102D01*
X018175Y010040D01*
X018052Y010040D01*
X017990Y010102D01*
X017869Y010348D02*
X017807Y010410D01*
X018358Y010410D02*
X018358Y010040D01*
X018605Y010040D02*
X018605Y010410D01*
X018727Y010348D02*
X018788Y010410D01*
X018912Y010410D01*
X018974Y010348D01*
X018974Y010287D01*
X018727Y010040D01*
X018974Y010040D01*
X019095Y010102D02*
X019342Y010348D01*
X019342Y010102D01*
X019280Y010040D01*
X019157Y010040D01*
X019095Y010102D01*
X019095Y010348D01*
X019157Y010410D01*
X019280Y010410D01*
X019342Y010348D01*
X018605Y010040D02*
X018358Y010410D01*
X018335Y009410D02*
X018582Y009040D01*
X018582Y009410D01*
X018703Y009348D02*
X018765Y009410D01*
X018888Y009410D01*
X018950Y009348D01*
X018950Y009287D01*
X018703Y009040D01*
X018950Y009040D01*
X019071Y009040D02*
X019318Y009040D01*
X019195Y009040D02*
X019195Y009410D01*
X019071Y009287D01*
X018335Y009410D02*
X018335Y009040D01*
X018213Y009102D02*
X018213Y009348D01*
X018152Y009410D01*
X018028Y009410D01*
X017966Y009348D01*
X017966Y009102D01*
X018028Y009040D01*
X018152Y009040D01*
X018213Y009102D01*
X017845Y009102D02*
X017783Y009040D01*
X017660Y009040D01*
X017598Y009102D01*
X017598Y009348D01*
X017660Y009410D01*
X017783Y009410D01*
X017845Y009348D01*
X010580Y010676D02*
X010580Y010799D01*
X010519Y010861D01*
X010580Y010983D02*
X010334Y011229D01*
X010272Y011229D01*
X010210Y011168D01*
X010210Y011044D01*
X010272Y010983D01*
X010272Y010861D02*
X010210Y010799D01*
X010210Y010676D01*
X010272Y010614D01*
X010519Y010614D01*
X010580Y010676D01*
X010580Y010983D02*
X010580Y011229D01*
X004306Y011396D02*
X004060Y011149D01*
X004060Y011087D01*
X003938Y011087D02*
X003691Y011087D01*
X003570Y011087D02*
X003570Y011457D01*
X003691Y011334D02*
X003815Y011457D01*
X003815Y011087D01*
X003570Y011087D02*
X003323Y011457D01*
X003323Y011087D01*
X003201Y011149D02*
X003201Y011396D01*
X003140Y011457D01*
X003016Y011457D01*
X002955Y011396D01*
X002955Y011149D01*
X003016Y011087D01*
X003140Y011087D01*
X003201Y011149D01*
X002833Y011149D02*
X002771Y011087D01*
X002648Y011087D01*
X002586Y011149D01*
X002586Y011396D01*
X002648Y011457D01*
X002771Y011457D01*
X002833Y011396D01*
X004060Y011457D02*
X004306Y011457D01*
X004306Y011396D01*
X004255Y010294D02*
X004131Y010233D01*
X004008Y010109D01*
X004193Y010109D01*
X004255Y010047D01*
X004255Y009986D01*
X004193Y009924D01*
X004070Y009924D01*
X004008Y009986D01*
X004008Y010109D01*
X003886Y009924D02*
X003640Y009924D01*
X003518Y009924D02*
X003518Y010294D01*
X003640Y010171D02*
X003763Y010294D01*
X003763Y009924D01*
X003518Y009924D02*
X003271Y010294D01*
X003271Y009924D01*
X003150Y009986D02*
X003150Y010233D01*
X003088Y010294D01*
X002965Y010294D01*
X002903Y010233D01*
X002903Y009986D01*
X002965Y009924D01*
X003088Y009924D01*
X003150Y009986D01*
X002782Y009986D02*
X002720Y009924D01*
X002596Y009924D01*
X002535Y009986D01*
X002535Y010233D01*
X002596Y010294D01*
X002720Y010294D01*
X002782Y010233D01*
X002902Y009338D02*
X002840Y009276D01*
X002840Y009029D01*
X002902Y008967D01*
X003025Y008967D01*
X003087Y009029D01*
X003087Y009276D01*
X003025Y009338D01*
X002902Y009338D01*
X002719Y009276D02*
X002657Y009338D01*
X002533Y009338D01*
X002472Y009276D01*
X002472Y009029D01*
X002533Y008967D01*
X002657Y008967D01*
X002719Y009029D01*
X003208Y008967D02*
X003208Y009338D01*
X003455Y008967D01*
X003455Y009338D01*
X003577Y009214D02*
X003700Y009338D01*
X003700Y008967D01*
X003577Y008967D02*
X003824Y008967D01*
X003945Y009029D02*
X004007Y008967D01*
X004130Y008967D01*
X004192Y009029D01*
X004192Y009152D01*
X004130Y009214D01*
X004068Y009214D01*
X003945Y009152D01*
X003945Y009338D01*
X004192Y009338D01*
X004205Y008279D02*
X004020Y008093D01*
X004267Y008093D01*
X004205Y007908D02*
X004205Y008279D01*
X003775Y008279D02*
X003775Y007908D01*
X003898Y007908D02*
X003651Y007908D01*
X003530Y007908D02*
X003530Y008279D01*
X003651Y008155D02*
X003775Y008279D01*
X003530Y007908D02*
X003283Y008279D01*
X003283Y007908D01*
X003162Y007970D02*
X003162Y008217D01*
X003100Y008279D01*
X002977Y008279D01*
X002915Y008217D01*
X002915Y007970D01*
X002977Y007908D01*
X003100Y007908D01*
X003162Y007970D01*
X002793Y007970D02*
X002732Y007908D01*
X002608Y007908D01*
X002547Y007970D01*
X002547Y008217D01*
X002608Y008279D01*
X002732Y008279D01*
X002793Y008217D01*
X007860Y016287D02*
X008106Y016287D01*
X008168Y016349D01*
X008168Y016472D01*
X008106Y016534D01*
X008106Y016655D02*
X008168Y016717D01*
X008168Y016840D01*
X008106Y016902D01*
X007860Y016902D01*
X007798Y016840D01*
X007798Y016717D01*
X007860Y016655D01*
X008106Y016655D01*
X007860Y016534D02*
X007798Y016472D01*
X007798Y016349D01*
X007860Y016287D01*
X007798Y017024D02*
X008168Y017270D01*
X007798Y017270D01*
X007860Y017392D02*
X007798Y017454D01*
X007798Y017577D01*
X007860Y017639D01*
X007921Y017639D01*
X008168Y017392D01*
X008168Y017639D01*
X008168Y017024D02*
X007798Y017024D01*
X008888Y017055D02*
X009259Y017302D01*
X008888Y017302D01*
X008950Y017423D02*
X008888Y017485D01*
X008888Y017609D01*
X008950Y017670D01*
X009012Y017670D01*
X009074Y017609D01*
X009135Y017670D01*
X009197Y017670D01*
X009259Y017609D01*
X009259Y017485D01*
X009197Y017423D01*
X009074Y017547D02*
X009074Y017609D01*
X009259Y017055D02*
X008888Y017055D01*
X008950Y016934D02*
X008888Y016872D01*
X008888Y016748D01*
X008950Y016687D01*
X009197Y016687D01*
X009259Y016748D01*
X009259Y016872D01*
X009197Y016934D01*
X008950Y016934D01*
X008950Y016565D02*
X008888Y016504D01*
X008888Y016380D01*
X008950Y016318D01*
X009197Y016318D01*
X009259Y016380D01*
X009259Y016504D01*
X009197Y016565D01*
X009821Y016519D02*
X009821Y016396D01*
X009883Y016334D01*
X010130Y016334D01*
X010192Y016396D01*
X010192Y016519D01*
X010130Y016581D01*
X010130Y016703D02*
X010192Y016764D01*
X010192Y016888D01*
X010130Y016949D01*
X009883Y016949D01*
X009821Y016888D01*
X009821Y016764D01*
X009883Y016703D01*
X010130Y016703D01*
X009883Y016581D02*
X009821Y016519D01*
X009821Y017071D02*
X010192Y017318D01*
X009821Y017318D01*
X010007Y017439D02*
X010007Y017686D01*
X010192Y017624D02*
X009821Y017624D01*
X010007Y017439D01*
X010192Y017071D02*
X009821Y017071D01*
X010829Y017091D02*
X011200Y017337D01*
X010829Y017337D01*
X010829Y017459D02*
X011014Y017459D01*
X010953Y017582D01*
X010953Y017644D01*
X011014Y017706D01*
X011138Y017706D01*
X011200Y017644D01*
X011200Y017521D01*
X011138Y017459D01*
X010829Y017459D02*
X010829Y017706D01*
X010829Y017091D02*
X011200Y017091D01*
X011138Y016969D02*
X010891Y016969D01*
X010829Y016907D01*
X010829Y016784D01*
X010891Y016722D01*
X011138Y016722D01*
X011200Y016784D01*
X011200Y016907D01*
X011138Y016969D01*
X011138Y016601D02*
X011200Y016539D01*
X011200Y016416D01*
X011138Y016354D01*
X010891Y016354D01*
X010829Y016416D01*
X010829Y016539D01*
X010891Y016601D01*
X011825Y016569D02*
X011887Y016507D01*
X012134Y016507D01*
X012196Y016569D01*
X012196Y016693D01*
X012134Y016754D01*
X012134Y016876D02*
X012196Y016937D01*
X012196Y017061D01*
X012134Y017123D01*
X011887Y017123D01*
X011825Y017061D01*
X011825Y016937D01*
X011887Y016876D01*
X012134Y016876D01*
X011887Y016754D02*
X011825Y016693D01*
X011825Y016569D01*
X011825Y017244D02*
X012196Y017491D01*
X011825Y017491D01*
X012011Y017612D02*
X011887Y017736D01*
X011825Y017859D01*
X012011Y017798D02*
X012011Y017612D01*
X012134Y017612D01*
X012196Y017674D01*
X012196Y017798D01*
X012134Y017859D01*
X012072Y017859D01*
X012011Y017798D01*
X012853Y017788D02*
X012853Y017541D01*
X012853Y017420D02*
X013223Y017420D01*
X012853Y017173D01*
X013223Y017173D01*
X013162Y017052D02*
X012915Y017052D01*
X012853Y016990D01*
X012853Y016867D01*
X012915Y016805D01*
X013162Y016805D01*
X013223Y016867D01*
X013223Y016990D01*
X013162Y017052D01*
X013162Y016683D02*
X013223Y016622D01*
X013223Y016498D01*
X013162Y016437D01*
X012915Y016437D01*
X012853Y016498D01*
X012853Y016622D01*
X012915Y016683D01*
X012196Y017244D02*
X011825Y017244D01*
X012853Y017788D02*
X012915Y017788D01*
X013162Y017541D01*
X013223Y017541D01*
X013865Y017576D02*
X013865Y017699D01*
X013926Y017761D01*
X013988Y017761D01*
X014050Y017699D01*
X014050Y017576D01*
X013988Y017514D01*
X013926Y017514D01*
X013865Y017576D01*
X013865Y017392D02*
X014235Y017392D01*
X013865Y017146D01*
X014235Y017146D01*
X014173Y017024D02*
X013926Y017024D01*
X013865Y016962D01*
X013865Y016839D01*
X013926Y016777D01*
X014173Y016777D01*
X014235Y016839D01*
X014235Y016962D01*
X014173Y017024D01*
X014173Y016656D02*
X014235Y016594D01*
X014235Y016471D01*
X014173Y016409D01*
X013926Y016409D01*
X013865Y016471D01*
X013865Y016594D01*
X013926Y016656D01*
X014920Y016729D02*
X014982Y016667D01*
X015229Y016667D01*
X015290Y016729D01*
X015290Y016852D01*
X015229Y016914D01*
X014982Y016914D01*
X014920Y016852D01*
X014920Y016729D01*
X014982Y016546D02*
X014920Y016484D01*
X014920Y016360D01*
X014982Y016299D01*
X015229Y016299D01*
X015290Y016360D01*
X015290Y016484D01*
X015229Y016546D01*
X015290Y017035D02*
X014920Y017035D01*
X015290Y017282D01*
X014920Y017282D01*
X014982Y017404D02*
X015043Y017404D01*
X015105Y017465D01*
X015105Y017651D01*
X014982Y017651D02*
X014920Y017589D01*
X014920Y017465D01*
X014982Y017404D01*
X015229Y017404D02*
X015290Y017465D01*
X015290Y017589D01*
X015229Y017651D01*
X014982Y017651D01*
X014235Y017699D02*
X014235Y017576D01*
X014173Y017514D01*
X014112Y017514D01*
X014050Y017576D01*
X014050Y017699D02*
X014112Y017761D01*
X014173Y017761D01*
X014235Y017699D01*
D11*
X014567Y019718D02*
X013567Y019718D01*
X013567Y014757D01*
X014567Y014757D01*
X014567Y019718D01*
X015567Y019718D01*
X015567Y014757D01*
X014567Y014757D01*
X014567Y019718D01*
X013567Y019718D02*
X013567Y014757D01*
X012567Y014757D01*
X012567Y019718D01*
X013567Y019718D01*
X012567Y019718D02*
X012567Y014757D01*
X011567Y014757D01*
X011567Y019718D01*
X012567Y019718D01*
X011567Y019718D02*
X011567Y014757D01*
X010567Y014757D01*
X010567Y019718D01*
X011567Y019718D01*
X010567Y019718D02*
X010567Y014757D01*
X009567Y014757D01*
X009567Y019718D01*
X010567Y019718D01*
X009567Y019718D02*
X009567Y014757D01*
X008567Y014757D01*
X008567Y019718D01*
X009567Y019718D01*
X008567Y019718D02*
X008567Y014757D01*
X007567Y014757D01*
X007567Y019718D01*
X008567Y019718D01*
X016108Y012692D02*
X021068Y012692D01*
X021068Y011692D01*
X021068Y010692D01*
X021068Y009692D01*
X021068Y008692D01*
X016108Y008692D01*
X016108Y009692D01*
X021068Y009692D01*
X016108Y009692D01*
X016108Y010692D01*
X021068Y010692D01*
X016108Y010692D01*
X016108Y011692D01*
X021068Y011692D01*
X016108Y011692D01*
X016108Y012692D01*
X015657Y007214D02*
X014657Y007214D01*
X014657Y002254D01*
X013657Y002254D01*
X012657Y002254D01*
X011657Y002254D01*
X011657Y007214D01*
X012657Y007214D01*
X012657Y002254D01*
X012657Y007214D01*
X013657Y007214D01*
X013657Y002254D01*
X013657Y007214D01*
X014657Y007214D01*
X014657Y002254D01*
X015657Y002254D01*
X015657Y007214D01*
X005652Y007646D02*
X000691Y007646D01*
X000691Y008646D01*
X000691Y009646D01*
X000691Y010646D01*
X000691Y011646D01*
X005652Y011646D01*
X005652Y010646D01*
X000691Y010646D01*
X005652Y010646D01*
X005652Y009646D01*
X000691Y009646D01*
X005652Y009646D01*
X005652Y008646D01*
X000691Y008646D01*
X005652Y008646D01*
X005652Y007646D01*
D12*
X001399Y008150D02*
X001099Y007850D01*
X000899Y007850D02*
X000699Y007650D01*
X000899Y007850D02*
X000899Y008440D01*
X000699Y008640D01*
X000699Y008650D02*
X000899Y008850D01*
X000899Y009440D01*
X000699Y009640D01*
X000699Y009650D02*
X000899Y009850D01*
X000899Y010440D01*
X000699Y010640D01*
X000699Y010650D02*
X000899Y010850D01*
X000899Y011440D01*
X000699Y011640D01*
X001099Y011450D02*
X001399Y011150D01*
X001099Y010850D01*
X001399Y011150D02*
X000249Y011150D01*
X001099Y010450D02*
X001399Y010150D01*
X001099Y009850D01*
X001399Y010150D02*
X000249Y010150D01*
X001099Y009450D02*
X001399Y009150D01*
X001099Y008850D01*
X001399Y009150D02*
X000249Y009150D01*
X001099Y008450D02*
X001399Y008150D01*
X000249Y008150D01*
X011852Y002662D02*
X012152Y002962D01*
X012452Y002662D01*
X012452Y002462D02*
X011862Y002462D01*
X011662Y002262D01*
X012452Y002462D02*
X012652Y002262D01*
X012662Y002262D02*
X012862Y002462D01*
X013452Y002462D01*
X013652Y002262D01*
X013662Y002262D02*
X013862Y002462D01*
X014452Y002462D01*
X014652Y002262D01*
X014662Y002262D02*
X014862Y002462D01*
X015452Y002462D01*
X015652Y002262D01*
X015452Y002662D02*
X015152Y002962D01*
X014852Y002662D01*
X015152Y002962D02*
X015152Y001812D01*
X014152Y001812D02*
X014152Y002962D01*
X014452Y002662D01*
X014152Y002962D02*
X013852Y002662D01*
X013452Y002662D02*
X013152Y002962D01*
X012852Y002662D01*
X013152Y002962D02*
X013152Y001812D01*
X012152Y001812D02*
X012152Y002962D01*
X020860Y008897D02*
X021060Y008697D01*
X020860Y008897D02*
X020860Y009487D01*
X021060Y009687D01*
X021060Y009697D02*
X020860Y009897D01*
X020860Y010487D01*
X021060Y010687D01*
X021060Y010697D02*
X020860Y010897D01*
X020860Y011487D01*
X021060Y011687D01*
X021060Y011697D02*
X020860Y011897D01*
X020860Y012487D01*
X021060Y012687D01*
X020660Y012487D02*
X020360Y012187D01*
X020660Y011887D01*
X020360Y012187D02*
X021510Y012187D01*
X020660Y011487D02*
X020360Y011187D01*
X020660Y010887D01*
X020360Y011187D02*
X021510Y011187D01*
X020660Y010487D02*
X020360Y010187D01*
X020660Y009887D01*
X020360Y010187D02*
X021510Y010187D01*
X020660Y009487D02*
X020360Y009187D01*
X020660Y008887D01*
X020360Y009187D02*
X021510Y009187D01*
X015072Y019010D02*
X014772Y019310D01*
X014772Y019510D02*
X015362Y019510D01*
X015562Y019710D01*
X015372Y019310D02*
X015072Y019010D01*
X015072Y020160D01*
X014572Y019710D02*
X014772Y019510D01*
X014562Y019710D02*
X014362Y019510D01*
X013772Y019510D01*
X013572Y019710D01*
X013562Y019710D02*
X013362Y019510D01*
X012772Y019510D01*
X012572Y019710D01*
X012562Y019710D02*
X012362Y019510D01*
X011772Y019510D01*
X011572Y019710D01*
X011562Y019710D02*
X011362Y019510D01*
X010772Y019510D01*
X010572Y019710D01*
X010562Y019710D02*
X010362Y019510D01*
X009772Y019510D01*
X009572Y019710D01*
X009562Y019710D02*
X009362Y019510D01*
X008772Y019510D01*
X008572Y019710D01*
X008562Y019710D02*
X008362Y019510D01*
X007772Y019510D01*
X007572Y019710D01*
X007772Y019310D02*
X008072Y019010D01*
X008372Y019310D01*
X008772Y019310D02*
X009072Y019010D01*
X009372Y019310D01*
X009072Y019010D02*
X009072Y020160D01*
X010072Y020160D02*
X010072Y019010D01*
X009772Y019310D01*
X010072Y019010D02*
X010372Y019310D01*
X010772Y019310D02*
X011072Y019010D01*
X011372Y019310D01*
X011772Y019310D02*
X012072Y019010D01*
X012372Y019310D01*
X012772Y019310D02*
X013072Y019010D01*
X013372Y019310D01*
X013772Y019310D02*
X014072Y019010D01*
X014372Y019310D01*
X014072Y019010D02*
X014072Y020160D01*
X013072Y020160D02*
X013072Y019010D01*
X012072Y019010D02*
X012072Y020160D01*
X011072Y020160D02*
X011072Y019010D01*
X008072Y019010D02*
X008072Y020160D01*
D13*
X005914Y016008D02*
X005414Y016008D01*
X005164Y015758D01*
X005164Y015258D01*
X005414Y015008D01*
X005914Y015008D01*
X006164Y015258D01*
X006164Y015758D01*
X005914Y016008D01*
X005164Y015758D02*
X004914Y016008D01*
X004414Y016008D01*
X004164Y015758D01*
X004164Y015258D01*
X003914Y015008D01*
X003414Y015008D01*
X003164Y015258D01*
X002914Y015008D01*
X002414Y015008D01*
X002164Y015258D01*
X002164Y015758D01*
X002414Y016008D01*
X002914Y016008D01*
X003164Y015758D01*
X003414Y016008D01*
X003914Y016008D01*
X004164Y015758D01*
X004164Y015258D02*
X004414Y015008D01*
X004914Y015008D01*
X005164Y015258D01*
X003164Y015258D02*
X003164Y015758D01*
X002531Y013711D02*
X003981Y013711D01*
X004281Y013411D01*
X004281Y012211D01*
X003981Y011911D01*
X002531Y011911D01*
X002508Y011913D01*
X002485Y011918D01*
X002463Y011927D01*
X002443Y011940D01*
X002425Y011955D01*
X002410Y011973D01*
X002397Y011993D01*
X002388Y012015D01*
X002383Y012038D01*
X002381Y012061D01*
X002381Y013561D01*
X002383Y013584D01*
X002388Y013607D01*
X002397Y013629D01*
X002410Y013649D01*
X002425Y013667D01*
X002443Y013682D01*
X002463Y013695D01*
X002485Y013704D01*
X002508Y013709D01*
X002531Y013711D01*
X003901Y012271D02*
X004161Y012271D01*
X004031Y012151D02*
X004031Y012401D01*
X005869Y012216D02*
X006019Y012216D01*
X006019Y012916D01*
X006019Y012966D01*
X008169Y012966D01*
X008189Y012964D01*
X008207Y012958D01*
X008225Y012949D01*
X008240Y012937D01*
X008252Y012922D01*
X008261Y012904D01*
X008267Y012886D01*
X008269Y012866D01*
X008269Y012266D01*
X008267Y012246D01*
X008261Y012228D01*
X008252Y012210D01*
X008240Y012195D01*
X008225Y012183D01*
X008207Y012174D01*
X008189Y012168D01*
X008169Y012166D01*
X006019Y012166D01*
X006019Y012216D01*
X005869Y012216D02*
X005869Y012916D01*
X006019Y012916D01*
X006669Y012566D02*
X006869Y012566D01*
X006869Y012366D01*
X007019Y012366D02*
X007169Y012366D01*
X007169Y012766D01*
X007019Y012766D01*
X007019Y012366D01*
X006869Y012566D02*
X006869Y012766D01*
X007319Y012766D02*
X007319Y012566D01*
X007319Y012366D01*
X007319Y012566D02*
X007519Y012566D01*
D14*
X007608Y012112D02*
X007608Y011652D01*
X007532Y011640D02*
X007685Y011640D01*
X007762Y011563D01*
X007762Y011486D01*
X007455Y011179D01*
X007762Y011179D01*
X007685Y011167D02*
X007532Y011167D01*
X007455Y011091D01*
X007301Y011091D02*
X007301Y010937D01*
X007225Y010860D01*
X006995Y010860D01*
X007148Y010860D02*
X007301Y010707D01*
X007225Y010695D02*
X007301Y010618D01*
X007301Y010465D01*
X007225Y010388D01*
X006995Y010388D01*
X007148Y010388D02*
X007301Y010235D01*
X007225Y010222D02*
X007301Y010146D01*
X007301Y009992D01*
X007225Y009916D01*
X006995Y009916D01*
X007148Y009916D02*
X007301Y009762D01*
X007225Y009750D02*
X007301Y009673D01*
X007301Y009520D01*
X007225Y009443D01*
X006995Y009443D01*
X007148Y009443D02*
X007301Y009290D01*
X007225Y009278D02*
X007301Y009201D01*
X007301Y009047D01*
X007225Y008971D01*
X006995Y008971D01*
X007148Y008971D02*
X007301Y008817D01*
X007225Y008805D02*
X007301Y008728D01*
X007301Y008575D01*
X007225Y008498D01*
X006995Y008498D01*
X007148Y008498D02*
X007301Y008345D01*
X007225Y008333D02*
X007301Y008256D01*
X007301Y008103D01*
X007225Y008026D01*
X006995Y008026D01*
X007148Y008026D02*
X007301Y007872D01*
X007455Y007872D02*
X007762Y008179D01*
X007762Y008256D01*
X007685Y008333D01*
X007532Y008333D01*
X007455Y008256D01*
X007455Y008345D02*
X007762Y008652D01*
X007762Y008728D01*
X007685Y008805D01*
X007532Y008805D01*
X007455Y008728D01*
X007455Y008817D02*
X007762Y009124D01*
X007762Y009201D01*
X007685Y009278D01*
X007532Y009278D01*
X007455Y009201D01*
X007455Y009290D02*
X007762Y009597D01*
X007762Y009673D01*
X007685Y009750D01*
X007532Y009750D01*
X007455Y009673D01*
X007455Y009762D02*
X007762Y010069D01*
X007762Y010146D01*
X007685Y010222D01*
X007532Y010222D01*
X007455Y010146D01*
X007455Y010235D02*
X007762Y010541D01*
X007762Y010618D01*
X007685Y010695D01*
X007532Y010695D01*
X007455Y010618D01*
X007455Y010707D02*
X007762Y011014D01*
X007762Y011091D01*
X007685Y011167D01*
X007915Y011179D02*
X008222Y011486D01*
X008222Y011563D01*
X008145Y011640D01*
X007992Y011640D01*
X007915Y011563D01*
X007992Y011652D02*
X007915Y011729D01*
X007915Y011805D01*
X007992Y011882D01*
X008145Y011882D01*
X008222Y011805D01*
X008222Y011729D01*
X008145Y011652D01*
X007992Y011652D01*
X007992Y011882D02*
X007915Y011959D01*
X007915Y012036D01*
X007992Y012112D01*
X008145Y012112D01*
X008222Y012036D01*
X008222Y011959D01*
X008145Y011882D01*
X007762Y011652D02*
X007455Y011652D01*
X007532Y011640D02*
X007455Y011563D01*
X007301Y011563D02*
X007301Y011410D01*
X007225Y011333D01*
X006995Y011333D01*
X007148Y011333D02*
X007301Y011179D01*
X007225Y011167D02*
X007301Y011091D01*
X007225Y011167D02*
X006995Y011167D01*
X006995Y010707D01*
X006995Y010695D02*
X007225Y010695D01*
X007455Y010707D02*
X007762Y010707D01*
X007915Y010784D02*
X007992Y010707D01*
X008145Y010707D01*
X008222Y010784D01*
X008222Y010860D01*
X008145Y010937D01*
X008069Y010937D01*
X008145Y010937D02*
X008222Y011014D01*
X008222Y011091D01*
X008145Y011167D01*
X007992Y011167D01*
X007915Y011091D01*
X007915Y011179D02*
X008222Y011179D01*
X008145Y010695D02*
X007915Y010465D01*
X008222Y010465D01*
X008145Y010235D02*
X008145Y010695D01*
X008222Y010222D02*
X007915Y010222D01*
X007915Y009992D01*
X008069Y010069D01*
X008145Y010069D01*
X008222Y009992D01*
X008222Y009839D01*
X008145Y009762D01*
X007992Y009762D01*
X007915Y009839D01*
X007762Y009762D02*
X007455Y009762D01*
X007225Y009750D02*
X006995Y009750D01*
X006995Y009290D01*
X006995Y009278D02*
X007225Y009278D01*
X007455Y009290D02*
X007762Y009290D01*
X007915Y009278D02*
X008222Y009278D01*
X008222Y009201D01*
X007915Y008894D01*
X007915Y008817D01*
X007992Y008805D02*
X008145Y008805D01*
X008222Y008728D01*
X008222Y008652D01*
X008145Y008575D01*
X007992Y008575D01*
X007915Y008652D01*
X007915Y008728D01*
X007992Y008805D01*
X007992Y008575D02*
X007915Y008498D01*
X007915Y008421D01*
X007992Y008345D01*
X008145Y008345D01*
X008222Y008421D01*
X008222Y008498D01*
X008145Y008575D01*
X007762Y008817D02*
X007455Y008817D01*
X007225Y008805D02*
X006995Y008805D01*
X006995Y008345D01*
X006995Y008333D02*
X007225Y008333D01*
X007455Y008345D02*
X007762Y008345D01*
X007915Y008256D02*
X007915Y008179D01*
X007992Y008103D01*
X008222Y008103D01*
X008222Y008256D02*
X008145Y008333D01*
X007992Y008333D01*
X007915Y008256D01*
X008222Y008256D02*
X008222Y007949D01*
X008145Y007872D01*
X007992Y007872D01*
X007915Y007949D01*
X007762Y007872D02*
X007455Y007872D01*
X006995Y007872D02*
X006995Y008333D01*
X006995Y008817D02*
X006995Y009278D01*
X006995Y009762D02*
X006995Y010222D01*
X007225Y010222D01*
X007455Y010235D02*
X007762Y010235D01*
X006995Y010235D02*
X006995Y010695D01*
X006995Y011179D02*
X006995Y011640D01*
X007225Y011640D01*
X007301Y011563D01*
X007301Y011652D02*
X007148Y011805D01*
X007225Y011805D02*
X006995Y011805D01*
X006995Y011652D02*
X006995Y012112D01*
X007225Y012112D01*
X007301Y012036D01*
X007301Y011882D01*
X007225Y011805D01*
X007455Y011959D02*
X007608Y012112D01*
X008878Y012267D02*
X008878Y011807D01*
X009185Y011807D01*
X009338Y011807D02*
X009645Y011807D01*
X009645Y011795D02*
X009338Y011795D01*
X009338Y011335D01*
X009645Y011335D01*
X009645Y011322D02*
X009338Y011322D01*
X009338Y010862D01*
X009645Y010862D01*
X009645Y010850D02*
X009338Y010850D01*
X009338Y010390D01*
X009645Y010390D01*
X009645Y010378D02*
X009338Y010378D01*
X009338Y009917D01*
X009645Y009917D01*
X009645Y009905D02*
X009338Y009905D01*
X009338Y009445D01*
X009645Y009445D01*
X009645Y009433D02*
X009338Y009433D01*
X009338Y008972D01*
X009645Y008972D01*
X009758Y008943D02*
X009988Y008943D01*
X010065Y008866D01*
X010065Y008713D01*
X009988Y008636D01*
X009758Y008636D01*
X009758Y008483D02*
X009758Y008943D01*
X009799Y008972D02*
X010029Y008972D01*
X010106Y009049D01*
X010106Y009356D01*
X010029Y009433D01*
X009799Y009433D01*
X009799Y008972D01*
X009911Y008636D02*
X010065Y008483D01*
X010020Y008399D02*
X009943Y008476D01*
X009713Y008476D01*
X009713Y008016D01*
X009943Y008016D01*
X010020Y008092D01*
X010020Y008399D01*
X010173Y008399D02*
X010250Y008476D01*
X010404Y008476D01*
X010480Y008399D01*
X010480Y008323D01*
X010173Y008016D01*
X010480Y008016D01*
X010449Y008483D02*
X010295Y008483D01*
X010218Y008559D01*
X010372Y008713D02*
X010449Y008713D01*
X010525Y008636D01*
X010525Y008559D01*
X010449Y008483D01*
X010449Y008713D02*
X010525Y008789D01*
X010525Y008866D01*
X010449Y008943D01*
X010295Y008943D01*
X010218Y008866D01*
X010259Y008972D02*
X010566Y008972D01*
X010413Y008972D02*
X010413Y009433D01*
X010259Y009279D01*
X010259Y009445D02*
X010566Y009445D01*
X010413Y009445D02*
X010413Y009905D01*
X010259Y009752D01*
X010259Y009917D02*
X010566Y009917D01*
X010413Y009917D02*
X010413Y010378D01*
X010259Y010224D01*
X010259Y010390D02*
X010566Y010390D01*
X010413Y010390D02*
X010413Y010850D01*
X010259Y010697D01*
X010259Y010862D02*
X010566Y010862D01*
X010413Y010862D02*
X010413Y011322D01*
X010259Y011169D01*
X010259Y011335D02*
X010566Y011335D01*
X010482Y011437D02*
X010482Y011207D01*
X010943Y011207D01*
X011026Y011169D02*
X011026Y011246D01*
X010950Y011322D01*
X010796Y011322D01*
X010719Y011246D01*
X010789Y011207D02*
X010789Y011437D01*
X010713Y011514D01*
X010559Y011514D01*
X010482Y011437D01*
X010413Y011335D02*
X010413Y011795D01*
X010259Y011641D01*
X010284Y011594D02*
X009977Y011594D01*
X009977Y012055D01*
X010106Y012191D02*
X010029Y012267D01*
X009799Y012267D01*
X009799Y011807D01*
X010029Y011807D01*
X010106Y011884D01*
X010106Y012191D01*
X010029Y012279D02*
X010106Y012356D01*
X010106Y012663D01*
X010029Y012740D01*
X009799Y012740D01*
X009799Y012279D01*
X010029Y012279D01*
X010259Y012356D02*
X010259Y012433D01*
X010336Y012510D01*
X010489Y012510D01*
X010566Y012433D01*
X010566Y012356D01*
X010489Y012279D01*
X010336Y012279D01*
X010259Y012356D01*
X010336Y012510D02*
X010259Y012586D01*
X010259Y012663D01*
X010336Y012740D01*
X010489Y012740D01*
X010566Y012663D01*
X010566Y012586D01*
X010489Y012510D01*
X010559Y012435D02*
X010636Y012435D01*
X010713Y012358D01*
X010789Y012435D01*
X010866Y012435D01*
X010943Y012358D01*
X010943Y012204D01*
X010866Y012128D01*
X010898Y012055D02*
X011128Y012055D01*
X011205Y011978D01*
X011205Y011671D01*
X011128Y011594D01*
X010898Y011594D01*
X010898Y012055D01*
X010943Y011974D02*
X010943Y011667D01*
X010950Y011807D02*
X010796Y011807D01*
X010719Y011884D01*
X011026Y012191D01*
X011026Y011884D01*
X010950Y011807D01*
X010943Y011821D02*
X010482Y011821D01*
X010636Y011667D01*
X010719Y011641D02*
X010873Y011795D01*
X010873Y011335D01*
X010789Y011360D02*
X010943Y011514D01*
X011026Y011335D02*
X010719Y011335D01*
X010745Y011594D02*
X010438Y011594D01*
X010438Y012055D01*
X010745Y012055D01*
X010719Y012191D02*
X010796Y012267D01*
X010950Y012267D01*
X011026Y012191D01*
X011237Y012055D02*
X011237Y011594D01*
X011544Y011594D01*
X011589Y011594D02*
X011589Y012055D01*
X011359Y011825D01*
X011665Y011825D01*
X011698Y011825D02*
X011851Y011825D01*
X011742Y011821D02*
X012203Y011821D01*
X012203Y011974D02*
X012203Y011667D01*
X012155Y011600D02*
X012615Y011600D01*
X012618Y011671D02*
X012695Y011594D01*
X012849Y011594D01*
X012925Y011671D01*
X012925Y011825D01*
X012849Y011901D01*
X012772Y011901D01*
X012618Y011825D01*
X012618Y012055D01*
X012925Y012055D01*
X012957Y012055D02*
X012957Y011594D01*
X013264Y011594D01*
X013232Y011514D02*
X013309Y011437D01*
X013309Y011207D01*
X013415Y011216D02*
X013415Y011063D01*
X013491Y010986D01*
X013491Y010833D02*
X013645Y010833D01*
X013722Y010756D01*
X013722Y010526D01*
X013875Y010526D02*
X013415Y010526D01*
X013415Y010756D01*
X013491Y010833D01*
X013722Y010679D02*
X013875Y010833D01*
X013875Y010986D02*
X013568Y011293D01*
X013491Y011293D01*
X013415Y011216D01*
X013462Y011207D02*
X013002Y011207D01*
X013002Y011437D01*
X013079Y011514D01*
X013232Y011514D01*
X013156Y011667D02*
X013002Y011821D01*
X013462Y011821D01*
X013491Y011753D02*
X013798Y011447D01*
X013875Y011523D01*
X013875Y011677D01*
X013798Y011753D01*
X013491Y011753D01*
X013415Y011677D01*
X013415Y011523D01*
X013491Y011447D01*
X013798Y011447D01*
X013757Y011594D02*
X014064Y011594D01*
X014108Y011594D02*
X014185Y011671D01*
X014185Y011748D01*
X014108Y011825D01*
X013878Y011825D01*
X013878Y011671D01*
X013955Y011594D01*
X014108Y011594D01*
X014217Y011594D02*
X014524Y011594D01*
X014492Y011514D02*
X014569Y011437D01*
X014569Y011207D01*
X014675Y011140D02*
X015135Y011140D01*
X015135Y011293D02*
X015135Y010986D01*
X015135Y010833D02*
X014981Y010679D01*
X014981Y010756D02*
X014981Y010526D01*
X015135Y010526D02*
X014675Y010526D01*
X014675Y010756D01*
X014751Y010833D01*
X014905Y010833D01*
X014981Y010756D01*
X014828Y010986D02*
X014675Y011140D01*
X014722Y011207D02*
X014262Y011207D01*
X014262Y011437D01*
X014339Y011514D01*
X014492Y011514D01*
X014415Y011667D02*
X014262Y011821D01*
X014722Y011821D01*
X014751Y011753D02*
X014675Y011677D01*
X014675Y011523D01*
X014751Y011447D01*
X014828Y011447D01*
X014905Y011523D01*
X014905Y011753D01*
X014985Y011671D02*
X014985Y011978D01*
X014908Y012055D01*
X014678Y012055D01*
X014678Y011594D01*
X014908Y011594D01*
X014985Y011671D01*
X015058Y011753D02*
X014751Y011753D01*
X014722Y011667D02*
X014722Y011974D01*
X014646Y012128D02*
X014492Y012128D01*
X014492Y012358D01*
X014569Y012435D01*
X014646Y012435D01*
X014722Y012358D01*
X014722Y012204D01*
X014646Y012128D01*
X014524Y012055D02*
X014217Y012055D01*
X014217Y011594D01*
X014217Y011825D02*
X014371Y011825D01*
X014185Y012055D02*
X014032Y011978D01*
X013878Y011825D01*
X013725Y011978D02*
X013648Y012055D01*
X013418Y012055D01*
X013418Y011594D01*
X013648Y011594D01*
X013725Y011671D01*
X013725Y011978D01*
X013757Y012055D02*
X013757Y011594D01*
X013462Y011667D02*
X013462Y011974D01*
X013386Y012128D02*
X013462Y012204D01*
X013462Y012358D01*
X013386Y012435D01*
X013232Y012435D01*
X013156Y012358D01*
X013156Y012281D01*
X013232Y012128D01*
X013002Y012128D01*
X013002Y012435D01*
X012957Y012055D02*
X013264Y012055D01*
X013111Y011825D02*
X012957Y011825D01*
X012804Y011594D02*
X012497Y011594D01*
X012497Y012055D01*
X012465Y011978D02*
X012388Y012055D01*
X012158Y012055D01*
X012158Y011594D01*
X012388Y011594D01*
X012465Y011671D01*
X012465Y011978D01*
X012615Y011753D02*
X012615Y011447D01*
X012615Y011293D02*
X012615Y010986D01*
X012308Y011293D01*
X012232Y011293D01*
X012155Y011216D01*
X012155Y011063D01*
X012232Y010986D01*
X012232Y010833D02*
X012385Y010833D01*
X012462Y010756D01*
X012462Y010526D01*
X012615Y010526D02*
X012155Y010526D01*
X012155Y010756D01*
X012232Y010833D01*
X012462Y010679D02*
X012615Y010833D01*
X012203Y011207D02*
X011742Y011207D01*
X011742Y011437D01*
X011819Y011514D01*
X011972Y011514D01*
X012049Y011437D01*
X012049Y011207D01*
X012049Y011360D02*
X012203Y011514D01*
X012155Y011600D02*
X012308Y011447D01*
X012005Y011594D02*
X011698Y011594D01*
X011698Y012055D01*
X012005Y012055D01*
X011972Y012128D02*
X011972Y012435D01*
X011742Y012358D02*
X011972Y012128D01*
X012203Y012358D02*
X011742Y012358D01*
X011742Y011821D02*
X011896Y011667D01*
X011026Y011169D02*
X010719Y010862D01*
X011026Y010862D01*
X010950Y010850D02*
X011026Y010773D01*
X011026Y010697D01*
X010950Y010620D01*
X011026Y010543D01*
X011026Y010466D01*
X010950Y010390D01*
X010796Y010390D01*
X010719Y010466D01*
X010873Y010620D02*
X010950Y010620D01*
X010950Y010850D02*
X010796Y010850D01*
X010719Y010773D01*
X010950Y010378D02*
X010719Y010147D01*
X011026Y010147D01*
X011026Y009905D02*
X010719Y009905D01*
X010719Y009675D01*
X010873Y009752D01*
X010950Y009752D01*
X011026Y009675D01*
X011026Y009521D01*
X010950Y009445D01*
X010796Y009445D01*
X010719Y009521D01*
X010873Y009356D02*
X011026Y009433D01*
X010873Y009356D02*
X010719Y009203D01*
X010950Y009203D01*
X011026Y009126D01*
X011026Y009049D01*
X010950Y008972D01*
X010796Y008972D01*
X010719Y009049D01*
X010719Y009203D01*
X010106Y009521D02*
X010106Y009828D01*
X010029Y009905D01*
X009799Y009905D01*
X009799Y009445D01*
X010029Y009445D01*
X010106Y009521D01*
X010029Y009917D02*
X010106Y009994D01*
X010106Y010301D01*
X010029Y010378D01*
X009799Y010378D01*
X009799Y009917D01*
X010029Y009917D01*
X009492Y010147D02*
X009338Y010147D01*
X009185Y009917D02*
X008878Y009917D01*
X008878Y010378D01*
X008878Y010390D02*
X009185Y010390D01*
X008878Y010390D02*
X008878Y010850D01*
X008878Y010862D02*
X009185Y010862D01*
X009338Y011092D02*
X009492Y011092D01*
X009799Y010862D02*
X010029Y010862D01*
X010106Y010939D01*
X010106Y011246D01*
X010029Y011322D01*
X009799Y011322D01*
X009799Y010862D01*
X009799Y010850D02*
X010029Y010850D01*
X010106Y010773D01*
X010106Y010466D01*
X010029Y010390D01*
X009799Y010390D01*
X009799Y010850D01*
X009492Y010620D02*
X009338Y010620D01*
X008878Y010862D02*
X008878Y011322D01*
X008878Y011335D02*
X009185Y011335D01*
X009338Y011565D02*
X009492Y011565D01*
X009338Y011807D02*
X009338Y012267D01*
X009645Y012267D01*
X009645Y012279D02*
X009338Y012279D01*
X009338Y012740D01*
X009645Y012740D01*
X009645Y012752D02*
X009338Y012752D01*
X009338Y013212D01*
X009645Y013212D01*
X009799Y013212D02*
X010029Y013212D01*
X010106Y013136D01*
X010106Y012829D01*
X010029Y012752D01*
X009799Y012752D01*
X009799Y013212D01*
X009492Y012982D02*
X009338Y012982D01*
X009185Y012752D02*
X008878Y012752D01*
X008878Y013212D01*
X008878Y012740D02*
X008878Y012279D01*
X009185Y012279D01*
X009338Y012510D02*
X009492Y012510D01*
X010259Y012752D02*
X010566Y012752D01*
X010413Y012752D02*
X010413Y013212D01*
X010259Y013059D01*
X010167Y013648D02*
X010167Y013878D01*
X010244Y013955D01*
X010398Y013955D01*
X010474Y013878D01*
X010474Y013648D01*
X010474Y013801D02*
X010628Y013955D01*
X010551Y014108D02*
X010474Y014108D01*
X010398Y014185D01*
X010398Y014338D01*
X010474Y014415D01*
X010551Y014415D01*
X010628Y014338D01*
X010628Y014185D01*
X010551Y014108D01*
X010398Y014185D02*
X010321Y014108D01*
X010244Y014108D01*
X010167Y014185D01*
X010167Y014338D01*
X010244Y014415D01*
X010321Y014415D01*
X010398Y014338D01*
X009604Y014338D02*
X009604Y014185D01*
X009527Y014108D01*
X009374Y014108D02*
X009297Y014262D01*
X009297Y014338D01*
X009374Y014415D01*
X009527Y014415D01*
X009604Y014338D01*
X009374Y014108D02*
X009144Y014108D01*
X009144Y014415D01*
X009221Y013955D02*
X009374Y013955D01*
X009451Y013878D01*
X009451Y013648D01*
X009604Y013648D02*
X009144Y013648D01*
X009144Y013878D01*
X009221Y013955D01*
X009451Y013801D02*
X009604Y013955D01*
X010167Y013648D02*
X010628Y013648D01*
X011112Y013648D02*
X011112Y013878D01*
X011189Y013955D01*
X011343Y013955D01*
X011419Y013878D01*
X011419Y013648D01*
X011419Y013801D02*
X011573Y013955D01*
X011573Y014108D02*
X011266Y014415D01*
X011189Y014415D01*
X011112Y014338D01*
X011112Y014185D01*
X011189Y014108D01*
X011573Y014108D02*
X011573Y014415D01*
X012136Y014415D02*
X012213Y014262D01*
X012366Y014108D01*
X012366Y014338D01*
X012443Y014415D01*
X012520Y014415D01*
X012596Y014338D01*
X012596Y014185D01*
X012520Y014108D01*
X012366Y014108D01*
X012366Y013955D02*
X012213Y013955D01*
X012136Y013878D01*
X012136Y013648D01*
X012596Y013648D01*
X012443Y013648D02*
X012443Y013878D01*
X012366Y013955D01*
X012443Y013801D02*
X012596Y013955D01*
X013160Y013878D02*
X013160Y013648D01*
X013620Y013648D01*
X013466Y013648D02*
X013466Y013878D01*
X013390Y013955D01*
X013236Y013955D01*
X013160Y013878D01*
X013160Y014108D02*
X013160Y014415D01*
X013236Y014415D01*
X013543Y014108D01*
X013620Y014108D01*
X013620Y013955D02*
X013466Y013801D01*
X014104Y013878D02*
X014104Y013648D01*
X014565Y013648D01*
X014411Y013648D02*
X014411Y013878D01*
X014335Y013955D01*
X014181Y013955D01*
X014104Y013878D01*
X014181Y014108D02*
X014258Y014108D01*
X014335Y014185D01*
X014335Y014415D01*
X014488Y014415D02*
X014181Y014415D01*
X014104Y014338D01*
X014104Y014185D01*
X014181Y014108D01*
X014488Y014108D02*
X014565Y014185D01*
X014565Y014338D01*
X014488Y014415D01*
X014565Y013955D02*
X014411Y013801D01*
X014262Y012435D02*
X014339Y012281D01*
X014492Y012128D01*
X015058Y011753D02*
X015135Y011677D01*
X015135Y011523D01*
X015058Y011447D01*
X015138Y011594D02*
X015138Y011671D01*
X015445Y011978D01*
X015445Y012055D01*
X015138Y012055D01*
X015934Y011753D02*
X016011Y011753D01*
X016318Y011447D01*
X016395Y011447D01*
X016395Y011293D02*
X016395Y010986D01*
X016395Y010833D02*
X016241Y010679D01*
X016241Y010756D02*
X016241Y010526D01*
X016395Y010526D02*
X015934Y010526D01*
X015934Y010756D01*
X016011Y010833D01*
X016165Y010833D01*
X016241Y010756D01*
X016088Y010986D02*
X015934Y011140D01*
X016395Y011140D01*
X015934Y011447D02*
X015934Y011753D01*
X014722Y011514D02*
X014569Y011360D01*
X013875Y011293D02*
X013875Y010986D01*
X013462Y011514D02*
X013309Y011360D01*
X010950Y010378D02*
X010950Y009917D01*
X009492Y009675D02*
X009338Y009675D01*
X009185Y009445D02*
X008878Y009445D01*
X008878Y009905D01*
X008878Y009433D02*
X008878Y008972D01*
X009185Y008972D01*
X009338Y009203D02*
X009492Y009203D01*
X009560Y008476D02*
X009253Y008476D01*
X009253Y008016D01*
X009560Y008016D01*
X009406Y008246D02*
X009253Y008246D01*
X009099Y008016D02*
X008792Y008016D01*
X008792Y008476D01*
X008145Y009290D02*
X008222Y009366D01*
X008222Y009443D01*
X008145Y009520D01*
X007915Y009520D01*
X007915Y009366D01*
X007992Y009290D01*
X008145Y009290D01*
X007915Y009520D02*
X008069Y009673D01*
X008222Y009750D01*
X008878Y011335D02*
X008878Y011795D01*
X009338Y012037D02*
X009492Y012037D01*
X009799Y011795D02*
X010029Y011795D01*
X010106Y011718D01*
X010106Y011411D01*
X010029Y011335D01*
X009799Y011335D01*
X009799Y011795D01*
X010259Y011807D02*
X010566Y011807D01*
X010591Y011825D02*
X010438Y011825D01*
X010413Y011807D02*
X010413Y012267D01*
X010259Y012114D01*
X010482Y012204D02*
X010482Y012358D01*
X010559Y012435D01*
X010713Y012358D02*
X010713Y012281D01*
X010719Y012191D02*
X010719Y011884D01*
X010559Y012128D02*
X010482Y012204D01*
X011112Y013648D02*
X011573Y013648D01*
X008581Y013648D02*
X008120Y013648D01*
X008120Y013878D01*
X008197Y013955D01*
X008350Y013955D01*
X008427Y013878D01*
X008427Y013648D01*
X008427Y013801D02*
X008581Y013955D01*
X008350Y014108D02*
X008350Y014415D01*
X008120Y014338D02*
X008350Y014108D01*
X008581Y014338D02*
X008120Y014338D01*
X007557Y014262D02*
X007097Y014262D01*
X007250Y014108D01*
X007173Y013955D02*
X007327Y013955D01*
X007404Y013878D01*
X007404Y013648D01*
X007557Y013648D02*
X007097Y013648D01*
X007097Y013878D01*
X007173Y013955D01*
X007404Y013801D02*
X007557Y013955D01*
X007557Y014108D02*
X007557Y014415D01*
X006528Y013496D02*
X006528Y013136D01*
X006408Y013136D02*
X006648Y013136D01*
X006408Y013376D02*
X006528Y013496D01*
X006279Y013496D02*
X006039Y013136D01*
X006279Y013136D02*
X006039Y013496D01*
X004211Y013569D02*
X004211Y013629D01*
X004151Y013689D01*
X003850Y013689D01*
X003850Y013629D02*
X003850Y013749D01*
X003850Y013877D02*
X003850Y014057D01*
X003910Y014117D01*
X004031Y014117D01*
X004091Y014057D01*
X004091Y013877D01*
X004211Y013877D02*
X003850Y013877D01*
X003970Y014245D02*
X003850Y014366D01*
X004211Y014366D01*
X004211Y014486D02*
X004211Y014245D01*
X004211Y013569D02*
X004151Y013509D01*
X003419Y013776D02*
X003419Y014083D01*
X003112Y013776D01*
X003189Y013699D01*
X003342Y013699D01*
X003419Y013776D01*
X003112Y013776D02*
X003112Y014083D01*
X003189Y014159D01*
X003342Y014159D01*
X003419Y014083D01*
X002959Y013699D02*
X002652Y013699D01*
X002805Y013699D02*
X002805Y014159D01*
X002652Y014006D01*
X002498Y013929D02*
X002422Y013853D01*
X002191Y013853D01*
X002082Y013759D02*
X002142Y013699D01*
X002142Y013579D01*
X002082Y013519D01*
X002082Y013391D02*
X002142Y013331D01*
X002142Y013211D01*
X002082Y013151D01*
X001842Y013151D01*
X001782Y013211D01*
X001782Y013331D01*
X001842Y013391D01*
X001842Y013519D02*
X001782Y013579D01*
X001782Y013699D01*
X001842Y013759D01*
X001902Y013759D01*
X001962Y013699D01*
X002022Y013759D01*
X002082Y013759D01*
X002191Y013699D02*
X002191Y014159D01*
X002422Y014159D01*
X002498Y014083D01*
X002498Y013929D01*
X002345Y013853D02*
X002498Y013699D01*
X001962Y013699D02*
X001962Y013639D01*
D15*
X006351Y008305D02*
X007684Y008305D01*
X007684Y006807D01*
X007884Y006807D01*
X007884Y008307D01*
X008184Y008307D01*
X008184Y007807D01*
X008384Y007807D01*
X008384Y008307D01*
X008684Y008307D01*
X008684Y006807D01*
X008884Y006807D01*
X008884Y008307D01*
X009184Y008307D01*
X009184Y007807D01*
X009384Y007807D01*
X009384Y008305D01*
X009384Y008307D01*
X009384Y008305D02*
X010717Y008305D01*
X010717Y000152D01*
X010684Y000157D02*
X006384Y000157D01*
X006351Y000152D02*
X006351Y008305D01*
X007684Y008307D02*
X007684Y008305D01*
D16*
X006359Y001232D02*
X010709Y001232D01*
D17*
X010859Y001432D03*
D18*
X006184Y001432D03*
D19*
X005734Y012366D03*
X005734Y012766D03*
D20*
X005719Y012766D02*
X005519Y012766D01*
X005519Y012366D02*
X005669Y012366D01*
D21*
X009167Y012334D03*
X009167Y012157D03*
X009167Y011862D03*
X009167Y011685D03*
X009167Y011389D03*
X009167Y011212D03*
X009167Y010917D03*
X009167Y010740D03*
X009167Y010444D03*
X009167Y010267D03*
X009167Y009972D03*
X009167Y009795D03*
X009167Y009500D03*
X009167Y009322D03*
X009167Y009027D03*
X009167Y008850D03*
X009167Y008555D03*
X010305Y008598D03*
X010305Y008893D03*
X011490Y012177D03*
X011490Y012472D03*
X012750Y012472D03*
X012750Y012177D03*
X014010Y012177D03*
X014010Y012472D03*
X015269Y012472D03*
X015269Y012177D03*
X009167Y012630D03*
D22*
X009167Y012482D03*
X009167Y012009D03*
X009167Y011537D03*
X009167Y011065D03*
X009167Y010592D03*
X009167Y010120D03*
X009167Y009647D03*
X009167Y009175D03*
X009167Y008702D03*
X010305Y008746D03*
X011490Y012324D03*
X012750Y012324D03*
X014010Y012324D03*
X015269Y012324D03*
M02*
