<?xml version="1.0" encoding="UTF-8" standalone="no"?>
<!-- Created with Inkscape (http://www.inkscape.org/) -->
<svg
   xmlns:dc="http://purl.org/dc/elements/1.1/"
   xmlns:cc="http://web.resource.org/cc/"
   xmlns:rdf="http://www.w3.org/1999/02/22-rdf-syntax-ns#"
   xmlns:svg="http://www.w3.org/2000/svg"
   xmlns="http://www.w3.org/2000/svg"
   xmlns:sodipodi="http://sodipodi.sourceforge.net/DTD/sodipodi-0.dtd"
   xmlns:inkscape="http://www.inkscape.org/namespaces/inkscape"
   width="744.09448"
   height="1052.3622"
   id="svg2"
   sodipodi:version="0.32"
   inkscape:version="0.45.1"
   version="1.0"
   sodipodi:docbase="/home/justyn/electronic/robotics/ugforge/media/board outlines"
   sodipodi:docname="adc.inkscape.svg"
   inkscape:output_extension="org.inkscape.output.svg.inkscape">
  <defs
     id="defs4" />
  <sodipodi:namedview
     id="base"
     pagecolor="#ffffff"
     bordercolor="#666666"
     borderopacity="1.0"
     gridtolerance="10000"
     guidetolerance="10"
     objecttolerance="10"
     inkscape:pageopacity="0.0"
     inkscape:pageshadow="2"
     inkscape:zoom="2.0000001"
     inkscape:cx="161.26791"
     inkscape:cy="84.821165"
     inkscape:document-units="mm"
     inkscape:current-layer="layer1"
     width="744.09449px"
     height="1052.3622px"
     inkscape:window-width="1024"
     inkscape:window-height="697"
     inkscape:window-x="0"
     inkscape:window-y="23" />
  <metadata
     id="metadata7">
    <rdf:RDF>
      <cc:Work
         rdf:about="">
        <dc:format>image/svg+xml</dc:format>
        <dc:type
           rdf:resource="http://purl.org/dc/dcmitype/StillImage" />
      </cc:Work>
    </rdf:RDF>
  </metadata>
  <g
     inkscape:label="Layer 1"
     inkscape:groupmode="layer"
     id="layer1">
    <rect
       style="fill:#ffffff;stroke:#ff7f00;stroke-width:3.54330707;stroke-miterlimit:4;stroke-dasharray:none;stroke-opacity:1"
       id="rect2234"
       width="39.279572"
       height="73.082451"
       x="21.278183"
       y="890.55493" />
    <rect
       style="fill:#ffffff;stroke:#7f0000;stroke-width:3.54330707;stroke-miterlimit:4;stroke-dasharray:none;stroke-opacity:1"
       id="rect3211"
       width="44.627811"
       height="70.042854"
       x="93.457581"
       y="944.8432" />
    <rect
       style="fill:#ffffff;stroke:#000000;stroke-width:3.54330707;stroke-miterlimit:4;stroke-dasharray:none;stroke-opacity:1"
       id="rect3209"
       width="131.2561"
       height="145.44678"
       x="-0.048828125"
       y="906.93982" />
    <path
       sodipodi:type="arc"
       style="fill:none;stroke:#0000ff;stroke-width:3.42582917;stroke-miterlimit:4;stroke-dasharray:none;stroke-opacity:1"
       id="path3213"
       sodipodi:cx="115.625"
       sodipodi:cy="1041.7421"
       sodipodi:rx="5.1513672"
       sodipodi:ry="5.1513672"
       d="M 120.77637 1041.7421 A 5.1513672 5.1513672 0 1 1  110.47363,1041.7421 A 5.1513672 5.1513672 0 1 1  120.77637 1041.7421 z"
       transform="matrix(1.0342918,0,0,1.0342918,-2.5890199,-35.763287)" />
    <path
       transform="matrix(1.0342918,0,0,1.0342918,-2.5890199,-159.88829)"
       d="M 120.77637 1041.7421 A 5.1513672 5.1513672 0 1 1  110.47363,1041.7421 A 5.1513672 5.1513672 0 1 1  120.77637 1041.7421 z"
       sodipodi:ry="5.1513672"
       sodipodi:rx="5.1513672"
       sodipodi:cy="1041.7421"
       sodipodi:cx="115.625"
       id="path3215"
       style="fill:none;stroke:#0000ff;stroke-width:3.42582917;stroke-miterlimit:4;stroke-dasharray:none;stroke-opacity:1"
       sodipodi:type="arc" />
    <path
       transform="matrix(1.0342918,0,0,1.0342918,-108.96402,-35.763287)"
       d="M 120.77637 1041.7421 A 5.1513672 5.1513672 0 1 1  110.47363,1041.7421 A 5.1513672 5.1513672 0 1 1  120.77637 1041.7421 z"
       sodipodi:ry="5.1513672"
       sodipodi:rx="5.1513672"
       sodipodi:cy="1041.7421"
       sodipodi:cx="115.625"
       id="path3217"
       style="fill:none;stroke:#0000ff;stroke-width:3.42582917;stroke-miterlimit:4;stroke-dasharray:none;stroke-opacity:1"
       sodipodi:type="arc" />
    <rect
       y="906.93982"
       x="-310.61945"
       height="145.44678"
       width="131.2561"
       id="rect4115"
       style="fill:none;stroke:#000000;stroke-width:3.54330707;stroke-miterlimit:4;stroke-dasharray:none;stroke-opacity:1"
       transform="scale(-1,1)" />
    <rect
       y="890.55493"
       x="-289.29245"
       height="73.082451"
       width="39.279572"
       id="rect4117"
       style="fill:#ffffff;stroke:#ff7f00;stroke-width:3.54330707;stroke-miterlimit:4;stroke-dasharray:none;stroke-opacity:1"
       transform="scale(-1,1)" />
    <rect
       y="944.8432"
       x="-217.11304"
       height="70.042854"
       width="44.627811"
       id="rect4119"
       style="fill:#ffffff;stroke:#7f0000;stroke-width:3.54330707;stroke-miterlimit:4;stroke-dasharray:none;stroke-opacity:1"
       transform="scale(-1,1)" />
    <path
       transform="matrix(-1.0342918,0,0,1.0342918,313.15965,-35.763287)"
       d="M 120.77637 1041.7421 A 5.1513672 5.1513672 0 1 1  110.47363,1041.7421 A 5.1513672 5.1513672 0 1 1  120.77637 1041.7421 z"
       sodipodi:ry="5.1513672"
       sodipodi:rx="5.1513672"
       sodipodi:cy="1041.7421"
       sodipodi:cx="115.625"
       id="path4121"
       style="fill:none;stroke:#0000ff;stroke-width:3.42582917;stroke-miterlimit:4;stroke-dasharray:none;stroke-opacity:1"
       sodipodi:type="arc" />
    <path
       sodipodi:type="arc"
       style="fill:none;stroke:#0000ff;stroke-width:3.42582917;stroke-miterlimit:4;stroke-dasharray:none;stroke-opacity:1"
       id="path4123"
       sodipodi:cx="115.625"
       sodipodi:cy="1041.7421"
       sodipodi:rx="5.1513672"
       sodipodi:ry="5.1513672"
       d="M 120.77637 1041.7421 A 5.1513672 5.1513672 0 1 1  110.47363,1041.7421 A 5.1513672 5.1513672 0 1 1  120.77637 1041.7421 z"
       transform="matrix(-1.0342918,0,0,1.0342918,313.15965,-159.88829)" />
    <path
       sodipodi:type="arc"
       style="fill:none;stroke:#0000ff;stroke-width:3.42582917;stroke-miterlimit:4;stroke-dasharray:none;stroke-opacity:1"
       id="path4125"
       sodipodi:cx="115.625"
       sodipodi:cy="1041.7421"
       sodipodi:rx="5.1513672"
       sodipodi:ry="5.1513672"
       d="M 120.77637 1041.7421 A 5.1513672 5.1513672 0 1 1  110.47363,1041.7421 A 5.1513672 5.1513672 0 1 1  120.77637 1041.7421 z"
       transform="matrix(-1.0342918,0,0,1.0342918,419.53465,-35.763287)" />
  </g>
</svg>
