<?xml version="1.0" encoding="UTF-8" standalone="no"?>
<!-- Created with Inkscape (http://www.inkscape.org/) -->
<svg
   xmlns:dc="http://purl.org/dc/elements/1.1/"
   xmlns:cc="http://web.resource.org/cc/"
   xmlns:rdf="http://www.w3.org/1999/02/22-rdf-syntax-ns#"
   xmlns:svg="http://www.w3.org/2000/svg"
   xmlns="http://www.w3.org/2000/svg"
   xmlns:sodipodi="http://sodipodi.sourceforge.net/DTD/sodipodi-0.dtd"
   xmlns:inkscape="http://www.inkscape.org/namespaces/inkscape"
   width="744.09448"
   height="1052.3622"
   id="svg2"
   sodipodi:version="0.32"
   inkscape:version="0.45.1"
   version="1.0"
   sodipodi:docbase="/home/justyn/electronic/robotics/ugforge/media/board outlines"
   sodipodi:docname="pwr-board.svg"
   inkscape:output_extension="org.inkscape.output.svg.inkscape">
  <defs
     id="defs4" />
  <sodipodi:namedview
     id="base"
     pagecolor="#ffffff"
     bordercolor="#666666"
     borderopacity="1.0"
     gridtolerance="10000"
     guidetolerance="10"
     objecttolerance="10"
     inkscape:pageopacity="0.0"
     inkscape:pageshadow="2"
     inkscape:zoom="1"
     inkscape:cx="187.22779"
     inkscape:cy="105.08649"
     inkscape:document-units="mm"
     inkscape:current-layer="layer1"
     width="744.09449px"
     height="1052.3622px"
     showguides="true"
     inkscape:guide-bbox="true"
     inkscape:window-width="1024"
     inkscape:window-height="697"
     inkscape:window-x="0"
     inkscape:window-y="23" />
  <metadata
     id="metadata7">
    <rdf:RDF>
      <cc:Work
         rdf:about="">
        <dc:format>image/svg+xml</dc:format>
        <dc:type
           rdf:resource="http://purl.org/dc/dcmitype/StillImage" />
      </cc:Work>
    </rdf:RDF>
  </metadata>
  <g
     inkscape:label="Layer 1"
     inkscape:groupmode="layer"
     id="layer1">
    <rect
       style="fill:none;stroke:#ff0000;stroke-width:1.41732283;stroke-miterlimit:4;stroke-dasharray:none;stroke-opacity:1"
       id="rect3209"
       width="354.31281"
       height="272.59766"
       x="-1.6875"
       y="782.01843" />
    <rect
       style="fill:none;stroke:#ff0000;stroke-width:1.41732287;stroke-miterlimit:4;stroke-dasharray:none;stroke-opacity:1"
       id="rect4180"
       width="48.5"
       height="29"
       x="-19.75"
       y="788.11218" />
    <rect
       style="fill:none;stroke:#ff0000;stroke-width:1.41732287;stroke-miterlimit:4;stroke-dasharray:none;stroke-opacity:1"
       id="rect4182"
       width="56.5"
       height="41.75"
       x="-26.5"
       y="826.11218" />
    <rect
       style="fill:none;stroke:#ff0000;stroke-width:1.41732287;stroke-miterlimit:4;stroke-dasharray:none;stroke-opacity:1"
       id="rect4184"
       width="37.25"
       height="40"
       x="-1.75"
       y="878.11218" />
    <path
       sodipodi:type="arc"
       style="fill:none;stroke:#ff0000;stroke-width:0.35433072;stroke-miterlimit:4;stroke-dasharray:none;stroke-opacity:1"
       id="path4188"
       sodipodi:cx="40.3125"
       sodipodi:cy="841.17468"
       sodipodi:rx="5.9375"
       sodipodi:ry="5.9375"
       d="M 46.25 841.17468 A 5.9375 5.9375 0 1 1  34.375,841.17468 A 5.9375 5.9375 0 1 1  46.25 841.17468 z"
       transform="matrix(0.9284507,0,0,0.9284507,1.8843309,60.185455)" />
    <path
       sodipodi:type="arc"
       style="fill:none;stroke:#ff0000;stroke-width:0.35433072;stroke-miterlimit:4;stroke-dasharray:none;stroke-opacity:1"
       id="path5159"
       sodipodi:cx="40.3125"
       sodipodi:cy="841.17468"
       sodipodi:rx="5.9375"
       sodipodi:ry="5.9375"
       d="M 46.25 841.17468 A 5.9375 5.9375 0 1 1  34.375,841.17468 A 5.9375 5.9375 0 1 1  46.25 841.17468 z"
       transform="matrix(0.9284507,0,0,0.9284507,285.1893,204.2862)" />
    <path
       sodipodi:type="arc"
       style="fill:none;stroke:#ff0000;stroke-width:0.35433072;stroke-miterlimit:4;stroke-dasharray:none;stroke-opacity:1"
       id="path5161"
       sodipodi:cx="40.3125"
       sodipodi:cy="841.17468"
       sodipodi:rx="5.9375"
       sodipodi:ry="5.9375"
       d="M 46.25 841.17468 A 5.9375 5.9375 0 1 1  34.375,841.17468 A 5.9375 5.9375 0 1 1  46.25 841.17468 z"
       transform="matrix(0.9284507,0,0,0.9284507,228.13433,76.37296)" />
    <path
       sodipodi:type="arc"
       style="fill:none;stroke:#ff0000;stroke-width:0.35433072;stroke-miterlimit:4;stroke-dasharray:none;stroke-opacity:1"
       id="path5163"
       sodipodi:cx="40.3125"
       sodipodi:cy="841.17468"
       sodipodi:rx="5.9375"
       sodipodi:ry="5.9375"
       d="M 46.25 841.17468 A 5.9375 5.9375 0 1 1  34.375,841.17468 A 5.9375 5.9375 0 1 1  46.25 841.17468 z"
       transform="matrix(0.9284507,0,0,0.9284507,96.759331,89.31046)" />
    <path
       sodipodi:type="arc"
       style="fill:none;stroke:#ff0000;stroke-width:0.35433072;stroke-miterlimit:4;stroke-dasharray:none;stroke-opacity:1"
       id="path5165"
       sodipodi:cx="40.3125"
       sodipodi:cy="841.17468"
       sodipodi:rx="5.9375"
       sodipodi:ry="5.9375"
       d="M 46.25 841.17468 A 5.9375 5.9375 0 1 1  34.375,841.17468 A 5.9375 5.9375 0 1 1  46.25 841.17468 z"
       transform="matrix(0.9284507,0,0,0.9284507,54.186353,254.80014)" />
    <rect
       style="fill:none;stroke:#ff0000;stroke-width:0.35433072;stroke-miterlimit:4;stroke-dasharray:none;stroke-opacity:1"
       id="rect5169"
       width="39.421204"
       height="70.533905"
       x="158.03836"
       y="1010.2893" />
    <rect
       y="1010.2893"
       x="207.53583"
       height="70.533905"
       width="39.421204"
       id="rect5173"
       style="fill:none;stroke:#ff0000;stroke-width:0.35433072;stroke-miterlimit:4;stroke-dasharray:none;stroke-opacity:1" />
    <rect
       style="fill:none;stroke:#ff0000;stroke-width:0.35433072;stroke-miterlimit:4;stroke-dasharray:none;stroke-opacity:1"
       id="rect5175"
       width="39.421204"
       height="70.533905"
       x="257.03329"
       y="1010.2893" />
    <rect
       y="1010.2893"
       x="306.53076"
       height="70.533905"
       width="39.421204"
       id="rect5177"
       style="fill:none;stroke:#ff0000;stroke-width:0.35433072;stroke-miterlimit:4;stroke-dasharray:none;stroke-opacity:1" />
    <rect
       style="fill:none;stroke:#ff0000;stroke-width:0.35433072;stroke-miterlimit:4;stroke-dasharray:none;stroke-opacity:1"
       id="rect5187"
       width="4.6845822"
       height="43.398678"
       x="46.403881"
       y="771.19885" />
    <rect
       y="771.19885"
       x="71.152618"
       height="43.398678"
       width="4.6845822"
       id="rect5189"
       style="fill:none;stroke:#ff0000;stroke-width:0.35433072;stroke-miterlimit:4;stroke-dasharray:none;stroke-opacity:1" />
    <rect
       style="fill:none;stroke:#ff0000;stroke-width:0.35433072;stroke-miterlimit:4;stroke-dasharray:none;stroke-opacity:1"
       id="rect5191"
       width="4.6845822"
       height="43.398678"
       x="95.459412"
       y="771.19885" />
    <rect
       y="771.19885"
       x="119.8546"
       height="43.398678"
       width="4.6845822"
       id="rect5193"
       style="fill:none;stroke:#ff0000;stroke-width:0.35433072;stroke-miterlimit:4;stroke-dasharray:none;stroke-opacity:1" />
    <rect
       style="fill:none;stroke:#ff0000;stroke-width:0.35433072;stroke-miterlimit:4;stroke-dasharray:none;stroke-opacity:1"
       id="rect5195"
       width="4.6845822"
       height="43.398678"
       x="163.43005"
       y="771.19885" />
    <rect
       y="771.37561"
       x="188.62073"
       height="43.398678"
       width="4.6845822"
       id="rect5197"
       style="fill:none;stroke:#ff0000;stroke-width:0.35433072;stroke-miterlimit:4;stroke-dasharray:none;stroke-opacity:1" />
    <rect
       style="fill:none;stroke:#ff0000;stroke-width:0.35433072;stroke-miterlimit:4;stroke-dasharray:none;stroke-opacity:1"
       id="rect5199"
       width="4.6845822"
       height="43.398678"
       x="214.6069"
       y="771.37561" />
    <rect
       y="771.37561"
       x="240.50468"
       height="43.398678"
       width="4.6845822"
       id="rect5201"
       style="fill:none;stroke:#ff0000;stroke-width:0.35433072;stroke-miterlimit:4;stroke-dasharray:none;stroke-opacity:1" />
    <rect
       style="fill:none;stroke:#ff0000;stroke-width:0.35433072;stroke-miterlimit:4;stroke-dasharray:none;stroke-opacity:1"
       id="rect5203"
       width="4.6845822"
       height="43.398678"
       x="292.47702"
       y="771.37561" />
    <rect
       y="771.37561"
       x="315.01605"
       height="43.398678"
       width="4.6845822"
       id="rect5205"
       style="fill:none;stroke:#ff0000;stroke-width:0.35433072;stroke-miterlimit:4;stroke-dasharray:none;stroke-opacity:1" />
    <rect
       style="fill:none;stroke:#ff0000;stroke-width:0.35433072;stroke-miterlimit:4;stroke-dasharray:none;stroke-opacity:1"
       id="rect5207"
       width="4.6845822"
       height="43.398678"
       x="337.76605"
       y="771.37561" />
    <path
       sodipodi:type="arc"
       style="fill:none;stroke:#ff0000;stroke-width:0.35433072;stroke-miterlimit:4;stroke-dasharray:none;stroke-opacity:1"
       id="path5211"
       sodipodi:cx="9.4375"
       sodipodi:cy="936.67468"
       sodipodi:rx="7.8125"
       sodipodi:ry="7.8125"
       d="M 17.25 936.67468 A 7.8125 7.8125 0 1 1  1.625,936.67468 A 7.8125 7.8125 0 1 1  17.25 936.67468 z"
       transform="matrix(0.8983062,0,0,0.8983062,2.8972359,96.316574)" />
    <path
       transform="matrix(0.8983062,0,0,0.8983062,2.8972359,113.81657)"
       d="M 17.25 936.67468 A 7.8125 7.8125 0 1 1  1.625,936.67468 A 7.8125 7.8125 0 1 1  17.25 936.67468 z"
       sodipodi:ry="7.8125"
       sodipodi:rx="7.8125"
       sodipodi:cy="936.67468"
       sodipodi:cx="9.4375"
       id="path5213"
       style="fill:none;stroke:#ff0000;stroke-width:0.35433072;stroke-miterlimit:4;stroke-dasharray:none;stroke-opacity:1"
       sodipodi:type="arc" />
    <path
       sodipodi:type="arc"
       style="fill:none;stroke:#ff0000;stroke-width:0.35433072;stroke-miterlimit:4;stroke-dasharray:none;stroke-opacity:1"
       id="path5215"
       sodipodi:cx="9.4375"
       sodipodi:cy="936.67468"
       sodipodi:rx="7.8125"
       sodipodi:ry="7.8125"
       d="M 17.25 936.67468 A 7.8125 7.8125 0 1 1  1.625,936.67468 A 7.8125 7.8125 0 1 1  17.25 936.67468 z"
       transform="matrix(0.8983062,0,0,0.8983062,2.8972359,130.94157)" />
    <path
       transform="matrix(0.8983062,0,0,0.8983062,2.8972359,148.31657)"
       d="M 17.25 936.67468 A 7.8125 7.8125 0 1 1  1.625,936.67468 A 7.8125 7.8125 0 1 1  17.25 936.67468 z"
       sodipodi:ry="7.8125"
       sodipodi:rx="7.8125"
       sodipodi:cy="936.67468"
       sodipodi:cx="9.4375"
       id="path5217"
       style="fill:none;stroke:#ff0000;stroke-width:0.35433072;stroke-miterlimit:4;stroke-dasharray:none;stroke-opacity:1"
       sodipodi:type="arc" />
    <path
       sodipodi:type="arc"
       style="fill:none;stroke:#ff0000;stroke-width:0.35433072;stroke-miterlimit:4;stroke-dasharray:none;stroke-opacity:1"
       id="path5219"
       sodipodi:cx="9.4375"
       sodipodi:cy="936.67468"
       sodipodi:rx="7.8125"
       sodipodi:ry="7.8125"
       d="M 17.25 936.67468 A 7.8125 7.8125 0 1 1  1.625,936.67468 A 7.8125 7.8125 0 1 1  17.25 936.67468 z"
       transform="matrix(0.8983062,0,0,0.8983062,2.8972359,165.56657)" />
    <path
       transform="matrix(0.8983062,0,0,0.8983062,2.8972359,182.94157)"
       d="M 17.25 936.67468 A 7.8125 7.8125 0 1 1  1.625,936.67468 A 7.8125 7.8125 0 1 1  17.25 936.67468 z"
       sodipodi:ry="7.8125"
       sodipodi:rx="7.8125"
       sodipodi:cy="936.67468"
       sodipodi:cx="9.4375"
       id="path5221"
       style="fill:none;stroke:#ff0000;stroke-width:0.35433072;stroke-miterlimit:4;stroke-dasharray:none;stroke-opacity:1"
       sodipodi:type="arc" />
    <path
       sodipodi:type="arc"
       style="fill:none;stroke:#ff0000;stroke-width:0.35433072;stroke-miterlimit:4;stroke-dasharray:none;stroke-opacity:1"
       id="path5223"
       sodipodi:cx="9.4375"
       sodipodi:cy="936.67468"
       sodipodi:rx="7.8125"
       sodipodi:ry="7.8125"
       d="M 17.25 936.67468 A 7.8125 7.8125 0 1 1  1.625,936.67468 A 7.8125 7.8125 0 1 1  17.25 936.67468 z"
       transform="matrix(0.8983062,0,0,0.8983062,2.8972359,200.19157)" />
    <path
       transform="matrix(0.9284507,0,0,0.9284507,299.25034,51.977776)"
       d="M 46.25 841.17468 A 5.9375 5.9375 0 1 1  34.375,841.17468 A 5.9375 5.9375 0 1 1  46.25 841.17468 z"
       sodipodi:ry="5.9375"
       sodipodi:rx="5.9375"
       sodipodi:cy="841.17468"
       sodipodi:cx="40.3125"
       id="path5225"
       style="fill:none;stroke:#ff0000;stroke-width:0.35433072;stroke-miterlimit:4;stroke-dasharray:none;stroke-opacity:1"
       sodipodi:type="arc" />
  </g>
</svg>
