<?xml version="1.0" encoding="UTF-8" standalone="no"?>
<!-- Created with Inkscape (http://www.inkscape.org/) -->

<svg
   xmlns:dc="http://purl.org/dc/elements/1.1/"
   xmlns:cc="http://creativecommons.org/ns#"
   xmlns:rdf="http://www.w3.org/1999/02/22-rdf-syntax-ns#"
   xmlns:svg="http://www.w3.org/2000/svg"
   xmlns="http://www.w3.org/2000/svg"
   xmlns:sodipodi="http://sodipodi.sourceforge.net/DTD/sodipodi-0.dtd"
   xmlns:inkscape="http://www.inkscape.org/namespaces/inkscape"
   width="634.78003"
   height="440.82001"
   id="svg2"
   sodipodi:version="0.32"
   inkscape:version="0.46+devel"
   version="1.0"
   sodipodi:docname="ramp.svg"
   inkscape:output_extension="org.inkscape.output.svg.inkscape"
   style="display:inline">
  <defs
     id="defs4">
    <marker
       inkscape:stockid="Arrow1Mend"
       orient="auto"
       refY="0.0"
       refX="0.0"
       id="Arrow1Mend"
       style="overflow:visible;">
      <path
         id="path890"
         d="M 0.0,0.0 L 5.0,-5.0 L -12.5,0.0 L 5.0,5.0 L 0.0,0.0 z "
         style="fill-rule:evenodd;stroke:#000000;stroke-width:1.0pt;marker-start:none;"
         transform="scale(0.4) rotate(180) translate(10,0)" />
    </marker>
    <marker
       inkscape:stockid="Arrow1Mstart"
       orient="auto"
       refY="0.0"
       refX="0.0"
       id="Arrow1Mstart"
       style="overflow:visible">
      <path
         id="path887"
         d="M 0.0,0.0 L 5.0,-5.0 L -12.5,0.0 L 5.0,5.0 L 0.0,0.0 z "
         style="fill-rule:evenodd;stroke:#000000;stroke-width:1.0pt;marker-start:none"
         transform="scale(0.4) translate(10,0)" />
    </marker>
    <marker
       inkscape:stockid="Arrow1Lstart"
       orient="auto"
       refY="0.0"
       refX="0.0"
       id="Arrow1Lstart"
       style="overflow:visible">
      <path
         id="path881"
         d="M 0.0,0.0 L 5.0,-5.0 L -12.5,0.0 L 5.0,5.0 L 0.0,0.0 z "
         style="fill-rule:evenodd;stroke:#000000;stroke-width:1.0pt;marker-start:none"
         transform="scale(0.8) translate(12.5,0)" />
    </marker>
    <inkscape:perspective
       sodipodi:type="inkscape:persp3d"
       inkscape:vp_x="0 : 526.18109 : 1"
       inkscape:vp_y="0 : 1000 : 0"
       inkscape:vp_z="744.09448 : 526.18109 : 1"
       inkscape:persp3d-origin="372.04724 : 350.78739 : 1"
       id="perspective10" />
    <inkscape:perspective
       id="perspective858"
       inkscape:persp3d-origin="0.5 : 0.33333333 : 1"
       inkscape:vp_z="1 : 0.5 : 1"
       inkscape:vp_y="0 : 1000 : 0"
       inkscape:vp_x="0 : 0.5 : 1"
       sodipodi:type="inkscape:persp3d" />
  </defs>
  <sodipodi:namedview
     id="base"
     pagecolor="#ffffff"
     bordercolor="#666666"
     borderopacity="1.0"
     inkscape:pageopacity="0.0"
     inkscape:pageshadow="2"
     inkscape:zoom="0.98994949"
     inkscape:cx="316.94627"
     inkscape:cy="217.26082"
     inkscape:document-units="px"
     inkscape:current-layer="layer1"
     showgrid="true"
     inkscape:window-width="1280"
     inkscape:window-height="725"
     inkscape:window-x="0"
     inkscape:window-y="25"
     inkscape:snap-bbox="true">
    <inkscape:grid
       type="xygrid"
       id="grid12"
       empspacing="5"
       visible="true"
       enabled="false"
       snapvisiblegridlinesonly="true" />
    <inkscape:grid
       type="axonomgrid"
       id="grid14"
       units="mm"
       empspacing="5"
       visible="false"
       enabled="true"
       snapvisiblegridlinesonly="true"
       spacingy="0.4mm" />
  </sodipodi:namedview>
  <metadata
     id="metadata7">
    <rdf:RDF>
      <cc:Work
         rdf:about="">
        <dc:format>image/svg+xml</dc:format>
        <dc:type
           rdf:resource="http://purl.org/dc/dcmitype/StillImage" />
      </cc:Work>
    </rdf:RDF>
  </metadata>
  <g
     inkscape:label="Layer 1"
     inkscape:groupmode="layer"
     id="layer1"
     transform="translate(-195.07143,-161.99212)"
     style="display:inline">
    <path
       style="fill:none;stroke:#000000;stroke-width:1px;stroke-opacity:1"
       d="m 821.38318,298.08772 -195.34863,-113.98707 0,56.69291 196.58897,113.50069 -1.24034,-56.20653 z"
       id="path802"
       sodipodi:nodetypes="ccccc" />
    <path
       style="fill:#ffffff;fill-opacity:1;stroke:#000000;stroke-width:2;stroke-linejoin:bevel;stroke-miterlimit:4;stroke-opacity:1;stroke-dasharray:none"
       d="m 330.48258,268.77811 147.21808,0.96315 98.19501,56.69291 -147.29251,0 -98.12058,-57.65606 z"
       id="path877" />
    <path
       style="fill:none;stroke:#000000;stroke-width:1px;stroke-opacity:1"
       d="M 626.45728,184.93544 478.98603,270.07801 576.24671,326.2315 722.8863,241.56909 626.45728,184.93544 z"
       id="path810" />
    <path
       style="fill:none;stroke:#000000;stroke-width:2;stroke-miterlimit:4;stroke-opacity:1;stroke-dasharray:none"
       d="m 674.09068,439.81999 -61.37188,-35.43307 -98.19501,56.69292 61.37188,35.43307"
       id="path846"
       sodipodi:nodetypes="cccc" />
    <path
       style="fill:#ffffff;fill-opacity:1;stroke:#000000;stroke-width:2;stroke-miterlimit:4;stroke-opacity:1;stroke-dasharray:none"
       d="m 479.13152,268.77388 96.76415,57.66029 -147.29251,85.03937 98.195,56.69292 49.09751,-28.34646 -61.37188,-35.43307 98.195,-56.69292 61.37188,35.43308 147.29251,-85.03937 -196.39001,-113.38583 -145.86165,84.07199 z"
       id="path873" />
    <path
       style="stroke-width:1px"
       d="m 574.9395,440.50404 0,55.45683 -48.21951,27.83955 0,-54.00196 48.21951,-29.29442 z"
       id="path835" />
    <path
       style="fill:#25dd00;fill-opacity:1;stroke:#000000;stroke-width:2;stroke-miterlimit:4;stroke-opacity:1;stroke-dasharray:none"
       d="M 403.21357,595.05738 526.79816,468.16646 575.89567,439.82 l 0,56.69291 -172.6821,98.54447 z"
       id="path841" />
    <path
       style="fill:#ffffff;fill-opacity:1;stroke:#000000;stroke-width:2;stroke-miterlimit:4;stroke-opacity:1;stroke-dasharray:none"
       d="m 208.7592,337.97355 121.64895,-68.23229 98.19501,56.69291 -122.74376,70.86614 -97.1002,-59.32676 z"
       id="path875" />
    <path
       style="fill:#25dd00;fill-opacity:1;stroke:#000000;stroke-width:2;stroke-miterlimit:4;stroke-opacity:1;stroke-dasharray:none"
       d="m 575.56009,325.91674 0.33558,-13.6558 -147.29251,0 -122.74376,70.86615 0,155.90551 122.74376,-127.55906 147.29251,-85.03937 -0.33558,-0.51743 z"
       id="path849" />
    <path
       style="fill:#ffffff;fill-opacity:1;stroke:#000000;stroke-width:2;stroke-linejoin:bevel;stroke-miterlimit:4;stroke-opacity:1;stroke-dasharray:none"
       d="m 207.34581,326.98816 123.06234,-71.42013 147.29251,0 147.29251,-85.03937 0,14.17323 -147.29251,85.03937 -147.29251,0 -122.74376,70.86614 -0.31858,-13.61924 z"
       id="path879" />
    <path
       style="fill:#25dd00;fill-opacity:1;stroke:#000000;stroke-width:2;stroke-linejoin:bevel;stroke-miterlimit:4;stroke-opacity:1;stroke-dasharray:none"
       d="m 207.70295,483.05959 98.15645,55.97301 0,-155.90551 -98.19501,-56.69292 0.0386,156.62542 z"
       id="path851" />
    <path
       style="fill:none;stroke:#000000;stroke-width:2;stroke-linejoin:bevel;stroke-miterlimit:4;stroke-opacity:1;stroke-dasharray:none"
       d="m 624.99317,170.52866 196.39001,113.38583 0,14.17323 -196.39001,-113.38583 0,-14.17323 z"
       id="path857"
       sodipodi:nodetypes="ccccc" />
    <path
       style="fill:#25dd00;fill-opacity:1;stroke:#000000;stroke-width:2;stroke-linejoin:bevel;stroke-miterlimit:4;stroke-opacity:1;stroke-dasharray:none"
       d="m 674.09067,368.95386 0,70.86614 147.29251,-85.03937 0,-70.86614 -147.29251,85.03937 z"
       id="path861" />
    <path
       style="fill:#ffffff;fill-opacity:1;stroke:#000000;stroke-width:2;stroke-miterlimit:4;stroke-opacity:1;stroke-dasharray:none"
       d="m 305.73385,539.49899 122.86931,-128.02545 98.195,56.69292 -122.74375,127.55905 -98.32056,-56.22652 z"
       id="path869" />
    <path
       style="fill:#25dd00;fill-opacity:1;stroke:#000000;stroke-width:2;stroke-miterlimit:4;stroke-opacity:1;stroke-dasharray:none"
       d="m 404.84581,597.34531 0,-16.24994 121.95235,-127.10214 49.09751,-28.34646 0,70.86614 -171.04986,100.8324 z"
       id="path871" />
    <path
       style="stroke:#000000;stroke-width:2;stroke-miterlimit:4;stroke-opacity:1;stroke-dasharray:none"
       d="m 613.24716,347.81212 -0.52836,28.22835 0,35.43307"
       id="path848" />
    <path
       style="fill:#25dd00;fill-opacity:1;stroke:#000000;stroke-width:2;stroke-linejoin:bevel;stroke-miterlimit:4;stroke-opacity:1;stroke-dasharray:none"
       d="m 557.17573,407.81212 -11.966,-6.9685 98.19501,-56.69292 12.27437,7.08662 -98.50338,56.5748 z"
       id="path874" />
  </g>
  <g
     inkscape:groupmode="layer"
     id="layer3"
     inkscape:label="Layer"
     style="display:none">
    <path
       style="fill:#bbbbbb;fill-opacity:1;stroke:#000000;stroke-width:2;stroke-miterlimit:4;stroke-opacity:1;stroke-dasharray:none"
       d="m 319.64286,230.95951 48.58841,27.7784 12.27438,-7.08661 0,14.17322 98.19501,-56.69291 -61.37188,-35.43307 -97.68592,57.26097 z"
       id="path840" />
  </g>
  <g
     inkscape:groupmode="layer"
     id="layer2"
     inkscape:label="trapdoor"
     style="display:inline">
    <path
       style="fill:#ffffff;fill-opacity:1;stroke:#000000;stroke-width:2;stroke-linejoin:bevel;stroke-miterlimit:4;stroke-opacity:1;stroke-dasharray:none"
       d="m 362.81859,267.24857 -0.40591,-21.31046 98.195,-56.69291 0,70.86614 -79.78344,46.06299 0,-42.51968 -12.27438,7.08661 -5.73127,-3.49269 z"
       id="path844"
       sodipodi:nodetypes="cccccccc" />
  </g>
  <path
     style="stroke:#393939;stroke-width:2;stroke-miterlimit:4;stroke-opacity:1;stroke-dasharray:2, 4;stroke-dashoffset:0;display:inline"
     d="m 362.51083,267.35739 98.09685,-56.85235"
     id="path842" />
</svg>
