<?xml version="1.0" encoding="UTF-8" standalone="no"?>
<!-- Created with Inkscape (http://www.inkscape.org/) -->
<svg
   xmlns:dc="http://purl.org/dc/elements/1.1/"
   xmlns:cc="http://creativecommons.org/ns#"
   xmlns:rdf="http://www.w3.org/1999/02/22-rdf-syntax-ns#"
   xmlns:svg="http://www.w3.org/2000/svg"
   xmlns="http://www.w3.org/2000/svg"
   xmlns:sodipodi="http://sodipodi.sourceforge.net/DTD/sodipodi-0.dtd"
   xmlns:inkscape="http://www.inkscape.org/namespaces/inkscape"
   width="587.15198"
   height="395.48947"
   id="svg2"
   sodipodi:version="0.32"
   inkscape:version="0.46"
   version="1.0"
   sodipodi:docname="uif-connection.svg"
   inkscape:output_extension="org.inkscape.output.svg.inkscape">
  <defs
     id="defs4">
    <inkscape:perspective
       sodipodi:type="inkscape:persp3d"
       inkscape:vp_x="0 : 526.18109 : 1"
       inkscape:vp_y="0 : 1000 : 0"
       inkscape:vp_z="744.09448 : 526.18109 : 1"
       inkscape:persp3d-origin="372.04724 : 350.78739 : 1"
       id="perspective10" />
  </defs>
  <sodipodi:namedview
     id="base"
     pagecolor="#ffffff"
     bordercolor="#666666"
     borderopacity="1.0"
     gridtolerance="10000"
     guidetolerance="10"
     objecttolerance="10"
     inkscape:pageopacity="0.0"
     inkscape:pageshadow="2"
     inkscape:zoom="0.98369586"
     inkscape:cx="323.85241"
     inkscape:cy="107.47918"
     inkscape:document-units="px"
     inkscape:current-layer="layer2"
     showgrid="false"
     showguides="true"
     inkscape:guide-bbox="true"
     inkscape:window-width="1280"
     inkscape:window-height="952"
     inkscape:window-x="1024"
     inkscape:window-y="25" />
  <metadata
     id="metadata7">
    <rdf:RDF>
      <cc:Work
         rdf:about="">
        <dc:format>image/svg+xml</dc:format>
        <dc:type
           rdf:resource="http://purl.org/dc/dcmitype/StillImage" />
      </cc:Work>
    </rdf:RDF>
  </metadata>
  <g
     inkscape:label="Layer 1"
     inkscape:groupmode="layer"
     id="layer1"
     style="opacity:0.4099099"
     transform="translate(13.95388,-185.99656)">
    <path
       style="opacity:0.98999999;fill:none;fill-opacity:1;stroke:#000000;stroke-width:4.5;stroke-miterlimit:4;stroke-dasharray:none;stroke-opacity:1"
       id="path3157"
       d="M 134.02845,315.7683 C 135.06189,319.96152 135.0582,324.30863 135.11263,328.59834 C 134.82673,345.76204 132.25715,362.79109 130.10448,379.79253 C 127.14503,403.56339 125.0203,427.45324 124.3949,451.40678 C 124.2779,455.88808 124.27614,460.37164 124.21675,464.85407 C 124.35462,482.3655 124.87048,500.00303 127.93221,517.28967 C 128.36553,519.73619 128.93327,522.15699 129.4338,524.59066 C 131.27338,532.4175 133.87731,540.12196 138.11853,546.98667 C 139.11504,548.41707 139.80228,549.89002 139.93089,551.63036 C 139.90531,552.78604 140.49245,553.15388 139.62266,554.04213 C 139.25159,554.29595 138.88052,554.54977 138.50944,554.80359 L 138.28232,554.93165 C 137.87715,555.10947 137.47197,555.2873 137.0668,555.46512 C 136.88644,555.49345 136.70744,555.56768 136.52571,555.55011 C 135.90921,555.49051 136.12927,554.01345 136.03444,553.65822 C 135.86897,552.00208 135.32599,550.5011 134.55414,549.01914 C 131.47904,541.48727 128.71557,533.82099 127.15181,525.80934 C 125.82028,518.6013 125.4929,517.50617 124.6482,509.94355 C 123.00042,495.191 122.79465,480.32724 122.94511,465.49891 C 123.05982,460.98739 123.12905,456.47448 123.28925,451.96435 C 124.13637,428.11434 126.14943,404.32383 128.51157,380.58203 C 130.10887,363.92225 131.97816,347.21224 131.50041,330.44781 C 131.3865,326.17512 131.47693,321.81909 130.67702,317.60866 L 134.02845,315.7683 z" />
    <path
       style="opacity:0.98999999;fill:none;fill-opacity:1;stroke:#000000;stroke-width:4.5;stroke-miterlimit:4;stroke-dasharray:none;stroke-opacity:1"
       id="path3159"
       d="M 145.78543,555.71964 C 143.97987,556.21368 142.10478,556.21713 140.25067,556.3231 C 140.07324,556.33292 139.89594,556.3597 139.71839,556.35256 C 139.6106,556.34823 138.39295,556.02091 139.08092,555.5678 C 140.71373,554.49241 142.47733,553.61949 144.25384,552.80308 C 144.64254,552.62444 145.09943,552.67277 145.52223,552.60762 C 156.0693,551.36604 166.70606,551.04795 177.30816,550.5699 C 203.10021,549.40639 228.91591,549.14943 254.73003,549.20095 C 286.90762,549.42544 319.05259,550.93592 351.18518,552.52739 C 383.12735,554.34539 415.08738,555.7446 447.07394,556.43097 C 470.06607,556.97407 493.0549,556.3441 516.03443,555.64043 C 521.05662,555.56215 526.08346,555.37378 531.10602,555.56206 C 533.23664,555.64193 535.35233,555.73835 537.41969,556.26247 C 537.86888,557.02683 537.84183,556.64367 537.62068,557.39713 L 537.44176,557.51751 C 535.99976,557.88271 536.82616,557.70201 534.95169,558.00731 C 531.33392,557.88608 535.39599,558.05845 531.17792,557.74386 C 525.38073,557.31149 519.55807,557.2991 513.749,557.30641 C 491.27919,557.31258 468.80622,557.56728 446.34046,556.96115 C 414.42345,556.09471 382.52976,554.66698 350.64915,552.91277 C 318.43666,551.29169 286.20354,549.74336 253.94135,549.77401 C 227.67238,549.8501 201.39728,550.34903 175.18112,552.13421 C 163.94082,552.92686 152.6338,553.59822 141.53388,555.62988 C 138.2385,556.45303 141.10626,555.88438 144.02655,553.60017 C 144.34842,553.3484 143.00539,553.15989 143.95047,553.31054 C 144.07749,553.33078 144.20269,553.36108 144.3288,553.38635 C 145.54366,553.60357 146.87258,553.52272 147.97148,554.13138 L 145.78543,555.71964 z" />
    <path
       style="opacity:0.98999999;fill:none;fill-opacity:1;stroke:#000000;stroke-width:4.5;stroke-miterlimit:4;stroke-dasharray:none;stroke-opacity:1"
       id="path3161"
       d="M 131.69452,309.04092 C 130.45381,308.13559 129.11839,307.43355 127.73531,306.7773 C 125.28197,305.58329 125.64071,306.15149 129.55137,304.15604 C 135.1392,304.81571 140.76868,305.03863 146.38529,305.31422 C 165.07452,306.15263 183.7874,306.1291 202.49095,306.12828 C 232.61391,305.89667 262.73218,305.94722 292.84971,306.57595 C 319.31731,307.34149 345.77338,308.39587 372.24917,308.84914 C 390.33089,309.16715 408.41189,308.84355 426.48913,308.45544 C 436.66861,308.21917 446.85188,308.21294 457.01527,307.55018 C 464.53259,307.0467 471.84698,305.20422 479.19827,303.68857 C 486.12773,302.20394 493.19341,301.69538 500.2588,301.46817 C 505.07364,301.34303 509.89071,301.38142 514.70609,301.31058 C 518.66016,301.20456 522.57664,300.59816 526.5207,300.35161 C 527.15385,300.35732 527.78699,300.36302 528.42013,300.36873 L 528.24791,300.49851 C 527.20728,300.79906 526.16666,301.0996 525.12604,301.40015 C 520.6853,302.46938 516.18488,303.41202 511.60436,303.57079 C 506.89796,303.63389 502.19335,303.34966 497.48637,303.49593 C 490.46655,303.71596 483.44192,304.16461 476.56348,305.68738 C 469.28097,307.24083 462.00418,309.00909 454.53609,309.37322 C 444.60497,309.86456 434.66158,309.70159 424.7214,309.74284 C 407.02325,309.7593 389.32282,309.74948 371.6291,309.29751 C 345.30678,308.55739 318.99971,307.37027 292.67499,306.70234 C 262.46774,306.07203 232.25208,305.89274 202.04137,306.45541 C 182.84091,306.72634 163.63554,307.0683 144.4337,306.72184 C 138.52655,306.5994 132.6156,306.50935 126.71529,306.18307 C 127.60179,305.58828 128.48829,304.99349 129.37478,304.39871 C 129.3115,304.33521 129.18008,304.29773 129.18492,304.20821 C 129.18877,304.13706 129.31353,304.27008 129.38041,304.29463 C 129.85142,304.4675 130.35976,304.50723 130.78763,304.79459 C 131.95555,305.60188 132.78037,306.75669 133.35455,308.04402 L 131.69452,309.04092 z" />
    <path
       style="opacity:0.98999999;fill:none;fill-opacity:1;stroke:#000000;stroke-width:4.5;stroke-miterlimit:4;stroke-dasharray:none;stroke-opacity:1"
       id="path3165"
       d="M 543.38795,305.43093 C 542.17802,304.83226 540.84069,304.56742 539.53324,304.26932 C 539.89058,303.79177 538.32142,304.47991 538.52312,304.3735 C 539.44133,303.88905 540.29947,303.27131 541.2736,302.91233 C 541.49034,302.83246 541.00316,303.28951 540.90161,303.49698 C 540.73876,303.82967 540.62285,304.18335 540.48347,304.52653 C 538.84653,311.19266 538.8105,318.17074 538.45196,324.99418 C 537.34607,344.01551 538.1255,363.04883 539.29404,382.04256 C 540.99893,402.47189 541.74419,422.94754 542.16374,443.43687 C 542.43391,459.48987 542.43739,475.54297 541.48459,491.57292 C 540.65003,502.0257 539.33001,512.42619 538.51399,522.88098 C 538.18521,528.07199 538.00609,533.30295 538.44205,538.49499 C 538.57107,540.03149 538.90093,542.29524 539.11586,543.85732 C 539.72682,547.29347 540.36532,550.71489 540.55397,554.20394 C 540.65734,556.55432 540.31911,558.878 540.02676,561.20087 C 539.78206,562.26075 539.60027,563.28561 538.93736,564.16464 C 538.26486,564.80455 538.45578,564.49285 538.20858,564.98399 L 538.01866,565.08614 C 537.67218,564.91856 537.89376,564.99676 537.3275,564.94757 C 537.23705,564.87445 537.10391,564.83425 537.05615,564.7282 C 536.75579,564.0613 537.45372,563.08677 537.48621,562.43111 C 538.13457,560.11459 538.46989,557.71137 538.42445,555.30268 C 538.25663,551.79476 537.63562,548.34555 537.19411,544.86558 C 536.46871,537.80171 536.51765,530.69925 537.03905,523.61923 C 537.72038,513.21491 538.77006,502.84272 539.71438,492.45999 C 540.92038,476.33813 541.40903,460.17041 541.05732,444.00342 C 540.65606,423.52373 539.62605,403.06817 538.1433,382.6379 C 536.96984,363.86195 535.97452,345.06646 535.97535,326.2474 C 535.99254,319.53619 535.72474,312.67346 537.15099,306.07655 C 537.89421,303.92482 539.70303,301.24189 542.33931,302.38694 C 543.28881,302.97554 544.00575,303.86696 545.01951,304.36356 L 543.38795,305.43093 z" />
    <g
       id="g3254">
      <path
         d="M 230.55979,297.30261 C 230.19754,299.96166 229.69551,302.59099 229.35131,305.25461 C 229.25629,308.01809 228.91138,310.69158 228.36084,313.38279 C 227.0479,319.29198 225.11116,324.97522 223.59702,330.81316 L 223.42685,330.90734 C 224.05832,325.4988 224.69957,320.10378 225.82285,314.79197 C 226.25666,311.96882 226.59645,309.13391 227.32626,306.38212 C 227.90119,303.61926 228.48143,300.85843 229.11147,298.11122 L 230.55979,297.30261 z"
         id="path3177"
         style="opacity:0.98999999;fill:none;fill-opacity:1;stroke:#000000;stroke-width:4.2221303;stroke-miterlimit:4;stroke-dasharray:none;stroke-opacity:1" />
      <path
         d="M 229.05538,291.07073 C 228.90775,291.16786 226.79341,289.97178 227.08137,289.72889 C 228.0245,288.93335 229.077,288.32417 230.07482,287.62181 C 234.2232,287.475 238.38422,287.84132 242.53069,288.03104 C 254.60386,288.48125 266.63814,289.60725 278.65303,290.99533 C 293.81186,292.9848 308.95005,295.134 324.14572,296.73001 C 337.85099,298.14495 351.61103,298.45991 365.36187,298.67593 C 375.21496,298.77652 385.06792,298.69128 394.92085,298.63423 C 401.38231,298.62584 407.84197,298.74707 414.30324,298.66411 C 420.46612,298.5813 426.60788,297.99472 432.73357,297.25948 C 437.47553,296.64128 442.17826,295.70543 446.89146,294.85887 C 450.11061,294.29948 453.33846,293.8104 456.57354,293.38891 C 458.11879,293.17123 459.67323,293.13043 461.22787,293.13367 C 461.62853,293.25282 463.34986,292.81139 463.62644,293.15422 C 463.66105,293.19713 463.61629,293.27054 463.61122,293.3287 C 463.303,293.72661 462.9258,294.03661 462.58583,294.39533 L 462.43283,294.52246 C 461.92049,294.8735 461.43172,295.26792 460.90087,295.5834 C 459.98194,295.97743 459.03481,295.78473 458.07223,295.76618 C 456.56948,295.79072 455.06486,295.80534 453.56607,295.94545 C 450.42053,296.22647 447.28724,296.66268 444.16742,297.201 C 439.51385,297.98414 434.87091,298.86859 430.19064,299.4241 C 424.0927,300.13134 417.97212,300.59068 411.84293,300.71889 C 405.43008,300.80824 399.01776,300.6874 392.60571,300.56118 C 382.97451,300.40239 373.34315,300.25625 363.71268,300.04514 C 350.05889,299.74086 336.39986,299.25005 322.79356,297.83487 C 307.59532,296.21412 292.45676,294.00446 277.28343,292.11349 C 265.00218,290.81702 252.6924,289.86815 240.35265,289.83572 C 236.10471,289.77426 231.81737,289.51011 227.58228,289.86359 C 232.86995,285.71635 229.0525,287.61366 229.9843,288.47474 C 230.38699,288.84688 230.91134,288.93667 231.27821,289.36511 L 229.05538,291.07073 z"
         id="path3185"
         style="opacity:0.98999999;fill:none;fill-opacity:1;stroke:#000000;stroke-width:4.2221303;stroke-miterlimit:4;stroke-dasharray:none;stroke-opacity:1" />
      <path
         d="M 460.88289,293.63355 C 459.48937,298.27473 457.91966,302.84276 456.40586,307.43322 C 454.15404,313.78572 452.48228,320.21393 451.45932,326.9644 C 451.25724,328.44211 451.18361,329.93899 450.99668,331.41887 C 450.92722,331.96874 450.9551,332.56131 450.74092,333.05969 C 449.27059,336.48114 449.58761,333.63098 449.45286,335.70492 L 449.2848,335.80393 C 449.00406,333.73081 449.62437,336.85388 447.95239,334.67464 C 447.4665,334.04134 448.03538,329.52434 448.11511,328.83344 C 449.20508,322.05792 451.04314,315.51553 453.25541,309.113 C 454.7371,304.57774 456.21833,300.04139 457.52991,295.43666 L 460.88289,293.63355 z"
         id="path3187"
         style="opacity:0.98999999;fill:none;fill-opacity:1;stroke:#000000;stroke-width:4.2221303;stroke-miterlimit:4;stroke-dasharray:none;stroke-opacity:1" />
      <path
         d="M 228.43754,341.58841 C 227.80863,341.82903 226.71326,341.38745 226.17448,341.88387 C 227.12668,341.1736 228.0233,340.35415 229.03106,339.7531 C 229.18631,339.6605 229.37396,339.83343 229.54545,339.87334 C 229.85197,339.94469 230.15711,340.02434 230.46509,340.08687 C 232.54938,340.51004 234.64977,340.8319 236.74597,341.16326 C 247.94276,342.74583 259.2016,343.6169 270.45881,344.39003 C 285.14288,345.44917 299.85344,345.3072 314.55201,344.8858 C 326.92842,344.53292 339.2723,343.41565 351.59322,342.0807 C 363.22474,340.62717 374.88005,339.50922 386.55906,338.7145 C 396.12229,338.11453 405.70074,338.11029 415.27403,338.23532 C 422.1595,338.43499 429.03979,338.27059 435.9152,337.83939 C 441.29677,337.46615 446.67849,337.09238 452.05786,336.67877 C 453.49347,336.55888 454.92434,336.38595 456.35842,336.2471 C 456.57649,336.22598 456.79546,336.21288 457.01221,336.17815 C 457.12195,336.16057 457.42822,336.02058 457.3357,336.0905 C 456.02494,337.08121 454.67304,337.99843 453.34171,338.9524 C 453.24321,338.21246 453.80211,337.73873 454.1843,337.23739 L 454.34099,337.11633 C 455.22354,336.69175 456.06312,336.14237 457.04819,336.31628 C 455.81897,337.37536 454.62199,338.48552 453.36052,339.49351 C 453.27997,339.55787 453.16419,339.49806 453.06602,339.49829 C 452.87293,339.49874 452.67983,339.49854 452.48676,339.49558 C 451.26049,339.47673 450.03701,339.37227 448.80978,339.41102 C 443.54747,339.55185 438.29553,339.94941 433.03939,340.25983 C 426.25736,340.58893 419.46974,340.68128 412.68438,340.38453 C 403.29292,340.11166 393.89299,339.92221 384.50446,340.44608 C 372.85063,341.12122 361.23469,342.32232 349.63282,343.74651 C 337.40654,345.06933 325.1576,346.09319 312.8723,346.29171 C 298.19813,346.61342 283.51538,346.61276 268.85421,345.71131 C 257.34208,345.03458 245.81827,344.40807 234.34357,343.11466 C 232.16446,342.85447 229.99996,342.58675 227.83607,342.19617 C 227.51089,342.13748 227.18516,342.08252 226.86074,342.01857 C 226.68263,341.98347 226.20583,342.05099 226.3287,341.89904 C 227.03726,341.02276 227.9557,340.40526 228.76919,339.65837 C 228.74974,339.9367 230.25064,339.82956 230.49615,339.86448 L 228.43754,341.58841 z"
         id="path3189"
         style="opacity:0.98999999;fill:none;fill-opacity:1;stroke:#000000;stroke-width:4.2221303;stroke-miterlimit:4;stroke-dasharray:none;stroke-opacity:1" />
      <path
         d="M 246.74147,296.46573 C 244.77244,298.47893 242.97698,300.69961 241.15428,302.8826 C 238.85092,305.6693 236.37271,308.25381 233.9179,310.86143 C 232.95506,311.77825 232.18287,312.94773 231.15541,313.77538 C 230.614,314.1292 230.02813,314.38028 229.45811,314.66574 L 229.2834,314.74826 C 228.82455,314.94924 228.37488,315.22294 227.88821,315.31195 C 228.14841,314.48318 230.2191,313.17568 230.63679,312.39983 C 233.14325,309.8135 235.63678,307.20984 237.96388,304.40808 C 239.71556,302.2946 241.44084,300.15128 243.25096,298.10269 L 246.74147,296.46573 z"
         id="path3205"
         style="opacity:0.98999999;fill:none;fill-opacity:1;stroke:#000000;stroke-width:4.2221303;stroke-miterlimit:4;stroke-dasharray:none;stroke-opacity:1" />
      <path
         d="M 228.87125,330.28657 C 231.72974,328.34336 234.34084,325.97943 236.94656,323.62756 C 241.35696,319.51924 245.94058,315.66812 250.50906,311.79694 C 253.32903,309.46503 256.07422,307.02044 258.73437,304.45434 C 259.44612,303.73108 260.16634,302.99471 261.04905,302.56278 C 261.33306,302.49658 261.61705,302.43039 261.90106,302.3642 L 261.72928,302.45444 C 262.0864,302.19861 262.4435,301.94277 262.80062,301.68694 C 263.83801,301.40064 262.23198,302.76228 262.13005,302.88187 C 259.35153,305.53147 256.43685,307.98311 253.5205,310.42779 C 248.96844,314.23303 244.43302,318.06908 240.08726,322.18302 C 237.61169,324.47531 235.12936,326.77428 232.42479,328.70853 L 228.87125,330.28657 z"
         id="path3207"
         style="opacity:0.98999999;fill:none;fill-opacity:1;stroke:#000000;stroke-width:4.2221303;stroke-miterlimit:4;stroke-dasharray:none;stroke-opacity:1" />
      <path
         d="M 243.55478,336.09472 C 248.20452,334.32838 252.67621,332.01969 257.13414,329.70896 C 264.60343,325.76385 271.81025,321.21399 278.93016,316.50692 C 283.45834,313.34141 287.89689,310.00915 292.27204,306.57053 C 294.04028,305.41285 295.751,303.05708 297.94717,302.90195 C 298.33709,302.8744 297.31409,303.42706 296.99755,303.68963 L 296.75232,303.81279 C 295.45981,303.69383 295.91156,303.82689 298.62278,302.47254 C 298.68677,302.44057 298.54782,302.61006 298.49593,302.66359 C 297.63339,303.55359 296.6149,304.23621 295.69143,305.03119 C 289.38038,309.96043 282.94236,314.67884 276.28082,318.96635 C 269.15416,323.66216 261.93107,328.17535 254.46782,332.13594 C 249.84938,334.55155 245.20601,336.91729 240.42403,338.88182 L 243.55478,336.09472 z"
         id="path3209"
         style="opacity:0.98999999;fill:none;fill-opacity:1;stroke:#000000;stroke-width:4.2221303;stroke-miterlimit:4;stroke-dasharray:none;stroke-opacity:1" />
      <path
         d="M 274.20283,336.28435 C 277.59859,335.32938 280.8211,333.72755 284.02144,332.14399 C 290.35457,329.0267 296.39464,325.21534 302.36602,321.28816 C 307.03305,318.07084 311.57327,314.64023 315.92344,310.88455 C 317.22527,309.7665 318.49737,308.59813 319.92558,307.70099 L 321.30087,307.07192 C 321.36791,307.08205 321.5174,307.02679 321.50199,307.10229 C 321.36207,307.78741 319.82264,308.79005 319.56934,309.22087 C 313.30863,314.63361 306.53643,319.20679 299.7601,323.70671 C 293.68312,327.7096 287.53919,331.59969 281.09895,334.79234 C 277.93579,336.33361 274.74043,337.97713 271.35252,338.74282 L 274.20283,336.28435 z"
         id="path3211"
         style="opacity:0.98999999;fill:none;fill-opacity:1;stroke:#000000;stroke-width:4.2221303;stroke-miterlimit:4;stroke-dasharray:none;stroke-opacity:1" />
      <path
         d="M 308.10948,339.64903 C 311.01824,337.91102 313.89649,336.10974 316.75281,334.2612 C 316.62267,334.34094 316.23715,334.5899 316.3624,334.50043 C 322.22659,330.31088 327.93033,325.9 333.60639,321.38155 C 339.16162,317.03343 344.62237,312.52836 350.16999,308.16802 C 351.50144,307.22154 352.71419,306.09332 354.20715,305.50494 L 354.05577,305.6346 C 354.1164,305.57569 354.16013,305.47789 354.23766,305.45787 C 354.27458,305.44833 354.31332,305.54249 354.28788,305.57463 C 353.89644,306.06919 353.31666,306.33868 352.97473,306.89644 C 347.64751,311.54896 341.96148,315.6305 336.5039,320.07435 C 329.16675,325.91201 321.8746,331.8642 314.02723,336.78767 C 311.21523,338.6177 308.38437,340.41255 305.48763,342.06161 L 308.10948,339.64903 z"
         id="path3213"
         style="opacity:0.98999999;fill:none;fill-opacity:1;stroke:#000000;stroke-width:4.2221303;stroke-miterlimit:4;stroke-dasharray:none;stroke-opacity:1" />
      <path
         d="M 336.49259,339.41965 C 340.13525,337.0596 343.78246,334.70948 347.45176,332.4041 C 354.42427,328.11047 361.46629,323.97114 368.39699,319.58838 C 373.9453,316.04481 379.24603,312.01125 384.4529,307.84673 C 385.75781,307.00536 386.76337,305.62761 388.10373,304.84798 C 388.4513,304.64582 388.82774,304.51692 389.18975,304.35138 L 389.01412,304.5025 C 389.28291,304.35354 389.5271,304.11887 389.82051,304.05562 C 389.91526,304.03521 389.76323,304.27533 389.69673,304.35537 C 389.25429,304.8879 387.86521,306.13142 387.50669,306.46324 C 380.58826,312.29743 373.146,317.23895 365.68575,322.0959 C 358.67065,326.53266 351.55472,330.75013 344.5102,335.12442 C 340.85934,337.44379 337.22562,339.7982 333.57532,342.11838 L 336.49259,339.41965 z"
         id="path3215"
         style="opacity:0.98999999;fill:none;fill-opacity:1;stroke:#000000;stroke-width:4.2221303;stroke-miterlimit:4;stroke-dasharray:none;stroke-opacity:1" />
      <path
         d="M 370.26816,336.03512 C 374.42588,332.56678 379.14718,330.02575 383.71133,327.32771 C 389.56467,323.65102 395.62001,320.3378 401.30764,316.32032 C 406.30026,312.91219 411.26121,309.43588 416.15518,305.84376 C 417.73038,304.69901 417.07308,305.24012 418.1644,304.28174 L 418.33725,304.19426 C 418.71771,304.43161 418.63174,304.24966 418.47631,304.79428 C 414.26783,308.71542 409.32767,311.49154 404.76194,314.79895 C 396.85395,320.04363 388.91917,325.23724 380.78748,330.01749 C 379.8286,330.58986 378.86832,331.15913 377.91085,331.73457 C 377.08831,332.22893 376.30815,332.82692 375.44747,333.2269 C 374.92526,333.46958 376.73431,332.83247 376.88682,332.21047 C 376.92192,332.06731 374.69709,333.69531 374.51491,333.8339 C 374.32076,333.98159 374.13526,334.14369 373.94543,334.29858 L 370.26816,336.03512 z"
         id="path3217"
         style="opacity:0.98999999;fill:none;fill-opacity:1;stroke:#000000;stroke-width:4.2221303;stroke-miterlimit:4;stroke-dasharray:none;stroke-opacity:1" />
      <path
         d="M 398.29312,334.49857 C 403.41357,332.37499 408.28137,329.54953 413.1213,326.71156 C 419.21802,323.08498 425.11007,319.0389 431.00986,315.01452 C 434.68851,312.44333 438.43649,310.01002 442.19117,307.58949 L 442.36708,307.51042 C 441.93375,308.11378 441.43265,308.48023 440.85943,308.92916 C 438.78643,310.55268 436.62151,312.01021 434.46776,313.4865 C 426.46993,318.94221 418.4588,324.38622 410.22798,329.37073 C 405.41481,332.20175 400.55728,334.99712 395.43686,337.03419 L 398.29312,334.49857 z"
         id="path3219"
         style="opacity:0.98999999;fill:none;fill-opacity:1;stroke:#000000;stroke-width:4.2221303;stroke-miterlimit:4;stroke-dasharray:none;stroke-opacity:1" />
    </g>
    <g
       id="g3268"
       style="fill:none;fill-opacity:1;stroke:#019c0e;stroke-opacity:1">
      <path
         d="M 502.57828,396.33291 C 502.95941,395.36888 503.32759,394.80449 502.84586,393.80585 C 502.66184,393.54854 502.54096,393.03608 502.21828,392.88502 C 502.13176,392.84452 502.01045,392.82948 501.93085,392.88193 C 501.79593,392.97086 501.48932,393.32648 501.63977,393.2663 C 502.82561,392.79196 503.94296,392.1664 505.09455,391.61645 C 504.84522,392.09267 504.56282,392.5535 504.34655,393.0451 C 503.56513,394.82141 502.77495,397.23748 502.25985,399.02485 C 500.63708,404.65588 499.66162,410.37293 498.68221,416.13783 C 497.14461,426.19147 496.52101,436.36004 496.67908,446.52208 C 496.76239,451.87805 496.99285,454.89719 497.30164,460.183 C 497.97503,469.08248 498.52915,477.98681 498.0052,486.90471 C 497.6495,489.64496 497.6485,492.53276 496.65445,495.15291 C 496.60152,495.72874 495.9258,496.1429 495.82229,496.68273 C 496.27343,497.18235 496.63929,497.75236 496.9691,498.34005 C 497.61026,499.34758 498.11919,500.44968 498.92088,501.35402 C 499.54282,502.0556 499.99765,502.34102 500.74655,502.90918 C 503.6935,504.66771 506.69106,504.48184 509.97322,504.05905 C 514.71958,503.06 519.42212,501.91708 524.21414,501.13805 C 529.01219,500.348 533.87106,500.52623 538.69268,500.93964 C 542.91437,501.39112 547.15338,501.56384 551.39713,501.48215 C 553.39793,501.43491 555.39552,501.30975 557.39482,501.22883 C 557.98392,501.15265 558.61864,501.2066 559.17975,500.97386 C 559.32118,500.9152 559.70652,500.664 559.57191,500.73652 C 555.65174,502.84822 555.00272,504.04271 555.99494,502.43435 C 556.04487,502.22623 556.11552,502.02189 556.14474,501.80999 C 556.3068,500.63493 556.15772,499.41336 556.15978,498.23521 C 556.16331,496.21901 556.21309,496.06214 556.35859,493.90137 C 557.28876,484.83814 559.2128,475.90364 560.95687,466.96671 C 563.30039,455.12103 565.44321,443.24015 566.99868,431.26839 C 567.78434,425.41616 568.11336,419.51763 567.43781,413.64641 C 567.05318,412.11775 567.04825,411.4589 565.43026,412.04333 C 564.07136,412.67442 562.71784,412.64477 561.28313,412.33096 C 558.55091,411.21277 556.58557,408.8651 554.49111,406.89272 C 550.42446,403.02129 545.52083,400.35779 540.08796,398.8199 C 538.4271,398.34975 536.72544,398.03228 535.04417,397.63847 C 524.79522,395.54011 514.30492,395.38237 503.88385,395.10835 C 494.17543,394.73452 505.77694,395.31898 499.32367,394.68176 C 498.87363,394.63733 498.41912,394.69129 497.96684,394.69605 L 498.11521,394.58852 C 500.585,394.30898 503.02246,393.77049 505.52896,393.93671 C 515.98706,394.00198 526.46864,394.67709 536.77947,396.4582 C 538.47081,396.85282 540.17843,397.18513 541.85348,397.64208 C 547.40149,399.15555 552.58159,401.6062 556.83961,405.46391 C 559.00021,407.34469 561.14776,409.62832 563.97449,410.47517 C 565.68819,410.67813 567.19391,410.21051 568.75245,409.52577 C 570.56415,409.12897 570.85285,410.17748 571.11276,411.75601 C 571.72726,417.80551 570.61192,423.87004 569.90186,429.86317 C 568.04446,441.82491 565.87556,453.73525 563.7125,465.64652 C 562.18471,474.39724 560.52379,483.17001 560.076,492.05385 C 560.07559,494.86428 560.35789,497.65947 560.33685,500.46033 C 559.64566,503.10217 556.1941,503.87449 553.76758,503.84304 C 551.83557,503.91788 549.90092,503.92596 547.9677,503.93566 C 543.76534,503.8956 539.57054,503.65736 535.38693,503.26232 C 530.59762,502.91243 525.78786,502.69355 521.02515,503.49741 C 516.19721,504.30006 511.46923,505.50459 506.67812,506.47878 C 503.38433,506.90024 500.09849,506.98517 497.20741,505.11411 C 495.49398,503.91463 494.03968,502.43217 492.93587,500.66062 C 492.48442,500.08482 492.00914,499.52434 491.6097,498.9149 C 491.39708,498.28779 491.85846,497.80022 492.10725,497.23336 C 493.134,494.55334 493.57506,491.69907 493.98963,488.87659 C 494.96319,479.86573 494.60232,470.80866 494.16545,461.7728 C 493.63965,447.03176 493.62075,432.24928 495.65344,417.59959 C 496.47011,411.73262 496.50618,410.94016 497.55032,405.35457 C 498.30401,401.32272 499.09973,397.21693 500.79684,393.4479 C 503.28774,391.7586 505.57602,388.45602 506.44958,391.91936 C 506.4302,393.41413 505.64637,394.57148 504.50822,395.52771 L 502.57828,396.33291 z"
         id="path3231"
         style="opacity:0.98999999;fill:none;fill-opacity:1;stroke:#019c0e;stroke-width:3.81416416;stroke-miterlimit:4;stroke-dasharray:none;stroke-opacity:1" />
      <path
         d="M 213.87877,521.01297 C 213.50495,527.3705 213.3441,533.72764 213.39571,540.09572 C 213.47045,549.23079 214.52391,558.30617 215.87083,567.3283 C 216.24138,569.52174 216.72062,571.69505 217.12518,573.88198 C 217.29241,574.786 217.3794,575.57858 217.78512,576.40179 C 217.89341,576.47021 217.98726,576.57035 218.10998,576.60704 C 219.15489,576.91935 222.47269,575.94649 223.4881,575.71775 C 229.52725,574.19689 235.73984,573.75377 241.93417,573.40516 C 254.65281,572.82635 267.38123,572.47847 280.10812,572.13695 C 293.97187,571.81617 307.83341,571.46586 321.68132,570.71488 C 333.73038,569.96599 345.76073,568.9557 357.80315,568.10973 C 368.31711,567.42289 378.82502,566.6475 389.33772,565.94286 C 398.5607,565.30707 407.79307,564.80641 417.03083,564.44605 C 423.65148,564.21909 430.26157,563.79837 436.8716,563.37344 C 442.43168,563.03724 448.00093,562.92057 453.56776,562.75878 C 456.26194,562.70421 458.95202,562.54624 461.64349,562.42467 C 464.48931,562.29123 467.34042,562.2937 470.18898,562.29027 C 472.80402,562.29945 475.40983,562.46779 478.00216,562.80234 C 480.1547,563.10332 482.31353,563.33013 484.48599,563.39917 C 486.8904,563.62517 489.32605,561.87734 481.74751,565.72892 C 481.61274,565.79741 481.97303,565.52116 482.05005,565.39109 C 482.16453,565.19776 482.22645,564.97778 482.31465,564.77113 C 483.0969,561.7212 482.92397,558.51138 482.84278,555.39215 C 482.55974,549.34386 482.23018,543.30369 482.26225,537.24723 C 482.29647,532.92001 483.2594,528.7186 484.49141,524.5985 C 484.8723,523.22705 485.59083,521.81948 485.02718,520.41581 C 484.66934,519.80684 484.50214,519.13128 484.30194,518.46444 C 484.23315,517.78094 483.99914,517.35013 483.48473,516.90991 C 481.16715,515.68499 478.48245,515.5716 475.92437,515.33901 C 467.34089,514.75174 458.75505,515.4818 450.21517,516.30782 C 438.92634,517.70543 427.66376,519.25172 416.33813,520.33137 C 403.24265,521.51083 390.1088,522.20854 376.96602,522.53924 C 368.35775,522.84025 359.77509,522.18473 351.25524,521.01293 C 345.8624,520.04842 340.44332,519.36989 334.97335,519.08414 C 327.87226,518.89016 320.76829,519.10138 313.67002,519.30691 C 304.62234,519.61507 295.60252,520.42938 286.58301,521.17154 C 280.2574,521.75445 273.91383,521.98628 267.56429,521.99848 C 262.01099,521.85287 256.4591,521.79926 250.90772,522.02018 C 246.57662,522.19341 242.28031,522.79239 237.96789,523.18747 C 234.9169,523.46904 231.85724,523.55489 228.7953,523.50563 C 228.32618,523.43906 227.85707,523.3725 227.38795,523.30593 C 227.05263,523.12172 226.76002,522.81224 226.382,522.75329 C 225.73965,522.65312 225.08323,522.81461 224.43384,522.84526 L 224.6077,522.71769 C 225.25717,522.68715 225.91426,522.72983 226.55611,522.62606 C 227.45573,522.48062 228.32602,522.191 229.21098,521.97347 C 229.90674,521.87369 230.60251,521.77391 231.29828,521.67413 C 234.6424,521.41401 237.98809,521.14718 241.3136,520.70135 C 245.60252,520.173 249.90828,519.77236 254.22694,519.59134 C 259.78465,519.43465 265.34096,519.51266 270.89963,519.5761 C 277.12439,519.6101 283.34794,519.4429 289.55696,518.97583 C 298.58325,518.33361 307.59995,517.53809 316.64162,517.1319 C 323.82922,516.83466 331.02855,516.58594 338.22248,516.748 C 343.69989,517.0051 349.1254,517.65325 354.50747,518.72333 C 362.71208,520.06271 370.99461,520.8321 379.31585,520.82591 C 392.36656,520.7158 405.42099,520.16763 418.40533,518.79602 C 429.90188,517.4705 441.34186,515.72855 452.83364,514.36503 C 461.60898,513.45047 470.42558,512.69852 479.25814,512.95211 C 482.10332,513.09331 485.18217,513.03638 487.86131,514.11847 C 488.62146,514.56533 488.91139,515.05098 488.99555,515.92241 C 489.13727,516.59189 489.53534,517.12779 489.85723,517.72111 C 490.49056,519.34359 489.86689,520.83249 489.22016,522.37436 C 487.76613,526.47809 486.67423,530.6905 486.54907,535.07201 C 486.37965,541.09976 486.75788,547.11132 487.25642,553.11801 C 487.45808,556.2187 487.76222,559.37525 487.21706,562.45766 C 486.51364,565.77671 483.13357,566.95687 480.14764,566.50296 C 478.03168,566.25085 475.9088,566.06166 473.79654,565.77719 C 471.25144,565.457 468.69702,565.22357 466.12852,565.23927 C 463.22021,565.22537 460.31553,565.32459 457.41423,565.52967 C 454.81408,565.67088 452.21061,565.63232 449.60748,565.64739 C 444.09886,565.69102 438.58925,565.7958 433.09071,566.15608 C 426.58092,566.53869 420.06911,566.94427 413.54588,566.99488 C 404.47211,567.2132 395.40019,567.50893 386.34442,568.14824 C 375.87301,568.84387 365.40417,569.57759 354.92974,570.22736 C 342.96257,571.01487 331.00472,571.93886 319.03327,572.65968 C 305.25311,573.33027 291.46195,573.60621 277.66985,573.91916 C 264.71629,574.31441 251.76204,574.79656 238.83191,575.69132 C 232.54451,576.18761 226.2398,576.7369 220.10675,578.29193 C 218.93271,578.5616 215.35973,579.698 214.22524,579.02724 C 214.06775,578.93412 213.97428,578.76094 213.8488,578.62778 C 212.57766,575.73214 212.48189,572.43717 212.01385,569.35931 C 210.90798,560.25661 210.16481,551.10713 209.78273,541.94538 C 209.5945,535.76176 209.48432,529.57455 209.24592,523.39357 L 213.87877,521.01297 z"
         id="path3237"
         style="opacity:0.98999999;fill:none;fill-opacity:1;stroke:#019c0e;stroke-width:4.5;stroke-miterlimit:4;stroke-dasharray:none;stroke-opacity:1" />
    </g>
    <g
       id="g3276"
       transform="translate(28.725013,-0.5585419)">
      <path
         d="M 188.03339,485.73532 C 187.46709,488.60186 187.27515,491.51934 187.28373,494.43584 C 187.11875,495.87159 187.84297,499.3579 187.11163,500.58185 C 186.88445,500.96205 186.52354,501.24427 186.2295,501.57548 C 186.178,501.6873 186.12651,501.79912 186.07501,501.91094 L 185.88832,502.01888 C 185.7622,502.00327 185.63609,501.98766 185.50998,501.97205 C 185.1178,502.01189 184.7212,502.16254 184.33345,502.09157 C 182.90843,501.83074 182.49789,497.93628 182.41699,496.91804 C 182.40226,494.02969 182.53335,491.14194 182.8393,488.26898 L 188.03339,485.73532 z"
         id="path3239"
         style="opacity:0.98999999;fill:none;fill-opacity:1;stroke:#000000;stroke-width:4.5;stroke-miterlimit:4;stroke-dasharray:none;stroke-opacity:1" />
      <path
         d="M 190.04106,485.61998 C 188.80512,485.30277 187.58458,484.9733 186.39218,484.51697 C 186.29949,484.42452 185.85876,484.0675 186.1823,483.87342 C 187.63207,483.00377 189.15809,482.25211 190.72638,481.62077 C 191.17452,481.44037 195.309,481.72008 195.67194,481.7325 C 203.80157,482.0789 211.8453,483.35982 219.88031,484.56269 C 227.57703,485.79933 235.32521,486.65933 243.06962,487.52956 C 244.92012,487.76263 246.77686,487.95872 248.6239,488.21957 C 249.14232,488.29278 249.99227,488.27242 250.31402,488.75332 C 250.01521,489.27904 250.20682,489.01582 249.70599,489.51772 L 249.52994,489.64226 C 248.6128,490.13268 249.08258,489.91181 248.12067,490.30497 C 245.50226,490.80975 242.76388,489.64991 240.14745,489.5984 C 232.48741,488.56972 224.82567,487.55304 217.17282,486.4715 C 208.93469,485.34215 200.66313,484.23352 192.33447,484.15015 C 190.63634,484.1589 189.81839,484.1352 188.20977,484.23247 C 187.83375,484.25521 186.80301,484.5861 187.08437,484.33561 C 188.73024,482.87033 191.76363,482.90164 190.09407,481.97042 C 190.06217,481.95263 190.13833,482.02856 190.16045,482.05762 C 190.983,482.72106 192.0408,483.05449 192.83511,483.7732 L 190.04106,485.61998 z"
         id="path3241"
         style="opacity:0.98999999;fill:none;fill-opacity:1;stroke:#000000;stroke-width:4.5;stroke-miterlimit:4;stroke-dasharray:none;stroke-opacity:1" />
      <path
         d="M 252.17877,487.29169 C 251.166,490.13507 250.8534,493.15262 250.49135,496.1303 C 250.37346,498.39605 249.5048,499.91533 248.42114,501.81465 L 248.22882,501.9122 C 246.51939,500.54124 246.61784,500.381 246.57577,498.07994 C 246.76456,495.10256 247.0352,492.07789 247.96615,489.22777 L 252.17877,487.29169 z"
         id="path3243"
         style="opacity:0.98999999;fill:none;fill-opacity:1;stroke:#000000;stroke-width:4.5;stroke-miterlimit:4;stroke-dasharray:none;stroke-opacity:1" />
      <path
         d="M 176.28652,498.66855 C 182.23835,498.7767 188.18185,499.21677 194.12122,499.59797 C 207.01114,500.40134 219.88226,501.55613 232.67875,503.30731 C 238.92745,504.41775 235.89624,503.96312 241.76753,504.7033 L 241.59149,504.82786 C 235.50369,504.0606 238.77068,504.38239 231.78287,503.94346 C 218.4947,502.8429 205.21236,501.5884 191.87622,501.21268 C 185.78544,501.01548 179.69197,500.87895 173.60399,500.61025 L 176.28652,498.66855 z"
         id="path3245"
         style="opacity:0.98999999;fill:none;fill-opacity:1;stroke:#000000;stroke-width:4.5;stroke-miterlimit:4;stroke-dasharray:none;stroke-opacity:1" />
    </g>
    <path
       style="opacity:0.98999999;fill:none;fill-opacity:1;stroke:#000000;stroke-width:4.5;stroke-miterlimit:4;stroke-dasharray:none;stroke-opacity:1"
       id="path3272"
       d="M 155.34022,317.73809 C 154.59515,322.88772 154.00862,328.05838 153.48113,333.23424 C 152.64513,341.48042 152.26603,349.76046 152.11352,358.04441 C 152.01797,363.90802 151.89946,369.77205 151.85702,375.63634 C 151.77425,378.61365 151.96103,381.58307 152.28128,384.54085 C 152.46224,385.79425 152.37065,387.05302 152.187,388.29903 C 152.06358,388.87898 152.15512,389.56365 151.82808,390.08014 C 151.11008,390.66374 150.19981,390.97358 149.36646,391.36973 L 149.16969,391.45795 C 148.40648,391.79605 147.64419,392.27151 146.83668,392.42421 C 146.72469,391.86008 147.43098,391.24294 147.36605,390.65636 C 147.59119,389.44046 147.66083,388.21416 147.57991,386.97826 C 147.47459,383.92721 147.44391,380.87554 147.54626,377.82272 C 147.72194,371.91068 147.87406,365.99791 148.07619,360.0866 C 148.41037,351.78632 148.84029,343.48981 149.51753,335.20949 C 149.90521,330.15449 150.25289,325.09589 150.63591,320.04101 L 155.34022,317.73809 z" />
    <path
       style="opacity:0.98999999;fill:none;fill-opacity:1;stroke:#000000;stroke-width:4.5;stroke-miterlimit:4;stroke-dasharray:none;stroke-opacity:1"
       id="path3274"
       d="M 211.04334,315.16561 C 210.95537,319.61581 210.37064,324.04638 209.8185,328.45833 C 208.66808,337.05371 207.43203,345.63691 206.26156,354.22963 C 205.34011,361.10716 204.2143,367.95434 203.21171,374.81992 C 202.66672,378.24768 202.25224,381.69016 202.31119,385.16367 C 202.40424,386.27577 202.51679,387.38451 202.59902,388.49719 C 202.55505,389.27893 202.69399,390.05878 202.57909,390.83597 C 202.47048,391.74468 202.36922,391.0428 201.8703,391.29151 C 200.85699,391.79665 199.43135,393.12828 200.55268,392.10679 L 200.75088,392.0218 C 200.53968,392.84706 198.32358,394.58098 197.84074,393.25303 C 197.70264,392.51139 197.85831,391.75094 197.73612,391.00548 C 197.70651,389.84967 197.5856,388.69431 197.65348,387.53642 C 197.71722,383.97505 198.25045,380.44401 198.87344,376.94246 C 200.12407,370.02909 201.3474,363.10786 202.34994,356.15365 C 203.61557,347.59806 204.92228,339.04429 205.82244,330.44045 C 206.21294,326.14566 206.64176,321.83884 206.45697,317.52057 L 211.04334,315.16561 z" />
    <path
       style="opacity:0.98999999;fill:none;fill-opacity:1;stroke:#c30c0c;stroke-width:4.5;stroke-miterlimit:4;stroke-dasharray:none;stroke-opacity:1"
       id="path3282"
       d="M 134.28387,410.18303 C 138.63273,410.34476 142.98352,410.4383 147.33506,410.48325 C 154.28366,410.52367 161.22037,410.09073 168.15657,409.73985 C 171.15566,409.5484 174.10669,409.60652 176.9144,410.73401 C 178.77461,411.63502 180.68928,412.39291 182.70063,412.87418 C 183.38221,413.07078 184.95226,412.96625 185.16546,413.92904 C 185.20988,414.12968 185.16011,414.34 185.15744,414.54547 C 183.94721,418.39735 183.02906,422.31396 182.22356,426.26895 C 181.32693,431.16178 180.99707,436.11777 180.84002,441.07991 C 180.783,442.8694 180.91102,444.66329 180.88001,446.45026 C 180.83413,447.5552 180.63897,448.64988 180.7359,449.75736 C 181.25777,452.46475 177.80515,454.18469 175.12524,454.04495 C 173.64319,453.97581 172.16532,454.03293 170.69018,454.17966 C 170.18231,454.28612 169.59399,454.16088 169.11575,454.41306 C 169.00522,454.47134 168.7193,454.71456 168.8287,454.65417 C 173.48486,452.08408 174.34824,450.48034 173.26281,452.34165 C 172.99823,453.44195 173.0884,454.58748 173.08692,455.70944 C 172.79283,458.27557 169.14294,458.85257 167.27457,459.75759 C 167.22068,459.7837 166.16752,459.64452 166.05295,459.63032 C 163.83206,459.23996 161.64317,458.7207 159.41062,458.39184 C 155.31201,457.86525 151.18063,457.68857 147.06023,457.41713 C 142.59699,457.15216 138.16462,456.54131 133.72899,456.00078 C 131.09525,455.73428 128.46573,455.39435 125.8295,455.15978 C 124.88628,455.10702 124.87079,454.49912 125.10094,453.75615 C 126.02781,451.21307 126.68986,448.61207 127.21787,445.96003 C 128.20969,439.78074 128.0904,433.51282 127.53922,427.3012 C 127.2575,424.40943 126.78728,421.53796 126.13823,418.70711 C 126.13754,418.70393 125.99994,418.1269 126.01908,418.04118 C 126.12839,417.55158 127.54299,416.91363 127.9683,416.66149 L 128.1493,416.54426 C 128.49561,416.35446 129.99018,415.41927 130.32612,415.69041 C 130.41482,415.762 130.55146,416.3072 130.55836,416.33071 C 131.19658,419.24073 131.33889,422.23422 131.60593,425.19251 C 131.94295,431.39966 132.1441,437.63623 131.55262,443.83571 C 131.26827,446.34099 130.89688,448.82793 130.3078,451.28091 C 130.26277,451.45951 130.28864,451.67478 130.17059,451.81616 C 130.10957,451.88925 129.81075,451.59491 130.49573,451.87569 C 132.99156,452.44065 135.57851,452.49721 138.09967,452.90894 C 142.49589,453.4909 146.89384,454.08007 151.32249,454.35919 C 155.51063,454.58506 159.70986,454.73715 163.87593,455.24502 C 166.15778,455.57206 168.42062,456.02262 170.70824,456.29924 C 170.92698,456.30373 171.14601,456.32484 171.36445,456.31269 C 171.53605,456.30315 172.01839,456.14113 171.87406,456.23444 C 170.37579,457.20311 168.78576,458.02289 167.26818,458.96104 C 167.18696,459.01125 168.35494,458.48223 167.9115,458.30735 C 168.0506,457.12376 168.08199,455.93635 168.13607,454.74633 C 168.65797,451.81729 172.69197,451.02349 175.28197,450.7872 C 176.75628,450.69872 178.23129,450.71311 179.70425,450.62936 C 181.81158,449.92043 179.90241,450.5334 175.39796,453.32502 C 175.34005,453.36092 175.54743,453.32497 175.59691,453.27813 C 175.82436,453.06279 175.63271,452.5023 175.77908,452.25913 C 175.94211,451.16474 175.91552,450.05976 175.93523,448.95605 C 175.98472,447.11023 176.04788,445.26282 176.19326,443.42068 C 176.49542,438.40023 176.9657,433.37992 177.8041,428.41865 C 178.45692,424.59512 179.22425,420.79205 180.18127,417.03219 C 180.21283,416.86996 180.36071,416.66795 180.254,416.54175 C 179.84606,416.05928 178.82639,416.20014 178.34076,415.8703 C 176.3449,415.27425 174.40597,414.53739 172.50051,413.6947 C 169.84098,412.67098 167.05858,412.48353 164.21844,412.62388 C 157.29663,412.79395 150.38388,413.24624 143.45863,413.29946 C 138.91009,413.3425 134.35951,413.32803 129.81271,413.44432 L 134.28387,410.18303 z" />
    <path
       style="opacity:0.98999999;fill:#d8d8d8;fill-opacity:1;stroke:#000000;stroke-width:4.5;stroke-miterlimit:4;stroke-dasharray:none;stroke-opacity:1"
       id="path3588"
       d="M 14.572458,320.27448 C 16.761093,322.0507 20.004962,322.06522 22.674081,322.33547 C 28.52722,322.69833 34.394488,322.51132 40.251649,322.37155 C 42.730234,322.31542 45.221605,322.20466 47.688095,322.51052 C 48.255947,322.56412 48.383493,323.02371 48.46732,323.50438 C 48.466197,324.11647 48.488408,324.72651 48.495747,325.33854 C 48.547952,327.53856 48.143493,329.69713 47.722494,331.84508 C 47.057757,334.9169 46.317766,337.9724 45.739788,341.0622 C 45.303961,343.41415 45.181042,345.81025 45.608817,348.16812 C 45.782849,349.05556 46.091257,349.91968 46.115189,350.82868 C 46.029101,351.75125 45.845345,352.65916 45.659202,353.56539 C 45.514364,354.21248 45.471894,354.86107 45.45419,355.52156 C 45.552375,356.08429 45.581683,356.62594 45.508646,357.19199 C 45.392285,357.77296 45.257321,358.34518 45.198896,358.93526 C 45.283166,360.57922 41.708934,361.30973 41.340105,361.50094 C 41.273672,361.53538 41.195352,361.46258 41.122003,361.44777 C 41.00888,361.42492 40.894653,361.40793 40.780978,361.38802 C 38.04775,360.82832 35.266548,360.63282 32.489708,360.43125 C 26.206098,359.99873 19.907679,359.92693 13.612159,359.9947 C 9.5873917,360.11406 5.5661636,360.32013 1.542531,360.46981 C 1.2292972,360.47683 0.91610268,360.4859 0.60282972,360.49086 C 0.55532705,360.49162 -0.36941334,360.50095 -0.51444263,360.48961 C -0.64748103,360.47922 -0.96267511,360.36201 -0.85635227,360.28137 C 0.18037918,359.49507 1.2931179,358.81437 2.367853,358.08087 C 3.0454573,358.05444 3.723183,357.96618 4.3998586,357.89948 C 4.7247221,357.8572 5.0571445,357.87547 5.3483536,357.70078 C 5.4174387,357.65934 5.6033827,357.5057 5.5329076,357.54473 C 2.4524417,359.25083 1.6801582,360.22393 2.6271995,359.09263 C 3.2649321,357.88691 3.4953689,356.50479 3.7881679,355.18535 C 4.5888872,351.55016 4.607007,347.83097 4.6316722,344.12902 C 4.6309702,339.32356 4.4951747,334.52035 4.3869969,329.71651 C 4.2832985,327.44118 4.5057543,325.21073 4.9956336,322.99678 C 5.2312245,321.30036 9.7254897,319.58259 8.9337042,321.3006 C 8.8237383,321.5392 8.6414568,321.73728 8.4953331,321.95562 C 8.3515132,322.17157 8.2076932,322.38753 8.0638733,322.60349 L 7.9335283,322.68262 C 7.636067,322.73164 7.3386057,322.78066 7.0411443,322.82968 C 6.7502467,322.87603 6.4625345,322.95185 6.1684515,322.96871 C 6.0229893,322.97705 5.8798982,322.92791 5.7360917,322.90449 C 5.6735483,322.89431 5.4956055,322.90118 5.5495411,322.86792 C 13.192002,318.15481 9.137894,320.22475 8.6460941,321.26211 C 7.9040092,323.41306 7.8261295,325.75223 7.7451525,328.00252 C 7.7040575,332.83094 7.7872155,337.65802 7.8602391,342.48554 C 7.8564231,346.17448 7.8530778,349.90038 7.1877794,353.54109 C 6.9183479,354.89429 6.6397047,356.25701 6.1426466,357.54821 C 5.3170549,359.18226 3.151761,360.09811 1.3521799,360.14858 C 0.69646891,360.18002 0.0021635166,360.18755 -0.61107336,360.43882 C 0.38606015,359.73927 1.3993704,359.06223 2.3803272,358.34017 C 2.4028343,358.3236 2.3133954,358.27635 2.3396759,358.26684 C 2.6440887,358.15673 4.3629299,358.47532 4.5730944,358.25546 C 8.5049428,358.19083 12.434432,358.00922 16.367213,357.99003 C 22.692371,357.96779 29.014429,358.17119 35.335291,358.3893 C 38.294537,358.52484 41.255732,358.66777 44.205021,358.95041 C 44.315574,358.95219 44.426783,358.96791 44.536678,358.95575 C 44.598496,358.9489 44.766355,358.86253 44.712818,358.89419 C 43.533338,359.59157 42.341515,360.26786 41.155863,360.95469 C 41.34522,360.99193 41.362923,360.93441 41.432684,360.74886 C 41.628383,360.17697 41.795539,359.59516 41.861296,358.99192 C 41.931448,358.4465 41.888638,357.89397 41.898969,357.34517 C 41.84397,356.65854 41.897728,355.96092 42.082508,355.29628 C 42.264769,354.4326 42.467349,353.56244 42.496368,352.67746 C 42.502642,351.761 42.229835,350.88735 42.168686,349.97555 C 41.987484,347.52974 41.876466,345.0828 42.436303,342.66684 C 43.057823,339.54086 43.905407,336.47243 44.598588,333.36279 C 44.990807,331.27957 45.36214,329.16364 45.199659,327.03492 C 45.157119,326.42615 45.159636,325.8209 45.17377,325.2117 C 45.192846,324.80706 45.115484,324.68435 44.689404,324.64525 C 42.261755,324.47354 39.825108,324.46487 37.392552,324.45508 C 31.524966,324.48197 25.652647,324.67989 19.7884,324.39494 C 17.133709,324.21088 13.165159,324.23202 11.081138,322.30081 L 14.572458,320.27448 z"
       transform="translate(120.65459,185.99656)" />
  </g>
  <g
     inkscape:groupmode="layer"
     id="layer2"
     inkscape:label="t"
     transform="translate(13.95388,-185.99656)">
    <path
       style="opacity:0.98999999;fill:none;fill-opacity:1;stroke:#000000;stroke-width:4.5;stroke-miterlimit:4;stroke-dasharray:none;stroke-opacity:1"
       id="path3249"
       d="M 219.2883,446.01681 C 225.05727,446.57861 230.81909,447.21168 236.58932,447.76477 C 246.68253,448.81891 256.8006,449.57432 266.92228,450.28652 C 272.58584,450.64012 278.26517,450.88073 283.89276,451.64254 C 285.55515,451.95637 287.22869,452.03296 288.91198,451.92486 C 291.95387,451.59983 292.23213,450.55189 286.33169,454.92299 C 285.64668,454.88068 284.97238,454.79778 284.28491,454.78326 C 282.55469,454.97313 278.69667,457.026 285.60035,453.4849 C 285.95245,453.3043 284.93787,453.91994 284.62867,454.16688 C 284.30255,454.42733 284.00814,454.72516 283.69788,455.0043 C 281.92689,456.82049 281.05565,459.08102 280.76871,461.55985 C 280.69584,463.12614 281.13501,464.60388 281.76099,466.01854 C 283.1947,468.79046 281.85967,467.76 277.47205,470.35588 C 276.67178,470.4107 275.86948,470.41403 275.06754,470.42277 C 274.21401,470.43406 273.3619,470.45147 272.51143,470.36886 C 270.67885,470.134 268.85098,469.88097 267.01107,469.70939 C 261.24584,469.26149 255.45963,469.19202 249.67986,469.16734 C 242.90914,469.1322 236.13999,469.33863 229.36972,469.33487 C 225.1213,469.30227 220.86261,469.16944 216.64082,468.66767 C 215.47639,468.57008 214.33901,468.28415 213.16693,468.31013 C 211.72876,468.41536 212.09407,468.25078 213.23361,467.28928 C 213.39942,467.14314 213.56522,466.997 213.73103,466.85086 L 213.90939,466.72965 C 214.11548,466.59662 214.32158,466.46358 214.52768,466.33054 C 215.50416,465.68708 216.3472,465.02286 217.55935,465.15071 C 218.6564,465.28536 219.73553,465.53923 220.82854,465.70154 C 224.93906,466.20851 229.06501,466.54249 233.21094,466.54593 C 239.92289,466.58518 246.63379,466.5228 253.34575,466.50672 C 259.27557,466.54071 265.21057,466.49753 271.13567,466.76123 C 273.06401,466.88217 274.98626,467.05774 276.91153,467.20675 C 277.74429,467.21532 278.57574,467.2677 279.40874,467.26615 C 280.16406,467.26879 280.97325,467.31634 281.67767,467.00717 C 280.22157,467.88627 278.74753,468.7363 277.30938,469.64446 C 277.22526,469.69758 277.58196,469.62712 277.58404,469.52766 C 277.59109,469.19122 277.33489,468.83137 277.29433,468.50573 C 276.77944,466.96005 276.2485,465.40977 276.36699,463.74804 C 276.58115,461.18665 277.44693,458.80491 279.17863,456.86119 C 281.66462,454.3956 284.85164,452.12233 288.40165,451.8003 C 289.09267,451.80387 289.84384,451.93362 290.50093,451.67671 C 287.20458,454.23954 287.65686,454.87402 284.78489,454.96328 C 283.09036,455.06835 281.42489,454.94386 279.76911,454.54078 C 274.41683,453.56344 269.00202,453.07291 263.57789,452.67943 C 253.41068,451.91476 243.25406,451.01589 233.08585,450.26457 C 227.06563,449.80493 221.04276,449.32554 215.00877,449.09221 L 219.2883,446.01681 z" />
    <path
       style="opacity:0.98999999;fill:none;fill-opacity:1;stroke:#000000;stroke-width:4.5;stroke-miterlimit:4;stroke-dasharray:none;stroke-opacity:1"
       id="path3247"
       d="M 209.40925,459.26719 C 209.80579,457.95173 209.92827,456.58616 209.95816,455.21907 C 209.81199,454.51572 209.97364,453.78891 209.88359,453.08718 C 211.29207,452.508 212.63518,451.73309 214.10904,451.34966 C 214.3098,451.29743 214.18217,451.75932 214.19102,451.96657 C 214.20442,452.28018 214.18877,452.59451 214.1756,452.90813 C 214.10684,454.54475 213.87996,456.16349 213.6742,457.78696 C 213.26601,459.82684 213.32558,462.01123 212.5773,463.98171 C 210.20551,470.22747 212.40318,462.89887 211.02269,467.74627 L 210.83114,467.84533 C 210.62552,467.49001 210.44737,467.11731 210.21429,466.77938 C 209.93317,466.37181 209.45985,466.08063 209.29253,465.61464 C 208.73234,464.05452 209.56423,461.44512 209.55488,459.8262 C 209.72194,458.24167 209.92026,456.64806 209.9644,455.05333 C 209.97243,454.7633 209.92991,453.64251 209.94754,453.62997 C 211.21515,452.72843 212.6412,452.07348 213.98803,451.29524 C 213.45034,451.51999 213.18505,453.22811 212.96454,453.72876 C 212.69219,455.14982 212.46837,456.57988 212.10803,457.98193 L 209.40925,459.26719 z" />
    <path
       style="fill:none;fill-rule:evenodd;stroke:#000000;stroke-width:1px;stroke-linecap:butt;stroke-linejoin:miter;stroke-opacity:1"
       d="M 294.47346,460.68445 C 299.98465,461.94415 330.27071,459.91209 339.07578,460.08601 C 339.45068,460.09342 339.82383,460.03282 340.19785,460.00622"
       id="path3350" />
    <path
       style="fill:none;fill-rule:evenodd;stroke:#000000;stroke-width:1px;stroke-linecap:butt;stroke-linejoin:miter;stroke-opacity:1"
       d="M 295.98826,459.32799 C 301.63896,459.43961 310.09243,452.55126 310.68739,451.22914"
       id="path3352" />
    <path
       style="fill:none;fill-rule:evenodd;stroke:#000000;stroke-width:1px;stroke-linecap:butt;stroke-linejoin:miter;stroke-opacity:1"
       d="M 296.6054,461.60206 C 297.24796,461.61475 295.96956,460.48497 295.65164,459.92643 C 294.60123,458.081 299.09295,462.52641 301.09368,463.23779 C 305.57229,464.83018 310.60584,465.00554 315.28788,465.67143"
       id="path3354" />
    <path
       style="fill:none;fill-rule:evenodd;stroke:#000000;stroke-width:1px;stroke-linecap:butt;stroke-linejoin:miter;stroke-opacity:1"
       d="M 346.87417,452.02705 C 348.16724,452.48681 347.63423,460.97264 347.82793,463.79633"
       id="path3356" />
    <path
       style="fill:none;fill-rule:evenodd;stroke:#000000;stroke-width:1px;stroke-linecap:butt;stroke-linejoin:miter;stroke-opacity:1"
       d="M 344.1251,446.8007 C 346.1042,447.50438 345.39944,442.52387 347.04248,441.21528 C 359.08223,431.62629 366.27005,446.09947 352.54063,453.22393 C 351.79603,453.61032 341.71663,455.13742 346.48145,454.81976"
       id="path3358" />
    <path
       style="fill:none;fill-rule:evenodd;stroke:#000000;stroke-width:1px;stroke-linecap:butt;stroke-linejoin:miter;stroke-opacity:1"
       d="M 353.32608,458.88914 C 352.17829,459.48475 356.22303,459.03482 357.02891,460.04612 C 358.50868,461.90308 358.95693,462.98741 361.18058,463.39737"
       id="path3360" />
    <path
       style="fill:none;fill-rule:evenodd;stroke:#000000;stroke-width:1px;stroke-linecap:butt;stroke-linejoin:miter;stroke-opacity:1"
       d="M 362.30265,452.98455 C 362.66571,453.44017 361.21798,452.559 360.67564,452.34622"
       id="path3362" />
    <path
       style="fill:none;fill-rule:evenodd;stroke:#000000;stroke-width:1px;stroke-linecap:butt;stroke-linejoin:miter;stroke-opacity:1"
       d="M 363.2003,459.92643 C 363.18679,459.92113 363.57256,464.58516 365.55665,461.00362 C 368.73739,455.26197 372.27557,460.47304 375.8797,462.83883"
       id="path3364" />
    <path
       style="fill:none;fill-rule:evenodd;stroke:#000000;stroke-width:1px;stroke-linecap:butt;stroke-linejoin:miter;stroke-opacity:1"
       d="M 388.83962,445.7634 C 393.37188,448.73842 396.99915,440.77311 396.97464,440.0583 C 396.86887,436.97459 394.73547,445.91432 394.56218,448.99497 C 394.35228,452.72666 393.67368,456.45475 393.55232,460.16581"
       id="path3366" />
    <path
       style="fill:none;fill-rule:evenodd;stroke:#000000;stroke-width:1px;stroke-linecap:butt;stroke-linejoin:miter;stroke-opacity:1"
       d="M 385.75393,460.04612 C 385.63564,462.14903 389.83603,458.95633 391.92532,458.68966 C 396.37554,458.12165 400.56111,458.47778 404.88523,459.36789"
       id="path3368" />
    <path
       style="fill:none;fill-rule:evenodd;stroke:#000000;stroke-width:1px;stroke-linecap:butt;stroke-linejoin:miter;stroke-opacity:1"
       d="M 348.09793,472.93248 C 343.76837,476.69545 347.18976,489.25685 351.35194,493.00009 C 353.26357,494.71932 354.90833,493.62731 356.45736,492.84051"
       id="path3384" />
    <path
       style="fill:none;fill-rule:evenodd;stroke:#000000;stroke-width:1px;stroke-linecap:butt;stroke-linejoin:miter;stroke-opacity:1"
       d="M 342.31927,489.0504 C 344.31335,490.84378 346.74947,485.98895 349.1639,484.82144 C 350.28742,484.27816 351.24065,483.68747 352.3057,483.10592"
       id="path3386" />
    <path
       style="fill:none;fill-rule:evenodd;stroke:#000000;stroke-width:1px;stroke-linecap:butt;stroke-linejoin:miter;stroke-opacity:1"
       d="M 356.90619,475.32623 C 357.97453,474.80963 353.43876,470.25779 356.90619,475.32623 C 357.19427,475.74733 357.13884,493.10747 360.77733,488.65144 C 364.77254,483.75855 363.5328,485.4361 364.92899,489.76853 C 365.21845,490.66671 368.80093,488.88531 369.13676,488.73124"
       id="path3388" />
    <path
       style="fill:none;fill-rule:evenodd;stroke:#000000;stroke-width:1px;stroke-linecap:butt;stroke-linejoin:miter;stroke-opacity:1"
       d="M 374.01777,486.81624 C 374.37074,487.91151 374.24912,489.56535 376.26191,490.80582"
       id="path3390" />
    <path
       style="fill:none;fill-rule:evenodd;stroke:#000000;stroke-width:1px;stroke-linecap:butt;stroke-linejoin:miter;stroke-opacity:1"
       d="M 376.37412,482.86655 C 376.71031,483.90977 372.68998,480.49622 373.56894,481.15102"
       id="path3392" />
    <path
       style="fill:none;fill-rule:evenodd;stroke:#000000;stroke-width:1px;stroke-linecap:butt;stroke-linejoin:miter;stroke-opacity:1"
       d="M 388.04365,483.22561 C 388.56306,484.83735 384.60081,482.13158 382.99433,482.66707 C 374.08942,485.63537 388.60352,489.56229 389.83897,490.0478 C 391.44129,490.67748 386.77885,491.63762 385.18237,492.28197"
       id="path3394" />
    <path
       style="fill:none;fill-rule:evenodd;stroke:#000000;stroke-width:1px;stroke-linecap:butt;stroke-linejoin:miter;stroke-opacity:1"
       d="M 404.87472,488.69134 C 406.37393,489.28051 421.2893,485.4071 415.53439,481.15102 C 410.6122,477.51079 405.09639,488.65427 417.3297,488.45197 C 421.13607,488.38902 419.33208,487.43703 423.55719,488.85092 C 426.68151,489.89645 429.44927,485.39373 433.76804,486.97582"
       id="path3396" />
    <path
       style="fill:none;fill-rule:evenodd;stroke:#000000;stroke-width:1px;stroke-linecap:butt;stroke-linejoin:miter;stroke-opacity:1"
       d="M 442.6885,484.38259 C 443.29743,484.60566 431.07416,478.47574 434.10466,486.01832 C 437.463,494.37686 444.63821,478.96498 444.93264,474.28894 C 446.4481,450.22117 438.81113,481.62535 444.76433,485.85874 C 450.14793,489.68707 445.24935,488.27116 449.42093,489.17009"
       id="path3398" />
    <path
       style="fill:#d8d8d8;fill-opacity:1;fill-rule:evenodd;stroke:#000000;stroke-width:1px;stroke-linecap:butt;stroke-linejoin:miter;stroke-opacity:1"
       d="M 218.65523,267.7729 L 215.95759,450.29566 L 279.90755,453.96304 L 283.87467,268.90132 L 218.65523,267.7729 z"
       id="path3428" />
    <path
       style="opacity:0.98999999;fill:#d8d8d8;fill-opacity:1;stroke:#c30c0c;stroke-width:4.5;stroke-miterlimit:4;stroke-dasharray:none;stroke-opacity:1"
       id="path3430"
       d="M 288.60748,266.69847 C 287.98834,268.70537 287.5183,270.75717 287.04872,272.80359 C 286.62142,274.68672 286.3281,276.59567 286.15864,278.5184 C 286.03996,279.74461 286.07107,280.97837 286.06741,282.20861 C 286.09144,283.38701 286.26662,284.55228 286.40871,285.71994 C 286.56115,286.73961 286.55942,287.76327 286.55697,288.79057 C 286.4723,290.39825 286.31162,292.00082 286.22812,293.60851 C 286.141,295.00651 286.14071,296.40775 286.13315,297.8078 C 286.10659,298.96086 286.226,300.11141 286.43899,301.24314 C 286.64905,302.65359 286.88507,304.06186 287.01183,305.48266 C 287.22309,307.08143 287.32966,308.68998 287.33764,310.30208 C 287.34385,312.12071 287.20872,313.93662 287.03317,315.74566 C 286.93531,317.02527 286.74547,318.2945 286.62231,319.57121 C 286.46653,320.73202 286.34514,321.89743 286.16509,323.05556 C 285.96809,324.0253 285.86538,325.00938 285.71193,325.98494 C 285.60895,326.91342 285.52866,327.84535 285.40549,328.77144 C 285.25286,330.11813 285.02246,331.45433 284.8047,332.79158 C 284.43679,334.66746 284.02145,336.53341 283.63276,338.40495 C 283.17552,340.29831 282.92768,342.2324 282.68684,344.16253 C 282.50039,345.9969 282.17775,347.81178 281.85963,349.62653 C 281.49164,351.67106 281.18901,353.726 280.89779,355.78255 C 280.64492,357.61778 280.36459,359.44888 280.07704,361.27899 C 279.70344,363.48985 279.32489,365.69954 279.03198,367.9228 C 278.78042,370.34268 278.54029,372.76378 278.30402,375.18527 C 278.02807,377.43002 277.9597,379.68647 277.93647,381.94472 C 277.98639,383.95103 278.08058,385.95166 278.05945,387.95927 C 278.014,390.00976 277.81332,392.05573 277.52118,394.08489 C 277.25528,396.07423 277.07708,398.06883 276.99254,400.07407 C 276.93107,401.90361 276.99182,403.73255 277.03707,405.5615 C 277.04435,407.88555 276.98241,410.20875 276.91745,412.53163 C 276.8523,414.73155 276.96759,416.9289 277.13617,419.12135 C 277.33711,421.20103 277.54372,423.28009 277.74886,425.35935 C 277.99288,427.61221 278.13323,429.87547 278.45502,432.11909 C 278.72506,434.12689 279.10187,436.11785 279.38633,438.12445 C 279.57438,439.86654 279.80389,441.60454 280.24137,443.30274 C 280.73763,444.7063 280.9714,446.13443 281.00704,447.6173 C 280.93009,448.73938 280.83511,449.99689 280.27288,451.00678 C 278.8645,453.53651 279.40172,451.46233 279.02583,453.40602 L 278.88956,453.47446 C 278.71265,451.70489 279.12447,453.60155 277.9168,452.18342 C 277.45725,451.64378 277.58532,450.09607 277.4888,449.4341 C 277.36418,448.00046 277.08049,446.61008 276.67434,445.22923 C 276.27501,443.50346 276.0495,441.75514 275.83347,439.9983 C 275.54779,437.98907 275.18454,435.99153 274.90639,433.98107 C 274.68538,431.72195 274.40011,429.46934 274.21293,427.20671 C 273.99217,425.12958 273.739,423.05544 273.57491,420.97271 C 273.38267,418.75982 273.32146,416.54028 273.38839,414.3194 C 273.43158,412.01597 273.51792,409.71173 273.43373,407.40806 C 273.39356,405.56247 273.33066,403.71505 273.4307,401.86986 C 273.51721,399.85868 273.63196,397.84417 273.94071,395.85279 C 274.16125,393.82616 274.47982,391.8052 274.5125,389.76285 C 274.52441,387.75194 274.44176,385.74311 274.42304,383.73234 C 274.42613,381.4542 274.57212,379.17857 274.82247,376.91414 C 275.08896,374.48572 275.31002,372.05257 275.58282,369.62492 C 275.86186,367.40996 276.21466,365.20726 276.56381,363.00241 C 276.8365,361.16951 277.11271,359.33718 277.39207,357.50531 C 277.70129,355.44541 278.00254,353.3842 278.36586,351.33296 C 278.66465,349.5315 278.93917,347.72723 279.13965,345.91181 C 279.4082,343.9722 279.71908,342.03916 280.09286,340.11679 C 280.4885,338.273 280.89383,336.42975 281.1729,334.56373 C 281.41935,333.23904 281.62824,331.90984 281.77217,330.56968 C 281.86559,329.64096 281.92248,328.70799 282.05919,327.7846 C 282.1706,326.79887 282.35983,325.82254 282.5141,324.84296 C 282.70622,323.69107 282.87131,322.53496 282.98142,321.37214 C 283.16427,320.08307 283.31804,318.79064 283.50172,317.50162 C 283.68083,315.70485 283.85314,313.90505 283.82822,312.09687 C 283.78771,310.4981 283.72607,308.89776 283.5287,307.30931 C 283.32224,305.91426 283.2022,304.50425 282.89518,303.1248 C 282.71705,301.96226 282.55019,300.79775 282.57364,299.61723 C 282.59268,298.19993 282.64955,296.78413 282.72302,295.36861 C 282.8272,293.77815 282.9508,292.18839 282.99453,290.59478 C 283.04167,289.57789 283.03737,288.55509 282.9295,287.54186 C 282.80764,286.35189 282.65943,285.16026 282.63329,283.96397 C 282.59706,282.70799 282.66088,281.45191 282.76772,280.20033 C 283.01984,278.2265 283.45393,276.28337 283.86388,274.3377 C 284.32,272.31052 284.81593,270.29266 285.28046,268.26745 L 288.60748,266.69847 z" />
    <path
       style="fill:none;fill-rule:evenodd;stroke:#000000;stroke-width:1px;stroke-linecap:butt;stroke-linejoin:miter;stroke-opacity:1"
       d="M 267.68883,213.76376 C 272.39276,204.01924 257.46963,223.88737 254.67667,227.58697 C 239.49639,247.69505 226.40996,276.56144 228.335,302.57082 C 228.35141,302.79254 224.73454,300.46186 224.12985,300.03186"
       id="path3432" />
    <path
       style="fill:none;fill-rule:evenodd;stroke:#000000;stroke-width:1px;stroke-linecap:butt;stroke-linejoin:miter;stroke-opacity:1"
       d="M 223.6538,287.78845 C 223.7388,288.93691 222.01406,286.17104 221.19418,285.36233 C 217.57533,281.79277 226.12952,294.27295 228.09697,298.95986 C 229.72387,302.8355 230.11399,306.66102 230.79461,302.06302 C 231.35067,298.30653 227.17932,300.41383 232.93686,296.81585 C 236.58386,294.53678 239.09952,291.894 241.26781,288.29624"
       id="path3434" />
    <path
       style="fill:none;fill-rule:evenodd;stroke:#000000;stroke-width:1px;stroke-linecap:butt;stroke-linejoin:miter;stroke-opacity:1"
       d="M 231.42935,192.15442 C 231.53696,192.08717 229.37585,202.54056 236.58661,206.09047 C 248.36097,211.88708 254.78615,201.71356 247.21849,193.00074 C 247.05723,192.81508 247.27138,193.48972 247.29783,193.73422"
       id="path3436" />
    <path
       style="fill:none;fill-rule:evenodd;stroke:#000000;stroke-width:1px;stroke-linecap:butt;stroke-linejoin:miter;stroke-opacity:1"
       d="M 263.08697,194.7498 C 261.01478,192.36404 262.9058,201.08686 263.24565,204.22857"
       id="path3438" />
    <path
       style="fill:none;fill-rule:evenodd;stroke:#000000;stroke-width:1px;stroke-linecap:butt;stroke-linejoin:miter;stroke-opacity:1"
       d="M 269.75173,208.06521 C 269.77783,206.72859 269.75326,205.33082 269.83107,204.00288 C 270.06567,199.99903 265.45551,189.06999 268.08554,192.098 C 267.85271,196.07166 275.4851,188.89389 279.4315,188.3742 C 282.25051,188.00297 284.71572,188.01472 287.44508,188.43062"
       id="path3440" />
    <path
       style="fill:none;fill-rule:evenodd;stroke:#000000;stroke-width:1px;stroke-linecap:butt;stroke-linejoin:miter;stroke-opacity:1"
       d="M 264.19776,197.90939 C 266.57821,197.59591 278.4208,198.09018 283.87467,198.36076"
       id="path3442" />
    <path
       style="fill:none;fill-rule:evenodd;stroke:#000000;stroke-width:1px;stroke-linecap:butt;stroke-linejoin:miter;stroke-opacity:1"
       d="M 323.94258,190.12325 C 324.27197,190.07988 309.96545,179.16037 301.64737,195.42685 C 294.87323,208.67406 318.16132,207.96821 324.33929,206.25973"
       id="path3444" />
    <path
       style="fill:none;fill-rule:evenodd;stroke:#000000;stroke-width:1px;stroke-linecap:butt;stroke-linejoin:miter;stroke-opacity:1"
       d="M 334.97117,202.25382 C 334.06058,204.03453 332.97505,198.3331 331.08339,197.6837 C 324.95479,195.57979 319.4436,205.54341 329.73457,203.32583 C 334.78372,202.2378 340.07866,206.24931 344.33357,202.53593 C 345.65199,201.38532 341.35296,186.83842 342.03264,193.28285 C 342.33137,196.1152 345.38983,210.77355 344.49226,200.56119 C 344.19061,197.12914 362.6455,202.34356 351.47439,206.429 C 347.94155,207.72101 335.1049,208.25109 346.55516,205.80836"
       id="path3446" />
    <path
       style="fill:none;fill-rule:evenodd;stroke:#000000;stroke-width:1px;stroke-linecap:butt;stroke-linejoin:miter;stroke-opacity:1"
       d="M 359.64665,199.20708 C 357.86875,199.85728 357.87918,195.84701 356.79033,194.29843 C 354.40578,190.90707 359.94986,202.51453 363.37575,204.8492 C 368.8597,208.58641 381.78676,198.36275 371.1513,198.64286 C 360.56935,198.92157 370.46318,211.25336 389.40005,207.61384"
       id="path3448" />
    <path
       style="fill:none;fill-rule:evenodd;stroke:#000000;stroke-width:1px;stroke-linecap:butt;stroke-linejoin:miter;stroke-opacity:1"
       d="M 282.52585,230.74656 C 277.78693,230.87137 281.09541,240.55811 282.84322,244.96471 C 284.59103,249.37131 282.35719,235.48412 282.52585,230.74656 C 282.91961,219.68623 287.62839,212.31432 300.37789,221.38063 C 311.51505,229.30039 274.21767,238.98949 285.30284,235.42952"
       id="path3450" />
    <path
       style="fill:none;fill-rule:evenodd;stroke:#000000;stroke-width:1px;stroke-linecap:butt;stroke-linejoin:miter;stroke-opacity:1"
       d="M 295.69669,238.8148 C 298.05499,238.05744 297.17089,243.87296 299.10841,245.41608"
       id="path3452" />
    <path
       style="fill:none;fill-rule:evenodd;stroke:#000000;stroke-width:1px;stroke-linecap:butt;stroke-linejoin:miter;stroke-opacity:1"
       d="M 301.64737,235.26026 C 302.00397,235.14574 298.27473,229.95871 301.64737,235.26026 z"
       id="path3454" />
    <path
       style="fill:none;fill-rule:evenodd;stroke:#000000;stroke-width:1px;stroke-linecap:butt;stroke-linejoin:miter;stroke-opacity:1"
       d="M 305.77317,240.73312 C 306.78431,240.4084 305.49646,250.37505 305.77317,240.73312 C 305.9432,234.80859 316.90231,247.13922 317.11913,247.27799"
       id="path3456" />
    <path
       style="fill:none;fill-rule:evenodd;stroke:#000000;stroke-width:1px;stroke-linecap:butt;stroke-linejoin:miter;stroke-opacity:1"
       d="M 340.20777,229.67455 C 340.31469,225.94892 345.97317,224.39026 347.03121,220.81642 C 348.08363,217.26158 346.6345,228.22405 346.6345,231.9314 C 346.6345,235.70803 346.37194,239.74801 346.47582,243.44134"
       id="path3458" />
    <path
       style="fill:none;fill-rule:evenodd;stroke:#000000;stroke-width:1px;stroke-linecap:butt;stroke-linejoin:miter;stroke-opacity:1"
       d="M 338.62092,243.66703 C 338.62092,245.82127 342.65675,241.88167 344.80963,241.80512 C 346.25511,241.75373 355.98534,241.81976 356.63164,241.86155"
       id="path3460" />
    <path
       style="fill:none;fill-rule:evenodd;stroke:#000000;stroke-width:1px;stroke-linecap:butt;stroke-linejoin:miter;stroke-opacity:1"
       d="M 366.31142,230.63372 C 369.92926,230.50508 379.86608,231.49841 380.5137,231.59288"
       id="path3462" />
    <path
       style="fill:none;fill-rule:evenodd;stroke:#000000;stroke-width:1px;stroke-linecap:butt;stroke-linejoin:miter;stroke-opacity:1"
       d="M 365.27996,236.27584 C 370.17101,236.10194 376.83617,234.66827 382.89397,235.99374"
       id="path3464" />
    <path
       style="fill:none;fill-rule:evenodd;stroke:#000000;stroke-width:1px;stroke-linecap:butt;stroke-linejoin:miter;stroke-opacity:1"
       d="M 400.74601,231.6493 C 403.00942,231.56882 399.03474,235.93218 398.92114,238.19416 C 398.83215,239.96606 392.60166,222.45415 405.26853,220.81642 C 420.21334,218.88416 412.80502,234.42366 400.74601,231.6493 C 393.37791,229.95415 395.4213,236.15478 408.60091,237.91206 C 411.17175,238.25484 412.23453,237.95512 413.36145,237.96848"
       id="path3466" />
    <path
       style="fill:none;fill-rule:evenodd;stroke:#000000;stroke-width:1px;stroke-linecap:butt;stroke-linejoin:miter;stroke-opacity:1"
       d="M 418.75673,230.69014 C 419.18775,230.74761 416.80489,225.51676 418.75673,230.69014 C 421.6077,238.24664 423.22978,238.56204 432.80034,238.19416"
       id="path3468" />
    <path
       style="fill:none;fill-rule:evenodd;stroke:#000000;stroke-width:1px;stroke-linecap:butt;stroke-linejoin:miter;stroke-opacity:1"
       d="M 417.72528,234.80889 C 419.05398,238.33061 425.20625,233.78423 428.83322,232.77772"
       id="path3470" />
    <path
       style="fill:none;fill-rule:evenodd;stroke:#000000;stroke-width:1px;stroke-linecap:butt;stroke-linejoin:miter;stroke-opacity:1"
       d="M 419.86753,228.77181 C 420.98702,231.73905 426.06839,227.32898 429.22993,227.07918"
       id="path3472" />
    <path
       style="fill:none;fill-rule:evenodd;stroke:#000000;stroke-width:1px;stroke-linecap:butt;stroke-linejoin:miter;stroke-opacity:1"
       d="M 436.21206,225.33012 C 436.70598,226.63926 436.6729,221.86167 438.03694,221.54989 C 445.46052,219.85307 466.65249,230.80752 452.39791,235.48594 C 449.60103,236.40389 424.09152,237.71306 432.64165,232.10067 C 435.96676,229.91804 441.15613,224.90098 442.48011,229.84382 C 442.80997,231.07531 443.06195,232.32635 443.35288,233.56762"
       id="path3474" />
    <path
       style="fill:none;fill-rule:evenodd;stroke:#000000;stroke-width:1px;stroke-linecap:butt;stroke-linejoin:miter;stroke-opacity:1"
       d="M 462.95045,236.67079 C 462.95045,236.67079 462.95045,236.67079 462.95045,236.67079 z"
       id="path3476" />
    <path
       style="fill:none;fill-rule:evenodd;stroke:#ff0000;stroke-width:1px;stroke-linecap:butt;stroke-linejoin:miter;stroke-opacity:1"
       d="M 400.19062,249.25273 C 400.70013,249.26667 398.21771,246.29222 401.93615,246.48809 C 413.10739,247.07653 443.9891,246.15569 447.55802,246.60093"
       id="path3484" />
    <path
       style="fill:none;fill-rule:evenodd;stroke:#ff0000;stroke-width:1px;stroke-linecap:butt;stroke-linejoin:miter;stroke-opacity:1"
       d="M 396.62021,250.58749 C 412.94273,251.44728 433.41939,251.05204 451.28711,252.11087 C 451.70995,252.13592 452.13343,252.14848 452.55659,252.16729"
       id="path3486" />
    <path
       style="fill:none;fill-rule:evenodd;stroke:#000000;stroke-width:1px;stroke-linecap:butt;stroke-linejoin:miter;stroke-opacity:1"
       d="M 208.56635,142.20228 C 207.68717,143.32105 211.77063,131.82009 210.70859,141.63807 C 210.32596,145.17529 206.14881,159.1173 205.23397,149.1421 C 204.147,137.29008 210.28375,134.74785 221.65784,133.2313 C 230.43649,132.06082 212.72699,142.73908 210.86728,143.95134 C 209.43808,144.88297 208.31984,142.05504 212.53347,144.57197 C 215.9689,146.62407 221.09331,147.51522 224.83154,149.31136"
       id="path3502"
       transform="translate(120.65459,185.99656)" />
    <path
       style="fill:none;fill-rule:evenodd;stroke:#000000;stroke-width:1px;stroke-linecap:butt;stroke-linejoin:miter;stroke-opacity:1"
       d="M 226.41839,137.57574 C 229.26469,139.27593 241.14814,136.09218 244.66713,135.48815"
       id="path3504"
       transform="translate(120.65459,185.99656)" />
    <path
       style="fill:none;fill-rule:evenodd;stroke:#000000;stroke-width:1px;stroke-linecap:butt;stroke-linejoin:miter;stroke-opacity:1"
       d="M 235.78079,136.44731 C 236.77587,137.04171 239.21312,147.54401 235.6221,149.87557 C 231.69055,152.42823 223.34272,150.93516 226.02167,146.99809"
       id="path3506"
       transform="translate(120.65459,185.99656)" />
    <path
       style="fill:none;fill-rule:evenodd;stroke:#000000;stroke-width:1px;stroke-linecap:butt;stroke-linejoin:miter;stroke-opacity:1"
       d="M 251.96663,139.04269 C 251.63204,139.25993 255.39932,132.70522 256.80652,131.31298 C 259.43509,128.71235 255.93375,138.67389 255.93375,142.37155 C 255.93375,147.59836 255.59282,150.13013 254.34691,151.34253"
       id="path3508"
       transform="translate(120.65459,185.99656)" />
    <path
       style="fill:none;fill-rule:evenodd;stroke:#000000;stroke-width:1px;stroke-linecap:butt;stroke-linejoin:miter;stroke-opacity:1"
       d="M 252.36335,150.60905 C 252.36335,151.66264 245.51243,148.66034 252.36335,150.60905 C 254.62985,151.25374 258.10582,149.6645 260.93232,150.49621"
       id="path3510"
       transform="translate(120.65459,185.99656)" />
    <path
       style="fill:none;fill-rule:evenodd;stroke:#000000;stroke-width:1px;stroke-linecap:butt;stroke-linejoin:miter;stroke-opacity:1"
       d="M 264.02668,134.64183 C 267.45889,135.61811 270.37278,131.35768 273.38908,129.45108 C 277.01397,127.15979 273.4591,138.0277 273.54776,142.31512 C 273.57071,143.42482 273.60066,144.53436 273.62711,145.64398 C 273.65805,146.94238 273.7329,148.23936 273.78579,149.53704"
       id="path3512"
       transform="translate(120.65459,185.99656)" />
    <path
       style="fill:none;fill-rule:evenodd;stroke:#000000;stroke-width:1px;stroke-linecap:butt;stroke-linejoin:miter;stroke-opacity:1"
       d="M 267.04169,148.74715 C 267.12245,152.13569 273.81576,148.01033 277.19751,148.23936 C 279.00108,148.3615 280.16857,148.82218 281.79937,149.1421"
       id="path3514"
       transform="translate(120.65459,185.99656)" />
    <path
       style="fill:none;fill-rule:evenodd;stroke:#000000;stroke-width:1px;stroke-linecap:butt;stroke-linejoin:miter;stroke-opacity:1"
       d="M 21.172021,177.18743 C 23.997326,177.37877 29.742706,179.54453 32.359298,181.87039"
       id="path3516"
       transform="translate(120.65459,185.99656)" />
    <path
       style="fill:none;fill-rule:evenodd;stroke:#000000;stroke-width:1px;stroke-linecap:butt;stroke-linejoin:miter;stroke-opacity:1"
       d="M 29.10626,175.66405 C 31.445696,175.82249 24.949411,178.18669 23.710977,180.17775 C 20.513461,185.31849 23.511409,181.04344 22.917553,183.61945"
       id="path3518"
       transform="translate(120.65459,185.99656)" />
    <path
       style="fill:none;fill-rule:evenodd;stroke:#000000;stroke-width:1px;stroke-linecap:butt;stroke-linejoin:miter;stroke-opacity:1"
       d="M 38.627346,165.73391 C 36.848454,168.59389 39.637411,172.41033 39.73814,175.7769 C 39.758819,176.46802 35.469747,170.06464 36.961156,162.40506 C 38.260497,155.7319 64.793778,156.6855 42.673808,166.29812 C 29.785035,171.89917 44.739494,167.29105 51.322129,173.01225 C 52.360454,173.9147 35.408866,180.10704 33.152722,177.35669"
       id="path3520"
       transform="translate(120.65459,185.99656)" />
    <path
       style="fill:none;fill-rule:evenodd;stroke:#000000;stroke-width:1px;stroke-linecap:butt;stroke-linejoin:miter;stroke-opacity:1"
       d="M 55.368591,172.56088 C 56.303595,173.37353 67.599347,165.5945 58.304259,164.32338 C 53.307273,163.64003 44.258003,175.35911 55.368591,172.56088 C 65.789119,169.93645 63.940299,177.33344 72.665232,165.73391 C 74.981679,162.65427 57.716719,168.4457 68.063373,173.35078 C 73.074899,175.72662 80.560499,175.28274 86.074095,175.15626"
       id="path3522"
       transform="translate(120.65459,185.99656)" />
    <path
       style="fill:none;fill-rule:evenodd;stroke:#000000;stroke-width:1px;stroke-linecap:butt;stroke-linejoin:miter;stroke-opacity:1"
       d="M 10.85751,239.81502 C 12.683548,240.6807 37.653888,237.79242 23.393608,248.89884 C 19.738829,251.74531 -2.43119,257.59097 8.5565808,247.88326 C 14.802006,242.36542 9.7575493,239.84631 14.82463,239.70218 C 17.463935,239.6271 16.167718,244.88334 17.522271,247.14978"
       id="path3524"
       transform="translate(120.65459,185.99656)" />
    <path
       style="fill:none;fill-rule:evenodd;stroke:#000000;stroke-width:1px;stroke-linecap:butt;stroke-linejoin:miter;stroke-opacity:1"
       d="M 29.026917,239.42007 C 30.476495,239.37884 31.183542,247.55334 31.565874,249.06811"
       id="path3526"
       transform="translate(120.65459,185.99656)" />
    <path
       style="fill:none;fill-rule:evenodd;stroke:#000000;stroke-width:1px;stroke-linecap:butt;stroke-linejoin:miter;stroke-opacity:1"
       d="M 41.483672,239.42007 C 44.530221,239.33341 40.775138,245.54907 41.245645,248.56031 C 41.345264,249.19787 32.924628,234.11395 42.911836,231.57752 C 56.847383,228.03833 52.579602,242.51989 41.483672,239.42007 z"
       id="path3528"
       transform="translate(120.65459,185.99656)" />
    <path
       style="fill:none;fill-rule:evenodd;stroke:#000000;stroke-width:1px;stroke-linecap:butt;stroke-linejoin:miter;stroke-opacity:1"
       d="M 111.46862,300.80551 C 114.9191,299.9292 108.87273,307.53041 108.53295,311.07418"
       id="path3530"
       transform="translate(120.65459,185.99656)" />
    <path
       style="fill:none;fill-rule:evenodd;stroke:#000000;stroke-width:1px;stroke-linecap:butt;stroke-linejoin:miter;stroke-opacity:1"
       d="M 108.69164,302.38531 C 110.29849,301.97722 115.57276,301.08505 117.73667,301.20046"
       id="path3532"
       transform="translate(120.65459,185.99656)" />
    <path
       style="fill:none;fill-rule:evenodd;stroke:#000000;stroke-width:1px;stroke-linecap:butt;stroke-linejoin:miter;stroke-opacity:1"
       d="M 105.27991,304.52932 C 107.6569,303.92564 112.95521,306.34075 116.8639,304.41647 C 117.23826,304.32139 115.32386,311.1929 121.14839,310.79208 C 126.89264,310.39677 127.60622,306.45057 125.82959,304.13437"
       id="path3534"
       transform="translate(120.65459,185.99656)" />
    <path
       style="fill:none;fill-rule:evenodd;stroke:#000000;stroke-width:1px;stroke-linecap:butt;stroke-linejoin:miter;stroke-opacity:1"
       d="M 136.54081,306.05269 C 138.11491,305.94437 138.9769,299.45066 131.85961,305.43206 C 128.03345,308.64758 142.35991,306.16753 137.2549,310.62281 C 135.50708,312.14818 132.72114,312.46052 130.51079,312.82324"
       id="path3536"
       transform="translate(120.65459,185.99656)" />
    <path
       style="fill:none;fill-rule:evenodd;stroke:#000000;stroke-width:1px;stroke-linecap:butt;stroke-linejoin:miter;stroke-opacity:1"
       d="M 143.12623,308.76091 C 142.50305,309.30478 142.4386,307.25634 142.09478,306.50406 C 142.06222,306.43281 137.348,312.78337 144.5544,314.06451 C 146.39163,314.39113 148.3149,313.26451 149.63231,312.76682"
       id="path3538"
       transform="translate(120.65459,185.99656)" />
    <path
       style="fill:none;fill-rule:evenodd;stroke:#000000;stroke-width:1px;stroke-linecap:butt;stroke-linejoin:miter;stroke-opacity:1"
       d="M 140.74596,311.75124 C 142.29917,312.02736 148.15994,309.19353 150.34639,308.14028"
       id="path3540"
       transform="translate(120.65459,185.99656)" />
    <path
       style="fill:none;fill-rule:evenodd;stroke:#000000;stroke-width:1px;stroke-linecap:butt;stroke-linejoin:miter;stroke-opacity:1"
       d="M 141.9361,304.81142 C 142.96569,304.99446 149.23775,302.67909 151.77455,302.44173"
       id="path3542"
       transform="translate(120.65459,185.99656)" />
    <path
       style="fill:none;fill-rule:evenodd;stroke:#000000;stroke-width:1px;stroke-linecap:butt;stroke-linejoin:miter;stroke-opacity:1"
       d="M 191.59699,353.99439 C 195.51692,354.69127 196.72589,346.28318 183.82144,351.68112 C 165.05983,359.52912 184.13221,367.33867 194.13595,366.35065"
       id="path3544"
       transform="translate(120.65459,185.99656)" />
    <path
       style="fill:none;fill-rule:evenodd;stroke:#000000;stroke-width:1px;stroke-linecap:butt;stroke-linejoin:miter;stroke-opacity:1"
       d="M 200.404,360.48284 C 200.88416,360.43541 200.27705,369.64794 201.51479,363.13464 C 203.01614,355.2342 205.42707,349.22927 208.81429,361.27274 C 209.10521,362.30713 209.39614,363.34151 209.68706,364.3759 C 209.89187,365.10413 210.05732,365.84286 210.24246,366.57633 C 210.32123,366.88842 210.61272,367.10293 210.79785,367.36623"
       id="path3546"
       transform="translate(120.65459,185.99656)" />
    <path
       style="fill:none;fill-rule:evenodd;stroke:#000000;stroke-width:1px;stroke-linecap:butt;stroke-linejoin:miter;stroke-opacity:1"
       d="M 196.19885,362.73969 C 197.17145,366.59302 203.83108,360.34015 207.78284,359.91863 C 208.80094,359.81003 209.72164,359.8441 210.71851,359.80578"
       id="path3548"
       transform="translate(120.65459,185.99656)" />
    <path
       style="fill:none;fill-rule:evenodd;stroke:#000000;stroke-width:1px;stroke-linecap:butt;stroke-linejoin:miter;stroke-opacity:1"
       d="M 213.33681,360.20073 C 214.29769,360.09824 214.39471,361.81814 214.92366,362.62685 C 216.17233,364.53593 214.4315,357.86539 215.39971,355.79987 C 218.70327,348.75228 218.80187,357.9867 221.82644,362.28832 C 223.37001,364.48361 227.67869,358.32916 229.602,360.20073 C 230.64967,361.22022 231.19532,364.89291 232.2203,366.35065"
       id="path3550"
       transform="translate(120.65459,185.99656)" />
    <path
       style="fill:none;fill-rule:evenodd;stroke:#000000;stroke-width:1px;stroke-linecap:butt;stroke-linejoin:miter;stroke-opacity:1"
       d="M 246.18456,357.15398 C 247.78803,358.71432 241.68507,355.04721 239.59914,355.85629 C 226.53682,360.92289 244.01437,368.95181 251.81787,366.35065"
       id="path3552"
       transform="translate(120.65459,185.99656)" />
    <path
       style="fill:none;fill-rule:evenodd;stroke:#000000;stroke-width:1px;stroke-linecap:butt;stroke-linejoin:miter;stroke-opacity:1"
       d="M 260.22816,360.87779 C 261.0929,360.58954 257.84701,360.99562 257.6892,361.89337 C 257.22758,364.51949 276.02607,366.67656 271.17741,358.05672 C 269.48726,355.05201 254.03925,354.18605 259.03803,358.45167"
       id="path3554"
       transform="translate(120.65459,185.99656)" />
    <path
       style="fill:none;fill-rule:evenodd;stroke:#000000;stroke-width:1px;stroke-linecap:butt;stroke-linejoin:miter;stroke-opacity:1"
       d="M 276.41401,359.5801 C 275.83307,358.54732 279.259,367.50393 276.41401,359.5801 C 271.38367,345.56966 286.70167,358.99119 287.04589,359.35441 C 293.76936,366.44901 296.97612,359.5332 296.24961,353.2045 C 296.19596,352.73722 295.98513,354.10724 295.85289,354.55861"
       id="path3556"
       transform="translate(120.65459,185.99656)" />
    <path
       style="fill:none;fill-rule:evenodd;stroke:#000000;stroke-width:1px;stroke-linecap:butt;stroke-linejoin:miter;stroke-opacity:1"
       d="M 398.36326,251.60321 C 397.73158,246.10055 389.18675,251.39651 384.47834,255.32701 C 375.91835,262.47274 387.8497,267.08695 392.96798,266.04705"
       id="path3558"
       transform="translate(120.65459,185.99656)" />
    <path
       style="fill:none;fill-rule:evenodd;stroke:#000000;stroke-width:1px;stroke-linecap:butt;stroke-linejoin:miter;stroke-opacity:1"
       d="M 397.09378,261.4205 C 393.04718,264.79854 395.69266,264.27371 398.83932,257.86596 C 398.87643,257.79039 402.54739,265.93334 402.56841,265.99063"
       id="path3560"
       transform="translate(120.65459,185.99656)" />
    <path
       style="fill:none;fill-rule:evenodd;stroke:#000000;stroke-width:1px;stroke-linecap:butt;stroke-linejoin:miter;stroke-opacity:1"
       d="M 394.3168,262.37966 C 395.55304,259.86222 402.78131,262.00669 403.6792,262.26682 C 404.50047,262.50475 404.00861,265.64064 406.2975,258.99439 C 407.1789,256.43507 409.56838,261.53411 409.62988,261.58977 C 411.15419,262.96934 413.94449,259.74066 415.73924,260.74345 C 417.04486,261.47294 416.99272,264.95065 417.08807,266.27273"
       id="path3562"
       transform="translate(120.65459,185.99656)" />
    <path
       style="fill:none;fill-rule:evenodd;stroke:#000000;stroke-width:1px;stroke-linecap:butt;stroke-linejoin:miter;stroke-opacity:1"
       d="M 420.10308,260.57418 C 420.19726,260.62681 420.20887,260.38611 420.10308,260.57418 z"
       id="path3564"
       transform="translate(120.65459,185.99656)" />
    <path
       style="fill:none;fill-rule:evenodd;stroke:#000000;stroke-width:1px;stroke-linecap:butt;stroke-linejoin:miter;stroke-opacity:1"
       d="M 421.21387,259.16365 C 421.63982,259.40164 409.78521,264.64304 416.92938,267.90895 C 419.06071,268.88327 423.08706,268.00152 425.41902,267.73968"
       id="path3566"
       transform="translate(120.65459,185.99656)" />
    <path
       style="fill:none;fill-rule:evenodd;stroke:#000000;stroke-width:1px;stroke-linecap:butt;stroke-linejoin:miter;stroke-opacity:1"
       d="M 425.89507,262.54893 C 426.9563,263.03406 423.01039,262.54338 422.56269,263.62093 C 421.28315,266.70057 431.32034,264.56325 432.3218,261.92829 C 433.00316,260.13557 426.97173,262.71011 422.88006,262.09756"
       id="path3568"
       transform="translate(120.65459,185.99656)" />
    <path
       style="fill:none;fill-rule:evenodd;stroke:#000000;stroke-width:1px;stroke-linecap:butt;stroke-linejoin:miter;stroke-opacity:1"
       d="M 432.3218,262.88746 C 433.81587,258.95642 435.56107,266.88854 435.65418,267.17547 C 436.34661,269.30917 436.27665,261.28695 438.51051,261.08198 C 440.58573,260.89156 443.35295,272.11875 444.61987,261.30766"
       id="path3570"
       transform="translate(120.65459,185.99656)" />
    <path
       style="fill:none;fill-rule:evenodd;stroke:#000000;stroke-width:1px;stroke-linecap:butt;stroke-linejoin:miter;stroke-opacity:1"
       d="M -60.240709,353.81868 C -61.178306,353.86466 -53.465458,350.64049 -44.292889,347.44308 C -32.457331,343.3174 -18.999889,339.61757 -7.0813083,337.34368 C -6.273205,337.1895 -4.8240964,337.48531 -3.8282703,337.34368"
       id="path3594"
       transform="translate(120.65459,185.99656)" />
    <path
       style="fill:none;fill-rule:evenodd;stroke:#000000;stroke-width:1px;stroke-linecap:butt;stroke-linejoin:miter;stroke-opacity:1"
       d="M -15.729629,329.4447 C -14.859044,329.27861 -17.316477,328.6548 -18.1099,328.25985 C -21.685518,326.47999 -10.502286,330.69685 -6.6845963,331.87082 C 6.7908873,336.01463 2.136696,335.77888 -7.7953898,344.96055 C -10.138331,347.12647 -12.535933,349.20816 -14.856862,351.39257"
       id="path3596"
       transform="translate(120.65459,185.99656)" />
    <path
       style="fill:none;fill-rule:evenodd;stroke:#000000;stroke-width:1px;stroke-linecap:butt;stroke-linejoin:miter;stroke-opacity:1"
       d="M -128.71319,339.82621 C -130.96722,341.90994 -127.07335,356.28313 -126.57095,359.85576"
       id="path3598"
       transform="translate(120.65459,185.99656)" />
    <path
       style="fill:none;fill-rule:evenodd;stroke:#000000;stroke-width:1px;stroke-linecap:butt;stroke-linejoin:miter;stroke-opacity:1"
       d="M -131.41083,338.07715 C -134.09609,340.55952 -128.92484,330.43211 -125.69818,328.71122 C -104.90673,317.62245 -120.60546,343.24317 -132.91834,349.8692 C -133.28641,350.06727 -133.71176,350.13249 -134.10847,350.26414"
       id="path3600"
       transform="translate(120.65459,185.99656)" />
    <path
       style="fill:none;fill-rule:evenodd;stroke:#000000;stroke-width:1px;stroke-linecap:butt;stroke-linejoin:miter;stroke-opacity:1"
       d="M -116.49446,351.39257 C -121.2958,353.97635 -107.12986,360.1002 -108.08417,351.95678 C -108.61865,347.39585 -117.59928,347.50502 -120.06487,348.2894"
       id="path3602"
       transform="translate(120.65459,185.99656)" />
    <path
       style="fill:none;fill-rule:evenodd;stroke:#000000;stroke-width:1px;stroke-linecap:butt;stroke-linejoin:miter;stroke-opacity:1"
       d="M -106.17995,349.98204 C -106.2673,349.23669 -106.49732,348.51509 -106.65601,347.78161 C -107.18685,345.32794 -102.84813,351.45694 -100.38796,351.95678 C -94.431281,353.16703 -101.64947,346.60307 -94.278594,350.43341 C -89.074147,353.13794 -90.036166,349.25921 -90.946214,347.04813 C -91.167464,346.51058 -79.753538,350.81475 -80.314334,343.43717 C -80.507807,340.89193 -83.380571,343.63791 -77.775377,343.38075 C -75.956936,343.29732 -81.543937,345.62661 -81.425127,347.44308 C -81.042733,353.28947 -67.820574,347.14413 -66.112046,345.69402 C -63.959403,343.86698 -70.673476,341.13015 -60.796106,339.54411"
       id="path3604"
       transform="translate(120.65459,185.99656)" />
    <path
       style="fill:none;fill-rule:evenodd;stroke:#000000;stroke-width:1px;stroke-linecap:butt;stroke-linejoin:miter;stroke-opacity:1"
       d="M -118.63671,371.47854 C -114.99808,368.39027 -141.74756,371.37359 -125.14278,374.69455 C -101.31737,379.45963 -117.39498,383.54181 -129.42727,384.79395 C -132.3526,385.09838 -128.08404,384.26518 -127.76108,384.17332"
       id="path3606"
       transform="translate(120.65459,185.99656)" />
    <path
       style="fill:none;fill-rule:evenodd;stroke:#000000;stroke-width:1px;stroke-linecap:butt;stroke-linejoin:miter;stroke-opacity:1"
       d="M -111.09918,378.92614 C -111.79181,378.99822 -111.15208,377.53442 -111.17852,376.83856 C -111.23994,375.2226 -109.00736,379.50821 -107.44943,379.94172 C -99.564268,382.13586 -103.22952,376.71134 -110.54378,376.33076"
       id="path3608"
       transform="translate(120.65459,185.99656)" />
    <path
       style="fill:none;fill-rule:evenodd;stroke:#000000;stroke-width:1px;stroke-linecap:butt;stroke-linejoin:miter;stroke-opacity:1"
       d="M -97.055578,374.13033 C -95.912963,374.44828 -97.161368,376.50003 -97.214263,377.68487 C -97.298361,379.56867 -82.696334,378.12264 -87.613834,366.17494 C -89.67645,361.16354 -87.180071,373.729 -86.344355,375.76655 C -85.489359,377.85111 -84.644363,370.7758 -82.456578,370.23727 C -78.362367,369.22946 -85.98697,372.93622 -81.107758,374.86381 C -76.730493,376.5931 -65.816929,367.74905 -72.459437,367.924 C -76.752456,368.03706 -72.821235,378.89631 -64.049144,368.31895 C -58.905658,362.11694 -66.218527,357.39766 -63.097035,369.72948 C -62.072564,373.77677 -56.808543,370.95559 -54.766084,370.068"
       id="path3610"
       transform="translate(120.65459,185.99656)" />
    <path
       style="fill:none;fill-rule:evenodd;stroke:#000000;stroke-width:1px;stroke-linecap:butt;stroke-linejoin:miter;stroke-opacity:1"
       d="M -69.444426,367.81115 C -68.610001,371.10765 -62.807064,366.30444 -59.447285,365.77999"
       id="path3612"
       transform="translate(120.65459,185.99656)" />
  </g>
</svg>
