G75*
G70*
%OFA0B0*%
%FSLAX24Y24*%
%IPPOS*%
%LPD*%
%AMOC8*
5,1,8,0,0,1.08239X$1,22.5*
%
%ADD10C,0.0060*%
%ADD11R,0.0394X0.0433*%
%ADD12C,0.0787*%
%ADD13C,0.0630*%
%ADD14OC8,0.0630*%
%ADD15C,0.0525*%
%ADD16C,0.0480*%
%ADD17O,0.0600X0.1200*%
%ADD18R,0.0551X0.0394*%
%ADD19R,0.0433X0.0394*%
%ADD20R,0.0315X0.0315*%
%ADD21C,0.0240*%
%ADD22C,0.0079*%
%ADD23R,0.0354X0.0354*%
%ADD24C,0.0236*%
%ADD25OC8,0.0354*%
%ADD26R,0.0394X0.0394*%
%ADD27OC8,0.0394*%
D10*
X002288Y004008D02*
X002608Y004008D01*
X002715Y004115D01*
X002715Y004221D01*
X002608Y004328D01*
X002288Y004328D01*
X002608Y004328D02*
X002715Y004435D01*
X002715Y004542D01*
X002608Y004648D01*
X002288Y004648D01*
X002288Y004008D01*
X002932Y004115D02*
X002932Y004328D01*
X003039Y004435D01*
X003252Y004435D01*
X003359Y004328D01*
X003359Y004115D01*
X003252Y004008D01*
X003039Y004008D01*
X002932Y004115D01*
X003577Y004115D02*
X003683Y004008D01*
X004004Y004008D01*
X004004Y004328D01*
X003897Y004435D01*
X003683Y004435D01*
X003683Y004221D02*
X004004Y004221D01*
X004221Y004221D02*
X004435Y004435D01*
X004541Y004435D01*
X004758Y004328D02*
X004758Y004115D01*
X004865Y004008D01*
X005185Y004008D01*
X005185Y004648D01*
X005185Y004435D02*
X004865Y004435D01*
X004758Y004328D01*
X004221Y004435D02*
X004221Y004008D01*
X003683Y004221D02*
X003577Y004115D01*
X003561Y005040D02*
X003774Y005040D01*
X003881Y005147D01*
X003881Y005574D01*
X003774Y005681D01*
X003561Y005681D01*
X003454Y005574D01*
X003454Y005147D01*
X003561Y005040D01*
X003237Y005681D02*
X002810Y005040D01*
X002593Y005040D02*
X002380Y005040D01*
X002487Y005040D02*
X002487Y005681D01*
X002593Y005681D02*
X002380Y005681D01*
X016073Y004421D02*
X016073Y003780D01*
X016073Y003994D02*
X016393Y003994D01*
X016500Y004101D01*
X016500Y004314D01*
X016393Y004421D01*
X016073Y004421D01*
X016286Y003994D02*
X016500Y003780D01*
X016717Y003887D02*
X016717Y004101D01*
X016824Y004207D01*
X017038Y004207D01*
X017144Y004101D01*
X017144Y003994D01*
X016717Y003994D01*
X016717Y003887D02*
X016824Y003780D01*
X017038Y003780D01*
X017362Y004207D02*
X017575Y003780D01*
X017789Y004207D01*
X018651Y004314D02*
X018758Y004421D01*
X018971Y004421D01*
X019078Y004314D01*
X019078Y004207D01*
X018971Y004101D01*
X019078Y003994D01*
X019078Y003887D01*
X018971Y003780D01*
X018758Y003780D01*
X018651Y003887D01*
X018864Y004101D02*
X018971Y004101D01*
D11*
X009895Y010651D03*
X009895Y011320D03*
X011313Y011202D03*
X011785Y011202D03*
X012573Y011202D03*
X013045Y011202D03*
X013832Y011202D03*
X014305Y011202D03*
X015092Y011202D03*
X015565Y011202D03*
X015565Y011872D03*
X015092Y011872D03*
X014305Y011872D03*
X013832Y011872D03*
X013045Y011872D03*
X012573Y011872D03*
X011785Y011872D03*
X011313Y011872D03*
X010998Y013643D03*
X011943Y013643D03*
X011943Y014313D03*
X010998Y014313D03*
X009974Y014313D03*
X008951Y014313D03*
X007927Y014313D03*
X007927Y013643D03*
X008951Y013643D03*
X009974Y013643D03*
X012966Y013643D03*
X013990Y013643D03*
X014935Y013643D03*
X014935Y014313D03*
X013990Y014313D03*
X012966Y014313D03*
D12*
X012922Y015860D03*
X013922Y015860D03*
X014922Y015860D03*
X014922Y017856D03*
X013922Y017856D03*
X012922Y017856D03*
X011922Y017856D03*
X010922Y017856D03*
X009922Y017856D03*
X008922Y017856D03*
X007922Y017856D03*
X007922Y015860D03*
X008922Y015860D03*
X009922Y015860D03*
X010922Y015860D03*
X011922Y015860D03*
X017210Y012337D03*
X017210Y011337D03*
X017210Y010337D03*
X017210Y009337D03*
X019206Y009337D03*
X019206Y010337D03*
X019206Y011337D03*
X019206Y012337D03*
X015302Y007293D03*
X014302Y007293D03*
X013302Y007293D03*
X012302Y007293D03*
X012302Y005297D03*
X013302Y005297D03*
X014302Y005297D03*
X015302Y005297D03*
X004549Y008000D03*
X004549Y009000D03*
X004549Y010000D03*
X004549Y011000D03*
X002553Y011000D03*
X002553Y010000D03*
X002553Y009000D03*
X002553Y008000D03*
D13*
X003831Y012811D03*
D14*
X002831Y012811D03*
D15*
X008284Y007457D03*
X009284Y007457D03*
X008784Y006457D03*
X007784Y006457D03*
D16*
X005219Y012066D03*
X005219Y013066D03*
D17*
X005664Y015508D03*
X004664Y015508D03*
X003664Y015508D03*
X002664Y015508D03*
D18*
X012140Y010198D03*
X013006Y009824D03*
X013006Y009234D03*
X012140Y008860D03*
X013006Y008486D03*
X013951Y008840D03*
X013951Y009431D03*
X013951Y010179D03*
X014817Y009805D03*
X013006Y010572D03*
X014817Y008466D03*
X013951Y008092D03*
D19*
X008340Y008702D03*
X008340Y009175D03*
X007671Y009175D03*
X007671Y008702D03*
X007671Y009647D03*
X007671Y010120D03*
X007671Y010592D03*
X008340Y010592D03*
X008340Y010120D03*
X008340Y009647D03*
X008340Y011065D03*
X008340Y011537D03*
X008340Y012009D03*
X007671Y012009D03*
X007671Y011537D03*
X007671Y011065D03*
X007671Y012482D03*
X008340Y012482D03*
X003537Y014529D03*
X002868Y014529D03*
D20*
X008813Y012482D03*
X009403Y012482D03*
X009403Y012009D03*
X009403Y011537D03*
X009403Y011065D03*
X008813Y011065D03*
X008813Y011537D03*
X008813Y012009D03*
X008813Y010592D03*
X008813Y010120D03*
X008813Y009647D03*
X009403Y009647D03*
X009403Y010120D03*
X009403Y010592D03*
X009403Y009175D03*
X009403Y008702D03*
X008813Y008702D03*
X008813Y009175D03*
X011254Y012324D03*
X011844Y012324D03*
X012514Y012324D03*
X013104Y012324D03*
X013773Y012324D03*
X014364Y012324D03*
X015033Y012324D03*
X015624Y012324D03*
D21*
X014922Y015860D02*
X014922Y017856D01*
X013922Y017856D02*
X013922Y015860D01*
X012922Y015860D02*
X012922Y017870D01*
X012912Y017880D01*
X012922Y017870D02*
X012922Y017856D01*
X011922Y017856D02*
X011922Y015860D01*
X010922Y015860D02*
X010922Y017856D01*
X009922Y017856D02*
X009922Y015860D01*
X008922Y015860D02*
X008922Y017856D01*
X007922Y017856D02*
X007922Y015860D01*
X004549Y011080D02*
X004549Y011000D01*
X002549Y011000D01*
X002553Y011000D01*
X002553Y010996D02*
X002549Y011000D01*
X002553Y010996D02*
X002553Y010000D01*
X004549Y010000D01*
X004549Y011000D01*
X004549Y010000D02*
X004549Y009000D01*
X002553Y009000D01*
X002549Y009000D01*
X002553Y009000D02*
X002553Y008000D01*
X002553Y009000D02*
X002553Y010000D01*
X002549Y010000D01*
X004549Y009000D02*
X004549Y008000D01*
X015302Y005297D02*
X015302Y005293D01*
D22*
X002032Y003627D02*
X002032Y003201D01*
X006877Y003201D01*
X006605Y003314D01*
X006391Y003527D01*
X006276Y003806D01*
X006276Y004108D01*
X006391Y004386D01*
X006605Y004600D01*
X006883Y004715D01*
X007185Y004715D01*
X007463Y004600D01*
X007677Y004386D01*
X007792Y004108D01*
X007792Y003806D01*
X007677Y003527D01*
X007463Y003314D01*
X007191Y003201D01*
X009877Y003201D01*
X009605Y003314D01*
X009391Y003527D01*
X009276Y003806D01*
X009276Y004108D01*
X009391Y004386D01*
X009605Y004600D01*
X009883Y004715D01*
X010185Y004715D01*
X010463Y004600D01*
X010677Y004386D01*
X010792Y004108D01*
X010792Y003806D01*
X010677Y003527D01*
X010463Y003314D01*
X010191Y003201D01*
X019570Y003201D01*
X019570Y003421D01*
X019548Y003399D01*
X015761Y003399D01*
X015691Y003468D01*
X015691Y004733D01*
X015761Y004802D01*
X016572Y004802D01*
X016480Y004840D01*
X016269Y005050D01*
X016155Y005325D01*
X016155Y005623D01*
X016269Y005898D01*
X016480Y006108D01*
X016754Y006222D01*
X017052Y006222D01*
X017327Y006108D01*
X017537Y005898D01*
X017651Y005623D01*
X017651Y005325D01*
X017537Y005050D01*
X019570Y005050D01*
X019570Y005127D02*
X017569Y005127D01*
X017537Y005050D02*
X017327Y004840D01*
X017235Y004802D01*
X019548Y004802D01*
X019570Y004780D01*
X019570Y008977D01*
X019496Y008904D01*
X019308Y008826D01*
X019245Y008826D01*
X019245Y009298D01*
X019167Y009298D01*
X019167Y008826D01*
X019104Y008826D01*
X018916Y008904D01*
X018772Y009048D01*
X018694Y009236D01*
X018694Y009298D01*
X019167Y009298D01*
X019167Y009377D01*
X019167Y009849D01*
X019167Y010298D01*
X019245Y010298D01*
X019245Y009849D01*
X019245Y009377D01*
X019167Y009377D01*
X018694Y009377D01*
X018694Y009439D01*
X018772Y009627D01*
X018916Y009771D01*
X019076Y009837D01*
X018916Y009904D01*
X018772Y010048D01*
X018694Y010236D01*
X018694Y010298D01*
X019167Y010298D01*
X019167Y010377D01*
X019167Y010826D01*
X019167Y011298D01*
X019245Y011298D01*
X019245Y010826D01*
X019245Y010377D01*
X019167Y010377D01*
X018694Y010377D01*
X018694Y010439D01*
X018772Y010627D01*
X018916Y010771D01*
X019076Y010837D01*
X018916Y010904D01*
X018772Y011048D01*
X018694Y011236D01*
X018694Y011298D01*
X019167Y011298D01*
X019167Y011377D01*
X019167Y011849D01*
X019167Y012298D01*
X019245Y012298D01*
X019245Y011849D01*
X019245Y011377D01*
X019167Y011377D01*
X018694Y011377D01*
X018694Y011439D01*
X018772Y011627D01*
X018916Y011771D01*
X019076Y011837D01*
X018916Y011904D01*
X018772Y012048D01*
X018694Y012236D01*
X018694Y012298D01*
X019167Y012298D01*
X019167Y012377D01*
X019167Y012849D01*
X019104Y012849D01*
X018916Y012771D01*
X018772Y012627D01*
X018694Y012439D01*
X018694Y012377D01*
X019167Y012377D01*
X019245Y012377D01*
X019245Y012849D01*
X019308Y012849D01*
X019496Y012771D01*
X019570Y012697D01*
X019570Y018534D01*
X002032Y018534D01*
X002032Y006026D01*
X002068Y006062D01*
X004351Y006062D01*
X004420Y005992D01*
X004420Y005806D01*
X004458Y005898D01*
X004669Y006108D01*
X004943Y006222D01*
X005241Y006222D01*
X005516Y006108D01*
X005726Y005898D01*
X005840Y005623D01*
X005840Y005325D01*
X005726Y005050D01*
X011851Y005050D01*
X011868Y005007D02*
X012012Y004863D01*
X012200Y004785D01*
X012404Y004785D01*
X012592Y004863D01*
X012736Y005007D01*
X012802Y005167D01*
X012868Y005007D01*
X013012Y004863D01*
X013200Y004785D01*
X013404Y004785D01*
X013592Y004863D01*
X013736Y005007D01*
X013802Y005167D01*
X013868Y005007D01*
X014012Y004863D01*
X014200Y004785D01*
X014404Y004785D01*
X014592Y004863D01*
X014736Y005007D01*
X014802Y005167D01*
X014868Y005007D01*
X015012Y004863D01*
X015200Y004785D01*
X015404Y004785D01*
X015592Y004863D01*
X015736Y005007D01*
X015814Y005195D01*
X015814Y005399D01*
X015736Y005587D01*
X015592Y005731D01*
X015538Y005753D01*
X015538Y006837D01*
X015592Y006859D01*
X015736Y007003D01*
X015788Y007128D01*
X016056Y007128D01*
X016195Y007266D01*
X016588Y007660D01*
X016588Y007855D01*
X016588Y008800D01*
X016450Y008939D01*
X015190Y010198D01*
X015141Y010198D01*
X015082Y010257D01*
X014665Y010257D01*
X015276Y010868D01*
X015338Y010868D01*
X015810Y010868D01*
X015880Y010937D01*
X015880Y011468D01*
X015810Y011537D01*
X015880Y011606D01*
X015880Y011832D01*
X015604Y011832D01*
X015604Y011537D01*
X015810Y011537D01*
X015338Y011537D01*
X014846Y011537D01*
X015319Y011537D01*
X015525Y011537D01*
X015525Y011832D01*
X015604Y011832D01*
X015604Y011911D01*
X015880Y011911D01*
X015880Y012098D01*
X015899Y012118D01*
X015899Y012167D01*
X016287Y012167D01*
X016417Y012167D01*
X016704Y012454D01*
X016698Y012439D01*
X016698Y012377D01*
X017171Y012377D01*
X017171Y012849D01*
X017108Y012849D01*
X017094Y012843D01*
X017283Y013033D01*
X017621Y013033D01*
X017691Y013102D01*
X017691Y013594D01*
X017621Y013663D01*
X017130Y013663D01*
X017061Y013594D01*
X017061Y013256D01*
X016647Y012842D01*
X016647Y012919D01*
X016474Y013092D01*
X016280Y013092D01*
X016260Y013112D01*
X016243Y013112D01*
X016254Y013122D01*
X016254Y013574D01*
X016184Y013643D01*
X015997Y013643D01*
X015761Y013879D01*
X015565Y013879D01*
X015250Y013879D01*
X015250Y013909D01*
X015181Y013978D01*
X014689Y013978D01*
X015181Y013978D01*
X015250Y014047D01*
X015250Y014578D01*
X015181Y014647D01*
X015158Y014647D01*
X015158Y015403D01*
X015212Y015426D01*
X015356Y015570D01*
X015434Y015758D01*
X015434Y015961D01*
X015356Y016149D01*
X015212Y016293D01*
X015160Y016315D01*
X015160Y017400D01*
X015212Y017422D01*
X015356Y017566D01*
X015434Y017754D01*
X015434Y017957D01*
X015356Y018145D01*
X015212Y018289D01*
X015024Y018367D01*
X014820Y018367D01*
X014632Y018289D01*
X014488Y018145D01*
X014422Y017986D01*
X014356Y018145D01*
X014212Y018289D01*
X014024Y018367D01*
X013820Y018367D01*
X013632Y018289D01*
X013488Y018145D01*
X013422Y017986D01*
X013356Y018145D01*
X013212Y018289D01*
X013024Y018367D01*
X012820Y018367D01*
X012632Y018289D01*
X012488Y018145D01*
X012422Y017986D01*
X012356Y018145D01*
X012212Y018289D01*
X012024Y018367D01*
X011820Y018367D01*
X011632Y018289D01*
X011488Y018145D01*
X011422Y017986D01*
X011356Y018145D01*
X011212Y018289D01*
X011024Y018367D01*
X010820Y018367D01*
X010632Y018289D01*
X010488Y018145D01*
X010422Y017986D01*
X010356Y018145D01*
X010212Y018289D01*
X010024Y018367D01*
X009820Y018367D01*
X009632Y018289D01*
X009488Y018145D01*
X009422Y017986D01*
X009356Y018145D01*
X009212Y018289D01*
X009024Y018367D01*
X008820Y018367D01*
X008632Y018289D01*
X008488Y018145D01*
X008422Y017986D01*
X008356Y018145D01*
X008212Y018289D01*
X008024Y018367D01*
X007820Y018367D01*
X007632Y018289D01*
X007488Y018145D01*
X007410Y017957D01*
X007410Y017754D01*
X007488Y017566D01*
X007632Y017422D01*
X007684Y017400D01*
X007684Y016315D01*
X007632Y016293D01*
X007488Y016149D01*
X007410Y015961D01*
X007410Y015758D01*
X007488Y015570D01*
X007632Y015426D01*
X007686Y015403D01*
X007686Y014647D01*
X007681Y014647D01*
X007612Y014578D01*
X007612Y014047D01*
X007681Y013978D01*
X007612Y013909D01*
X007612Y013879D01*
X007454Y013879D01*
X007258Y013879D01*
X007022Y013643D01*
X006835Y013643D01*
X006766Y013574D01*
X006766Y013122D01*
X006835Y013053D01*
X007287Y013053D01*
X007356Y013122D01*
X007356Y013309D01*
X007454Y013407D01*
X007612Y013407D01*
X007612Y013378D01*
X007681Y013309D01*
X008173Y013309D01*
X008183Y013319D01*
X008183Y013122D01*
X008252Y013053D01*
X008704Y013053D01*
X008773Y013122D01*
X008773Y013309D01*
X009196Y013309D01*
X009265Y013378D01*
X009265Y013909D01*
X009196Y013978D01*
X008705Y013978D01*
X008636Y013909D01*
X008636Y013840D01*
X008439Y013643D01*
X008252Y013643D01*
X008242Y013633D01*
X008242Y013909D01*
X008173Y013978D01*
X007681Y013978D01*
X008173Y013978D01*
X008242Y014047D01*
X008242Y014578D01*
X008173Y014647D01*
X008158Y014647D01*
X008158Y015403D01*
X008212Y015426D01*
X008356Y015570D01*
X008422Y015729D01*
X008488Y015570D01*
X008632Y015426D01*
X008686Y015403D01*
X008686Y014628D01*
X008636Y014578D01*
X008636Y014047D01*
X008705Y013978D01*
X009196Y013978D01*
X009265Y014047D01*
X009265Y014578D01*
X009196Y014647D01*
X009158Y014647D01*
X009158Y015403D01*
X009212Y015426D01*
X009356Y015570D01*
X009422Y015729D01*
X009488Y015570D01*
X009632Y015426D01*
X009686Y015403D01*
X009686Y014604D01*
X009659Y014578D01*
X009659Y014047D01*
X009728Y013978D01*
X009659Y013909D01*
X009659Y013761D01*
X009542Y013643D01*
X009354Y013643D01*
X009285Y013574D01*
X009285Y013122D01*
X009354Y013053D01*
X009771Y013053D01*
X009738Y013019D01*
X009724Y013033D01*
X009594Y013033D01*
X007783Y013033D01*
X007691Y012941D01*
X007547Y012797D01*
X007406Y012797D01*
X007336Y012728D01*
X007336Y012236D01*
X007336Y012114D01*
X006366Y011143D01*
X006273Y011051D01*
X006273Y010773D01*
X006136Y010636D01*
X006136Y010494D01*
X005915Y010494D01*
X005742Y010321D01*
X005742Y010076D01*
X005915Y009903D01*
X006136Y009903D01*
X006136Y009864D01*
X005915Y009864D01*
X005742Y009691D01*
X005742Y009446D01*
X005915Y009273D01*
X006159Y009273D01*
X006297Y009411D01*
X006844Y009411D01*
X006844Y009210D01*
X007017Y009037D01*
X007212Y009037D01*
X007232Y009017D01*
X007336Y009017D01*
X007336Y008948D01*
X007336Y008457D01*
X007406Y008387D01*
X007547Y008387D01*
X007848Y008086D01*
X007940Y007994D01*
X009994Y007994D01*
X009994Y007871D01*
X010167Y007698D01*
X010411Y007698D01*
X010584Y007871D01*
X010584Y008116D01*
X010411Y008289D01*
X010217Y008289D01*
X010197Y008309D01*
X010066Y008309D01*
X008071Y008309D01*
X007964Y008415D01*
X008006Y008457D01*
X008075Y008387D01*
X008606Y008387D01*
X008645Y008427D01*
X009019Y008427D01*
X009088Y008496D01*
X009088Y008909D01*
X009058Y008939D01*
X009088Y008968D01*
X009088Y009381D01*
X009058Y009411D01*
X009088Y009441D01*
X009088Y009854D01*
X009058Y009883D01*
X009088Y009913D01*
X009088Y010326D01*
X009058Y010356D01*
X009088Y010386D01*
X009088Y010799D01*
X009058Y010828D01*
X009088Y010858D01*
X009088Y011271D01*
X009058Y011301D01*
X009088Y011331D01*
X009088Y011743D01*
X009058Y011773D01*
X009088Y011803D01*
X009088Y012216D01*
X009058Y012246D01*
X009088Y012275D01*
X009088Y012688D01*
X009058Y012718D01*
X009158Y012718D01*
X009128Y012688D01*
X009128Y012683D01*
X009128Y012570D01*
X009128Y012551D01*
X009128Y012438D01*
X009128Y012275D01*
X009158Y012246D01*
X009128Y012216D01*
X009128Y012049D01*
X009364Y012049D01*
X009364Y012265D01*
X009413Y012265D01*
X009413Y012442D01*
X009433Y012442D01*
X009433Y012265D01*
X009443Y012265D01*
X009443Y012049D01*
X009679Y012049D01*
X009679Y012216D01*
X009649Y012246D01*
X009679Y012275D01*
X009679Y012399D01*
X009718Y012438D01*
X009718Y012551D01*
X009679Y012551D01*
X009679Y012570D01*
X009718Y012570D01*
X009718Y012594D01*
X009738Y012574D01*
X009738Y011655D01*
X009679Y011655D01*
X009679Y011743D01*
X009649Y011773D01*
X009679Y011803D01*
X009679Y011970D01*
X009443Y011970D01*
X009443Y012049D01*
X009364Y012049D01*
X009364Y011970D01*
X009443Y011970D01*
X009443Y011813D01*
X009443Y011576D01*
X009364Y011576D01*
X009364Y011498D01*
X009128Y011498D01*
X009128Y011331D01*
X009158Y011301D01*
X009128Y011271D01*
X009128Y011104D01*
X009364Y011104D01*
X009364Y011340D01*
X009364Y011497D01*
X009443Y011497D01*
X009443Y011340D01*
X009443Y011104D01*
X009364Y011104D01*
X009364Y011025D01*
X009443Y011025D01*
X009443Y010868D01*
X009443Y010632D01*
X009364Y010632D01*
X009364Y010868D01*
X009364Y011025D01*
X009128Y011025D01*
X009128Y010858D01*
X009158Y010828D01*
X009128Y010799D01*
X009128Y010631D01*
X009364Y010631D01*
X009364Y010553D01*
X009128Y010553D01*
X009128Y010386D01*
X009158Y010356D01*
X009128Y010326D01*
X009128Y010159D01*
X009364Y010159D01*
X009364Y010395D01*
X009364Y010553D01*
X009443Y010553D01*
X009443Y010631D01*
X009679Y010631D01*
X009679Y010690D01*
X009856Y010690D01*
X009856Y010612D01*
X009580Y010612D01*
X009580Y010553D01*
X009443Y010553D01*
X009443Y010395D01*
X009443Y010159D01*
X009679Y010159D01*
X009679Y010317D01*
X009856Y010317D01*
X009856Y010612D01*
X009935Y010612D01*
X009935Y010690D01*
X010210Y010690D01*
X010210Y010917D01*
X010141Y010986D01*
X010210Y011055D01*
X010210Y011586D01*
X010141Y011655D01*
X010053Y011655D01*
X010053Y012705D01*
X010020Y012738D01*
X010254Y012738D01*
X010427Y012911D01*
X010427Y013155D01*
X010254Y013328D01*
X010240Y013328D01*
X010289Y013378D01*
X010289Y013909D01*
X010220Y013978D01*
X009728Y013978D01*
X010220Y013978D01*
X010289Y014047D01*
X010289Y014578D01*
X010220Y014647D01*
X010158Y014647D01*
X010158Y015403D01*
X010212Y015426D01*
X010356Y015570D01*
X010422Y015729D01*
X010488Y015570D01*
X010632Y015426D01*
X010686Y015403D01*
X010686Y014581D01*
X010683Y014578D01*
X010683Y014047D01*
X010752Y013978D01*
X011244Y013978D01*
X010752Y013978D01*
X010683Y013909D01*
X010683Y013633D01*
X010624Y013574D01*
X010624Y013275D01*
X010604Y013256D01*
X010604Y013125D01*
X010604Y010500D01*
X010210Y010106D01*
X010210Y009986D01*
X010073Y009848D01*
X010073Y009604D01*
X010246Y009431D01*
X010490Y009431D01*
X010663Y009604D01*
X010663Y009801D01*
X010797Y009667D01*
X011041Y009667D01*
X011155Y009781D01*
X011155Y006521D01*
X011017Y006384D01*
X011017Y006139D01*
X011190Y005966D01*
X011435Y005966D01*
X011608Y006139D01*
X011608Y006384D01*
X011470Y006521D01*
X011470Y007791D01*
X011813Y007449D01*
X011790Y007395D01*
X011790Y007191D01*
X011868Y007003D01*
X012012Y006859D01*
X012066Y006837D01*
X012066Y005753D01*
X012012Y005731D01*
X011868Y005587D01*
X011790Y005399D01*
X011790Y005195D01*
X011868Y005007D01*
X011903Y004972D02*
X005712Y004972D01*
X005724Y004960D02*
X005680Y005004D01*
X005726Y005050D01*
X005758Y005127D02*
X011819Y005127D01*
X011790Y005204D02*
X005790Y005204D01*
X005822Y005282D02*
X011790Y005282D01*
X011790Y005359D02*
X005840Y005359D01*
X005840Y005436D02*
X011806Y005436D01*
X011838Y005513D02*
X005840Y005513D01*
X005840Y005591D02*
X011872Y005591D01*
X011949Y005668D02*
X005822Y005668D01*
X005790Y005745D02*
X012047Y005745D01*
X012066Y005823D02*
X005758Y005823D01*
X005724Y005900D02*
X012066Y005900D01*
X012066Y005977D02*
X011446Y005977D01*
X011523Y006054D02*
X012066Y006054D01*
X012066Y006132D02*
X011601Y006132D01*
X011608Y006209D02*
X012066Y006209D01*
X012066Y006286D02*
X011608Y006286D01*
X011608Y006364D02*
X012066Y006364D01*
X012066Y006441D02*
X011551Y006441D01*
X011474Y006518D02*
X012066Y006518D01*
X012066Y006595D02*
X011470Y006595D01*
X011470Y006673D02*
X012066Y006673D01*
X012066Y006750D02*
X011470Y006750D01*
X011470Y006827D02*
X012066Y006827D01*
X011967Y006905D02*
X011470Y006905D01*
X011470Y006982D02*
X011890Y006982D01*
X011845Y007059D02*
X011470Y007059D01*
X011470Y007136D02*
X011813Y007136D01*
X011790Y007214D02*
X011470Y007214D01*
X011470Y007291D02*
X011790Y007291D01*
X011790Y007368D02*
X011470Y007368D01*
X011470Y007446D02*
X011811Y007446D01*
X011739Y007523D02*
X011470Y007523D01*
X011470Y007600D02*
X011661Y007600D01*
X011584Y007677D02*
X011470Y007677D01*
X011470Y007755D02*
X011507Y007755D01*
X011155Y007755D02*
X011103Y007755D01*
X011136Y007722D02*
X010963Y007895D01*
X010718Y007895D01*
X010545Y007722D01*
X010545Y007527D01*
X010362Y007344D01*
X009984Y007344D01*
X009915Y007275D01*
X009915Y006823D01*
X009984Y006754D01*
X010436Y006754D01*
X010506Y006823D01*
X010506Y007043D01*
X010768Y007305D01*
X010963Y007305D01*
X011136Y007478D01*
X011136Y007722D01*
X011136Y007677D02*
X011155Y007677D01*
X011155Y007600D02*
X011136Y007600D01*
X011136Y007523D02*
X011155Y007523D01*
X011155Y007446D02*
X011103Y007446D01*
X011155Y007368D02*
X011026Y007368D01*
X011155Y007291D02*
X010754Y007291D01*
X010677Y007214D02*
X011155Y007214D01*
X011155Y007136D02*
X010599Y007136D01*
X010522Y007059D02*
X011155Y007059D01*
X011155Y006982D02*
X010506Y006982D01*
X010506Y006905D02*
X011155Y006905D01*
X011155Y006827D02*
X010506Y006827D01*
X010289Y007049D02*
X010840Y007600D01*
X010545Y007600D02*
X009637Y007600D01*
X009665Y007533D02*
X009607Y007672D01*
X009500Y007779D01*
X009360Y007837D01*
X009208Y007837D01*
X009068Y007779D01*
X008961Y007672D01*
X008903Y007533D01*
X008903Y007381D01*
X008961Y007241D01*
X009068Y007134D01*
X009208Y007076D01*
X009360Y007076D01*
X009500Y007134D01*
X009607Y007241D01*
X009665Y007381D01*
X009665Y007533D01*
X009665Y007523D02*
X010540Y007523D01*
X010463Y007446D02*
X009665Y007446D01*
X009659Y007368D02*
X010386Y007368D01*
X010545Y007677D02*
X009602Y007677D01*
X009524Y007755D02*
X010111Y007755D01*
X010033Y007832D02*
X009373Y007832D01*
X009195Y007832D02*
X008373Y007832D01*
X008360Y007837D02*
X008323Y007837D01*
X008323Y007496D01*
X008245Y007496D01*
X008245Y007837D01*
X008208Y007837D01*
X008068Y007779D01*
X007961Y007672D01*
X007903Y007533D01*
X007903Y007496D01*
X008244Y007496D01*
X008244Y007417D01*
X007903Y007417D01*
X007903Y007381D01*
X007961Y007241D01*
X008068Y007134D01*
X008208Y007076D01*
X008245Y007076D01*
X008245Y007417D01*
X008323Y007417D01*
X008323Y007076D01*
X008360Y007076D01*
X008500Y007134D01*
X008607Y007241D01*
X008665Y007381D01*
X008665Y007417D01*
X008324Y007417D01*
X008324Y007496D01*
X008665Y007496D01*
X008665Y007533D01*
X008607Y007672D01*
X008500Y007779D01*
X008360Y007837D01*
X008323Y007832D02*
X008245Y007832D01*
X008195Y007832D02*
X005033Y007832D01*
X005061Y007898D02*
X004983Y007710D01*
X004839Y007566D01*
X004651Y007489D01*
X004447Y007489D01*
X004259Y007566D01*
X004115Y007710D01*
X004037Y007898D01*
X004037Y008102D01*
X004115Y008290D01*
X004259Y008434D01*
X004311Y008456D01*
X004311Y008545D01*
X004259Y008566D01*
X004115Y008710D01*
X004094Y008762D01*
X003009Y008762D01*
X002987Y008710D01*
X002843Y008566D01*
X002791Y008545D01*
X002791Y008456D01*
X002843Y008434D01*
X002987Y008290D01*
X003065Y008102D01*
X003065Y007898D01*
X002987Y007710D01*
X002843Y007566D01*
X002655Y007489D01*
X002451Y007489D01*
X002263Y007566D01*
X002119Y007710D01*
X002041Y007898D01*
X002041Y008102D01*
X002119Y008290D01*
X002263Y008434D01*
X002315Y008456D01*
X002315Y008545D01*
X002263Y008566D01*
X002119Y008710D01*
X002041Y008898D01*
X002041Y009102D01*
X002119Y009290D01*
X002263Y009434D01*
X002315Y009456D01*
X002315Y009545D01*
X002263Y009566D01*
X002119Y009710D01*
X002041Y009898D01*
X002041Y010102D01*
X002119Y010290D01*
X002263Y010434D01*
X002315Y010456D01*
X002315Y010545D01*
X002263Y010566D01*
X002119Y010710D01*
X002041Y010898D01*
X002041Y011102D01*
X002119Y011290D01*
X002263Y011434D01*
X002451Y011512D01*
X002655Y011512D01*
X002843Y011434D01*
X002987Y011290D01*
X003009Y011238D01*
X004094Y011238D01*
X004115Y011290D01*
X004259Y011434D01*
X004447Y011512D01*
X004651Y011512D01*
X004839Y011434D01*
X004983Y011290D01*
X005061Y011102D01*
X005061Y010898D01*
X004983Y010710D01*
X004839Y010566D01*
X004787Y010545D01*
X004787Y010456D01*
X004839Y010434D01*
X004983Y010290D01*
X005061Y010102D01*
X005061Y009898D01*
X004983Y009710D01*
X004839Y009566D01*
X004787Y009545D01*
X004787Y009456D01*
X004839Y009434D01*
X004983Y009290D01*
X005061Y009102D01*
X005061Y008898D01*
X004983Y008710D01*
X004839Y008566D01*
X004787Y008545D01*
X004787Y008456D01*
X004839Y008434D01*
X004983Y008290D01*
X005061Y008102D01*
X005061Y007898D01*
X005061Y007909D02*
X009994Y007909D01*
X009994Y007986D02*
X005061Y007986D01*
X005061Y008064D02*
X007870Y008064D01*
X007793Y008141D02*
X005045Y008141D01*
X005013Y008218D02*
X007716Y008218D01*
X007639Y008296D02*
X004978Y008296D01*
X004900Y008373D02*
X007561Y008373D01*
X007691Y008466D02*
X007691Y008702D01*
X007671Y008702D01*
X007691Y008466D02*
X008006Y008151D01*
X010132Y008151D01*
X010289Y007994D01*
X010584Y007986D02*
X011155Y007986D01*
X011155Y007909D02*
X010584Y007909D01*
X010545Y007832D02*
X010655Y007832D01*
X010577Y007755D02*
X010468Y007755D01*
X010584Y008064D02*
X011155Y008064D01*
X011155Y008141D02*
X010559Y008141D01*
X010482Y008218D02*
X011155Y008218D01*
X011155Y008296D02*
X010210Y008296D01*
X009679Y008496D02*
X009679Y008663D01*
X009443Y008663D01*
X009443Y008742D01*
X009679Y008742D01*
X009679Y008909D01*
X009649Y008939D01*
X009679Y008968D01*
X009679Y009135D01*
X009443Y009135D01*
X009443Y009214D01*
X009679Y009214D01*
X009679Y009381D01*
X009649Y009411D01*
X009679Y009441D01*
X009679Y009608D01*
X009443Y009608D01*
X009443Y009686D01*
X009679Y009686D01*
X009679Y009854D01*
X009649Y009883D01*
X009679Y009913D01*
X009679Y010080D01*
X009443Y010080D01*
X009443Y010159D01*
X009364Y010159D01*
X009364Y010080D01*
X009443Y010080D01*
X009443Y009923D01*
X009443Y009687D01*
X009364Y009687D01*
X009364Y009923D01*
X009364Y010080D01*
X009128Y010080D01*
X009128Y009913D01*
X009158Y009883D01*
X009128Y009854D01*
X009128Y009686D01*
X009364Y009686D01*
X009364Y009608D01*
X009128Y009608D01*
X009128Y009441D01*
X009158Y009411D01*
X009128Y009381D01*
X009128Y009214D01*
X009364Y009214D01*
X009364Y009135D01*
X009443Y009135D01*
X009443Y008978D01*
X009443Y008742D01*
X009364Y008742D01*
X009364Y008978D01*
X009364Y009135D01*
X009128Y009135D01*
X009128Y008968D01*
X009158Y008939D01*
X009128Y008909D01*
X009128Y008742D01*
X009364Y008742D01*
X009364Y008663D01*
X009443Y008663D01*
X009443Y008427D01*
X009610Y008427D01*
X009679Y008496D01*
X009679Y008527D02*
X011155Y008527D01*
X011155Y008450D02*
X009633Y008450D01*
X009679Y008605D02*
X011155Y008605D01*
X011155Y008682D02*
X009443Y008682D01*
X009443Y008605D02*
X009364Y008605D01*
X009364Y008663D02*
X009364Y008427D01*
X009197Y008427D01*
X009128Y008496D01*
X009128Y008663D01*
X009364Y008663D01*
X009364Y008682D02*
X009088Y008682D01*
X009088Y008605D02*
X009128Y008605D01*
X009128Y008527D02*
X009088Y008527D01*
X009043Y008450D02*
X009173Y008450D01*
X009364Y008450D02*
X009443Y008450D01*
X009443Y008527D02*
X009364Y008527D01*
X009364Y008759D02*
X009443Y008759D01*
X009443Y008837D02*
X009364Y008837D01*
X009364Y008914D02*
X009443Y008914D01*
X009443Y008991D02*
X009364Y008991D01*
X009364Y009068D02*
X009443Y009068D01*
X009443Y009146D02*
X011155Y009146D01*
X011155Y009223D02*
X009679Y009223D01*
X009679Y009300D02*
X011155Y009300D01*
X011155Y009378D02*
X009679Y009378D01*
X009679Y009455D02*
X010221Y009455D01*
X010144Y009532D02*
X009679Y009532D01*
X009679Y009687D02*
X010073Y009687D01*
X010073Y009764D02*
X009679Y009764D01*
X009679Y009841D02*
X010073Y009841D01*
X010143Y009919D02*
X009679Y009919D01*
X009679Y009996D02*
X010210Y009996D01*
X010210Y010073D02*
X009679Y010073D01*
X009679Y010228D02*
X010332Y010228D01*
X010409Y010305D02*
X009679Y010305D01*
X009856Y010382D02*
X009935Y010382D01*
X009935Y010317D02*
X010141Y010317D01*
X010210Y010386D01*
X010210Y010612D01*
X009935Y010612D01*
X009935Y010317D01*
X009935Y010460D02*
X009856Y010460D01*
X009856Y010537D02*
X009935Y010537D01*
X009935Y010614D02*
X010604Y010614D01*
X010604Y010537D02*
X010210Y010537D01*
X010210Y010460D02*
X010564Y010460D01*
X010487Y010382D02*
X010207Y010382D01*
X010255Y010150D02*
X009443Y010150D01*
X009443Y010073D02*
X009364Y010073D01*
X009364Y009996D02*
X009443Y009996D01*
X009443Y009919D02*
X009364Y009919D01*
X009364Y009841D02*
X009443Y009841D01*
X009443Y009764D02*
X009364Y009764D01*
X009364Y009687D02*
X009443Y009687D01*
X009443Y009609D02*
X010073Y009609D01*
X010368Y009726D02*
X010368Y010041D01*
X010762Y010435D01*
X010762Y013191D01*
X010919Y013348D01*
X010624Y013319D02*
X010263Y013319D01*
X010289Y013396D02*
X010624Y013396D01*
X010624Y013474D02*
X010289Y013474D01*
X010289Y013551D02*
X010624Y013551D01*
X010678Y013628D02*
X010289Y013628D01*
X010289Y013705D02*
X010683Y013705D01*
X010683Y013783D02*
X010289Y013783D01*
X010289Y013860D02*
X010683Y013860D01*
X010711Y013937D02*
X010261Y013937D01*
X010257Y014015D02*
X010715Y014015D01*
X010683Y014092D02*
X010289Y014092D01*
X010289Y014169D02*
X010683Y014169D01*
X010683Y014246D02*
X010289Y014246D01*
X010289Y014324D02*
X010683Y014324D01*
X010683Y014401D02*
X010289Y014401D01*
X010289Y014478D02*
X010683Y014478D01*
X010683Y014556D02*
X010289Y014556D01*
X010234Y014633D02*
X010686Y014633D01*
X010686Y014710D02*
X010158Y014710D01*
X010158Y014787D02*
X010686Y014787D01*
X010686Y014865D02*
X010158Y014865D01*
X010158Y014942D02*
X010686Y014942D01*
X010686Y015019D02*
X010158Y015019D01*
X010158Y015097D02*
X010686Y015097D01*
X010686Y015174D02*
X010158Y015174D01*
X010158Y015251D02*
X010686Y015251D01*
X010686Y015328D02*
X010158Y015328D01*
X010164Y015406D02*
X010680Y015406D01*
X010574Y015483D02*
X010269Y015483D01*
X010346Y015560D02*
X010497Y015560D01*
X010460Y015638D02*
X010384Y015638D01*
X010416Y015715D02*
X010428Y015715D01*
X011158Y015403D02*
X011212Y015426D01*
X011356Y015570D01*
X011422Y015729D01*
X011488Y015570D01*
X011632Y015426D01*
X011686Y015403D01*
X011686Y014636D01*
X011628Y014578D01*
X011628Y014047D01*
X011697Y013978D01*
X011628Y013909D01*
X011628Y013378D01*
X011697Y013309D01*
X011726Y013309D01*
X011726Y013275D01*
X011562Y013112D01*
X011248Y013112D01*
X011155Y013020D01*
X010919Y012783D01*
X010919Y013053D01*
X011145Y013053D01*
X011214Y013122D01*
X011214Y013309D01*
X011244Y013309D01*
X011313Y013378D01*
X011313Y013909D01*
X011244Y013978D01*
X011313Y014047D01*
X011313Y014578D01*
X011244Y014647D01*
X011158Y014647D01*
X011158Y015403D01*
X011164Y015406D02*
X011680Y015406D01*
X011686Y015328D02*
X011158Y015328D01*
X011158Y015251D02*
X011686Y015251D01*
X011686Y015174D02*
X011158Y015174D01*
X011158Y015097D02*
X011686Y015097D01*
X011686Y015019D02*
X011158Y015019D01*
X011158Y014942D02*
X011686Y014942D01*
X011686Y014865D02*
X011158Y014865D01*
X011158Y014787D02*
X011686Y014787D01*
X011686Y014710D02*
X011158Y014710D01*
X011258Y014633D02*
X011683Y014633D01*
X011628Y014556D02*
X011313Y014556D01*
X011313Y014478D02*
X011628Y014478D01*
X011628Y014401D02*
X011313Y014401D01*
X011313Y014324D02*
X011628Y014324D01*
X011628Y014246D02*
X011313Y014246D01*
X011313Y014169D02*
X011628Y014169D01*
X011628Y014092D02*
X011313Y014092D01*
X011280Y014015D02*
X011660Y014015D01*
X011697Y013978D02*
X012188Y013978D01*
X011697Y013978D01*
X011656Y013937D02*
X011284Y013937D01*
X011313Y013860D02*
X011628Y013860D01*
X011628Y013783D02*
X011313Y013783D01*
X011313Y013705D02*
X011628Y013705D01*
X011628Y013628D02*
X011313Y013628D01*
X011313Y013551D02*
X011628Y013551D01*
X011628Y013474D02*
X011313Y013474D01*
X011313Y013396D02*
X011628Y013396D01*
X011686Y013319D02*
X011254Y013319D01*
X011214Y013242D02*
X011692Y013242D01*
X011615Y013164D02*
X011214Y013164D01*
X011223Y013087D02*
X011180Y013087D01*
X011146Y013010D02*
X010919Y013010D01*
X010919Y012933D02*
X011068Y012933D01*
X010991Y012855D02*
X010919Y012855D01*
X010919Y012561D02*
X011313Y012954D01*
X011628Y012954D01*
X012021Y013348D01*
X012317Y013319D02*
X012710Y013319D01*
X012721Y013309D02*
X012986Y013309D01*
X012986Y013122D01*
X013055Y013053D01*
X013507Y013053D01*
X013576Y013122D01*
X013576Y013574D01*
X013507Y013643D01*
X013320Y013643D01*
X013281Y013682D01*
X013281Y013909D01*
X013212Y013978D01*
X013281Y014047D01*
X013281Y014578D01*
X013212Y014647D01*
X013158Y014647D01*
X013158Y015403D01*
X013212Y015426D01*
X013356Y015570D01*
X013422Y015729D01*
X013488Y015570D01*
X013632Y015426D01*
X013686Y015403D01*
X013686Y014589D01*
X013675Y014578D01*
X013675Y014047D01*
X013744Y013978D01*
X013675Y013909D01*
X013675Y013378D01*
X013744Y013309D01*
X014088Y013309D01*
X014088Y013122D01*
X014158Y013053D01*
X014456Y013053D01*
X014555Y012954D01*
X014318Y012954D01*
X013059Y012954D01*
X012323Y012954D01*
X012192Y012954D01*
X011838Y012600D01*
X011638Y012600D01*
X011569Y012531D01*
X011569Y012206D01*
X011559Y012206D01*
X011529Y012206D01*
X011529Y012531D01*
X011460Y012600D01*
X011181Y012600D01*
X011378Y012797D01*
X011562Y012797D01*
X011693Y012797D01*
X011949Y013053D01*
X012247Y013053D01*
X012317Y013122D01*
X012317Y013574D01*
X012258Y013633D01*
X012258Y013909D01*
X012188Y013978D01*
X012258Y014047D01*
X012258Y014578D01*
X012188Y014647D01*
X012158Y014647D01*
X012158Y015403D01*
X012212Y015426D01*
X012356Y015570D01*
X012422Y015729D01*
X012488Y015570D01*
X012632Y015426D01*
X012686Y015403D01*
X012686Y014612D01*
X012651Y014578D01*
X012651Y014047D01*
X012721Y013978D01*
X012651Y013909D01*
X012651Y013378D01*
X012721Y013309D01*
X012651Y013396D02*
X012317Y013396D01*
X012317Y013474D02*
X012651Y013474D01*
X012651Y013551D02*
X012317Y013551D01*
X012263Y013628D02*
X012651Y013628D01*
X012651Y013705D02*
X012258Y013705D01*
X012258Y013783D02*
X012651Y013783D01*
X012651Y013860D02*
X012258Y013860D01*
X012229Y013937D02*
X012680Y013937D01*
X012721Y013978D02*
X013212Y013978D01*
X012721Y013978D01*
X012684Y014015D02*
X012225Y014015D01*
X012258Y014092D02*
X012651Y014092D01*
X012651Y014169D02*
X012258Y014169D01*
X012258Y014246D02*
X012651Y014246D01*
X012651Y014324D02*
X012258Y014324D01*
X012258Y014401D02*
X012651Y014401D01*
X012651Y014478D02*
X012258Y014478D01*
X012258Y014556D02*
X012651Y014556D01*
X012686Y014633D02*
X012203Y014633D01*
X012158Y014710D02*
X012686Y014710D01*
X012686Y014787D02*
X012158Y014787D01*
X012158Y014865D02*
X012686Y014865D01*
X012686Y014942D02*
X012158Y014942D01*
X012158Y015019D02*
X012686Y015019D01*
X012686Y015097D02*
X012158Y015097D01*
X012158Y015174D02*
X012686Y015174D01*
X012686Y015251D02*
X012158Y015251D01*
X012158Y015328D02*
X012686Y015328D01*
X012680Y015406D02*
X012164Y015406D01*
X012269Y015483D02*
X012574Y015483D01*
X012497Y015560D02*
X012346Y015560D01*
X012384Y015638D02*
X012460Y015638D01*
X012428Y015715D02*
X012416Y015715D01*
X013164Y015406D02*
X013680Y015406D01*
X013686Y015328D02*
X013158Y015328D01*
X013158Y015251D02*
X013686Y015251D01*
X013686Y015174D02*
X013158Y015174D01*
X013158Y015097D02*
X013686Y015097D01*
X013686Y015019D02*
X013158Y015019D01*
X013158Y014942D02*
X013686Y014942D01*
X013686Y014865D02*
X013158Y014865D01*
X013158Y014787D02*
X013686Y014787D01*
X013686Y014710D02*
X013158Y014710D01*
X013226Y014633D02*
X013686Y014633D01*
X013675Y014556D02*
X013281Y014556D01*
X013281Y014478D02*
X013675Y014478D01*
X013675Y014401D02*
X013281Y014401D01*
X013281Y014324D02*
X013675Y014324D01*
X013675Y014246D02*
X013281Y014246D01*
X013281Y014169D02*
X013675Y014169D01*
X013675Y014092D02*
X013281Y014092D01*
X013249Y014015D02*
X013707Y014015D01*
X013744Y013978D02*
X014236Y013978D01*
X014305Y013909D01*
X014305Y013761D01*
X014422Y013643D01*
X014610Y013643D01*
X014620Y013633D01*
X014620Y013909D01*
X014689Y013978D01*
X014620Y014047D01*
X014620Y014578D01*
X014686Y014644D01*
X014686Y015403D01*
X014632Y015426D01*
X014488Y015570D01*
X014422Y015729D01*
X014356Y015570D01*
X014212Y015426D01*
X014158Y015403D01*
X014158Y014647D01*
X014236Y014647D01*
X014305Y014578D01*
X014305Y014047D01*
X014236Y013978D01*
X013744Y013978D01*
X013704Y013937D02*
X013253Y013937D01*
X013281Y013860D02*
X013675Y013860D01*
X013675Y013783D02*
X013281Y013783D01*
X013281Y013705D02*
X013675Y013705D01*
X013675Y013628D02*
X013522Y013628D01*
X013576Y013551D02*
X013675Y013551D01*
X013675Y013474D02*
X013576Y013474D01*
X013576Y013396D02*
X013675Y013396D01*
X013734Y013319D02*
X013576Y013319D01*
X013576Y013242D02*
X014088Y013242D01*
X014088Y013164D02*
X013576Y013164D01*
X013542Y013087D02*
X014123Y013087D01*
X014384Y013348D02*
X014777Y012954D01*
X016195Y012954D01*
X016352Y012797D01*
X016557Y013010D02*
X016815Y013010D01*
X016892Y013087D02*
X016479Y013087D01*
X016634Y012933D02*
X016738Y012933D01*
X016660Y012855D02*
X016647Y012855D01*
X016970Y013164D02*
X016254Y013164D01*
X016254Y013242D02*
X017047Y013242D01*
X017061Y013319D02*
X016254Y013319D01*
X016254Y013396D02*
X017061Y013396D01*
X017061Y013474D02*
X016254Y013474D01*
X016254Y013551D02*
X017061Y013551D01*
X017095Y013628D02*
X016200Y013628D01*
X015935Y013705D02*
X019570Y013705D01*
X019570Y013628D02*
X017656Y013628D01*
X017691Y013551D02*
X019570Y013551D01*
X019570Y013474D02*
X017691Y013474D01*
X017691Y013396D02*
X019570Y013396D01*
X019570Y013319D02*
X017691Y013319D01*
X017691Y013242D02*
X019570Y013242D01*
X019570Y013164D02*
X017691Y013164D01*
X017676Y013087D02*
X019570Y013087D01*
X019570Y013010D02*
X017260Y013010D01*
X017183Y012933D02*
X019570Y012933D01*
X019570Y012855D02*
X017106Y012855D01*
X017171Y012778D02*
X017249Y012778D01*
X017249Y012849D02*
X017249Y012377D01*
X017171Y012377D01*
X017171Y012298D01*
X017249Y012298D01*
X017249Y011849D01*
X017249Y011377D01*
X017171Y011377D01*
X017171Y011849D01*
X017171Y012298D01*
X016698Y012298D01*
X016698Y012236D01*
X016776Y012048D01*
X016920Y011904D01*
X017080Y011837D01*
X016920Y011771D01*
X016776Y011627D01*
X016698Y011439D01*
X016698Y011377D01*
X017171Y011377D01*
X017171Y011298D01*
X017249Y011298D01*
X017249Y010826D01*
X017249Y010377D01*
X017171Y010377D01*
X017171Y010826D01*
X017171Y011298D01*
X016698Y011298D01*
X016698Y011236D01*
X016776Y011048D01*
X016920Y010904D01*
X017080Y010837D01*
X016920Y010771D01*
X016776Y010627D01*
X016698Y010439D01*
X016698Y010377D01*
X017171Y010377D01*
X017171Y010298D01*
X017249Y010298D01*
X017249Y009849D01*
X017249Y009377D01*
X017171Y009377D01*
X017171Y009849D01*
X017171Y010298D01*
X016698Y010298D01*
X016698Y010236D01*
X016776Y010048D01*
X016920Y009904D01*
X017080Y009837D01*
X016920Y009771D01*
X016776Y009627D01*
X016698Y009439D01*
X016698Y009377D01*
X017171Y009377D01*
X017171Y009298D01*
X017249Y009298D01*
X017249Y008826D01*
X017312Y008826D01*
X017500Y008904D01*
X017644Y009048D01*
X017722Y009236D01*
X017722Y009298D01*
X017250Y009298D01*
X017250Y009377D01*
X017722Y009377D01*
X017722Y009439D01*
X017644Y009627D01*
X017500Y009771D01*
X017340Y009837D01*
X017500Y009904D01*
X017644Y010048D01*
X017722Y010236D01*
X017722Y010298D01*
X017250Y010298D01*
X017250Y010377D01*
X017722Y010377D01*
X017722Y010439D01*
X017644Y010627D01*
X017500Y010771D01*
X017340Y010837D01*
X017500Y010904D01*
X017644Y011048D01*
X017722Y011236D01*
X017722Y011298D01*
X017250Y011298D01*
X017250Y011377D01*
X017722Y011377D01*
X017722Y011439D01*
X017644Y011627D01*
X017500Y011771D01*
X017340Y011837D01*
X017500Y011904D01*
X017644Y012048D01*
X017722Y012236D01*
X017722Y012298D01*
X017250Y012298D01*
X017250Y012377D01*
X017722Y012377D01*
X017722Y012439D01*
X017644Y012627D01*
X017500Y012771D01*
X017312Y012849D01*
X017249Y012849D01*
X017249Y012701D02*
X017171Y012701D01*
X017171Y012624D02*
X017249Y012624D01*
X017249Y012546D02*
X017171Y012546D01*
X017171Y012469D02*
X017249Y012469D01*
X017249Y012392D02*
X017171Y012392D01*
X017171Y012314D02*
X016565Y012314D01*
X016487Y012237D02*
X016698Y012237D01*
X016730Y012160D02*
X015899Y012160D01*
X015880Y012083D02*
X016762Y012083D01*
X016819Y012005D02*
X015880Y012005D01*
X015880Y011928D02*
X016896Y011928D01*
X016925Y011773D02*
X015880Y011773D01*
X015880Y011696D02*
X016845Y011696D01*
X016773Y011619D02*
X015880Y011619D01*
X015815Y011542D02*
X016741Y011542D01*
X016709Y011464D02*
X015880Y011464D01*
X015880Y011387D02*
X016698Y011387D01*
X016700Y011232D02*
X015880Y011232D01*
X015880Y011155D02*
X016732Y011155D01*
X016764Y011078D02*
X015880Y011078D01*
X015880Y011001D02*
X016823Y011001D01*
X016900Y010923D02*
X015866Y010923D01*
X015565Y011202D02*
X015545Y011222D01*
X015329Y011222D01*
X015329Y011143D01*
X014147Y009962D01*
X013911Y009962D01*
X013990Y010198D01*
X013970Y010198D01*
X013951Y010179D01*
X013557Y010150D02*
X013340Y010150D01*
X013340Y010129D02*
X013340Y010188D01*
X013271Y010257D01*
X012819Y010257D01*
X012778Y010216D01*
X012736Y010257D01*
X012966Y010257D01*
X012966Y010533D01*
X012677Y010533D01*
X012638Y010572D01*
X012342Y010868D01*
X012662Y010868D01*
X012612Y010818D01*
X012612Y010612D01*
X012966Y010612D01*
X012966Y010533D01*
X013045Y010533D01*
X013045Y010257D01*
X013330Y010257D01*
X013399Y010327D01*
X013399Y010533D01*
X013045Y010533D01*
X013045Y010612D01*
X013399Y010612D01*
X013399Y010818D01*
X013330Y010887D01*
X013310Y010887D01*
X013360Y010937D01*
X013360Y011468D01*
X013291Y011537D01*
X013360Y011606D01*
X013360Y011832D01*
X013085Y011832D01*
X013085Y011911D01*
X013360Y011911D01*
X013360Y012098D01*
X013380Y012118D01*
X013380Y012531D01*
X013310Y012600D01*
X013281Y012600D01*
X013281Y012639D01*
X014226Y012639D01*
X014226Y012600D01*
X014158Y012600D01*
X014088Y012531D01*
X014088Y012206D01*
X014078Y012206D01*
X014049Y012206D01*
X014049Y012531D01*
X013980Y012600D01*
X013567Y012600D01*
X013498Y012531D01*
X013498Y012118D01*
X013517Y012098D01*
X013517Y011606D01*
X013587Y011537D01*
X014078Y011537D01*
X014266Y011537D01*
X014266Y011832D01*
X014344Y011832D01*
X014344Y011537D01*
X014551Y011537D01*
X014620Y011606D01*
X014620Y011832D01*
X014344Y011832D01*
X014344Y011911D01*
X014620Y011911D01*
X014620Y012098D01*
X014639Y012118D01*
X014639Y012531D01*
X014570Y012600D01*
X014541Y012600D01*
X014541Y012639D01*
X015086Y012639D01*
X015126Y012600D01*
X014827Y012600D01*
X014758Y012531D01*
X014758Y012118D01*
X014777Y012098D01*
X014777Y011606D01*
X014846Y011537D01*
X014777Y011468D01*
X014777Y010937D01*
X014838Y010876D01*
X014344Y010382D01*
X014345Y010382D01*
X014344Y010382D02*
X014344Y010424D01*
X014275Y010494D01*
X014151Y010494D01*
X014206Y010549D01*
X014206Y010661D01*
X013921Y010661D01*
X013921Y010681D01*
X014206Y010681D01*
X014206Y010793D01*
X014132Y010868D01*
X014551Y010868D01*
X014620Y010937D01*
X014620Y011468D01*
X014551Y011537D01*
X014078Y011537D01*
X013587Y011537D01*
X013517Y011468D01*
X013517Y010937D01*
X013587Y010868D01*
X013691Y010868D01*
X013616Y010793D01*
X013616Y010681D01*
X013901Y010681D01*
X013901Y010661D01*
X013616Y010661D01*
X013616Y010549D01*
X013671Y010494D01*
X013626Y010494D01*
X013557Y010424D01*
X013557Y009933D01*
X013616Y009874D01*
X013616Y009736D01*
X013616Y009736D01*
X013557Y009676D01*
X013557Y009568D01*
X013389Y009568D01*
X013399Y009579D01*
X013399Y010070D01*
X013340Y010129D01*
X013396Y010073D02*
X013557Y010073D01*
X013557Y009996D02*
X013399Y009996D01*
X013399Y009919D02*
X013571Y009919D01*
X013616Y009841D02*
X013399Y009841D01*
X013399Y009764D02*
X013616Y009764D01*
X013567Y009687D02*
X013399Y009687D01*
X013399Y009609D02*
X013557Y009609D01*
X013951Y009431D02*
X013990Y009391D01*
X013911Y009332D01*
X013567Y009096D02*
X013557Y009086D01*
X013557Y008594D01*
X013616Y008535D01*
X013616Y008476D01*
X013685Y008407D01*
X014137Y008407D01*
X014206Y008476D01*
X014206Y008525D01*
X014275Y008525D01*
X014344Y008594D01*
X014344Y009086D01*
X014295Y009135D01*
X014344Y009185D01*
X014344Y009676D01*
X014275Y009746D01*
X014206Y009746D01*
X014206Y009805D01*
X014213Y009805D01*
X014272Y009864D01*
X014275Y009864D01*
X014344Y009933D01*
X014344Y009936D01*
X014423Y010015D01*
X014423Y009559D01*
X014492Y009490D01*
X015141Y009490D01*
X015186Y009535D01*
X015880Y008840D01*
X015836Y008840D01*
X015663Y008667D01*
X015663Y008555D01*
X015948Y008555D01*
X015948Y008535D01*
X015663Y008535D01*
X015663Y008423D01*
X015836Y008250D01*
X015949Y008250D01*
X015949Y008535D01*
X015968Y008535D01*
X015968Y008250D01*
X016081Y008250D01*
X016116Y008285D01*
X016116Y007855D01*
X015861Y007600D01*
X015719Y007600D01*
X015592Y007727D01*
X015404Y007805D01*
X015200Y007805D01*
X015092Y007760D01*
X015092Y008151D01*
X015141Y008151D01*
X015210Y008220D01*
X015210Y008712D01*
X015151Y008771D01*
X015151Y008928D01*
X015082Y008998D01*
X014630Y008998D01*
X014561Y008928D01*
X014561Y008781D01*
X014492Y008781D01*
X014423Y008712D01*
X014423Y008220D01*
X014492Y008151D01*
X014620Y008151D01*
X014620Y007945D01*
X014458Y007783D01*
X014404Y007805D01*
X014303Y007805D01*
X014344Y007846D01*
X014344Y008053D01*
X014191Y008053D01*
X014112Y008131D01*
X014344Y008131D01*
X014344Y008338D01*
X014275Y008407D01*
X013990Y008407D01*
X013990Y008210D01*
X013921Y008210D01*
X013921Y008132D01*
X013911Y008132D01*
X013911Y008407D01*
X013626Y008407D01*
X013557Y008338D01*
X013557Y008131D01*
X013710Y008131D01*
X013631Y008053D01*
X013557Y008053D01*
X013557Y007846D01*
X013626Y007777D01*
X013631Y007777D01*
X013789Y007620D01*
X013901Y007620D01*
X013901Y007777D01*
X013911Y007777D01*
X013911Y007905D01*
X013921Y007905D01*
X013921Y007636D01*
X013868Y007583D01*
X013802Y007423D01*
X013736Y007583D01*
X013592Y007727D01*
X013404Y007805D01*
X013200Y007805D01*
X013147Y007783D01*
X012759Y008171D01*
X013330Y008171D01*
X013399Y008240D01*
X013399Y008732D01*
X013340Y008791D01*
X013340Y008928D01*
X013340Y008929D01*
X013399Y008988D01*
X013399Y009096D01*
X013567Y009096D01*
X013557Y009068D02*
X013399Y009068D01*
X013399Y008991D02*
X013557Y008991D01*
X013557Y008914D02*
X013340Y008914D01*
X013340Y008837D02*
X013557Y008837D01*
X013557Y008759D02*
X013372Y008759D01*
X013399Y008682D02*
X013557Y008682D01*
X013557Y008605D02*
X013399Y008605D01*
X013399Y008527D02*
X013616Y008527D01*
X013642Y008450D02*
X013399Y008450D01*
X013399Y008373D02*
X013592Y008373D01*
X013557Y008296D02*
X013399Y008296D01*
X013378Y008218D02*
X013557Y008218D01*
X013557Y008141D02*
X012788Y008141D01*
X012866Y008064D02*
X013642Y008064D01*
X013557Y007986D02*
X012943Y007986D01*
X013020Y007909D02*
X013557Y007909D01*
X013571Y007832D02*
X013097Y007832D01*
X013526Y007755D02*
X013654Y007755D01*
X013642Y007677D02*
X013731Y007677D01*
X013719Y007600D02*
X013885Y007600D01*
X013901Y007677D02*
X013921Y007677D01*
X013921Y007755D02*
X013901Y007755D01*
X013911Y007832D02*
X013921Y007832D01*
X013911Y008141D02*
X013921Y008141D01*
X013911Y008218D02*
X013990Y008218D01*
X013990Y008296D02*
X013911Y008296D01*
X013911Y008373D02*
X013990Y008373D01*
X014180Y008450D02*
X014423Y008450D01*
X014423Y008373D02*
X014309Y008373D01*
X014344Y008296D02*
X014423Y008296D01*
X014425Y008218D02*
X014344Y008218D01*
X014344Y008141D02*
X014620Y008141D01*
X014620Y008064D02*
X014180Y008064D01*
X014344Y007986D02*
X014620Y007986D01*
X014584Y007909D02*
X014344Y007909D01*
X014330Y007832D02*
X014507Y007832D01*
X015092Y007832D02*
X016093Y007832D01*
X016116Y007909D02*
X015092Y007909D01*
X015092Y007986D02*
X016116Y007986D01*
X016116Y008064D02*
X015092Y008064D01*
X015092Y008141D02*
X016116Y008141D01*
X016116Y008218D02*
X015208Y008218D01*
X015210Y008296D02*
X015790Y008296D01*
X015713Y008373D02*
X015210Y008373D01*
X015210Y008450D02*
X015663Y008450D01*
X015663Y008527D02*
X015210Y008527D01*
X015210Y008605D02*
X015663Y008605D01*
X015678Y008682D02*
X015210Y008682D01*
X015163Y008759D02*
X015755Y008759D01*
X015833Y008837D02*
X015151Y008837D01*
X015151Y008914D02*
X015807Y008914D01*
X015729Y008991D02*
X015089Y008991D01*
X015420Y009300D02*
X014344Y009300D01*
X014344Y009223D02*
X015497Y009223D01*
X015575Y009146D02*
X014305Y009146D01*
X014344Y009068D02*
X015652Y009068D01*
X015343Y009378D02*
X014344Y009378D01*
X014344Y009455D02*
X015266Y009455D01*
X015188Y009532D02*
X015184Y009532D01*
X015624Y009764D02*
X016913Y009764D01*
X016836Y009687D02*
X015702Y009687D01*
X015779Y009609D02*
X016769Y009609D01*
X016737Y009532D02*
X015856Y009532D01*
X015934Y009455D02*
X016705Y009455D01*
X016698Y009378D02*
X016011Y009378D01*
X016088Y009300D02*
X017171Y009300D01*
X017171Y009298D02*
X016698Y009298D01*
X016698Y009236D01*
X016776Y009048D01*
X016920Y008904D01*
X017108Y008826D01*
X017171Y008826D01*
X017171Y009298D01*
X017171Y009223D02*
X017249Y009223D01*
X017249Y009146D02*
X017171Y009146D01*
X017171Y009068D02*
X017249Y009068D01*
X017249Y008991D02*
X017171Y008991D01*
X017171Y008914D02*
X017249Y008914D01*
X017249Y008837D02*
X017171Y008837D01*
X017082Y008837D02*
X016552Y008837D01*
X016588Y008759D02*
X019570Y008759D01*
X019570Y008682D02*
X016588Y008682D01*
X016588Y008605D02*
X019570Y008605D01*
X019570Y008527D02*
X016588Y008527D01*
X016588Y008450D02*
X019570Y008450D01*
X019570Y008373D02*
X016588Y008373D01*
X016588Y008296D02*
X019570Y008296D01*
X019570Y008218D02*
X016588Y008218D01*
X016588Y008141D02*
X019570Y008141D01*
X019570Y008064D02*
X016588Y008064D01*
X016588Y007986D02*
X019570Y007986D01*
X019570Y007909D02*
X016588Y007909D01*
X016588Y007832D02*
X019570Y007832D01*
X019570Y007755D02*
X016588Y007755D01*
X016588Y007677D02*
X019570Y007677D01*
X019570Y007600D02*
X016529Y007600D01*
X016451Y007523D02*
X019570Y007523D01*
X019570Y007446D02*
X016374Y007446D01*
X016297Y007368D02*
X019570Y007368D01*
X019570Y007291D02*
X016220Y007291D01*
X016142Y007214D02*
X019570Y007214D01*
X019570Y007136D02*
X016065Y007136D01*
X015759Y007059D02*
X019570Y007059D01*
X019570Y006982D02*
X015715Y006982D01*
X015637Y006905D02*
X019570Y006905D01*
X019570Y006827D02*
X015538Y006827D01*
X015538Y006750D02*
X019570Y006750D01*
X019570Y006673D02*
X015538Y006673D01*
X015538Y006595D02*
X019570Y006595D01*
X019570Y006518D02*
X015538Y006518D01*
X015538Y006441D02*
X019570Y006441D01*
X019570Y006364D02*
X015538Y006364D01*
X015538Y006286D02*
X019570Y006286D01*
X019570Y006209D02*
X017084Y006209D01*
X017270Y006132D02*
X019570Y006132D01*
X019570Y006054D02*
X017381Y006054D01*
X017458Y005977D02*
X019570Y005977D01*
X019570Y005900D02*
X017535Y005900D01*
X017569Y005823D02*
X019570Y005823D01*
X019570Y005745D02*
X017601Y005745D01*
X017633Y005668D02*
X019570Y005668D01*
X019570Y005591D02*
X017651Y005591D01*
X017651Y005513D02*
X019570Y005513D01*
X019570Y005436D02*
X017651Y005436D01*
X017651Y005359D02*
X019570Y005359D01*
X019570Y005282D02*
X017633Y005282D01*
X017601Y005204D02*
X019570Y005204D01*
X019570Y004972D02*
X017460Y004972D01*
X017382Y004895D02*
X019570Y004895D01*
X019570Y004818D02*
X017274Y004818D01*
X016533Y004818D02*
X015482Y004818D01*
X015624Y004895D02*
X016424Y004895D01*
X016347Y004972D02*
X015701Y004972D01*
X015754Y005050D02*
X016270Y005050D01*
X016237Y005127D02*
X015786Y005127D01*
X015814Y005204D02*
X016205Y005204D01*
X016173Y005282D02*
X015814Y005282D01*
X015814Y005359D02*
X016155Y005359D01*
X016155Y005436D02*
X015799Y005436D01*
X015767Y005513D02*
X016155Y005513D01*
X016155Y005591D02*
X015732Y005591D01*
X015655Y005668D02*
X016174Y005668D01*
X016206Y005745D02*
X015558Y005745D01*
X015538Y005823D02*
X016238Y005823D01*
X016271Y005900D02*
X015538Y005900D01*
X015538Y005977D02*
X016349Y005977D01*
X016426Y006054D02*
X015538Y006054D01*
X015538Y006132D02*
X016536Y006132D01*
X016723Y006209D02*
X015538Y006209D01*
X014819Y005127D02*
X014786Y005127D01*
X014754Y005050D02*
X014851Y005050D01*
X014903Y004972D02*
X014701Y004972D01*
X014624Y004895D02*
X014980Y004895D01*
X015122Y004818D02*
X014482Y004818D01*
X014122Y004818D02*
X013482Y004818D01*
X013624Y004895D02*
X013980Y004895D01*
X013903Y004972D02*
X013701Y004972D01*
X013754Y005050D02*
X013851Y005050D01*
X013819Y005127D02*
X013786Y005127D01*
X013122Y004818D02*
X012482Y004818D01*
X012624Y004895D02*
X012980Y004895D01*
X012903Y004972D02*
X012701Y004972D01*
X012754Y005050D02*
X012851Y005050D01*
X012819Y005127D02*
X012786Y005127D01*
X012122Y004818D02*
X005724Y004818D01*
X005724Y004895D02*
X011980Y004895D01*
X010722Y004277D02*
X015691Y004277D01*
X015691Y004354D02*
X010690Y004354D01*
X010631Y004431D02*
X015691Y004431D01*
X015691Y004509D02*
X010554Y004509D01*
X010477Y004586D02*
X015691Y004586D01*
X015691Y004663D02*
X010309Y004663D01*
X009759Y004663D02*
X007309Y004663D01*
X007477Y004586D02*
X009591Y004586D01*
X009514Y004509D02*
X007554Y004509D01*
X007631Y004431D02*
X009436Y004431D01*
X009378Y004354D02*
X007690Y004354D01*
X007722Y004277D02*
X009346Y004277D01*
X009314Y004200D02*
X007754Y004200D01*
X007786Y004122D02*
X009282Y004122D01*
X009276Y004045D02*
X007792Y004045D01*
X007792Y003968D02*
X009276Y003968D01*
X009276Y003890D02*
X007792Y003890D01*
X007792Y003813D02*
X009276Y003813D01*
X009305Y003736D02*
X007763Y003736D01*
X007731Y003659D02*
X009337Y003659D01*
X009369Y003581D02*
X007699Y003581D01*
X007653Y003504D02*
X009415Y003504D01*
X009492Y003427D02*
X007576Y003427D01*
X007499Y003349D02*
X009569Y003349D01*
X009706Y003272D02*
X007362Y003272D01*
X006706Y003272D02*
X002032Y003272D01*
X002032Y003349D02*
X006569Y003349D01*
X006492Y003427D02*
X002032Y003427D01*
X002032Y003504D02*
X006415Y003504D01*
X006369Y003581D02*
X002032Y003581D01*
X002032Y003627D02*
X005655Y003627D01*
X005724Y003696D01*
X005724Y004960D01*
X005724Y004741D02*
X015699Y004741D01*
X015691Y004200D02*
X010754Y004200D01*
X010786Y004122D02*
X015691Y004122D01*
X015691Y004045D02*
X010792Y004045D01*
X010792Y003968D02*
X015691Y003968D01*
X015691Y003890D02*
X010792Y003890D01*
X010792Y003813D02*
X015691Y003813D01*
X015691Y003736D02*
X010763Y003736D01*
X010731Y003659D02*
X015691Y003659D01*
X015691Y003581D02*
X010699Y003581D01*
X010653Y003504D02*
X015691Y003504D01*
X015733Y003427D02*
X010576Y003427D01*
X010499Y003349D02*
X019570Y003349D01*
X019570Y003272D02*
X010362Y003272D01*
X006759Y004663D02*
X005724Y004663D01*
X005724Y004586D02*
X006591Y004586D01*
X006514Y004509D02*
X005724Y004509D01*
X005724Y004431D02*
X006436Y004431D01*
X006378Y004354D02*
X005724Y004354D01*
X005724Y004277D02*
X006346Y004277D01*
X006314Y004200D02*
X005724Y004200D01*
X005724Y004122D02*
X006282Y004122D01*
X006276Y004045D02*
X005724Y004045D01*
X005724Y003968D02*
X006276Y003968D01*
X006276Y003890D02*
X005724Y003890D01*
X005724Y003813D02*
X006276Y003813D01*
X006305Y003736D02*
X005724Y003736D01*
X005687Y003659D02*
X006337Y003659D01*
X004427Y005823D02*
X004420Y005823D01*
X004420Y005900D02*
X004460Y005900D01*
X004420Y005977D02*
X004538Y005977D01*
X004615Y006054D02*
X004358Y006054D01*
X004725Y006132D02*
X002032Y006132D01*
X002032Y006209D02*
X004912Y006209D01*
X005273Y006209D02*
X007494Y006209D01*
X007461Y006241D02*
X007568Y006134D01*
X007708Y006076D01*
X007860Y006076D01*
X008000Y006134D01*
X008107Y006241D01*
X008165Y006381D01*
X008165Y006533D01*
X008107Y006672D01*
X008000Y006779D01*
X007860Y006837D01*
X007708Y006837D01*
X007568Y006779D01*
X007461Y006672D01*
X007403Y006533D01*
X007403Y006381D01*
X007461Y006241D01*
X007443Y006286D02*
X002032Y006286D01*
X002032Y006364D02*
X007411Y006364D01*
X007403Y006441D02*
X002032Y006441D01*
X002032Y006518D02*
X007403Y006518D01*
X007429Y006595D02*
X002032Y006595D01*
X002032Y006673D02*
X007462Y006673D01*
X007539Y006750D02*
X002032Y006750D01*
X002032Y006827D02*
X007684Y006827D01*
X007884Y006827D02*
X008684Y006827D01*
X008708Y006837D02*
X008568Y006779D01*
X008461Y006672D01*
X008403Y006533D01*
X008403Y006381D01*
X008461Y006241D01*
X008568Y006134D01*
X008708Y006076D01*
X008860Y006076D01*
X009000Y006134D01*
X009107Y006241D01*
X009165Y006381D01*
X009165Y006533D01*
X009107Y006672D01*
X009000Y006779D01*
X008860Y006837D01*
X008708Y006837D01*
X008884Y006827D02*
X009915Y006827D01*
X009915Y006905D02*
X002032Y006905D01*
X002032Y006982D02*
X009915Y006982D01*
X009915Y007059D02*
X002032Y007059D01*
X002032Y007136D02*
X008066Y007136D01*
X007989Y007214D02*
X002032Y007214D01*
X002032Y007291D02*
X007941Y007291D01*
X007909Y007368D02*
X002032Y007368D01*
X002032Y007446D02*
X008244Y007446D01*
X008245Y007523D02*
X008323Y007523D01*
X008323Y007600D02*
X008245Y007600D01*
X008245Y007677D02*
X008323Y007677D01*
X008323Y007755D02*
X008245Y007755D01*
X008044Y007755D02*
X005001Y007755D01*
X004950Y007677D02*
X007966Y007677D01*
X007931Y007600D02*
X004873Y007600D01*
X004734Y007523D02*
X007903Y007523D01*
X008245Y007368D02*
X008323Y007368D01*
X008323Y007291D02*
X008245Y007291D01*
X008245Y007214D02*
X008323Y007214D01*
X008323Y007136D02*
X008245Y007136D01*
X008502Y007136D02*
X009066Y007136D01*
X008989Y007214D02*
X008579Y007214D01*
X008627Y007291D02*
X008941Y007291D01*
X008909Y007368D02*
X008659Y007368D01*
X008665Y007523D02*
X008903Y007523D01*
X008903Y007446D02*
X008324Y007446D01*
X008637Y007600D02*
X008931Y007600D01*
X008966Y007677D02*
X008602Y007677D01*
X008524Y007755D02*
X009044Y007755D01*
X009627Y007291D02*
X009931Y007291D01*
X009915Y007214D02*
X009579Y007214D01*
X009502Y007136D02*
X009915Y007136D01*
X010210Y007049D02*
X010289Y007049D01*
X011155Y006750D02*
X009029Y006750D01*
X009106Y006673D02*
X011155Y006673D01*
X011155Y006595D02*
X009139Y006595D01*
X009165Y006518D02*
X011152Y006518D01*
X011075Y006441D02*
X009165Y006441D01*
X009157Y006364D02*
X011017Y006364D01*
X011017Y006286D02*
X009125Y006286D01*
X009074Y006209D02*
X011017Y006209D01*
X011025Y006132D02*
X008994Y006132D01*
X008574Y006132D02*
X007994Y006132D01*
X008074Y006209D02*
X008494Y006209D01*
X008443Y006286D02*
X008125Y006286D01*
X008157Y006364D02*
X008411Y006364D01*
X008403Y006441D02*
X008165Y006441D01*
X008165Y006518D02*
X008403Y006518D01*
X008429Y006595D02*
X008139Y006595D01*
X008106Y006673D02*
X008462Y006673D01*
X008539Y006750D02*
X008029Y006750D01*
X007574Y006132D02*
X005459Y006132D01*
X005570Y006054D02*
X011102Y006054D01*
X011179Y005977D02*
X005647Y005977D01*
X004365Y007523D02*
X002738Y007523D01*
X002877Y007600D02*
X004226Y007600D01*
X004148Y007677D02*
X002954Y007677D01*
X003005Y007755D02*
X004097Y007755D01*
X004065Y007832D02*
X003037Y007832D01*
X003065Y007909D02*
X004037Y007909D01*
X004037Y007986D02*
X003065Y007986D01*
X003065Y008064D02*
X004037Y008064D01*
X004054Y008141D02*
X003049Y008141D01*
X003017Y008218D02*
X004086Y008218D01*
X004121Y008296D02*
X002982Y008296D01*
X002904Y008373D02*
X004198Y008373D01*
X004298Y008450D02*
X002804Y008450D01*
X002791Y008527D02*
X004311Y008527D01*
X004221Y008605D02*
X002881Y008605D01*
X002959Y008682D02*
X004144Y008682D01*
X004095Y008759D02*
X003007Y008759D01*
X002315Y008527D02*
X002032Y008527D01*
X002032Y008450D02*
X002302Y008450D01*
X002202Y008373D02*
X002032Y008373D01*
X002032Y008296D02*
X002125Y008296D01*
X002090Y008218D02*
X002032Y008218D01*
X002032Y008141D02*
X002058Y008141D01*
X002041Y008064D02*
X002032Y008064D01*
X002032Y007986D02*
X002041Y007986D01*
X002032Y007909D02*
X002041Y007909D01*
X002032Y007832D02*
X002069Y007832D01*
X002101Y007755D02*
X002032Y007755D01*
X002032Y007677D02*
X002152Y007677D01*
X002230Y007600D02*
X002032Y007600D01*
X002032Y007523D02*
X002369Y007523D01*
X002225Y008605D02*
X002032Y008605D01*
X002032Y008682D02*
X002148Y008682D01*
X002099Y008759D02*
X002032Y008759D01*
X002032Y008837D02*
X002067Y008837D01*
X002041Y008914D02*
X002032Y008914D01*
X002032Y008991D02*
X002041Y008991D01*
X002032Y009068D02*
X002041Y009068D01*
X002032Y009146D02*
X002060Y009146D01*
X002032Y009223D02*
X002092Y009223D01*
X002129Y009300D02*
X002032Y009300D01*
X002032Y009378D02*
X002207Y009378D01*
X002313Y009455D02*
X002032Y009455D01*
X002032Y009532D02*
X002315Y009532D01*
X002220Y009609D02*
X002032Y009609D01*
X002032Y009687D02*
X002143Y009687D01*
X002097Y009764D02*
X002032Y009764D01*
X002032Y009841D02*
X002065Y009841D01*
X002041Y009919D02*
X002032Y009919D01*
X002032Y009996D02*
X002041Y009996D01*
X002032Y010073D02*
X002041Y010073D01*
X002032Y010150D02*
X002061Y010150D01*
X002032Y010228D02*
X002093Y010228D01*
X002134Y010305D02*
X002032Y010305D01*
X002032Y010382D02*
X002211Y010382D01*
X002315Y010460D02*
X002032Y010460D01*
X002032Y010537D02*
X002315Y010537D01*
X002216Y010614D02*
X002032Y010614D01*
X002032Y010691D02*
X002138Y010691D01*
X002095Y010769D02*
X002032Y010769D01*
X002032Y010846D02*
X002063Y010846D01*
X002041Y010923D02*
X002032Y010923D01*
X002032Y011001D02*
X002041Y011001D01*
X002032Y011078D02*
X002041Y011078D01*
X002032Y011155D02*
X002063Y011155D01*
X002032Y011232D02*
X002095Y011232D01*
X002139Y011310D02*
X002032Y011310D01*
X002032Y011387D02*
X002216Y011387D01*
X002336Y011464D02*
X002032Y011464D01*
X002032Y011542D02*
X006764Y011542D01*
X006841Y011619D02*
X002032Y011619D01*
X002032Y011696D02*
X006918Y011696D01*
X006996Y011773D02*
X005433Y011773D01*
X005422Y011763D02*
X005523Y011863D01*
X005577Y011995D01*
X005577Y012137D01*
X005523Y012269D01*
X005422Y012370D01*
X005290Y012424D01*
X005148Y012424D01*
X005016Y012370D01*
X004916Y012269D01*
X004861Y012137D01*
X004861Y011995D01*
X004916Y011863D01*
X005016Y011763D01*
X005148Y011708D01*
X005290Y011708D01*
X005422Y011763D01*
X005510Y011851D02*
X007073Y011851D01*
X007150Y011928D02*
X005549Y011928D01*
X005577Y012005D02*
X007228Y012005D01*
X007305Y012083D02*
X005577Y012083D01*
X005568Y012160D02*
X007336Y012160D01*
X007336Y012237D02*
X005536Y012237D01*
X005477Y012314D02*
X007336Y012314D01*
X007336Y012392D02*
X005369Y012392D01*
X005069Y012392D02*
X003949Y012392D01*
X003917Y012378D02*
X004076Y012444D01*
X004198Y012566D01*
X004264Y012725D01*
X004264Y012898D01*
X004198Y013057D01*
X004076Y013179D01*
X003990Y013214D01*
X003990Y013334D01*
X003898Y013427D01*
X003110Y014214D01*
X003133Y014214D01*
X003202Y014283D01*
X003202Y014775D01*
X003133Y014844D01*
X002891Y014844D01*
X003082Y015035D01*
X003082Y015981D01*
X002837Y016226D01*
X002491Y016226D01*
X002246Y015981D01*
X002246Y015035D01*
X002491Y014790D01*
X002506Y014790D01*
X002506Y014688D01*
X002533Y014661D01*
X002533Y014283D01*
X002602Y014214D01*
X002730Y014214D01*
X002730Y014149D01*
X003667Y013212D01*
X003586Y013179D01*
X003464Y013057D01*
X003398Y012898D01*
X003398Y012725D01*
X003464Y012566D01*
X003586Y012444D01*
X003745Y012378D01*
X003917Y012378D01*
X003713Y012392D02*
X003024Y012392D01*
X003010Y012378D02*
X003264Y012632D01*
X003264Y012772D01*
X002871Y012772D01*
X002871Y012851D01*
X003264Y012851D01*
X003264Y012991D01*
X003010Y013244D01*
X002870Y013244D01*
X002870Y012851D01*
X002792Y012851D01*
X002792Y013244D01*
X002652Y013244D01*
X002398Y012991D01*
X002398Y012851D01*
X002791Y012851D01*
X002791Y012772D01*
X002398Y012772D01*
X002398Y012632D01*
X002652Y012378D01*
X002792Y012378D01*
X002792Y012772D01*
X002870Y012772D01*
X002870Y012378D01*
X003010Y012378D01*
X003101Y012469D02*
X003561Y012469D01*
X003484Y012546D02*
X003178Y012546D01*
X003256Y012624D02*
X003440Y012624D01*
X003408Y012701D02*
X003264Y012701D01*
X003264Y012855D02*
X003398Y012855D01*
X003398Y012778D02*
X002871Y012778D01*
X002870Y012701D02*
X002792Y012701D01*
X002791Y012778D02*
X002032Y012778D01*
X002032Y012701D02*
X002398Y012701D01*
X002406Y012624D02*
X002032Y012624D01*
X002032Y012546D02*
X002484Y012546D01*
X002561Y012469D02*
X002032Y012469D01*
X002032Y012392D02*
X002638Y012392D01*
X002792Y012392D02*
X002870Y012392D01*
X002870Y012469D02*
X002792Y012469D01*
X002792Y012546D02*
X002870Y012546D01*
X002870Y012624D02*
X002792Y012624D01*
X002792Y012855D02*
X002870Y012855D01*
X002870Y012933D02*
X002792Y012933D01*
X002792Y013010D02*
X002870Y013010D01*
X002870Y013087D02*
X002792Y013087D01*
X002792Y013164D02*
X002870Y013164D01*
X002870Y013242D02*
X002792Y013242D01*
X002649Y013242D02*
X002032Y013242D01*
X002032Y013319D02*
X003560Y013319D01*
X003637Y013242D02*
X003013Y013242D01*
X003090Y013164D02*
X003572Y013164D01*
X003494Y013087D02*
X003168Y013087D01*
X003245Y013010D02*
X003444Y013010D01*
X003412Y012933D02*
X003264Y012933D01*
X003483Y013396D02*
X002032Y013396D01*
X002032Y013474D02*
X003405Y013474D01*
X003328Y013551D02*
X002032Y013551D01*
X002032Y013628D02*
X003251Y013628D01*
X003174Y013705D02*
X002032Y013705D01*
X002032Y013783D02*
X003096Y013783D01*
X003019Y013860D02*
X002032Y013860D01*
X002032Y013937D02*
X002942Y013937D01*
X002864Y014015D02*
X002032Y014015D01*
X002032Y014092D02*
X002787Y014092D01*
X002730Y014169D02*
X002032Y014169D01*
X002032Y014246D02*
X002570Y014246D01*
X002533Y014324D02*
X002032Y014324D01*
X002032Y014401D02*
X002533Y014401D01*
X002533Y014478D02*
X002032Y014478D01*
X002032Y014556D02*
X002533Y014556D01*
X002533Y014633D02*
X002032Y014633D01*
X002032Y014710D02*
X002506Y014710D01*
X002506Y014787D02*
X002032Y014787D01*
X002032Y014865D02*
X002416Y014865D01*
X002339Y014942D02*
X002032Y014942D01*
X002032Y015019D02*
X002261Y015019D01*
X002246Y015097D02*
X002032Y015097D01*
X002032Y015174D02*
X002246Y015174D01*
X002246Y015251D02*
X002032Y015251D01*
X002032Y015328D02*
X002246Y015328D01*
X002246Y015406D02*
X002032Y015406D01*
X002032Y015483D02*
X002246Y015483D01*
X002246Y015560D02*
X002032Y015560D01*
X002032Y015638D02*
X002246Y015638D01*
X002246Y015715D02*
X002032Y015715D01*
X002032Y015792D02*
X002246Y015792D01*
X002246Y015869D02*
X002032Y015869D01*
X002032Y015947D02*
X002246Y015947D01*
X002289Y016024D02*
X002032Y016024D01*
X002032Y016101D02*
X002366Y016101D01*
X002443Y016179D02*
X002032Y016179D01*
X002032Y016256D02*
X007594Y016256D01*
X007517Y016179D02*
X005885Y016179D01*
X005837Y016226D02*
X005703Y016226D01*
X005703Y015548D01*
X005625Y015548D01*
X005625Y016226D01*
X005491Y016226D01*
X005246Y015981D01*
X005246Y015547D01*
X005624Y015547D01*
X005624Y015469D01*
X005246Y015469D01*
X005246Y015035D01*
X005491Y014790D01*
X005625Y014790D01*
X005625Y015469D01*
X005703Y015469D01*
X005703Y015547D01*
X006082Y015547D01*
X006082Y015981D01*
X005837Y016226D01*
X005703Y016179D02*
X005625Y016179D01*
X005625Y016101D02*
X005703Y016101D01*
X005703Y016024D02*
X005625Y016024D01*
X005625Y015947D02*
X005703Y015947D01*
X005703Y015869D02*
X005625Y015869D01*
X005625Y015792D02*
X005703Y015792D01*
X005703Y015715D02*
X005625Y015715D01*
X005625Y015638D02*
X005703Y015638D01*
X005703Y015560D02*
X005625Y015560D01*
X005624Y015483D02*
X005082Y015483D01*
X005082Y015406D02*
X005246Y015406D01*
X005246Y015328D02*
X005082Y015328D01*
X005082Y015251D02*
X005246Y015251D01*
X005246Y015174D02*
X005082Y015174D01*
X005082Y015097D02*
X005246Y015097D01*
X005261Y015019D02*
X005066Y015019D01*
X005082Y015035D02*
X005082Y015981D01*
X004837Y016226D01*
X004491Y016226D01*
X004246Y015981D01*
X004246Y015035D01*
X004491Y014790D01*
X004687Y014790D01*
X005171Y014306D01*
X005171Y013964D01*
X005092Y013886D01*
X005092Y014030D01*
X004908Y014214D01*
X004647Y014214D01*
X004489Y014057D01*
X004213Y014057D01*
X003872Y014397D01*
X003872Y014775D01*
X003847Y014800D01*
X004082Y015035D01*
X004082Y015981D01*
X003837Y016226D01*
X003491Y016226D01*
X003246Y015981D01*
X003246Y015035D01*
X003437Y014844D01*
X003272Y014844D01*
X003203Y014775D01*
X003203Y014283D01*
X003272Y014214D01*
X003610Y014214D01*
X004082Y013742D01*
X004213Y013742D01*
X004489Y013742D01*
X004647Y013584D01*
X004791Y013584D01*
X004568Y013584D01*
X004384Y013400D01*
X004384Y013139D01*
X004568Y012954D01*
X004829Y012954D01*
X004864Y012989D01*
X004916Y012863D01*
X005016Y012763D01*
X005148Y012708D01*
X005290Y012708D01*
X005422Y012763D01*
X005523Y012863D01*
X005577Y012995D01*
X005577Y013137D01*
X005523Y013269D01*
X005422Y013370D01*
X005290Y013424D01*
X005148Y013424D01*
X005025Y013374D01*
X005394Y013742D01*
X005486Y013834D01*
X005486Y014306D01*
X005486Y014437D01*
X004985Y014938D01*
X005082Y015035D01*
X004989Y014942D02*
X005339Y014942D01*
X005416Y014865D02*
X005058Y014865D01*
X005135Y014787D02*
X006779Y014787D01*
X006781Y014785D02*
X006893Y014785D01*
X006893Y015070D01*
X006913Y015070D01*
X006913Y014785D01*
X007026Y014785D01*
X007199Y014958D01*
X007199Y015070D01*
X006913Y015070D01*
X006913Y015090D01*
X007199Y015090D01*
X007199Y015203D01*
X007026Y015376D01*
X006913Y015376D01*
X006913Y015090D01*
X006893Y015090D01*
X006893Y015070D01*
X006608Y015070D01*
X006608Y014958D01*
X006781Y014785D01*
X006893Y014787D02*
X006913Y014787D01*
X006913Y014865D02*
X006893Y014865D01*
X006893Y014942D02*
X006913Y014942D01*
X006913Y015019D02*
X006893Y015019D01*
X006893Y015090D02*
X006608Y015090D01*
X006608Y015203D01*
X006781Y015376D01*
X006893Y015376D01*
X006893Y015090D01*
X006893Y015097D02*
X006913Y015097D01*
X006913Y015174D02*
X006893Y015174D01*
X006893Y015251D02*
X006913Y015251D01*
X006913Y015328D02*
X006893Y015328D01*
X006734Y015328D02*
X006082Y015328D01*
X006082Y015251D02*
X006657Y015251D01*
X006608Y015174D02*
X006082Y015174D01*
X006082Y015097D02*
X006608Y015097D01*
X006608Y015019D02*
X006066Y015019D01*
X006082Y015035D02*
X006082Y015469D01*
X005703Y015469D01*
X005703Y014790D01*
X005837Y014790D01*
X006082Y015035D01*
X005989Y014942D02*
X006624Y014942D01*
X006701Y014865D02*
X005912Y014865D01*
X005703Y014865D02*
X005625Y014865D01*
X005625Y014942D02*
X005703Y014942D01*
X005703Y015019D02*
X005625Y015019D01*
X005625Y015097D02*
X005703Y015097D01*
X005703Y015174D02*
X005625Y015174D01*
X005625Y015251D02*
X005703Y015251D01*
X005703Y015328D02*
X005625Y015328D01*
X005625Y015406D02*
X005703Y015406D01*
X005703Y015483D02*
X007574Y015483D01*
X007497Y015560D02*
X006082Y015560D01*
X006082Y015638D02*
X007460Y015638D01*
X007428Y015715D02*
X006082Y015715D01*
X006082Y015792D02*
X007410Y015792D01*
X007410Y015869D02*
X006082Y015869D01*
X006082Y015947D02*
X007410Y015947D01*
X007436Y016024D02*
X006039Y016024D01*
X005962Y016101D02*
X007468Y016101D01*
X007684Y016333D02*
X002032Y016333D01*
X002032Y016410D02*
X007684Y016410D01*
X007684Y016488D02*
X002032Y016488D01*
X002032Y016565D02*
X004876Y016565D01*
X004943Y016537D02*
X005241Y016537D01*
X005516Y016651D01*
X005726Y016861D01*
X005840Y017136D01*
X005840Y017434D01*
X005726Y017709D01*
X005516Y017919D01*
X005241Y018033D01*
X004943Y018033D01*
X004669Y017919D01*
X004458Y017709D01*
X004344Y017434D01*
X004344Y017136D01*
X004458Y016861D01*
X004669Y016651D01*
X004943Y016537D01*
X004689Y016642D02*
X002032Y016642D01*
X002032Y016720D02*
X004600Y016720D01*
X004523Y016797D02*
X002032Y016797D01*
X002032Y016874D02*
X004453Y016874D01*
X004421Y016951D02*
X002032Y016951D01*
X002032Y017029D02*
X004389Y017029D01*
X004357Y017106D02*
X002032Y017106D01*
X002032Y017183D02*
X004344Y017183D01*
X004344Y017261D02*
X002032Y017261D01*
X002032Y017338D02*
X004344Y017338D01*
X004344Y017415D02*
X002032Y017415D01*
X002032Y017492D02*
X004369Y017492D01*
X004401Y017570D02*
X002032Y017570D01*
X002032Y017647D02*
X004433Y017647D01*
X004474Y017724D02*
X002032Y017724D01*
X002032Y017801D02*
X004551Y017801D01*
X004628Y017879D02*
X002032Y017879D01*
X002032Y017956D02*
X004758Y017956D01*
X005427Y017956D02*
X007410Y017956D01*
X007410Y017879D02*
X005556Y017879D01*
X005634Y017801D02*
X007410Y017801D01*
X007422Y017724D02*
X005711Y017724D01*
X005752Y017647D02*
X007454Y017647D01*
X007486Y017570D02*
X005784Y017570D01*
X005816Y017492D02*
X007561Y017492D01*
X007648Y017415D02*
X005840Y017415D01*
X005840Y017338D02*
X007684Y017338D01*
X007684Y017261D02*
X005840Y017261D01*
X005840Y017183D02*
X007684Y017183D01*
X007684Y017106D02*
X005828Y017106D01*
X005796Y017029D02*
X007684Y017029D01*
X007684Y016951D02*
X005764Y016951D01*
X005732Y016874D02*
X007684Y016874D01*
X007684Y016797D02*
X005662Y016797D01*
X005585Y016720D02*
X007684Y016720D01*
X007684Y016642D02*
X005495Y016642D01*
X005309Y016565D02*
X007684Y016565D01*
X008416Y015715D02*
X008428Y015715D01*
X008460Y015638D02*
X008384Y015638D01*
X008346Y015560D02*
X008497Y015560D01*
X008574Y015483D02*
X008269Y015483D01*
X008164Y015406D02*
X008680Y015406D01*
X008686Y015328D02*
X008158Y015328D01*
X008158Y015251D02*
X008686Y015251D01*
X008686Y015174D02*
X008158Y015174D01*
X008158Y015097D02*
X008686Y015097D01*
X008686Y015019D02*
X008158Y015019D01*
X008158Y014942D02*
X008686Y014942D01*
X008686Y014865D02*
X008158Y014865D01*
X008158Y014787D02*
X008686Y014787D01*
X008686Y014710D02*
X008158Y014710D01*
X008187Y014633D02*
X008686Y014633D01*
X008636Y014556D02*
X008242Y014556D01*
X008242Y014478D02*
X008636Y014478D01*
X008636Y014401D02*
X008242Y014401D01*
X008242Y014324D02*
X008636Y014324D01*
X008636Y014246D02*
X008242Y014246D01*
X008242Y014169D02*
X008636Y014169D01*
X008636Y014092D02*
X008242Y014092D01*
X008209Y014015D02*
X008668Y014015D01*
X008664Y013937D02*
X008213Y013937D01*
X008242Y013860D02*
X008636Y013860D01*
X008579Y013783D02*
X008242Y013783D01*
X008242Y013705D02*
X008502Y013705D01*
X007641Y013937D02*
X005486Y013937D01*
X005486Y013860D02*
X007239Y013860D01*
X007161Y013783D02*
X005435Y013783D01*
X005357Y013705D02*
X007084Y013705D01*
X006820Y013628D02*
X005280Y013628D01*
X005203Y013551D02*
X006766Y013551D01*
X006766Y013474D02*
X005126Y013474D01*
X005081Y013396D02*
X005048Y013396D01*
X005358Y013396D02*
X006766Y013396D01*
X006766Y013319D02*
X005473Y013319D01*
X005534Y013242D02*
X006766Y013242D01*
X006766Y013164D02*
X005566Y013164D01*
X005577Y013087D02*
X006800Y013087D01*
X007321Y013087D02*
X008218Y013087D01*
X008183Y013164D02*
X007356Y013164D01*
X007356Y013242D02*
X008183Y013242D01*
X007760Y013010D02*
X005577Y013010D01*
X005551Y012933D02*
X007683Y012933D01*
X007605Y012855D02*
X005515Y012855D01*
X005437Y012778D02*
X007387Y012778D01*
X007336Y012701D02*
X004254Y012701D01*
X004264Y012778D02*
X005001Y012778D01*
X004924Y012855D02*
X004264Y012855D01*
X004250Y012933D02*
X004887Y012933D01*
X004513Y013010D02*
X004218Y013010D01*
X004168Y013087D02*
X004435Y013087D01*
X004384Y013164D02*
X004090Y013164D01*
X003990Y013242D02*
X004384Y013242D01*
X004384Y013319D02*
X003990Y013319D01*
X003928Y013396D02*
X004384Y013396D01*
X004458Y013474D02*
X003851Y013474D01*
X003773Y013551D02*
X004535Y013551D01*
X004603Y013628D02*
X003696Y013628D01*
X003619Y013705D02*
X004526Y013705D01*
X004791Y013584D02*
X004791Y013584D01*
X004699Y013269D02*
X005329Y013899D01*
X005329Y014372D01*
X004699Y015002D01*
X004699Y015543D01*
X004664Y015508D01*
X004699Y015543D02*
X004699Y015553D01*
X004246Y015560D02*
X004082Y015560D01*
X004082Y015483D02*
X004246Y015483D01*
X004246Y015406D02*
X004082Y015406D01*
X004082Y015328D02*
X004246Y015328D01*
X004246Y015251D02*
X004082Y015251D01*
X004082Y015174D02*
X004246Y015174D01*
X004246Y015097D02*
X004082Y015097D01*
X004066Y015019D02*
X004261Y015019D01*
X004339Y014942D02*
X003989Y014942D01*
X003912Y014865D02*
X004416Y014865D01*
X004690Y014787D02*
X003859Y014787D01*
X003872Y014710D02*
X004767Y014710D01*
X004845Y014633D02*
X003872Y014633D01*
X003872Y014556D02*
X004922Y014556D01*
X004999Y014478D02*
X003872Y014478D01*
X003872Y014401D02*
X005076Y014401D01*
X005154Y014324D02*
X003946Y014324D01*
X004023Y014246D02*
X005171Y014246D01*
X005171Y014169D02*
X004953Y014169D01*
X005030Y014092D02*
X005171Y014092D01*
X005171Y014015D02*
X005092Y014015D01*
X005092Y013937D02*
X005144Y013937D01*
X005486Y014015D02*
X007644Y014015D01*
X007612Y014092D02*
X005486Y014092D01*
X005486Y014169D02*
X007612Y014169D01*
X007612Y014246D02*
X005486Y014246D01*
X005486Y014324D02*
X007612Y014324D01*
X007612Y014401D02*
X005486Y014401D01*
X005444Y014478D02*
X007612Y014478D01*
X007612Y014556D02*
X005367Y014556D01*
X005290Y014633D02*
X007667Y014633D01*
X007686Y014710D02*
X005213Y014710D01*
X004602Y014169D02*
X004100Y014169D01*
X004177Y014092D02*
X004525Y014092D01*
X004777Y013899D02*
X004147Y013899D01*
X003517Y014529D01*
X003537Y014529D01*
X003596Y014529D01*
X003664Y014597D01*
X003664Y015508D01*
X003246Y015483D02*
X003082Y015483D01*
X003082Y015406D02*
X003246Y015406D01*
X003246Y015328D02*
X003082Y015328D01*
X003082Y015251D02*
X003246Y015251D01*
X003246Y015174D02*
X003082Y015174D01*
X003082Y015097D02*
X003246Y015097D01*
X003261Y015019D02*
X003066Y015019D01*
X002989Y014942D02*
X003339Y014942D01*
X003416Y014865D02*
X002912Y014865D01*
X002664Y014753D02*
X002888Y014529D01*
X002888Y014214D01*
X003832Y013269D01*
X003832Y012810D01*
X003831Y012811D01*
X003832Y012810D02*
X003832Y012797D01*
X004101Y012469D02*
X007336Y012469D01*
X007336Y012546D02*
X004178Y012546D01*
X004222Y012624D02*
X007336Y012624D01*
X007671Y012482D02*
X007691Y012502D01*
X007691Y012718D01*
X007848Y012876D01*
X009659Y012876D01*
X009738Y012797D01*
X009974Y013033D01*
X010132Y013033D01*
X010340Y013242D02*
X010604Y013242D01*
X010604Y013164D02*
X010418Y013164D01*
X010427Y013087D02*
X010604Y013087D01*
X010604Y013010D02*
X010427Y013010D01*
X010427Y012933D02*
X010604Y012933D01*
X010604Y012855D02*
X010371Y012855D01*
X010294Y012778D02*
X010604Y012778D01*
X010604Y012701D02*
X010053Y012701D01*
X010053Y012624D02*
X010604Y012624D01*
X010604Y012546D02*
X010053Y012546D01*
X010053Y012469D02*
X010604Y012469D01*
X010604Y012392D02*
X010053Y012392D01*
X010053Y012314D02*
X010604Y012314D01*
X010604Y012237D02*
X010053Y012237D01*
X010053Y012160D02*
X010604Y012160D01*
X010604Y012083D02*
X010053Y012083D01*
X010053Y012005D02*
X010604Y012005D01*
X010604Y011928D02*
X010053Y011928D01*
X010053Y011851D02*
X010604Y011851D01*
X010604Y011773D02*
X010053Y011773D01*
X010053Y011696D02*
X010604Y011696D01*
X010604Y011619D02*
X010177Y011619D01*
X010210Y011542D02*
X010604Y011542D01*
X010604Y011464D02*
X010210Y011464D01*
X010210Y011387D02*
X010604Y011387D01*
X010604Y011310D02*
X010210Y011310D01*
X010210Y011232D02*
X010604Y011232D01*
X010604Y011155D02*
X010210Y011155D01*
X010210Y011078D02*
X010604Y011078D01*
X010604Y011001D02*
X010156Y011001D01*
X010141Y010986D02*
X009679Y010986D01*
X009679Y010986D01*
X009856Y010986D01*
X009856Y010691D01*
X009935Y010691D01*
X009935Y010986D01*
X010141Y010986D01*
X010204Y010923D02*
X010604Y010923D01*
X010604Y010846D02*
X010210Y010846D01*
X010210Y010769D02*
X010604Y010769D01*
X010604Y010691D02*
X010210Y010691D01*
X009935Y010691D02*
X009856Y010691D01*
X009856Y010614D02*
X009443Y010614D01*
X009443Y010537D02*
X009364Y010537D01*
X009364Y010614D02*
X009088Y010614D01*
X009088Y010537D02*
X009128Y010537D01*
X009128Y010460D02*
X009088Y010460D01*
X009085Y010382D02*
X009131Y010382D01*
X009128Y010305D02*
X009088Y010305D01*
X009088Y010228D02*
X009128Y010228D01*
X009088Y010150D02*
X009364Y010150D01*
X009364Y010228D02*
X009443Y010228D01*
X009443Y010305D02*
X009364Y010305D01*
X009364Y010382D02*
X009443Y010382D01*
X009443Y010460D02*
X009364Y010460D01*
X009364Y010691D02*
X009443Y010691D01*
X009443Y010769D02*
X009364Y010769D01*
X009364Y010846D02*
X009443Y010846D01*
X009443Y010923D02*
X009364Y010923D01*
X009364Y011001D02*
X009443Y011001D01*
X009364Y011078D02*
X009088Y011078D01*
X009088Y011155D02*
X009128Y011155D01*
X009128Y011232D02*
X009088Y011232D01*
X009067Y011310D02*
X009149Y011310D01*
X009128Y011387D02*
X009088Y011387D01*
X009088Y011464D02*
X009128Y011464D01*
X009088Y011542D02*
X009364Y011542D01*
X009364Y011576D02*
X009128Y011576D01*
X009128Y011743D01*
X009158Y011773D01*
X009128Y011803D01*
X009128Y011970D01*
X009364Y011970D01*
X009364Y011813D01*
X009364Y011576D01*
X009364Y011619D02*
X009443Y011619D01*
X009443Y011696D02*
X009364Y011696D01*
X009364Y011773D02*
X009443Y011773D01*
X009443Y011851D02*
X009364Y011851D01*
X009364Y011928D02*
X009443Y011928D01*
X009443Y012005D02*
X009738Y012005D01*
X009738Y011928D02*
X009679Y011928D01*
X009679Y011851D02*
X009738Y011851D01*
X009738Y011773D02*
X009649Y011773D01*
X009679Y011696D02*
X009738Y011696D01*
X009443Y011464D02*
X009364Y011464D01*
X009364Y011387D02*
X009443Y011387D01*
X009443Y011310D02*
X009364Y011310D01*
X009364Y011232D02*
X009443Y011232D01*
X009443Y011155D02*
X009364Y011155D01*
X009128Y011001D02*
X009088Y011001D01*
X009088Y010923D02*
X009128Y010923D01*
X009140Y010846D02*
X009076Y010846D01*
X009088Y010769D02*
X009128Y010769D01*
X009128Y010691D02*
X009088Y010691D01*
X008813Y010592D02*
X008340Y010592D01*
X008321Y010592D01*
X008006Y010614D02*
X008006Y010614D01*
X008006Y010537D02*
X008006Y010537D01*
X008006Y010460D02*
X008006Y010460D01*
X008006Y010382D02*
X008006Y010382D01*
X008006Y010346D02*
X008006Y009893D01*
X008006Y009421D01*
X008006Y008948D01*
X008006Y008457D01*
X008006Y008948D01*
X008006Y009421D01*
X008006Y009893D01*
X008006Y010346D01*
X008006Y010838D01*
X008006Y011310D01*
X008006Y011310D01*
X008006Y011783D01*
X008006Y012236D01*
X008006Y012718D01*
X008006Y012718D01*
X008006Y012236D01*
X008006Y011783D01*
X008006Y011310D01*
X008006Y010838D01*
X008006Y010346D01*
X008006Y010305D02*
X008006Y010305D01*
X008006Y010228D02*
X008006Y010228D01*
X008006Y010150D02*
X008006Y010150D01*
X008006Y010073D02*
X008006Y010073D01*
X008006Y009996D02*
X008006Y009996D01*
X008006Y009919D02*
X008006Y009919D01*
X008006Y009841D02*
X008006Y009841D01*
X008006Y009764D02*
X008006Y009764D01*
X008006Y009687D02*
X008006Y009687D01*
X008006Y009609D02*
X008006Y009609D01*
X008006Y009532D02*
X008006Y009532D01*
X008006Y009455D02*
X008006Y009455D01*
X008006Y009378D02*
X008006Y009378D01*
X008006Y009300D02*
X008006Y009300D01*
X008006Y009223D02*
X008006Y009223D01*
X008006Y009146D02*
X008006Y009146D01*
X008006Y009068D02*
X008006Y009068D01*
X008006Y008991D02*
X008006Y008991D01*
X008006Y008914D02*
X008006Y008914D01*
X008006Y008837D02*
X008006Y008837D01*
X008006Y008759D02*
X008006Y008759D01*
X008006Y008682D02*
X008006Y008682D01*
X008006Y008605D02*
X008006Y008605D01*
X008006Y008527D02*
X008006Y008527D01*
X007999Y008450D02*
X008012Y008450D01*
X008007Y008373D02*
X011155Y008373D01*
X011155Y008759D02*
X009679Y008759D01*
X009679Y008837D02*
X011155Y008837D01*
X011155Y008914D02*
X009674Y008914D01*
X009679Y008991D02*
X011155Y008991D01*
X011155Y009068D02*
X009679Y009068D01*
X009443Y009214D02*
X009364Y009214D01*
X009364Y009450D01*
X009364Y009608D01*
X009443Y009608D01*
X009443Y009450D01*
X009443Y009214D01*
X009443Y009223D02*
X009364Y009223D01*
X009364Y009146D02*
X009088Y009146D01*
X009088Y009223D02*
X009128Y009223D01*
X009128Y009300D02*
X009088Y009300D01*
X009088Y009378D02*
X009128Y009378D01*
X009128Y009455D02*
X009088Y009455D01*
X009088Y009532D02*
X009128Y009532D01*
X009088Y009609D02*
X009364Y009609D01*
X009364Y009532D02*
X009443Y009532D01*
X009443Y009455D02*
X009364Y009455D01*
X009364Y009378D02*
X009443Y009378D01*
X009443Y009300D02*
X009364Y009300D01*
X009128Y009068D02*
X009088Y009068D01*
X009088Y008991D02*
X009128Y008991D01*
X009133Y008914D02*
X009083Y008914D01*
X009088Y008837D02*
X009128Y008837D01*
X009128Y008759D02*
X009088Y008759D01*
X008813Y008702D02*
X008340Y008702D01*
X008321Y008702D01*
X008340Y009175D02*
X008813Y009175D01*
X008813Y009647D02*
X008340Y009647D01*
X008340Y010120D02*
X008813Y010120D01*
X009088Y010073D02*
X009128Y010073D01*
X009128Y009996D02*
X009088Y009996D01*
X009088Y009919D02*
X009128Y009919D01*
X009128Y009841D02*
X009088Y009841D01*
X009088Y009764D02*
X009128Y009764D01*
X009128Y009687D02*
X009088Y009687D01*
X007691Y009647D02*
X007671Y009647D01*
X007612Y009647D01*
X007218Y009883D02*
X006903Y009569D01*
X006037Y009569D01*
X005815Y009764D02*
X005005Y009764D01*
X005037Y009841D02*
X005892Y009841D01*
X005899Y009919D02*
X005061Y009919D01*
X005061Y009996D02*
X005822Y009996D01*
X005745Y010073D02*
X005061Y010073D01*
X005041Y010150D02*
X005742Y010150D01*
X005742Y010228D02*
X005009Y010228D01*
X004968Y010305D02*
X005742Y010305D01*
X005803Y010382D02*
X004891Y010382D01*
X004787Y010460D02*
X005881Y010460D01*
X006136Y010537D02*
X004787Y010537D01*
X004887Y010614D02*
X006136Y010614D01*
X006191Y010691D02*
X004964Y010691D01*
X005007Y010769D02*
X006269Y010769D01*
X006273Y010846D02*
X005039Y010846D01*
X005061Y010923D02*
X006273Y010923D01*
X006273Y011001D02*
X005061Y011001D01*
X005061Y011078D02*
X006300Y011078D01*
X006377Y011155D02*
X005039Y011155D01*
X005007Y011232D02*
X006455Y011232D01*
X006532Y011310D02*
X004964Y011310D01*
X004886Y011387D02*
X006609Y011387D01*
X006687Y011464D02*
X004767Y011464D01*
X005006Y011773D02*
X002032Y011773D01*
X002032Y011851D02*
X004928Y011851D01*
X004889Y011928D02*
X002032Y011928D01*
X002032Y012005D02*
X004861Y012005D01*
X004861Y012083D02*
X002032Y012083D01*
X002032Y012160D02*
X004870Y012160D01*
X004902Y012237D02*
X002032Y012237D01*
X002032Y012314D02*
X004961Y012314D01*
X004332Y011464D02*
X002771Y011464D01*
X002890Y011387D02*
X004212Y011387D01*
X004135Y011310D02*
X002968Y011310D01*
X002398Y012855D02*
X002032Y012855D01*
X002032Y012933D02*
X002398Y012933D01*
X002417Y013010D02*
X002032Y013010D01*
X002032Y013087D02*
X002494Y013087D01*
X002572Y013164D02*
X002032Y013164D01*
X003310Y014015D02*
X003809Y014015D01*
X003732Y014092D02*
X003232Y014092D01*
X003155Y014169D02*
X003655Y014169D01*
X003887Y013937D02*
X003387Y013937D01*
X003464Y013860D02*
X003964Y013860D01*
X004041Y013783D02*
X003542Y013783D01*
X003239Y014246D02*
X003166Y014246D01*
X003202Y014324D02*
X003203Y014324D01*
X003202Y014401D02*
X003203Y014401D01*
X003202Y014478D02*
X003203Y014478D01*
X003202Y014556D02*
X003203Y014556D01*
X003202Y014633D02*
X003203Y014633D01*
X003202Y014710D02*
X003203Y014710D01*
X003215Y014787D02*
X003190Y014787D01*
X002888Y014529D02*
X002868Y014529D01*
X002664Y014753D02*
X002664Y015508D01*
X003082Y015560D02*
X003246Y015560D01*
X003246Y015638D02*
X003082Y015638D01*
X003082Y015715D02*
X003246Y015715D01*
X003246Y015792D02*
X003082Y015792D01*
X003082Y015869D02*
X003246Y015869D01*
X003246Y015947D02*
X003082Y015947D01*
X003039Y016024D02*
X003289Y016024D01*
X003366Y016101D02*
X002962Y016101D01*
X002885Y016179D02*
X003443Y016179D01*
X003885Y016179D02*
X004443Y016179D01*
X004366Y016101D02*
X003962Y016101D01*
X004039Y016024D02*
X004289Y016024D01*
X004246Y015947D02*
X004082Y015947D01*
X004082Y015869D02*
X004246Y015869D01*
X004246Y015792D02*
X004082Y015792D01*
X004082Y015715D02*
X004246Y015715D01*
X004246Y015638D02*
X004082Y015638D01*
X004885Y016179D02*
X005443Y016179D01*
X005366Y016101D02*
X004962Y016101D01*
X005039Y016024D02*
X005289Y016024D01*
X005246Y015947D02*
X005082Y015947D01*
X005082Y015869D02*
X005246Y015869D01*
X005246Y015792D02*
X005082Y015792D01*
X005082Y015715D02*
X005246Y015715D01*
X005246Y015638D02*
X005082Y015638D01*
X005082Y015560D02*
X005246Y015560D01*
X006082Y015406D02*
X007680Y015406D01*
X007686Y015328D02*
X007073Y015328D01*
X007150Y015251D02*
X007686Y015251D01*
X007686Y015174D02*
X007199Y015174D01*
X007199Y015097D02*
X007686Y015097D01*
X007686Y015019D02*
X007199Y015019D01*
X007183Y014942D02*
X007686Y014942D01*
X007686Y014865D02*
X007105Y014865D01*
X007028Y014787D02*
X007686Y014787D01*
X009158Y014787D02*
X009686Y014787D01*
X009686Y014710D02*
X009158Y014710D01*
X009211Y014633D02*
X009686Y014633D01*
X009659Y014556D02*
X009265Y014556D01*
X009265Y014478D02*
X009659Y014478D01*
X009659Y014401D02*
X009265Y014401D01*
X009265Y014324D02*
X009659Y014324D01*
X009659Y014246D02*
X009265Y014246D01*
X009265Y014169D02*
X009659Y014169D01*
X009659Y014092D02*
X009265Y014092D01*
X009233Y014015D02*
X009692Y014015D01*
X009688Y013937D02*
X009237Y013937D01*
X009265Y013860D02*
X009659Y013860D01*
X009659Y013783D02*
X009265Y013783D01*
X009265Y013705D02*
X009604Y013705D01*
X009339Y013628D02*
X009265Y013628D01*
X009265Y013551D02*
X009285Y013551D01*
X009285Y013474D02*
X009265Y013474D01*
X009265Y013396D02*
X009285Y013396D01*
X009285Y013319D02*
X009207Y013319D01*
X009285Y013242D02*
X008773Y013242D01*
X008773Y013164D02*
X009285Y013164D01*
X009320Y013087D02*
X008739Y013087D01*
X009076Y012701D02*
X009140Y012701D01*
X009128Y012624D02*
X009088Y012624D01*
X009088Y012546D02*
X009128Y012546D01*
X009128Y012469D02*
X009088Y012469D01*
X009088Y012392D02*
X009128Y012392D01*
X009128Y012314D02*
X009088Y012314D01*
X009067Y012237D02*
X009149Y012237D01*
X009128Y012160D02*
X009088Y012160D01*
X009088Y012083D02*
X009128Y012083D01*
X009088Y012005D02*
X009364Y012005D01*
X009364Y012083D02*
X009443Y012083D01*
X009443Y012160D02*
X009364Y012160D01*
X009364Y012237D02*
X009443Y012237D01*
X009433Y012314D02*
X009413Y012314D01*
X009413Y012392D02*
X009433Y012392D01*
X009403Y012482D02*
X009403Y012541D01*
X009423Y012561D01*
X009718Y012546D02*
X009738Y012546D01*
X009738Y012469D02*
X009718Y012469D01*
X009738Y012392D02*
X009679Y012392D01*
X009679Y012314D02*
X009738Y012314D01*
X009738Y012237D02*
X009658Y012237D01*
X009679Y012160D02*
X009738Y012160D01*
X009738Y012083D02*
X009679Y012083D01*
X009128Y011928D02*
X009088Y011928D01*
X009088Y011851D02*
X009128Y011851D01*
X009157Y011773D02*
X009059Y011773D01*
X009088Y011696D02*
X009128Y011696D01*
X009128Y011619D02*
X009088Y011619D01*
X008813Y011537D02*
X008340Y011537D01*
X008321Y011537D01*
X008006Y011542D02*
X008006Y011542D01*
X008006Y011619D02*
X008006Y011619D01*
X008006Y011696D02*
X008006Y011696D01*
X008006Y011773D02*
X008006Y011773D01*
X008006Y011851D02*
X008006Y011851D01*
X008006Y011928D02*
X008006Y011928D01*
X008006Y012005D02*
X008006Y012005D01*
X008006Y012083D02*
X008006Y012083D01*
X008006Y012160D02*
X008006Y012160D01*
X008006Y012237D02*
X008006Y012237D01*
X008006Y012314D02*
X008006Y012314D01*
X008006Y012392D02*
X008006Y012392D01*
X008006Y012469D02*
X008006Y012469D01*
X008006Y012546D02*
X008006Y012546D01*
X008006Y012624D02*
X008006Y012624D01*
X008006Y012701D02*
X008006Y012701D01*
X008321Y012482D02*
X008340Y012482D01*
X008813Y012482D01*
X008813Y012009D02*
X008340Y012009D01*
X008006Y011464D02*
X008006Y011464D01*
X008006Y011387D02*
X008006Y011387D01*
X008006Y011232D02*
X008006Y011232D01*
X008006Y011155D02*
X008006Y011155D01*
X008006Y011078D02*
X008006Y011078D01*
X008006Y011001D02*
X008006Y011001D01*
X008006Y010923D02*
X008006Y010923D01*
X008006Y010846D02*
X008006Y010846D01*
X008006Y010769D02*
X008006Y010769D01*
X008006Y010691D02*
X008006Y010691D01*
X007671Y010592D02*
X007376Y010592D01*
X007218Y010435D01*
X007218Y009883D01*
X006982Y010120D02*
X006746Y009883D01*
X006431Y009883D01*
X006667Y010198D02*
X006037Y010198D01*
X006431Y010513D02*
X006431Y010986D01*
X007454Y012009D01*
X007671Y012009D01*
X007691Y012009D01*
X007671Y011537D02*
X007691Y011537D01*
X007671Y011537D02*
X007454Y011537D01*
X006825Y010907D01*
X006825Y010356D01*
X006667Y010198D01*
X006982Y010120D02*
X006982Y010513D01*
X007533Y011065D01*
X007671Y011065D01*
X007671Y011517D02*
X007671Y011537D01*
X008340Y011065D02*
X008813Y011065D01*
X009856Y010923D02*
X009935Y010923D01*
X009935Y010846D02*
X009856Y010846D01*
X009856Y010769D02*
X009935Y010769D01*
X009895Y011320D02*
X009870Y011354D01*
X009895Y011380D01*
X009895Y012639D01*
X009738Y012797D01*
X010919Y012561D02*
X010919Y009962D01*
X010700Y009764D02*
X010663Y009764D01*
X010663Y009687D02*
X010777Y009687D01*
X010663Y009609D02*
X011155Y009609D01*
X011155Y009532D02*
X010592Y009532D01*
X010514Y009455D02*
X011155Y009455D01*
X011155Y009687D02*
X011061Y009687D01*
X011138Y009764D02*
X011155Y009764D01*
X012100Y009962D02*
X012179Y010120D01*
X012179Y010198D01*
X012140Y010198D01*
X012573Y010198D02*
X012809Y009962D01*
X013045Y009962D01*
X013045Y009864D01*
X013006Y009824D01*
X012789Y010228D02*
X012766Y010228D01*
X012573Y010198D02*
X012573Y010415D01*
X011785Y011202D01*
X011766Y011222D01*
X011313Y011222D01*
X011313Y006261D01*
X011155Y007832D02*
X011026Y007832D01*
X012100Y008702D02*
X012179Y008781D01*
X012179Y008860D01*
X012140Y008860D01*
X013045Y008702D02*
X013045Y008525D01*
X013006Y008486D01*
X013911Y008702D02*
X013990Y008781D01*
X013990Y008860D01*
X013970Y008860D01*
X013951Y008840D01*
X014344Y008837D02*
X014561Y008837D01*
X014561Y008914D02*
X014344Y008914D01*
X014344Y008991D02*
X014624Y008991D01*
X014470Y008759D02*
X014344Y008759D01*
X014344Y008682D02*
X014423Y008682D01*
X014423Y008605D02*
X014344Y008605D01*
X014277Y008527D02*
X014423Y008527D01*
X014817Y008466D02*
X014856Y008466D01*
X014856Y008702D01*
X015949Y008527D02*
X015968Y008527D01*
X015968Y008450D02*
X015949Y008450D01*
X015949Y008373D02*
X015968Y008373D01*
X015968Y008296D02*
X015949Y008296D01*
X016015Y007755D02*
X015526Y007755D01*
X015642Y007677D02*
X015938Y007677D01*
X015861Y007600D02*
X015719Y007600D01*
X016475Y008914D02*
X016910Y008914D01*
X016833Y008991D02*
X016397Y008991D01*
X016320Y009068D02*
X016768Y009068D01*
X016735Y009146D02*
X016243Y009146D01*
X016165Y009223D02*
X016703Y009223D01*
X017171Y009378D02*
X017249Y009378D01*
X017249Y009455D02*
X017171Y009455D01*
X017171Y009532D02*
X017249Y009532D01*
X017249Y009609D02*
X017171Y009609D01*
X017171Y009687D02*
X017249Y009687D01*
X017249Y009764D02*
X017171Y009764D01*
X017171Y009841D02*
X017249Y009841D01*
X017249Y009919D02*
X017171Y009919D01*
X017171Y009996D02*
X017249Y009996D01*
X017249Y010073D02*
X017171Y010073D01*
X017171Y010150D02*
X017249Y010150D01*
X017249Y010228D02*
X017171Y010228D01*
X017171Y010305D02*
X014713Y010305D01*
X014790Y010382D02*
X016698Y010382D01*
X016707Y010460D02*
X014867Y010460D01*
X014945Y010537D02*
X016739Y010537D01*
X016771Y010614D02*
X015022Y010614D01*
X015099Y010691D02*
X016840Y010691D01*
X016918Y010769D02*
X015177Y010769D01*
X015254Y010846D02*
X017059Y010846D01*
X017171Y010846D02*
X017249Y010846D01*
X017249Y010923D02*
X017171Y010923D01*
X017171Y011001D02*
X017249Y011001D01*
X017249Y011078D02*
X017171Y011078D01*
X017171Y011155D02*
X017249Y011155D01*
X017249Y011232D02*
X017171Y011232D01*
X017171Y011310D02*
X015880Y011310D01*
X015604Y011542D02*
X015525Y011542D01*
X015525Y011619D02*
X015604Y011619D01*
X015604Y011696D02*
X015525Y011696D01*
X015525Y011773D02*
X015604Y011773D01*
X015604Y011851D02*
X017048Y011851D01*
X017171Y011851D02*
X017249Y011851D01*
X017249Y011928D02*
X017171Y011928D01*
X017171Y012005D02*
X017249Y012005D01*
X017249Y012083D02*
X017171Y012083D01*
X017171Y012160D02*
X017249Y012160D01*
X017249Y012237D02*
X017171Y012237D01*
X017250Y012314D02*
X019167Y012314D01*
X019167Y012237D02*
X019245Y012237D01*
X019245Y012160D02*
X019167Y012160D01*
X019167Y012083D02*
X019245Y012083D01*
X019245Y012005D02*
X019167Y012005D01*
X019167Y011928D02*
X019245Y011928D01*
X019245Y011851D02*
X019167Y011851D01*
X019167Y011773D02*
X019245Y011773D01*
X019245Y011696D02*
X019167Y011696D01*
X019167Y011619D02*
X019245Y011619D01*
X019245Y011542D02*
X019167Y011542D01*
X019167Y011464D02*
X019245Y011464D01*
X019245Y011387D02*
X019167Y011387D01*
X019167Y011310D02*
X017250Y011310D01*
X017249Y011387D02*
X017171Y011387D01*
X017171Y011464D02*
X017249Y011464D01*
X017249Y011542D02*
X017171Y011542D01*
X017171Y011619D02*
X017249Y011619D01*
X017249Y011696D02*
X017171Y011696D01*
X017171Y011773D02*
X017249Y011773D01*
X017372Y011851D02*
X019044Y011851D01*
X018921Y011773D02*
X017495Y011773D01*
X017575Y011696D02*
X018841Y011696D01*
X018769Y011619D02*
X017647Y011619D01*
X017680Y011542D02*
X018737Y011542D01*
X018705Y011464D02*
X017712Y011464D01*
X017722Y011387D02*
X018694Y011387D01*
X018696Y011232D02*
X017721Y011232D01*
X017688Y011155D02*
X018728Y011155D01*
X018760Y011078D02*
X017656Y011078D01*
X017597Y011001D02*
X018819Y011001D01*
X018897Y010923D02*
X017520Y010923D01*
X017503Y010769D02*
X018914Y010769D01*
X018836Y010691D02*
X017580Y010691D01*
X017649Y010614D02*
X018767Y010614D01*
X018735Y010537D02*
X017681Y010537D01*
X017713Y010460D02*
X018703Y010460D01*
X018694Y010382D02*
X017722Y010382D01*
X017719Y010228D02*
X018698Y010228D01*
X018730Y010150D02*
X017687Y010150D01*
X017655Y010073D02*
X018762Y010073D01*
X018824Y009996D02*
X017592Y009996D01*
X017515Y009919D02*
X018901Y009919D01*
X018909Y009764D02*
X017507Y009764D01*
X017585Y009687D02*
X018832Y009687D01*
X018765Y009609D02*
X017651Y009609D01*
X017683Y009532D02*
X018733Y009532D01*
X018701Y009455D02*
X017715Y009455D01*
X017722Y009378D02*
X018694Y009378D01*
X018700Y009223D02*
X017717Y009223D01*
X017685Y009146D02*
X018732Y009146D01*
X018764Y009068D02*
X017653Y009068D01*
X017588Y008991D02*
X018829Y008991D01*
X018906Y008914D02*
X017510Y008914D01*
X017338Y008837D02*
X019078Y008837D01*
X019167Y008837D02*
X019245Y008837D01*
X019245Y008914D02*
X019167Y008914D01*
X019167Y008991D02*
X019245Y008991D01*
X019245Y009068D02*
X019167Y009068D01*
X019167Y009146D02*
X019245Y009146D01*
X019245Y009223D02*
X019167Y009223D01*
X019167Y009300D02*
X017250Y009300D01*
X017350Y009841D02*
X019067Y009841D01*
X019167Y009841D02*
X019245Y009841D01*
X019245Y009764D02*
X019167Y009764D01*
X019167Y009687D02*
X019245Y009687D01*
X019245Y009609D02*
X019167Y009609D01*
X019167Y009532D02*
X019245Y009532D01*
X019245Y009455D02*
X019167Y009455D01*
X019167Y009378D02*
X019245Y009378D01*
X019506Y008914D02*
X019570Y008914D01*
X019570Y008837D02*
X019334Y008837D01*
X019245Y009919D02*
X019167Y009919D01*
X019167Y009996D02*
X019245Y009996D01*
X019245Y010073D02*
X019167Y010073D01*
X019167Y010150D02*
X019245Y010150D01*
X019245Y010228D02*
X019167Y010228D01*
X019167Y010305D02*
X017250Y010305D01*
X017249Y010382D02*
X017171Y010382D01*
X017171Y010460D02*
X017249Y010460D01*
X017249Y010537D02*
X017171Y010537D01*
X017171Y010614D02*
X017249Y010614D01*
X017249Y010691D02*
X017171Y010691D01*
X017171Y010769D02*
X017249Y010769D01*
X017361Y010846D02*
X019055Y010846D01*
X019167Y010846D02*
X019245Y010846D01*
X019245Y010923D02*
X019167Y010923D01*
X019167Y011001D02*
X019245Y011001D01*
X019245Y011078D02*
X019167Y011078D01*
X019167Y011155D02*
X019245Y011155D01*
X019245Y011232D02*
X019167Y011232D01*
X019167Y010769D02*
X019245Y010769D01*
X019245Y010691D02*
X019167Y010691D01*
X019167Y010614D02*
X019245Y010614D01*
X019245Y010537D02*
X019167Y010537D01*
X019167Y010460D02*
X019245Y010460D01*
X019245Y010382D02*
X019167Y010382D01*
X017071Y009841D02*
X015547Y009841D01*
X015470Y009919D02*
X016905Y009919D01*
X016828Y009996D02*
X015393Y009996D01*
X015315Y010073D02*
X016766Y010073D01*
X016734Y010150D02*
X015238Y010150D01*
X015112Y010228D02*
X016702Y010228D01*
X015329Y011222D02*
X015171Y011222D01*
X015151Y011202D01*
X015092Y011202D01*
X015092Y011222D01*
X015171Y011222D01*
X014777Y011232D02*
X014620Y011232D01*
X014620Y011155D02*
X014777Y011155D01*
X014777Y011078D02*
X014620Y011078D01*
X014620Y011001D02*
X014777Y011001D01*
X014791Y010923D02*
X014606Y010923D01*
X014731Y010769D02*
X014206Y010769D01*
X014206Y010691D02*
X014654Y010691D01*
X014577Y010614D02*
X014206Y010614D01*
X014195Y010537D02*
X014499Y010537D01*
X014422Y010460D02*
X014309Y010460D01*
X014154Y010846D02*
X014809Y010846D01*
X014305Y011202D02*
X014285Y011222D01*
X014069Y011222D01*
X013852Y011222D01*
X013832Y011202D01*
X013832Y011222D01*
X014069Y011222D01*
X013669Y010846D02*
X013372Y010846D01*
X013346Y010923D02*
X013531Y010923D01*
X013517Y011001D02*
X013360Y011001D01*
X013360Y011078D02*
X013517Y011078D01*
X013517Y011155D02*
X013360Y011155D01*
X013360Y011232D02*
X013517Y011232D01*
X013517Y011310D02*
X013360Y011310D01*
X013360Y011387D02*
X013517Y011387D01*
X013517Y011464D02*
X013360Y011464D01*
X013291Y011537D02*
X013084Y011537D01*
X013084Y011832D01*
X013006Y011832D01*
X013006Y011537D01*
X012818Y011537D01*
X012327Y011537D01*
X012258Y011606D01*
X012258Y012098D01*
X012238Y012118D01*
X012238Y012531D01*
X012307Y012600D01*
X012720Y012600D01*
X012789Y012531D01*
X012789Y012206D01*
X012818Y012206D01*
X012829Y012206D01*
X012829Y012531D01*
X012898Y012600D01*
X012966Y012600D01*
X012966Y012639D01*
X012323Y012639D01*
X012120Y012436D01*
X012120Y012118D01*
X012100Y012098D01*
X012100Y011911D01*
X012080Y011911D01*
X012080Y011862D01*
X011825Y011862D01*
X011825Y011842D01*
X012080Y011842D01*
X012080Y011832D01*
X012100Y011832D01*
X012100Y011606D01*
X012031Y011537D01*
X011824Y011537D01*
X011824Y011557D01*
X011795Y011557D01*
X011795Y011832D01*
X011775Y011832D01*
X011775Y011557D01*
X011746Y011557D01*
X011746Y011537D01*
X011559Y011537D01*
X011076Y011537D01*
X011076Y011537D01*
X011559Y011537D01*
X012031Y011537D01*
X012100Y011468D01*
X012100Y011110D01*
X012258Y010953D01*
X012258Y011468D01*
X012327Y011537D01*
X012818Y011537D01*
X013291Y011537D01*
X013295Y011542D02*
X013582Y011542D01*
X013517Y011619D02*
X013360Y011619D01*
X013360Y011696D02*
X013517Y011696D01*
X013517Y011773D02*
X013360Y011773D01*
X013360Y011928D02*
X013517Y011928D01*
X013517Y012005D02*
X013360Y012005D01*
X013360Y012083D02*
X013517Y012083D01*
X013498Y012160D02*
X013380Y012160D01*
X013380Y012237D02*
X013498Y012237D01*
X013498Y012314D02*
X013380Y012314D01*
X013380Y012392D02*
X013498Y012392D01*
X013498Y012469D02*
X013380Y012469D01*
X013364Y012546D02*
X013513Y012546D01*
X013281Y012624D02*
X014226Y012624D01*
X014104Y012546D02*
X014034Y012546D01*
X014049Y012469D02*
X014088Y012469D01*
X014088Y012392D02*
X014049Y012392D01*
X014049Y012314D02*
X014088Y012314D01*
X014088Y012237D02*
X014049Y012237D01*
X013773Y012324D02*
X013754Y012324D01*
X013754Y011950D01*
X013832Y011872D01*
X013517Y011851D02*
X013085Y011851D01*
X013045Y011852D02*
X013045Y011872D01*
X013045Y011931D01*
X013006Y011928D02*
X013084Y011928D01*
X013084Y011911D02*
X013084Y012049D01*
X013006Y012049D01*
X013006Y011911D01*
X013084Y011911D01*
X013084Y012005D02*
X013006Y012005D01*
X013006Y011773D02*
X013084Y011773D01*
X013084Y011696D02*
X013006Y011696D01*
X013006Y011619D02*
X013084Y011619D01*
X013084Y011542D02*
X013006Y011542D01*
X013025Y011222D02*
X012809Y011222D01*
X012573Y011222D01*
X012573Y011202D01*
X012258Y011232D02*
X012100Y011232D01*
X012100Y011155D02*
X012258Y011155D01*
X012258Y011078D02*
X012132Y011078D01*
X012210Y011001D02*
X012258Y011001D01*
X012364Y010846D02*
X012640Y010846D01*
X012612Y010769D02*
X012441Y010769D01*
X012519Y010691D02*
X012612Y010691D01*
X012612Y010614D02*
X012596Y010614D01*
X012673Y010537D02*
X012966Y010537D01*
X012966Y010460D02*
X013045Y010460D01*
X013045Y010537D02*
X013628Y010537D01*
X013616Y010614D02*
X013399Y010614D01*
X013399Y010691D02*
X013616Y010691D01*
X013616Y010769D02*
X013399Y010769D01*
X013399Y010460D02*
X013592Y010460D01*
X013557Y010382D02*
X013399Y010382D01*
X013378Y010305D02*
X013557Y010305D01*
X013557Y010228D02*
X013301Y010228D01*
X013045Y010305D02*
X012966Y010305D01*
X012966Y010382D02*
X013045Y010382D01*
X013045Y011202D02*
X013025Y011222D01*
X012322Y011542D02*
X012035Y011542D01*
X012100Y011619D02*
X012258Y011619D01*
X012258Y011696D02*
X012100Y011696D01*
X012100Y011773D02*
X012258Y011773D01*
X012258Y011851D02*
X011825Y011851D01*
X011785Y011852D02*
X011785Y011872D01*
X011795Y011911D02*
X011775Y011911D01*
X011775Y012049D01*
X011795Y012049D01*
X011795Y011911D01*
X011795Y011928D02*
X011775Y011928D01*
X011775Y012005D02*
X011795Y012005D01*
X011775Y011773D02*
X011795Y011773D01*
X011795Y011696D02*
X011775Y011696D01*
X011775Y011619D02*
X011795Y011619D01*
X011824Y011542D02*
X011746Y011542D01*
X012100Y011464D02*
X012258Y011464D01*
X012258Y011387D02*
X012100Y011387D01*
X012100Y011310D02*
X012258Y011310D01*
X012258Y011928D02*
X012100Y011928D01*
X012100Y012005D02*
X012258Y012005D01*
X012258Y012083D02*
X012100Y012083D01*
X012120Y012160D02*
X012238Y012160D01*
X012238Y012237D02*
X012120Y012237D01*
X012120Y012314D02*
X012238Y012314D01*
X012238Y012392D02*
X012120Y012392D01*
X012152Y012469D02*
X012238Y012469D01*
X012230Y012546D02*
X012253Y012546D01*
X012307Y012624D02*
X012966Y012624D01*
X012844Y012546D02*
X012774Y012546D01*
X012789Y012469D02*
X012829Y012469D01*
X012829Y012392D02*
X012789Y012392D01*
X012789Y012314D02*
X012829Y012314D01*
X012829Y012237D02*
X012789Y012237D01*
X012514Y012324D02*
X012494Y012324D01*
X012494Y011950D01*
X012573Y011872D01*
X013104Y012324D02*
X013124Y012344D01*
X013124Y012797D01*
X012258Y012797D01*
X011785Y012324D01*
X011844Y012324D01*
X011569Y012314D02*
X011529Y012314D01*
X011529Y012237D02*
X011569Y012237D01*
X011569Y012392D02*
X011529Y012392D01*
X011529Y012469D02*
X011569Y012469D01*
X011584Y012546D02*
X011514Y012546D01*
X011282Y012701D02*
X011939Y012701D01*
X012016Y012778D02*
X011359Y012778D01*
X011205Y012624D02*
X011862Y012624D01*
X011751Y012855D02*
X012093Y012855D01*
X012171Y012933D02*
X011829Y012933D01*
X011906Y013010D02*
X014499Y013010D01*
X014384Y012797D02*
X014384Y012344D01*
X014364Y012324D01*
X014639Y012314D02*
X014758Y012314D01*
X014758Y012237D02*
X014639Y012237D01*
X014639Y012160D02*
X014758Y012160D01*
X014777Y012083D02*
X014620Y012083D01*
X014620Y012005D02*
X014777Y012005D01*
X014777Y011928D02*
X014620Y011928D01*
X014620Y011773D02*
X014777Y011773D01*
X014777Y011696D02*
X014620Y011696D01*
X014620Y011619D02*
X014777Y011619D01*
X014842Y011542D02*
X014555Y011542D01*
X014620Y011464D02*
X014777Y011464D01*
X014777Y011387D02*
X014620Y011387D01*
X014620Y011310D02*
X014777Y011310D01*
X014344Y011542D02*
X014266Y011542D01*
X014266Y011619D02*
X014344Y011619D01*
X014344Y011696D02*
X014266Y011696D01*
X014266Y011773D02*
X014344Y011773D01*
X014344Y011851D02*
X014777Y011851D01*
X015014Y011950D02*
X015014Y012324D01*
X015033Y012324D01*
X014758Y012392D02*
X014639Y012392D01*
X014639Y012469D02*
X014758Y012469D01*
X014773Y012546D02*
X014624Y012546D01*
X014541Y012624D02*
X015102Y012624D01*
X015151Y012797D02*
X014384Y012797D01*
X013124Y012797D01*
X013021Y013087D02*
X012282Y013087D01*
X012317Y013164D02*
X012986Y013164D01*
X012986Y013242D02*
X012317Y013242D01*
X011254Y012324D02*
X011234Y012324D01*
X011234Y011950D01*
X011313Y011872D01*
X011313Y011222D02*
X011313Y011202D01*
X013045Y009332D02*
X013045Y009273D01*
X013006Y009234D01*
X014206Y009764D02*
X014423Y009764D01*
X014423Y009687D02*
X014334Y009687D01*
X014344Y009609D02*
X014423Y009609D01*
X014450Y009532D02*
X014344Y009532D01*
X014423Y009841D02*
X014249Y009841D01*
X014330Y009919D02*
X014423Y009919D01*
X014423Y009996D02*
X014404Y009996D01*
X014777Y009883D02*
X014777Y009805D01*
X014817Y009805D01*
X014777Y009883D02*
X014856Y009962D01*
X015092Y011872D02*
X015014Y011950D01*
X015624Y012324D02*
X016352Y012324D01*
X017376Y013348D01*
X017484Y012778D02*
X018932Y012778D01*
X018846Y012701D02*
X017571Y012701D01*
X017646Y012624D02*
X018771Y012624D01*
X018739Y012546D02*
X017678Y012546D01*
X017710Y012469D02*
X018707Y012469D01*
X018694Y012392D02*
X017722Y012392D01*
X017722Y012237D02*
X018694Y012237D01*
X018726Y012160D02*
X017690Y012160D01*
X017658Y012083D02*
X018758Y012083D01*
X018815Y012005D02*
X017602Y012005D01*
X017524Y011928D02*
X018892Y011928D01*
X019167Y012392D02*
X019245Y012392D01*
X019245Y012469D02*
X019167Y012469D01*
X019167Y012546D02*
X019245Y012546D01*
X019245Y012624D02*
X019167Y012624D01*
X019167Y012701D02*
X019245Y012701D01*
X019245Y012778D02*
X019167Y012778D01*
X019480Y012778D02*
X019570Y012778D01*
X019567Y012701D02*
X019570Y012701D01*
X019570Y013783D02*
X015858Y013783D01*
X015780Y013860D02*
X019570Y013860D01*
X019570Y013937D02*
X015221Y013937D01*
X015217Y014015D02*
X019570Y014015D01*
X019570Y014092D02*
X015250Y014092D01*
X015250Y014169D02*
X019570Y014169D01*
X019570Y014246D02*
X015250Y014246D01*
X015250Y014324D02*
X019570Y014324D01*
X019570Y014401D02*
X015250Y014401D01*
X015250Y014478D02*
X019570Y014478D01*
X019570Y014556D02*
X015250Y014556D01*
X015195Y014633D02*
X019570Y014633D01*
X019570Y014710D02*
X015158Y014710D01*
X015158Y014787D02*
X019570Y014787D01*
X019570Y014865D02*
X015158Y014865D01*
X015158Y014942D02*
X019570Y014942D01*
X019570Y015019D02*
X015158Y015019D01*
X015158Y015097D02*
X019570Y015097D01*
X019570Y015174D02*
X015158Y015174D01*
X015158Y015251D02*
X019570Y015251D01*
X019570Y015328D02*
X015158Y015328D01*
X015164Y015406D02*
X019570Y015406D01*
X019570Y015483D02*
X015269Y015483D01*
X015346Y015560D02*
X019570Y015560D01*
X019570Y015638D02*
X015384Y015638D01*
X015416Y015715D02*
X019570Y015715D01*
X019570Y015792D02*
X015434Y015792D01*
X015434Y015869D02*
X019570Y015869D01*
X019570Y015947D02*
X015434Y015947D01*
X015408Y016024D02*
X019570Y016024D01*
X019570Y016101D02*
X015376Y016101D01*
X015326Y016179D02*
X019570Y016179D01*
X019570Y016256D02*
X015249Y016256D01*
X015160Y016333D02*
X019570Y016333D01*
X019570Y016410D02*
X015160Y016410D01*
X015160Y016488D02*
X019570Y016488D01*
X019570Y016565D02*
X017120Y016565D01*
X017052Y016537D02*
X017327Y016651D01*
X017537Y016861D01*
X017651Y017136D01*
X017651Y017434D01*
X017537Y017709D01*
X017327Y017919D01*
X017052Y018033D01*
X016754Y018033D01*
X016480Y017919D01*
X016269Y017709D01*
X016155Y017434D01*
X016155Y017136D01*
X016269Y016861D01*
X016480Y016651D01*
X016754Y016537D01*
X017052Y016537D01*
X017306Y016642D02*
X019570Y016642D01*
X019570Y016720D02*
X017396Y016720D01*
X017473Y016797D02*
X019570Y016797D01*
X019570Y016874D02*
X017543Y016874D01*
X017575Y016951D02*
X019570Y016951D01*
X019570Y017029D02*
X017607Y017029D01*
X017639Y017106D02*
X019570Y017106D01*
X019570Y017183D02*
X017651Y017183D01*
X017651Y017261D02*
X019570Y017261D01*
X019570Y017338D02*
X017651Y017338D01*
X017651Y017415D02*
X019570Y017415D01*
X019570Y017492D02*
X017627Y017492D01*
X017595Y017570D02*
X019570Y017570D01*
X019570Y017647D02*
X017563Y017647D01*
X017522Y017724D02*
X019570Y017724D01*
X019570Y017801D02*
X017445Y017801D01*
X017367Y017879D02*
X019570Y017879D01*
X019570Y017956D02*
X017238Y017956D01*
X016569Y017956D02*
X015434Y017956D01*
X015434Y017879D02*
X016439Y017879D01*
X016362Y017801D02*
X015434Y017801D01*
X015421Y017724D02*
X016285Y017724D01*
X016244Y017647D02*
X015389Y017647D01*
X015357Y017570D02*
X016212Y017570D01*
X016180Y017492D02*
X015282Y017492D01*
X015196Y017415D02*
X016155Y017415D01*
X016155Y017338D02*
X015160Y017338D01*
X015160Y017261D02*
X016155Y017261D01*
X016155Y017183D02*
X015160Y017183D01*
X015160Y017106D02*
X016168Y017106D01*
X016200Y017029D02*
X015160Y017029D01*
X015160Y016951D02*
X016232Y016951D01*
X016264Y016874D02*
X015160Y016874D01*
X015160Y016797D02*
X016334Y016797D01*
X016411Y016720D02*
X015160Y016720D01*
X015160Y016642D02*
X016500Y016642D01*
X016687Y016565D02*
X015160Y016565D01*
X014428Y015715D02*
X014416Y015715D01*
X014384Y015638D02*
X014460Y015638D01*
X014497Y015560D02*
X014346Y015560D01*
X014269Y015483D02*
X014574Y015483D01*
X014680Y015406D02*
X014164Y015406D01*
X014158Y015328D02*
X014686Y015328D01*
X014686Y015251D02*
X014158Y015251D01*
X014158Y015174D02*
X014686Y015174D01*
X014686Y015097D02*
X014158Y015097D01*
X014158Y015019D02*
X014686Y015019D01*
X014686Y014942D02*
X014158Y014942D01*
X014158Y014865D02*
X014686Y014865D01*
X014686Y014787D02*
X014158Y014787D01*
X014158Y014710D02*
X014686Y014710D01*
X014675Y014633D02*
X014250Y014633D01*
X014305Y014556D02*
X014620Y014556D01*
X014620Y014478D02*
X014305Y014478D01*
X014305Y014401D02*
X014620Y014401D01*
X014620Y014324D02*
X014305Y014324D01*
X014305Y014246D02*
X014620Y014246D01*
X014620Y014169D02*
X014305Y014169D01*
X014305Y014092D02*
X014620Y014092D01*
X014652Y014015D02*
X014272Y014015D01*
X014276Y013937D02*
X014648Y013937D01*
X014620Y013860D02*
X014305Y013860D01*
X014305Y013783D02*
X014620Y013783D01*
X014620Y013705D02*
X014360Y013705D01*
X015151Y012797D02*
X015624Y012324D01*
X016642Y012392D02*
X016698Y012392D01*
X013574Y015483D02*
X013269Y015483D01*
X013346Y015560D02*
X013497Y015560D01*
X013460Y015638D02*
X013384Y015638D01*
X013416Y015715D02*
X013428Y015715D01*
X011574Y015483D02*
X011269Y015483D01*
X011346Y015560D02*
X011497Y015560D01*
X011460Y015638D02*
X011384Y015638D01*
X011416Y015715D02*
X011428Y015715D01*
X009680Y015406D02*
X009164Y015406D01*
X009158Y015328D02*
X009686Y015328D01*
X009686Y015251D02*
X009158Y015251D01*
X009158Y015174D02*
X009686Y015174D01*
X009686Y015097D02*
X009158Y015097D01*
X009158Y015019D02*
X009686Y015019D01*
X009686Y014942D02*
X009158Y014942D01*
X009158Y014865D02*
X009686Y014865D01*
X009574Y015483D02*
X009269Y015483D01*
X009346Y015560D02*
X009497Y015560D01*
X009460Y015638D02*
X009384Y015638D01*
X009416Y015715D02*
X009428Y015715D01*
X009402Y018033D02*
X009441Y018033D01*
X009473Y018111D02*
X009370Y018111D01*
X009313Y018188D02*
X009530Y018188D01*
X009608Y018265D02*
X009236Y018265D01*
X009084Y018342D02*
X009760Y018342D01*
X010084Y018342D02*
X010760Y018342D01*
X010608Y018265D02*
X010236Y018265D01*
X010313Y018188D02*
X010530Y018188D01*
X010473Y018111D02*
X010370Y018111D01*
X010402Y018033D02*
X010441Y018033D01*
X011084Y018342D02*
X011760Y018342D01*
X011608Y018265D02*
X011236Y018265D01*
X011313Y018188D02*
X011530Y018188D01*
X011473Y018111D02*
X011370Y018111D01*
X011402Y018033D02*
X011441Y018033D01*
X012084Y018342D02*
X012760Y018342D01*
X012608Y018265D02*
X012236Y018265D01*
X012313Y018188D02*
X012530Y018188D01*
X012473Y018111D02*
X012370Y018111D01*
X012402Y018033D02*
X012441Y018033D01*
X013084Y018342D02*
X013760Y018342D01*
X013608Y018265D02*
X013236Y018265D01*
X013313Y018188D02*
X013530Y018188D01*
X013473Y018111D02*
X013370Y018111D01*
X013402Y018033D02*
X013441Y018033D01*
X014084Y018342D02*
X014760Y018342D01*
X014608Y018265D02*
X014236Y018265D01*
X014313Y018188D02*
X014530Y018188D01*
X014473Y018111D02*
X014370Y018111D01*
X014402Y018033D02*
X014441Y018033D01*
X015084Y018342D02*
X019570Y018342D01*
X019570Y018265D02*
X015236Y018265D01*
X015313Y018188D02*
X019570Y018188D01*
X019570Y018111D02*
X015370Y018111D01*
X015402Y018033D02*
X019570Y018033D01*
X019570Y018420D02*
X002032Y018420D01*
X002032Y018497D02*
X019570Y018497D01*
X008760Y018342D02*
X008084Y018342D01*
X008236Y018265D02*
X008608Y018265D01*
X008530Y018188D02*
X008313Y018188D01*
X008370Y018111D02*
X008473Y018111D01*
X008441Y018033D02*
X008402Y018033D01*
X007760Y018342D02*
X002032Y018342D01*
X002032Y018265D02*
X007608Y018265D01*
X007530Y018188D02*
X002032Y018188D01*
X002032Y018111D02*
X007473Y018111D01*
X007441Y018033D02*
X002032Y018033D01*
X007366Y013319D02*
X007671Y013319D01*
X007612Y013396D02*
X007443Y013396D01*
X007612Y010120D02*
X007671Y010120D01*
X007691Y010120D01*
X007140Y009332D02*
X007297Y009175D01*
X007671Y009175D01*
X007612Y009175D01*
X007336Y008991D02*
X005061Y008991D01*
X005061Y008914D02*
X007336Y008914D01*
X007336Y008837D02*
X005035Y008837D01*
X005003Y008759D02*
X007336Y008759D01*
X007336Y008682D02*
X004955Y008682D01*
X004878Y008605D02*
X007336Y008605D01*
X007336Y008527D02*
X004787Y008527D01*
X004801Y008450D02*
X007343Y008450D01*
X006986Y009068D02*
X005061Y009068D01*
X005043Y009146D02*
X006908Y009146D01*
X006844Y009223D02*
X005011Y009223D01*
X004973Y009300D02*
X005888Y009300D01*
X005810Y009378D02*
X004896Y009378D01*
X004789Y009455D02*
X005742Y009455D01*
X005742Y009532D02*
X004787Y009532D01*
X004882Y009609D02*
X005742Y009609D01*
X005742Y009687D02*
X004959Y009687D01*
X006187Y009300D02*
X006844Y009300D01*
X006844Y009378D02*
X006264Y009378D01*
X002060Y006054D02*
X002032Y006054D01*
X013761Y007523D02*
X013843Y007523D01*
X013811Y007446D02*
X013793Y007446D01*
D23*
X013911Y008702D03*
X013911Y009332D03*
X013911Y009962D03*
X013045Y009962D03*
X013045Y009332D03*
X013045Y008702D03*
X012100Y008702D03*
X012100Y009962D03*
X012809Y011222D03*
X011785Y011852D03*
X012021Y013348D03*
X010919Y013348D03*
X009580Y013348D03*
X008478Y013348D03*
X007061Y013348D03*
X007691Y010120D03*
X007691Y009647D03*
X010210Y007049D03*
X014856Y008702D03*
X014856Y009962D03*
X015329Y011222D03*
X014069Y011222D03*
X014384Y013348D03*
X013281Y013348D03*
X015958Y013348D03*
D24*
X015663Y013643D01*
X014935Y013643D01*
X014384Y013348D02*
X014088Y013643D01*
X013990Y013643D01*
X013281Y013348D02*
X012986Y013643D01*
X012966Y013643D01*
X012021Y013348D02*
X011943Y013427D01*
X011943Y013643D01*
X010998Y013643D02*
X010998Y013506D01*
X010919Y013348D01*
X009974Y013643D02*
X009876Y013643D01*
X009580Y013348D01*
X008951Y013643D02*
X008773Y013643D01*
X008478Y013348D01*
X007927Y013643D02*
X007356Y013643D01*
X007061Y013348D01*
X007927Y014293D02*
X007922Y014298D01*
X007922Y015860D01*
X008922Y015860D02*
X008922Y014322D01*
X008951Y014293D01*
X008951Y014313D01*
X009922Y014345D02*
X009974Y014293D01*
X009974Y014313D01*
X009922Y014345D02*
X009922Y015860D01*
X010922Y015860D02*
X010922Y014369D01*
X010998Y014293D01*
X010998Y014313D01*
X011922Y014314D02*
X011943Y014293D01*
X011943Y014313D01*
X011922Y014314D02*
X011922Y015860D01*
X012922Y015860D02*
X012922Y014337D01*
X012966Y014293D01*
X012966Y014313D01*
X013922Y014361D02*
X013990Y014293D01*
X013990Y014313D01*
X013922Y014361D02*
X013922Y015860D01*
X014922Y015860D02*
X014922Y014306D01*
X014935Y014293D01*
X014935Y014313D01*
X013911Y010671D02*
X013891Y010572D01*
X013006Y010572D01*
X012100Y009962D02*
X011785Y009962D01*
X011549Y009726D01*
X011549Y008046D01*
X012302Y007293D01*
X012302Y005297D01*
X013302Y005297D02*
X013302Y007285D01*
X013281Y007285D01*
X013302Y007285D02*
X013302Y007293D01*
X012100Y008495D01*
X012100Y008702D01*
X013045Y009332D02*
X013911Y009332D01*
X014856Y008702D02*
X014856Y007847D01*
X014302Y007293D01*
X014302Y007285D01*
X014305Y007285D01*
X014302Y007285D02*
X014302Y005297D01*
X015302Y005297D02*
X015302Y007285D01*
X015250Y007285D01*
X015302Y007285D02*
X015302Y007293D01*
X015373Y007364D01*
X015958Y007364D01*
X016352Y007757D01*
X016352Y008702D01*
X015092Y009962D01*
X014856Y009962D01*
X013990Y008151D02*
X013951Y008112D01*
X013911Y007915D01*
X013951Y008092D02*
X013951Y008112D01*
X015302Y007293D02*
X015407Y007398D01*
X012302Y007364D02*
X012302Y007293D01*
X012302Y007364D02*
X012258Y007364D01*
X007927Y014293D02*
X007927Y014313D01*
D25*
X006903Y015080D03*
X010132Y013033D03*
X009423Y012561D03*
X009895Y011380D03*
X010919Y009962D03*
X010368Y009726D03*
X010289Y007994D03*
X010840Y007600D03*
X011313Y006261D03*
X013911Y007915D03*
X015958Y008545D03*
X013911Y010671D03*
X016352Y012797D03*
X007140Y009332D03*
X006431Y009883D03*
X006037Y010198D03*
X006431Y010513D03*
X006037Y009569D03*
D26*
X017376Y013348D03*
D27*
X004777Y013899D03*
X004699Y013269D03*
M02*
