G75*
G70*
%OFA0B0*%
%FSLAX24Y24*%
%IPPOS*%
%LPD*%
%AMOC8*
5,1,8,0,0,1.08239X$1,22.5*
%
%ADD10C,0.0100*%
%ADD11C,0.0000*%
D10*
X001864Y003033D02*
X001864Y018702D01*
X019738Y018702D01*
X019738Y003033D01*
X001864Y003033D01*
D11*
X004462Y005474D02*
X004465Y005531D01*
X004472Y005588D01*
X004485Y005644D01*
X004503Y005698D01*
X004526Y005751D01*
X004554Y005801D01*
X004586Y005849D01*
X004622Y005893D01*
X004662Y005934D01*
X004706Y005972D01*
X004752Y006005D01*
X004802Y006033D01*
X004854Y006057D01*
X004908Y006077D01*
X004964Y006091D01*
X005020Y006100D01*
X005078Y006104D01*
X005135Y006103D01*
X005192Y006096D01*
X005248Y006084D01*
X005303Y006068D01*
X005356Y006046D01*
X005407Y006020D01*
X005455Y005989D01*
X005501Y005954D01*
X005543Y005914D01*
X005581Y005872D01*
X005615Y005825D01*
X005645Y005776D01*
X005670Y005725D01*
X005690Y005671D01*
X005706Y005616D01*
X005716Y005560D01*
X005721Y005503D01*
X005721Y005445D01*
X005716Y005388D01*
X005706Y005332D01*
X005690Y005277D01*
X005670Y005223D01*
X005645Y005172D01*
X005615Y005123D01*
X005581Y005076D01*
X005543Y005034D01*
X005501Y004994D01*
X005455Y004959D01*
X005407Y004928D01*
X005356Y004902D01*
X005303Y004880D01*
X005248Y004864D01*
X005192Y004852D01*
X005135Y004845D01*
X005078Y004844D01*
X005020Y004848D01*
X004964Y004857D01*
X004908Y004871D01*
X004854Y004891D01*
X004802Y004915D01*
X004752Y004943D01*
X004706Y004976D01*
X004662Y005014D01*
X004622Y005055D01*
X004586Y005099D01*
X004554Y005147D01*
X004526Y005197D01*
X004503Y005250D01*
X004485Y005304D01*
X004472Y005360D01*
X004465Y005417D01*
X004462Y005474D01*
X006394Y003957D02*
X006397Y004015D01*
X006405Y004073D01*
X006418Y004130D01*
X006436Y004185D01*
X006459Y004238D01*
X006487Y004290D01*
X006520Y004338D01*
X006556Y004383D01*
X006597Y004425D01*
X006642Y004463D01*
X006689Y004496D01*
X006740Y004525D01*
X006792Y004550D01*
X006847Y004569D01*
X006904Y004584D01*
X006961Y004593D01*
X007019Y004597D01*
X007078Y004596D01*
X007136Y004589D01*
X007193Y004577D01*
X007248Y004560D01*
X007302Y004538D01*
X007354Y004511D01*
X007403Y004480D01*
X007449Y004444D01*
X007492Y004404D01*
X007530Y004361D01*
X007565Y004314D01*
X007595Y004264D01*
X007621Y004212D01*
X007642Y004158D01*
X007657Y004101D01*
X007668Y004044D01*
X007673Y003986D01*
X007673Y003928D01*
X007668Y003870D01*
X007657Y003813D01*
X007642Y003756D01*
X007621Y003702D01*
X007595Y003650D01*
X007565Y003600D01*
X007530Y003553D01*
X007492Y003510D01*
X007449Y003470D01*
X007403Y003434D01*
X007354Y003403D01*
X007302Y003376D01*
X007248Y003354D01*
X007193Y003337D01*
X007136Y003325D01*
X007078Y003318D01*
X007019Y003317D01*
X006961Y003321D01*
X006904Y003330D01*
X006847Y003345D01*
X006792Y003364D01*
X006740Y003389D01*
X006689Y003418D01*
X006642Y003451D01*
X006597Y003489D01*
X006556Y003531D01*
X006520Y003576D01*
X006487Y003624D01*
X006459Y003676D01*
X006436Y003729D01*
X006418Y003784D01*
X006405Y003841D01*
X006397Y003899D01*
X006394Y003957D01*
X009394Y003957D02*
X009397Y004015D01*
X009405Y004073D01*
X009418Y004130D01*
X009436Y004185D01*
X009459Y004238D01*
X009487Y004290D01*
X009520Y004338D01*
X009556Y004383D01*
X009597Y004425D01*
X009642Y004463D01*
X009689Y004496D01*
X009740Y004525D01*
X009792Y004550D01*
X009847Y004569D01*
X009904Y004584D01*
X009961Y004593D01*
X010019Y004597D01*
X010078Y004596D01*
X010136Y004589D01*
X010193Y004577D01*
X010248Y004560D01*
X010302Y004538D01*
X010354Y004511D01*
X010403Y004480D01*
X010449Y004444D01*
X010492Y004404D01*
X010530Y004361D01*
X010565Y004314D01*
X010595Y004264D01*
X010621Y004212D01*
X010642Y004158D01*
X010657Y004101D01*
X010668Y004044D01*
X010673Y003986D01*
X010673Y003928D01*
X010668Y003870D01*
X010657Y003813D01*
X010642Y003756D01*
X010621Y003702D01*
X010595Y003650D01*
X010565Y003600D01*
X010530Y003553D01*
X010492Y003510D01*
X010449Y003470D01*
X010403Y003434D01*
X010354Y003403D01*
X010302Y003376D01*
X010248Y003354D01*
X010193Y003337D01*
X010136Y003325D01*
X010078Y003318D01*
X010019Y003317D01*
X009961Y003321D01*
X009904Y003330D01*
X009847Y003345D01*
X009792Y003364D01*
X009740Y003389D01*
X009689Y003418D01*
X009642Y003451D01*
X009597Y003489D01*
X009556Y003531D01*
X009520Y003576D01*
X009487Y003624D01*
X009459Y003676D01*
X009436Y003729D01*
X009418Y003784D01*
X009405Y003841D01*
X009397Y003899D01*
X009394Y003957D01*
X016273Y005474D02*
X016276Y005531D01*
X016283Y005588D01*
X016296Y005644D01*
X016314Y005698D01*
X016337Y005751D01*
X016365Y005801D01*
X016397Y005849D01*
X016433Y005893D01*
X016473Y005934D01*
X016517Y005972D01*
X016563Y006005D01*
X016613Y006033D01*
X016665Y006057D01*
X016719Y006077D01*
X016775Y006091D01*
X016831Y006100D01*
X016889Y006104D01*
X016946Y006103D01*
X017003Y006096D01*
X017059Y006084D01*
X017114Y006068D01*
X017167Y006046D01*
X017218Y006020D01*
X017266Y005989D01*
X017312Y005954D01*
X017354Y005914D01*
X017392Y005872D01*
X017426Y005825D01*
X017456Y005776D01*
X017481Y005725D01*
X017501Y005671D01*
X017517Y005616D01*
X017527Y005560D01*
X017532Y005503D01*
X017532Y005445D01*
X017527Y005388D01*
X017517Y005332D01*
X017501Y005277D01*
X017481Y005223D01*
X017456Y005172D01*
X017426Y005123D01*
X017392Y005076D01*
X017354Y005034D01*
X017312Y004994D01*
X017266Y004959D01*
X017218Y004928D01*
X017167Y004902D01*
X017114Y004880D01*
X017059Y004864D01*
X017003Y004852D01*
X016946Y004845D01*
X016889Y004844D01*
X016831Y004848D01*
X016775Y004857D01*
X016719Y004871D01*
X016665Y004891D01*
X016613Y004915D01*
X016563Y004943D01*
X016517Y004976D01*
X016473Y005014D01*
X016433Y005055D01*
X016397Y005099D01*
X016365Y005147D01*
X016337Y005197D01*
X016314Y005250D01*
X016296Y005304D01*
X016283Y005360D01*
X016276Y005417D01*
X016273Y005474D01*
X016273Y017285D02*
X016276Y017342D01*
X016283Y017399D01*
X016296Y017455D01*
X016314Y017509D01*
X016337Y017562D01*
X016365Y017612D01*
X016397Y017660D01*
X016433Y017704D01*
X016473Y017745D01*
X016517Y017783D01*
X016563Y017816D01*
X016613Y017844D01*
X016665Y017868D01*
X016719Y017888D01*
X016775Y017902D01*
X016831Y017911D01*
X016889Y017915D01*
X016946Y017914D01*
X017003Y017907D01*
X017059Y017895D01*
X017114Y017879D01*
X017167Y017857D01*
X017218Y017831D01*
X017266Y017800D01*
X017312Y017765D01*
X017354Y017725D01*
X017392Y017683D01*
X017426Y017636D01*
X017456Y017587D01*
X017481Y017536D01*
X017501Y017482D01*
X017517Y017427D01*
X017527Y017371D01*
X017532Y017314D01*
X017532Y017256D01*
X017527Y017199D01*
X017517Y017143D01*
X017501Y017088D01*
X017481Y017034D01*
X017456Y016983D01*
X017426Y016934D01*
X017392Y016887D01*
X017354Y016845D01*
X017312Y016805D01*
X017266Y016770D01*
X017218Y016739D01*
X017167Y016713D01*
X017114Y016691D01*
X017059Y016675D01*
X017003Y016663D01*
X016946Y016656D01*
X016889Y016655D01*
X016831Y016659D01*
X016775Y016668D01*
X016719Y016682D01*
X016665Y016702D01*
X016613Y016726D01*
X016563Y016754D01*
X016517Y016787D01*
X016473Y016825D01*
X016433Y016866D01*
X016397Y016910D01*
X016365Y016958D01*
X016337Y017008D01*
X016314Y017061D01*
X016296Y017115D01*
X016283Y017171D01*
X016276Y017228D01*
X016273Y017285D01*
X004462Y017285D02*
X004465Y017342D01*
X004472Y017399D01*
X004485Y017455D01*
X004503Y017509D01*
X004526Y017562D01*
X004554Y017612D01*
X004586Y017660D01*
X004622Y017704D01*
X004662Y017745D01*
X004706Y017783D01*
X004752Y017816D01*
X004802Y017844D01*
X004854Y017868D01*
X004908Y017888D01*
X004964Y017902D01*
X005020Y017911D01*
X005078Y017915D01*
X005135Y017914D01*
X005192Y017907D01*
X005248Y017895D01*
X005303Y017879D01*
X005356Y017857D01*
X005407Y017831D01*
X005455Y017800D01*
X005501Y017765D01*
X005543Y017725D01*
X005581Y017683D01*
X005615Y017636D01*
X005645Y017587D01*
X005670Y017536D01*
X005690Y017482D01*
X005706Y017427D01*
X005716Y017371D01*
X005721Y017314D01*
X005721Y017256D01*
X005716Y017199D01*
X005706Y017143D01*
X005690Y017088D01*
X005670Y017034D01*
X005645Y016983D01*
X005615Y016934D01*
X005581Y016887D01*
X005543Y016845D01*
X005501Y016805D01*
X005455Y016770D01*
X005407Y016739D01*
X005356Y016713D01*
X005303Y016691D01*
X005248Y016675D01*
X005192Y016663D01*
X005135Y016656D01*
X005078Y016655D01*
X005020Y016659D01*
X004964Y016668D01*
X004908Y016682D01*
X004854Y016702D01*
X004802Y016726D01*
X004752Y016754D01*
X004706Y016787D01*
X004662Y016825D01*
X004622Y016866D01*
X004586Y016910D01*
X004554Y016958D01*
X004526Y017008D01*
X004503Y017061D01*
X004485Y017115D01*
X004472Y017171D01*
X004465Y017228D01*
X004462Y017285D01*
M02*
