%
M48
M72
T01C0.0197
T02C0.0236
T03C0.0280
T04C0.0320
T05C0.0350
T06C0.0400
T07C0.0433
T08C0.0591
%
T01
X10289Y6424
X11872Y6337
X12250Y7385
X11762Y7983
X11762Y8747
X12053Y9077
X12494Y9077
X12423Y9873
X12297Y10314
X11132Y9873
X9447Y11030
X6226Y12416
X10368Y13881
X10958Y13881
X11549Y13881
X14108Y13881
X14699Y13881
X15289Y13881
X17699Y13211
X19454Y11566
X19565Y11022
X19021Y10707
X20486Y9928
X20053Y8959
X20376Y8660
X21116Y8936
X23014Y8959
X23384Y8660
X23982Y8975
X24470Y8361
X27620Y8369
X28045Y7266
X28754Y5455
X28183Y4904
X29876Y4196
X31214Y4176
X29088Y3329
X25584Y5022
X23222Y4885
X19903Y5684
X19423Y5278
X19029Y5751
X18195Y6597
X19533Y6999
X20958Y7794
X19132Y8463
X17132Y8763
X14502Y8959
X14092Y9818
X14801Y10999
X9746Y8534
X7329Y9274
X5927Y9416
X6210Y7377
X7376Y7030
X21958Y13747
X22344Y12251
X23171Y12211
X23281Y11613
X23722Y11613
X25116Y12164
X24880Y13747
X25266Y13983
X25864Y13731
X28793Y13054
X29305Y13054
X29777Y13054
X32100Y13093
X32612Y13093
X33124Y13093
X30462Y11211
X27510Y10251
X30671Y9329
X32073Y8928
X34065Y7739
X35171Y7936
X36667Y8743
X37966Y9255
X39372Y8400
X39427Y7794
X37376Y7365
X37671Y5534
X32080Y6853
X32073Y7574
X34443Y8979
X34415Y10794
X31726Y5385
X23014Y10314
X17533Y15534
X15092Y17916
X14502Y17916
X14502Y18507
X15092Y18507
X15092Y19097
X14502Y19097
X13911Y19097
X13321Y19097
X13321Y18507
X13911Y18507
X13911Y17916
X13321Y17916
X11864Y16696
X9974Y17818
X9384Y17818
X8793Y17818
X8203Y17818
X8203Y18408
X8793Y18408
X9384Y18408
X9974Y18408
X9974Y18999
X9384Y18999
X8793Y18999
X8203Y18999
X6057Y16341
X27140Y17700
X27848Y17700
X28478Y17700
X29029Y17700
X29029Y18487
X28478Y18487
X27848Y18487
X27140Y18487
X27140Y19196
X27848Y19196
X28478Y19196
X29029Y19196
X32100Y19196
X32730Y19196
X33360Y19196
X33911Y19196
X33911Y18487
X33360Y18487
X32730Y18487
X32100Y18487
X32100Y17778
X32730Y17778
X33360Y17778
X33911Y17778
T02
X7494Y2778
X7494Y4353
X8203Y4353
X8911Y4353
X9029Y6046
X6982Y8471
X18305Y13644
X20289Y18093
X20683Y18093
X21077Y18093
X22258Y7227
X20821Y5593
X20703Y3684
X21175Y3684
X21647Y3684
X22120Y3684
X29108Y4156
X30447Y4156
X36608Y4176
X37317Y4176
X38025Y4176
X37317Y4885
T03
X18592Y12121
X17892Y12121
T04
X21496Y10387
X22496Y10387
T05
X16840Y7914
X15840Y7914
X15340Y8914
X16340Y8914
T06
X24547Y9390
X25547Y9390
X26547Y9390
X27547Y9390
T07
X27391Y5763
X26391Y5763
X25391Y5763
X24391Y5763
X24391Y3766
X25391Y3766
X26391Y3766
X27391Y3766
X33738Y3788
X34738Y3788
X34738Y5784
X33738Y5784
X12488Y5784
X11488Y5784
X11488Y3788
X12488Y3788
T08
X13045Y16637
X10092Y16637
X19226Y16637
X22179Y16637
X29777Y16637
X32730Y16637
M30
