%
M48
M72
T01C0.0236
T02C0.0315
T03C0.0320
T04C0.0350
T05C0.0394
T06C0.0400
T07C0.0512
T08C0.0520
T09C0.0591
%
T01
X16675Y11344
X17699Y11029
X16124Y12131
X15415Y12131
X14628Y12918
X17069Y12289
X20534Y11029
X20534Y9454
X17699Y9454
X26045Y13706
X29274Y16147
X29746Y16383
X30927Y16147
X32266Y16619
X32896Y16383
X32896Y17013
X33683Y16855
X34234Y16855
X33604Y16068
X35573Y16147
X36439Y16934
X36045Y17249
X36833Y17249
X37935Y17328
X37935Y17958
X37935Y18588
X38959Y19218
X39510Y19139
X39510Y19926
X39510Y20556
X39589Y21107
X38801Y21265
X37856Y21737
X36754Y20792
X36675Y23627
X36675Y24178
X38959Y24414
X38959Y23627
X31872Y21344
X31636Y20556
X31636Y20005
X30297Y18194
X28644Y18115
X26833Y18194
X26439Y18194
X25258Y18115
X24392Y18430
X24392Y18981
X23289Y19060
X23211Y17249
X23998Y16777
X25258Y16383
X26282Y16383
X27305Y16383
X28250Y16383
X32030Y14257
X30534Y13548
X29667Y13391
X31478Y12446
X31951Y12682
X33368Y12603
X34943Y11816
X35337Y11344
X34156Y11344
X35337Y13312
X34156Y14336
X37935Y16698
X38565Y15911
X35179Y17958
X28723Y20163
X26282Y20005
X31085Y23312
X27699Y23863
X27699Y24493
X24549Y24493
X24549Y23863
X16282Y19296
X15809Y19296
X15337Y19296
X15337Y18824
X15809Y18824
X16282Y18824
X19982Y17328
X6833Y19454
X6833Y19848
X6439Y19848
X6439Y19454
X6439Y20241
X6833Y20241
X30140Y5989
X38723Y6226
X38565Y12052
T02
X39864Y10753
X39864Y9966
X39864Y9178
X39864Y8391
X39864Y7603
X39864Y6816
X39864Y6029
X39864Y5241
X39864Y4454
X39864Y3666
X31203Y3666
X31203Y4454
X31203Y5241
X31203Y6029
X31203Y6816
X31203Y7603
X31203Y8391
X31203Y9178
X31203Y9966
X31203Y10753
T03
X36986Y12442
X36986Y13442
X36986Y14442
X36986Y15442
X39986Y15442
X39986Y14442
X39986Y13442
X39986Y12442
X34636Y20629
X35343Y21336
T04
X28911Y7452
X27911Y7452
X27411Y6452
X28411Y6452
X23411Y7452
X22411Y7452
X21911Y6452
X22911Y6452
X17911Y7452
X16911Y7452
X16411Y6452
X17411Y6452
X12411Y7452
X11411Y7452
X10911Y6452
X11911Y6452
T05
X37632Y23899
X40112Y23899
X38813Y25867
T06
X7234Y4726
X7234Y5726
X7234Y6726
X7234Y7726
X7234Y8726
X7234Y9726
X7234Y10726
T07
X16833Y17407
X21636Y17407
X22423Y19769
X21636Y22131
X16833Y22131
T08
X24293Y21344
X33153Y21344
T09
X32522Y24021
X35474Y24021
X28998Y24021
X26045Y24021
X23093Y24021
X19569Y24021
X16616Y24021
X13112Y24021
X10160Y24021
X6656Y24021
X3703Y24021
X4077Y17544
X4077Y14592
X4077Y11088
X4077Y8135
M30
