%
M48
M72
T01C0.0197
T02C0.0236
T03C0.0280
T04C0.0320
T05C0.0350
T06C0.0400
T07C0.0433
T08C0.0591
%
T01
X11912Y6186
X10329Y6273
X12290Y7233
X11802Y7832
X11802Y8596
X12093Y8926
X12534Y8926
X12463Y9722
X12337Y10163
X11172Y9722
X9487Y10879
X7369Y9123
X5967Y9265
X6251Y7226
X7416Y6879
X9786Y8383
X14133Y9666
X14542Y8808
X17172Y8611
X19172Y8312
X20093Y8808
X20416Y8509
X21156Y8785
X20526Y9777
X19062Y10556
X19605Y10871
X19495Y11414
X17739Y13060
X15329Y13729
X14739Y13729
X14148Y13729
X11589Y13729
X10999Y13729
X10408Y13729
X14841Y10848
X20999Y7643
X19574Y6848
X18235Y6446
X19070Y5600
X19463Y5127
X19944Y5533
X24511Y8210
X24022Y8824
X23424Y8509
X23054Y8808
X23054Y10163
X23322Y11462
X23763Y11462
X23211Y12060
X22385Y12100
X25156Y12013
X24920Y13596
X25306Y13832
X25904Y13580
X28833Y12903
X29345Y12903
X29818Y12903
X32140Y12942
X32652Y12942
X33164Y12942
X30503Y11060
X27550Y10100
X30711Y9178
X32113Y8777
X34105Y7588
X35211Y7785
X34483Y8828
X36707Y8592
X38007Y9103
X39412Y8249
X39467Y7643
X37416Y7214
X37711Y5383
X32121Y6702
X32113Y7422
X28085Y7115
X27660Y8218
X31766Y5233
X34455Y10643
X21999Y13596
X27180Y17548
X27889Y17548
X28518Y17548
X29070Y17548
X29070Y18336
X28518Y18336
X27889Y18336
X27180Y18336
X27180Y19044
X27889Y19044
X28518Y19044
X29070Y19044
X32140Y19044
X32770Y19044
X33400Y19044
X33951Y19044
X33951Y18336
X33400Y18336
X32770Y18336
X32140Y18336
X32140Y17627
X32770Y17627
X33400Y17627
X33951Y17627
X15133Y17765
X14542Y17765
X13951Y17765
X13361Y17765
X13361Y18355
X13951Y18355
X14542Y18355
X15133Y18355
X15133Y18946
X14542Y18946
X13951Y18946
X13361Y18946
X10014Y18848
X9424Y18848
X8833Y18848
X8243Y18848
X8243Y18257
X8833Y18257
X9424Y18257
X10014Y18257
X10014Y17666
X9424Y17666
X8833Y17666
X8243Y17666
X11833Y16887
T02
X7534Y2627
X7534Y4202
X8243Y4202
X8951Y4202
X9070Y5895
X7022Y8320
X18345Y13493
X17160Y16757
X20329Y17942
X20723Y17942
X21117Y17942
X22298Y7076
X20861Y5442
X20743Y3533
X21215Y3533
X21688Y3533
X22160Y3533
X29148Y4005
X29936Y4005
X30487Y4005
X31274Y4005
X36648Y4025
X37357Y4025
X38066Y4025
X37357Y4733
T03
X18632Y11970
X17932Y11970
T04
X21536Y10235
X22536Y10235
T05
X16881Y7763
X15881Y7763
X16381Y8763
X15381Y8763
T06
X24587Y9239
X25587Y9239
X26587Y9239
X27587Y9239
T07
X27432Y5611
X26432Y5611
X25432Y5611
X24432Y5611
X24432Y3615
X25432Y3615
X26432Y3615
X27432Y3615
X33778Y3637
X34778Y3637
X34778Y5633
X33778Y5633
X12528Y5633
X11528Y5633
X11528Y3637
X12528Y3637
T08
X13085Y16485
X10133Y16485
X19266Y16485
X22219Y16485
X29818Y16485
X32770Y16485
M30
