G75*
G70*
%OFA0B0*%
%FSLAX24Y24*%
%IPPOS*%
%LPD*%
%AMOC8*
5,1,8,0,0,1.08239X$1,22.5*
%
%ADD10C,0.0000*%
D10*
X000152Y002307D02*
X017475Y002307D01*
X017475Y021402D01*
X000152Y021402D01*
X000152Y002307D01*
X000949Y003872D02*
X000987Y004087D01*
X001096Y004277D01*
X001264Y004418D01*
X001470Y004492D01*
X001688Y004492D01*
X001894Y004418D01*
X002062Y004277D01*
X002171Y004087D01*
X002209Y003872D01*
X002171Y003657D01*
X002062Y003467D01*
X001894Y003326D01*
X001688Y003252D01*
X001470Y003252D01*
X001264Y003326D01*
X001096Y003467D01*
X000987Y003657D01*
X000949Y003872D01*
X009821Y003951D02*
X009860Y004170D01*
X009971Y004362D01*
X010141Y004505D01*
X010350Y004581D01*
X010572Y004581D01*
X010781Y004505D01*
X010951Y004362D01*
X011062Y004170D01*
X011101Y003951D01*
X011062Y003732D01*
X010951Y003540D01*
X010781Y003397D01*
X010572Y003321D01*
X010350Y003321D01*
X010141Y003397D01*
X009971Y003540D01*
X009860Y003732D01*
X009821Y003951D01*
X012821Y003951D02*
X012860Y004170D01*
X012971Y004362D01*
X013141Y004505D01*
X013350Y004581D01*
X013572Y004581D01*
X013781Y004505D01*
X013951Y004362D01*
X014062Y004170D01*
X014101Y003951D01*
X014062Y003732D01*
X013951Y003540D01*
X013781Y003397D01*
X013572Y003321D01*
X013350Y003321D01*
X013141Y003397D01*
X012971Y003540D01*
X012860Y003732D01*
X012821Y003951D01*
X015457Y003872D02*
X015495Y004087D01*
X015604Y004277D01*
X015772Y004418D01*
X015978Y004492D01*
X016196Y004492D01*
X016402Y004418D01*
X016570Y004277D01*
X016679Y004087D01*
X016717Y003872D01*
X016679Y003657D01*
X016570Y003467D01*
X016402Y003326D01*
X016196Y003252D01*
X015978Y003252D01*
X015772Y003326D01*
X015604Y003467D01*
X015495Y003657D01*
X015457Y003872D01*
X015467Y020034D02*
X015505Y020249D01*
X015614Y020439D01*
X015782Y020580D01*
X015988Y020654D01*
X016206Y020654D01*
X016412Y020580D01*
X016580Y020439D01*
X016689Y020249D01*
X016727Y020034D01*
X016689Y019819D01*
X016580Y019629D01*
X016412Y019488D01*
X016206Y019414D01*
X015988Y019414D01*
X015782Y019488D01*
X015614Y019629D01*
X015505Y019819D01*
X015467Y020034D01*
X000949Y020034D02*
X000987Y020249D01*
X001096Y020439D01*
X001264Y020580D01*
X001470Y020654D01*
X001688Y020654D01*
X001894Y020580D01*
X002062Y020439D01*
X002171Y020249D01*
X002209Y020034D01*
X002171Y019819D01*
X002062Y019629D01*
X001894Y019488D01*
X001688Y019414D01*
X001470Y019414D01*
X001264Y019488D01*
X001096Y019629D01*
X000987Y019819D01*
X000949Y020034D01*
M02*
