G75*
G70*
%OFA0B0*%
%FSLAX24Y24*%
%IPPOS*%
%LPD*%
%AMOC8*
5,1,8,0,0,1.08239X$1,22.5*
%
%ADD10C,0.0110*%
%ADD11C,0.0550*%
%ADD12C,0.0600*%
%ADD13C,0.0500*%
%ADD14C,0.0886*%
%ADD15C,0.0100*%
%ADD16C,0.0118*%
%ADD17C,0.0079*%
%ADD18C,0.0396*%
%ADD19R,0.0396X0.0396*%
D10*
X001094Y006822D02*
X001094Y007117D01*
X001193Y007216D01*
X001291Y007117D01*
X001291Y006920D01*
X001389Y006822D01*
X001488Y006920D01*
X001488Y007216D01*
X001488Y007466D02*
X001488Y007663D01*
X001586Y007565D02*
X001193Y007565D01*
X001094Y007663D01*
X001193Y007896D02*
X001094Y007994D01*
X001094Y008290D01*
X001488Y008290D01*
X001389Y008541D02*
X001488Y008639D01*
X001488Y008934D01*
X001685Y008934D02*
X001094Y008934D01*
X001094Y008639D01*
X001193Y008541D01*
X001389Y008541D01*
X001389Y009185D02*
X001193Y009185D01*
X001094Y009284D01*
X001094Y009480D01*
X001291Y009579D02*
X001291Y009185D01*
X001389Y009185D02*
X001488Y009284D01*
X001488Y009480D01*
X001389Y009579D01*
X001291Y009579D01*
X001488Y009830D02*
X001488Y010125D01*
X001389Y010223D01*
X001094Y010223D01*
X001193Y010573D02*
X001094Y010671D01*
X001193Y010573D02*
X001586Y010573D01*
X001488Y010671D02*
X001488Y010474D01*
X001488Y010904D02*
X001094Y010904D01*
X001291Y010904D02*
X001488Y011101D01*
X001488Y011199D01*
X001389Y011441D02*
X001193Y011441D01*
X001094Y011539D01*
X001094Y011736D01*
X001193Y011835D01*
X001389Y011835D01*
X001488Y011736D01*
X001488Y011539D01*
X001389Y011441D01*
X001488Y012085D02*
X001488Y012381D01*
X001389Y012479D01*
X001193Y012479D01*
X001094Y012381D01*
X001094Y012085D01*
X001685Y012085D01*
X001389Y012730D02*
X001193Y012730D01*
X001094Y012828D01*
X001094Y013025D01*
X001193Y013124D01*
X001389Y013124D01*
X001488Y013025D01*
X001488Y012828D01*
X001389Y012730D01*
X001488Y013375D02*
X001488Y013571D01*
X001586Y013473D02*
X001193Y013473D01*
X001094Y013571D01*
X001094Y013804D02*
X001094Y014001D01*
X001094Y013903D02*
X001488Y013903D01*
X001488Y013804D01*
X001685Y013903D02*
X001783Y013903D01*
X001389Y014234D02*
X001488Y014332D01*
X001488Y014628D01*
X001389Y014878D02*
X001488Y014977D01*
X001488Y015272D01*
X001291Y015174D02*
X001291Y014977D01*
X001389Y014878D01*
X001094Y014878D02*
X001094Y015174D01*
X001193Y015272D01*
X001291Y015174D01*
X001193Y015523D02*
X001193Y015621D01*
X001094Y015621D01*
X001094Y015523D01*
X001193Y015523D01*
X001193Y015845D02*
X001094Y015944D01*
X001094Y016140D01*
X001193Y016239D01*
X001389Y016239D01*
X001488Y016140D01*
X001488Y015944D01*
X001389Y015845D01*
X001193Y015845D01*
X001291Y016490D02*
X001488Y016687D01*
X001488Y016785D01*
X001389Y017027D02*
X001193Y017027D01*
X001094Y017125D01*
X001094Y017420D01*
X000996Y017420D02*
X001488Y017420D01*
X001488Y017125D01*
X001389Y017027D01*
X001488Y016490D02*
X001094Y016490D01*
X000897Y017224D02*
X000897Y017322D01*
X000996Y017420D01*
X001094Y014628D02*
X001094Y014332D01*
X001193Y014234D01*
X001389Y014234D01*
X001488Y009830D02*
X001094Y009830D01*
X001193Y007896D02*
X001488Y007896D01*
D11*
X011211Y007451D03*
X011711Y006451D03*
X012711Y006451D03*
X012211Y007451D03*
D12*
X012526Y009161D02*
X012526Y009761D01*
X011526Y009761D02*
X011526Y009161D01*
X010526Y009161D02*
X010526Y009761D01*
X013526Y009761D02*
X013526Y009161D01*
X004910Y008901D02*
X004910Y009501D01*
X004910Y010401D02*
X004910Y011001D01*
X004910Y011901D02*
X004910Y012501D01*
X004910Y013401D02*
X004910Y014001D01*
X004910Y014901D02*
X004910Y015501D01*
X004910Y016401D02*
X004910Y017001D01*
X004910Y017901D02*
X004910Y018501D01*
X004911Y019401D02*
X004911Y020001D01*
X003911Y020001D02*
X003911Y019401D01*
X003910Y018501D02*
X003910Y017901D01*
X003910Y017001D02*
X003910Y016401D01*
X003910Y015501D02*
X003910Y014901D01*
X003910Y014001D02*
X003910Y013401D01*
X003910Y012501D02*
X003910Y011901D01*
X003910Y011001D02*
X003910Y010401D01*
X003910Y009501D02*
X003910Y008901D01*
X002910Y008901D02*
X002910Y009501D01*
X002910Y010401D02*
X002910Y011001D01*
X002910Y011901D02*
X002910Y012501D01*
X002910Y013401D02*
X002910Y014001D01*
X002910Y014901D02*
X002910Y015501D01*
X002910Y016401D02*
X002910Y017001D01*
X002910Y017901D02*
X002910Y018501D01*
X002911Y019401D02*
X002911Y020001D01*
D13*
X008347Y011323D02*
X008847Y011323D01*
X008847Y010523D02*
X008347Y010523D01*
X008462Y008705D02*
X008462Y008205D01*
X007662Y008205D02*
X007662Y008705D01*
D14*
X007156Y005073D02*
X007156Y004187D01*
X004203Y004187D02*
X004203Y005073D01*
D15*
X000602Y003405D02*
X000602Y002757D01*
X017025Y002757D01*
X017025Y003337D01*
X016951Y003209D01*
X016750Y003008D01*
X016504Y002866D01*
X016229Y002792D01*
X015945Y002792D01*
X015670Y002866D01*
X015424Y003008D01*
X015223Y003209D01*
X015081Y003456D01*
X015007Y003730D01*
X015007Y004015D01*
X015081Y004289D01*
X015223Y004535D01*
X015424Y004736D01*
X015670Y004879D01*
X015945Y004952D01*
X016229Y004952D01*
X016504Y004879D01*
X016750Y004736D01*
X016951Y004535D01*
X017025Y004408D01*
X017025Y019481D01*
X016961Y019371D01*
X016760Y019170D01*
X016514Y019027D01*
X016239Y018954D01*
X015955Y018954D01*
X015680Y019027D01*
X015434Y019170D01*
X015233Y019371D01*
X015091Y019617D01*
X015017Y019892D01*
X015017Y020176D01*
X015091Y020451D01*
X015233Y020697D01*
X015434Y020898D01*
X015527Y020952D01*
X002149Y020952D01*
X002242Y020898D01*
X002443Y020697D01*
X002586Y020451D01*
X002615Y020341D01*
X002656Y020383D01*
X002822Y020451D01*
X002861Y020451D01*
X002861Y019751D01*
X002961Y019751D01*
X002961Y020451D01*
X003001Y020451D01*
X003166Y020383D01*
X003293Y020256D01*
X003361Y020091D01*
X003361Y019751D01*
X002961Y019751D01*
X002961Y019651D01*
X002961Y018951D01*
X003001Y018951D01*
X003166Y019020D01*
X003293Y019146D01*
X003361Y019312D01*
X003361Y019651D01*
X002961Y019651D01*
X002861Y019651D01*
X002861Y018951D01*
X002822Y018951D01*
X002656Y019020D01*
X002530Y019146D01*
X002461Y019312D01*
X002461Y019401D01*
X002443Y019371D01*
X002242Y019170D01*
X001996Y019027D01*
X001721Y018954D01*
X001437Y018954D01*
X001162Y019027D01*
X000916Y019170D01*
X000715Y019371D01*
X000602Y019567D01*
X000602Y004340D01*
X000715Y004535D01*
X000916Y004736D01*
X001162Y004879D01*
X001437Y004952D01*
X001721Y004952D01*
X001996Y004879D01*
X002242Y004736D01*
X002443Y004535D01*
X002586Y004289D01*
X002659Y004015D01*
X002659Y003730D01*
X002586Y003456D01*
X002443Y003209D01*
X002242Y003008D01*
X001996Y002866D01*
X001721Y002792D01*
X001437Y002792D01*
X001162Y002866D01*
X000916Y003008D01*
X000715Y003209D01*
X000602Y003405D01*
X000602Y003391D02*
X000610Y003391D01*
X000602Y003292D02*
X000667Y003292D01*
X000602Y003194D02*
X000731Y003194D01*
X000829Y003095D02*
X000602Y003095D01*
X000602Y002997D02*
X000936Y002997D01*
X001107Y002898D02*
X000602Y002898D01*
X000602Y002800D02*
X001410Y002800D01*
X001748Y002800D02*
X015918Y002800D01*
X015615Y002898D02*
X013743Y002898D01*
X013605Y002861D02*
X013882Y002935D01*
X014130Y003079D01*
X014333Y003282D01*
X014477Y003530D01*
X014551Y003808D01*
X014551Y004095D01*
X014477Y004372D01*
X014333Y004620D01*
X014130Y004823D01*
X013882Y004967D01*
X013605Y005041D01*
X013318Y005041D01*
X013040Y004967D01*
X012792Y004823D01*
X012589Y004620D01*
X012445Y004372D01*
X012371Y004095D01*
X012371Y003808D01*
X012445Y003530D01*
X012589Y003282D01*
X012792Y003079D01*
X013040Y002935D01*
X013318Y002861D01*
X013605Y002861D01*
X013988Y002997D02*
X015444Y002997D01*
X015337Y003095D02*
X014147Y003095D01*
X014245Y003194D02*
X015238Y003194D01*
X015175Y003292D02*
X014339Y003292D01*
X014396Y003391D02*
X015118Y003391D01*
X015072Y003489D02*
X014453Y003489D01*
X014492Y003588D02*
X015045Y003588D01*
X015019Y003687D02*
X014519Y003687D01*
X014545Y003785D02*
X015007Y003785D01*
X015007Y003884D02*
X014551Y003884D01*
X014551Y003982D02*
X015007Y003982D01*
X015025Y004081D02*
X014551Y004081D01*
X014528Y004179D02*
X015051Y004179D01*
X015078Y004278D02*
X014502Y004278D01*
X014474Y004376D02*
X015131Y004376D01*
X015188Y004475D02*
X014417Y004475D01*
X014361Y004573D02*
X015261Y004573D01*
X015360Y004672D02*
X014282Y004672D01*
X014183Y004771D02*
X015483Y004771D01*
X015654Y004869D02*
X014051Y004869D01*
X013879Y004968D02*
X017025Y004968D01*
X017025Y005066D02*
X007749Y005066D01*
X007749Y004968D02*
X010044Y004968D01*
X010040Y004967D02*
X009792Y004823D01*
X009589Y004620D01*
X009445Y004372D01*
X009371Y004095D01*
X009371Y003808D01*
X009445Y003530D01*
X009589Y003282D01*
X009792Y003079D01*
X010040Y002935D01*
X010318Y002861D01*
X010605Y002861D01*
X010882Y002935D01*
X011130Y003079D01*
X011333Y003282D01*
X011477Y003530D01*
X011551Y003808D01*
X011551Y004095D01*
X011477Y004372D01*
X011333Y004620D01*
X011130Y004823D01*
X010882Y004967D01*
X010605Y005041D01*
X010318Y005041D01*
X010040Y004967D01*
X009871Y004869D02*
X007749Y004869D01*
X007749Y004771D02*
X009739Y004771D01*
X009641Y004672D02*
X007206Y004672D01*
X007206Y004680D02*
X007749Y004680D01*
X007749Y005191D01*
X007659Y005409D01*
X007492Y005576D01*
X007274Y005666D01*
X007206Y005666D01*
X007206Y004680D01*
X007206Y004580D01*
X007206Y003594D01*
X007274Y003594D01*
X007492Y003685D01*
X007659Y003851D01*
X007749Y004069D01*
X007749Y004580D01*
X007206Y004580D01*
X007106Y004580D01*
X007106Y003594D01*
X007038Y003594D01*
X006820Y003685D01*
X006653Y003851D01*
X006563Y004069D01*
X006563Y004580D01*
X007106Y004580D01*
X007106Y004680D01*
X006563Y004680D01*
X006563Y005191D01*
X006653Y005409D01*
X006820Y005576D01*
X007038Y005666D01*
X007106Y005666D01*
X007106Y004680D01*
X007206Y004680D01*
X007206Y004771D02*
X007106Y004771D01*
X007106Y004869D02*
X007206Y004869D01*
X007206Y004968D02*
X007106Y004968D01*
X007106Y005066D02*
X007206Y005066D01*
X007206Y005165D02*
X007106Y005165D01*
X007106Y005263D02*
X007206Y005263D01*
X007206Y005362D02*
X007106Y005362D01*
X007106Y005460D02*
X007206Y005460D01*
X007206Y005559D02*
X007106Y005559D01*
X007106Y005657D02*
X007206Y005657D01*
X007295Y005657D02*
X017025Y005657D01*
X017025Y005559D02*
X007509Y005559D01*
X007607Y005460D02*
X017025Y005460D01*
X017025Y005362D02*
X007678Y005362D01*
X007719Y005263D02*
X017025Y005263D01*
X017025Y005165D02*
X007749Y005165D01*
X007749Y004573D02*
X009562Y004573D01*
X009505Y004475D02*
X007749Y004475D01*
X007749Y004376D02*
X009448Y004376D01*
X009420Y004278D02*
X007749Y004278D01*
X007749Y004179D02*
X009394Y004179D01*
X009371Y004081D02*
X007749Y004081D01*
X007713Y003982D02*
X009371Y003982D01*
X009371Y003884D02*
X007672Y003884D01*
X007592Y003785D02*
X009377Y003785D01*
X009404Y003687D02*
X007494Y003687D01*
X007206Y003687D02*
X007106Y003687D01*
X007106Y003785D02*
X007206Y003785D01*
X007206Y003884D02*
X007106Y003884D01*
X007106Y003982D02*
X007206Y003982D01*
X007206Y004081D02*
X007106Y004081D01*
X007106Y004179D02*
X007206Y004179D01*
X007206Y004278D02*
X007106Y004278D01*
X007106Y004376D02*
X007206Y004376D01*
X007206Y004475D02*
X007106Y004475D01*
X007106Y004573D02*
X007206Y004573D01*
X007106Y004672D02*
X004775Y004672D01*
X004775Y004771D02*
X006563Y004771D01*
X006563Y004869D02*
X004775Y004869D01*
X004775Y004968D02*
X006563Y004968D01*
X006563Y005066D02*
X004775Y005066D01*
X004775Y005165D02*
X006563Y005165D01*
X006593Y005263D02*
X004743Y005263D01*
X004775Y005187D02*
X004688Y005397D01*
X004527Y005558D01*
X004317Y005645D01*
X004090Y005645D01*
X003879Y005558D01*
X003719Y005397D01*
X003632Y005187D01*
X003632Y004074D01*
X003719Y003864D01*
X003879Y003703D01*
X004090Y003616D01*
X004317Y003616D01*
X004527Y003703D01*
X004688Y003864D01*
X004775Y004074D01*
X004775Y005187D01*
X004702Y005362D02*
X006634Y005362D01*
X006705Y005460D02*
X004625Y005460D01*
X004524Y005559D02*
X006803Y005559D01*
X007017Y005657D02*
X000602Y005657D01*
X000602Y005559D02*
X003882Y005559D01*
X003782Y005460D02*
X000602Y005460D01*
X000602Y005362D02*
X003704Y005362D01*
X003663Y005263D02*
X000602Y005263D01*
X000602Y005165D02*
X003632Y005165D01*
X003632Y005066D02*
X000602Y005066D01*
X000602Y004968D02*
X003632Y004968D01*
X003632Y004869D02*
X002013Y004869D01*
X002183Y004771D02*
X003632Y004771D01*
X003632Y004672D02*
X002307Y004672D01*
X002405Y004573D02*
X003632Y004573D01*
X003632Y004475D02*
X002478Y004475D01*
X002535Y004376D02*
X003632Y004376D01*
X003632Y004278D02*
X002589Y004278D01*
X002615Y004179D02*
X003632Y004179D01*
X003632Y004081D02*
X002641Y004081D01*
X002659Y003982D02*
X003669Y003982D01*
X003710Y003884D02*
X002659Y003884D01*
X002659Y003785D02*
X003797Y003785D01*
X003918Y003687D02*
X002647Y003687D01*
X002621Y003588D02*
X009430Y003588D01*
X009469Y003489D02*
X002595Y003489D01*
X002548Y003391D02*
X009526Y003391D01*
X009583Y003292D02*
X002491Y003292D01*
X002428Y003194D02*
X009677Y003194D01*
X009775Y003095D02*
X002329Y003095D01*
X002222Y002997D02*
X009934Y002997D01*
X010179Y002898D02*
X002052Y002898D01*
X000623Y004376D02*
X000602Y004376D01*
X000602Y004475D02*
X000680Y004475D01*
X000753Y004573D02*
X000602Y004573D01*
X000602Y004672D02*
X000852Y004672D01*
X000975Y004771D02*
X000602Y004771D01*
X000602Y004869D02*
X001146Y004869D01*
X000602Y005756D02*
X017025Y005756D01*
X017025Y005854D02*
X000602Y005854D01*
X000602Y005953D02*
X017025Y005953D01*
X017025Y006052D02*
X012802Y006052D01*
X012791Y006047D02*
X012940Y006109D01*
X013053Y006222D01*
X013115Y006371D01*
X013115Y006531D01*
X013053Y006680D01*
X012940Y006793D01*
X012791Y006855D01*
X012631Y006855D01*
X012482Y006793D01*
X012369Y006680D01*
X012307Y006531D01*
X012307Y006371D01*
X012369Y006222D01*
X012482Y006109D01*
X012631Y006047D01*
X012791Y006047D01*
X012621Y006052D02*
X011802Y006052D01*
X011791Y006047D02*
X011940Y006109D01*
X012053Y006222D01*
X012115Y006371D01*
X012115Y006531D01*
X012053Y006680D01*
X011940Y006793D01*
X011791Y006855D01*
X011631Y006855D01*
X011482Y006793D01*
X011369Y006680D01*
X011340Y006609D01*
X011226Y006609D01*
X009690Y008145D01*
X009690Y011667D01*
X010478Y012454D01*
X012838Y012454D01*
X012978Y012454D01*
X013161Y012637D01*
X013178Y012630D01*
X013308Y012630D01*
X013428Y012680D01*
X013520Y012772D01*
X013569Y012892D01*
X013569Y013022D01*
X013520Y013142D01*
X013428Y013234D01*
X013308Y013284D01*
X013178Y013284D01*
X013058Y013234D01*
X012966Y013142D01*
X012916Y013022D01*
X012916Y012892D01*
X012923Y012875D01*
X012838Y012790D01*
X012310Y012790D01*
X012424Y012837D01*
X012516Y012929D01*
X012566Y013049D01*
X012566Y013179D01*
X012516Y013300D01*
X012424Y013392D01*
X012304Y013441D01*
X012174Y013441D01*
X012054Y013392D01*
X011962Y013300D01*
X011955Y013283D01*
X010318Y013283D01*
X010311Y013300D01*
X010219Y013392D01*
X010099Y013441D01*
X009969Y013441D01*
X009849Y013392D01*
X009757Y013300D01*
X009707Y013179D01*
X009707Y013049D01*
X009757Y012929D01*
X009849Y012837D01*
X009969Y012788D01*
X010099Y012788D01*
X010219Y012837D01*
X010311Y012929D01*
X010318Y012946D01*
X011955Y012946D01*
X011962Y012929D01*
X012054Y012837D01*
X012167Y012790D01*
X010338Y012790D01*
X010240Y012692D01*
X009453Y011905D01*
X009354Y011806D01*
X009354Y008145D01*
X009354Y008005D01*
X010988Y006372D01*
X011086Y006273D01*
X011348Y006273D01*
X011369Y006222D01*
X011482Y006109D01*
X011631Y006047D01*
X011791Y006047D01*
X011621Y006052D02*
X000602Y006052D01*
X000602Y006150D02*
X011441Y006150D01*
X011358Y006249D02*
X000602Y006249D01*
X000602Y006347D02*
X011012Y006347D01*
X010914Y006446D02*
X000602Y006446D01*
X000602Y006544D02*
X010815Y006544D01*
X010717Y006643D02*
X001470Y006643D01*
X001466Y006638D02*
X001525Y006698D01*
X001564Y006736D01*
X001604Y006776D01*
X001671Y006844D01*
X001671Y007292D01*
X001622Y007341D01*
X001662Y007381D01*
X001662Y007381D01*
X001770Y007489D01*
X001770Y007641D01*
X001671Y007739D01*
X001631Y007780D01*
X001671Y007820D01*
X001671Y007972D01*
X001564Y008080D01*
X001278Y008080D01*
X001278Y008106D01*
X001564Y008106D01*
X001671Y008214D01*
X001671Y008366D01*
X001573Y008464D01*
X001604Y008495D01*
X001671Y008563D01*
X001671Y008751D01*
X001761Y008751D01*
X001868Y008858D01*
X001868Y009010D01*
X001761Y009118D01*
X001582Y009118D01*
X001604Y009140D01*
X001671Y009207D01*
X001671Y009404D01*
X001671Y009556D01*
X001573Y009655D01*
X001671Y009754D01*
X001671Y009906D01*
X001671Y010049D01*
X001671Y010201D01*
X001573Y010299D01*
X001573Y010299D01*
X001573Y010299D01*
X001662Y010389D01*
X001662Y010389D01*
X001770Y010496D01*
X001770Y010649D01*
X001671Y010747D01*
X001631Y010787D01*
X001671Y010828D01*
X001671Y010980D01*
X001649Y011002D01*
X001671Y011025D01*
X001671Y011275D01*
X001577Y011369D01*
X001602Y011394D01*
X001671Y011463D01*
X001671Y011615D01*
X001671Y011812D01*
X001582Y011902D01*
X001761Y011902D01*
X001868Y012009D01*
X001868Y012162D01*
X001761Y012269D01*
X001671Y012269D01*
X001671Y012457D01*
X002460Y012457D01*
X002460Y012555D02*
X001573Y012555D01*
X001564Y012564D02*
X001524Y012605D01*
X001535Y012616D01*
X001564Y012645D01*
X001602Y012683D01*
X001671Y012752D01*
X001671Y012904D01*
X001671Y013101D01*
X001573Y013200D01*
X001662Y013289D01*
X001770Y013397D01*
X001770Y013549D01*
X001671Y013647D01*
X001631Y013688D01*
X001662Y013719D01*
X001859Y013719D01*
X001967Y013826D01*
X001967Y013979D01*
X001859Y014086D01*
X001608Y014086D01*
X001586Y014064D01*
X001564Y014086D01*
X001502Y014086D01*
X001535Y014120D01*
X001564Y014149D01*
X001602Y014186D01*
X001671Y014256D01*
X001671Y014408D01*
X001671Y014704D01*
X001573Y014802D01*
X001604Y014833D01*
X001671Y014901D01*
X001671Y015348D01*
X001564Y015456D01*
X001412Y015456D01*
X001340Y015384D01*
X001327Y015397D01*
X001376Y015447D01*
X001376Y015545D01*
X001376Y015661D01*
X001465Y015661D01*
X001535Y015731D01*
X001564Y015760D01*
X001602Y015798D01*
X001671Y015867D01*
X001671Y016020D01*
X001671Y016217D01*
X001573Y016315D01*
X001671Y016414D01*
X001671Y016566D01*
X001649Y016588D01*
X001671Y016610D01*
X001671Y016861D01*
X001577Y016955D01*
X001602Y016979D01*
X001671Y017049D01*
X001671Y017201D01*
X001671Y017497D01*
X001564Y017604D01*
X001412Y017604D01*
X000920Y017604D01*
X000812Y017497D01*
X000714Y017398D01*
X000714Y017246D01*
X000714Y017147D01*
X000821Y017040D01*
X000920Y017040D01*
X001116Y016843D01*
X001269Y016843D01*
X001304Y016843D01*
X001304Y016763D01*
X001215Y016673D01*
X001018Y016673D01*
X000910Y016566D01*
X000910Y016414D01*
X001009Y016315D01*
X001009Y016315D01*
X000978Y016284D01*
X000910Y016217D01*
X000910Y016216D01*
X000910Y016064D01*
X000910Y016020D01*
X000910Y015867D01*
X000995Y015782D01*
X000910Y015697D01*
X000910Y015447D01*
X001009Y015348D01*
X000978Y015317D01*
X000910Y015250D01*
X000910Y015250D01*
X000910Y015097D01*
X000910Y014802D01*
X000960Y014753D01*
X000910Y014704D01*
X000910Y014256D01*
X001000Y014167D01*
X000910Y014077D01*
X000910Y013979D01*
X000910Y013826D01*
X000910Y013728D01*
X000951Y013688D01*
X000910Y013647D01*
X000910Y013495D01*
X001009Y013397D01*
X001009Y013397D01*
X001047Y013359D01*
X001107Y013298D01*
X001049Y013240D01*
X001009Y013200D01*
X001009Y013200D01*
X000978Y013169D01*
X000910Y013101D01*
X000910Y012949D01*
X000910Y012904D01*
X000910Y012752D01*
X001058Y012605D01*
X001049Y012595D01*
X001009Y012555D01*
X000978Y012524D01*
X000910Y012457D01*
X000910Y012305D01*
X000910Y012009D01*
X001009Y011911D01*
X001009Y011911D01*
X001009Y011911D01*
X000978Y011880D01*
X000910Y011812D01*
X000910Y011660D01*
X000910Y011615D01*
X000910Y011463D01*
X001116Y011257D01*
X001269Y011257D01*
X001304Y011257D01*
X001304Y011177D01*
X001215Y011088D01*
X001018Y011088D01*
X000910Y010980D01*
X000910Y010828D01*
X000951Y010787D01*
X000910Y010747D01*
X000910Y010595D01*
X001009Y010496D01*
X001047Y010459D01*
X001098Y010407D01*
X001018Y010407D01*
X000910Y010299D01*
X000910Y010147D01*
X001018Y010040D01*
X001304Y010040D01*
X001304Y010013D01*
X001018Y010013D01*
X000910Y009906D01*
X000910Y009754D01*
X001009Y009655D01*
X000910Y009556D01*
X000910Y009360D01*
X000910Y009207D01*
X001009Y009109D01*
X000910Y009010D01*
X000910Y008715D01*
X000910Y008563D01*
X001009Y008464D01*
X000910Y008366D01*
X000910Y008214D01*
X000910Y007918D01*
X001000Y007829D01*
X000910Y007739D01*
X000910Y007587D01*
X001009Y007489D01*
X001009Y007489D01*
X001047Y007451D01*
X001107Y007390D01*
X001049Y007331D01*
X001009Y007292D01*
X001009Y007292D01*
X000978Y007261D01*
X000910Y007193D01*
X000910Y007041D01*
X000910Y006746D01*
X001018Y006638D01*
X001170Y006638D01*
X001242Y006710D01*
X001252Y006699D01*
X001313Y006638D01*
X001465Y006638D01*
X001466Y006638D01*
X001564Y006736D02*
X001564Y006736D01*
X001569Y006741D02*
X010618Y006741D01*
X010520Y006840D02*
X001667Y006840D01*
X001671Y006844D02*
X001671Y006844D01*
X001671Y006938D02*
X010421Y006938D01*
X010323Y007037D02*
X001671Y007037D01*
X001671Y007136D02*
X010224Y007136D01*
X010125Y007234D02*
X001671Y007234D01*
X001630Y007333D02*
X010027Y007333D01*
X009928Y007431D02*
X001712Y007431D01*
X001770Y007530D02*
X009830Y007530D01*
X009731Y007628D02*
X001770Y007628D01*
X001684Y007727D02*
X009633Y007727D01*
X009534Y007825D02*
X008590Y007825D01*
X008541Y007805D02*
X008688Y007866D01*
X008801Y007978D01*
X008862Y008125D01*
X008862Y008446D01*
X008471Y008446D01*
X008471Y008464D01*
X008862Y008464D01*
X008862Y008785D01*
X008801Y008932D01*
X008688Y009044D01*
X008541Y009105D01*
X008471Y009105D01*
X008471Y008464D01*
X008452Y008464D01*
X008452Y008446D01*
X008062Y008446D01*
X008062Y008125D01*
X008122Y007978D01*
X008235Y007866D01*
X008382Y007805D01*
X008452Y007805D01*
X008452Y008446D01*
X008471Y008446D01*
X008471Y007805D01*
X008541Y007805D01*
X008471Y007825D02*
X008452Y007825D01*
X008452Y007924D02*
X008471Y007924D01*
X008471Y008022D02*
X008452Y008022D01*
X008452Y008121D02*
X008471Y008121D01*
X008471Y008220D02*
X008452Y008220D01*
X008452Y008318D02*
X008471Y008318D01*
X008471Y008417D02*
X008452Y008417D01*
X008452Y008464D02*
X008062Y008464D01*
X008062Y008785D01*
X008122Y008932D01*
X008235Y009044D01*
X008382Y009105D01*
X008452Y009105D01*
X008452Y008464D01*
X008452Y008515D02*
X008471Y008515D01*
X008471Y008614D02*
X008452Y008614D01*
X008452Y008712D02*
X008471Y008712D01*
X008471Y008811D02*
X008452Y008811D01*
X008452Y008909D02*
X008471Y008909D01*
X008471Y009008D02*
X008452Y009008D01*
X008199Y009008D02*
X007894Y009008D01*
X007876Y009026D02*
X007737Y009084D01*
X007586Y009084D01*
X007447Y009026D01*
X007340Y008920D01*
X007283Y008780D01*
X007283Y008130D01*
X007340Y007990D01*
X007447Y007884D01*
X007586Y007826D01*
X007737Y007826D01*
X007876Y007884D01*
X007983Y007990D01*
X008040Y008130D01*
X008040Y008780D01*
X007983Y008920D01*
X007876Y009026D01*
X007987Y008909D02*
X008113Y008909D01*
X008072Y008811D02*
X008028Y008811D01*
X008040Y008712D02*
X008062Y008712D01*
X008062Y008614D02*
X008040Y008614D01*
X008040Y008515D02*
X008062Y008515D01*
X008062Y008417D02*
X008040Y008417D01*
X008040Y008318D02*
X008062Y008318D01*
X008062Y008220D02*
X008040Y008220D01*
X008037Y008121D02*
X008063Y008121D01*
X008104Y008022D02*
X007996Y008022D01*
X007916Y007924D02*
X008177Y007924D01*
X008333Y007825D02*
X001671Y007825D01*
X001671Y007924D02*
X007407Y007924D01*
X007327Y008022D02*
X001621Y008022D01*
X001579Y008121D02*
X007286Y008121D01*
X007283Y008220D02*
X001671Y008220D01*
X001671Y008318D02*
X007283Y008318D01*
X007283Y008417D02*
X001621Y008417D01*
X001624Y008515D02*
X002666Y008515D01*
X002655Y008520D02*
X002820Y008451D01*
X002860Y008451D01*
X002860Y009151D01*
X002960Y009151D01*
X002960Y008451D01*
X002999Y008451D01*
X003165Y008520D01*
X003291Y008646D01*
X003360Y008812D01*
X003360Y009151D01*
X002960Y009151D01*
X002960Y009251D01*
X003360Y009251D01*
X003360Y009591D01*
X003291Y009756D01*
X003165Y009883D01*
X002999Y009951D01*
X002960Y009951D01*
X002960Y009251D01*
X002860Y009251D01*
X002860Y009151D01*
X002460Y009151D01*
X002460Y008812D01*
X002529Y008646D01*
X002655Y008520D01*
X002561Y008614D02*
X001671Y008614D01*
X001671Y008563D02*
X001671Y008563D01*
X001671Y008712D02*
X002501Y008712D01*
X002460Y008811D02*
X001821Y008811D01*
X001868Y008909D02*
X002460Y008909D01*
X002460Y009008D02*
X001868Y009008D01*
X001772Y009106D02*
X002460Y009106D01*
X002460Y009251D02*
X002860Y009251D01*
X002860Y009951D01*
X002820Y009951D01*
X002655Y009883D01*
X002529Y009756D01*
X002460Y009591D01*
X002460Y009251D01*
X002460Y009304D02*
X001671Y009304D01*
X001671Y009207D02*
X001671Y009207D01*
X001669Y009205D02*
X002860Y009205D01*
X002860Y009304D02*
X002960Y009304D01*
X002960Y009402D02*
X002860Y009402D01*
X002860Y009501D02*
X002960Y009501D01*
X002960Y009599D02*
X002860Y009599D01*
X002860Y009698D02*
X002960Y009698D01*
X002960Y009796D02*
X002860Y009796D01*
X002860Y009895D02*
X002960Y009895D01*
X002960Y009951D02*
X002999Y009951D01*
X003165Y010020D01*
X003291Y010146D01*
X003360Y010312D01*
X003360Y010651D01*
X002960Y010651D01*
X002960Y009951D01*
X002960Y009993D02*
X002860Y009993D01*
X002860Y009951D02*
X002860Y010651D01*
X002960Y010651D01*
X002960Y010751D01*
X003360Y010751D01*
X003360Y011091D01*
X003291Y011256D01*
X003165Y011383D01*
X002999Y011451D01*
X003165Y011520D01*
X003291Y011646D01*
X003360Y011812D01*
X003360Y012151D01*
X002960Y012151D01*
X002960Y011451D01*
X002960Y010751D01*
X002860Y010751D01*
X002860Y010651D01*
X002460Y010651D01*
X002460Y010312D01*
X002529Y010146D01*
X002655Y010020D01*
X002820Y009951D01*
X002860Y009951D01*
X002860Y010092D02*
X002960Y010092D01*
X002960Y010190D02*
X002860Y010190D01*
X002860Y010289D02*
X002960Y010289D01*
X002960Y010387D02*
X002860Y010387D01*
X002860Y010486D02*
X002960Y010486D01*
X002960Y010585D02*
X002860Y010585D01*
X002860Y010683D02*
X001735Y010683D01*
X001671Y010747D02*
X001671Y010747D01*
X001637Y010782D02*
X002460Y010782D01*
X002460Y010751D02*
X002860Y010751D01*
X002860Y011451D01*
X002820Y011451D01*
X002655Y011520D01*
X002529Y011646D01*
X002460Y011812D01*
X002460Y012151D01*
X002860Y012151D01*
X002960Y012151D01*
X002960Y012251D01*
X003360Y012251D01*
X003360Y012591D01*
X003291Y012756D01*
X003165Y012883D01*
X002999Y012951D01*
X002960Y012951D01*
X002960Y012251D01*
X002860Y012251D01*
X002860Y012151D01*
X002860Y011451D01*
X002820Y011451D01*
X002655Y011383D01*
X002529Y011256D01*
X002460Y011091D01*
X002460Y010751D01*
X002460Y010880D02*
X001671Y010880D01*
X001671Y010979D02*
X002460Y010979D01*
X002460Y011077D02*
X001671Y011077D01*
X001671Y011176D02*
X002495Y011176D01*
X002547Y011274D02*
X001671Y011274D01*
X001581Y011373D02*
X002645Y011373D01*
X002771Y011471D02*
X001671Y011471D01*
X001671Y011570D02*
X002605Y011570D01*
X002519Y011669D02*
X001671Y011669D01*
X001671Y011767D02*
X002478Y011767D01*
X002460Y011866D02*
X001618Y011866D01*
X001823Y011964D02*
X002460Y011964D01*
X002460Y012063D02*
X001868Y012063D01*
X001868Y012161D02*
X002860Y012161D01*
X002860Y012251D02*
X002460Y012251D01*
X002460Y012591D01*
X002529Y012756D01*
X002655Y012883D01*
X002820Y012951D01*
X002860Y012951D01*
X002860Y012251D01*
X002860Y012260D02*
X002960Y012260D01*
X002960Y012358D02*
X002860Y012358D01*
X002860Y012457D02*
X002960Y012457D01*
X002960Y012555D02*
X002860Y012555D01*
X002860Y012654D02*
X002960Y012654D01*
X002960Y012753D02*
X002860Y012753D01*
X002860Y012851D02*
X002960Y012851D01*
X002960Y012950D02*
X002860Y012950D01*
X002860Y012951D02*
X002860Y013651D01*
X002960Y013651D01*
X002960Y012951D01*
X002999Y012951D01*
X003165Y013020D01*
X003291Y013146D01*
X003360Y013312D01*
X003360Y013651D01*
X002960Y013651D01*
X002960Y013751D01*
X003360Y013751D01*
X003360Y014091D01*
X003291Y014256D01*
X003165Y014383D01*
X002999Y014451D01*
X003165Y014520D01*
X003291Y014646D01*
X003360Y014812D01*
X003360Y015151D01*
X002960Y015151D01*
X002960Y014451D01*
X002960Y013751D01*
X002860Y013751D01*
X002860Y013651D01*
X002460Y013651D01*
X002460Y013312D01*
X002529Y013146D01*
X002655Y013020D01*
X002820Y012951D01*
X002860Y012951D01*
X002817Y012950D02*
X001671Y012950D01*
X001671Y013048D02*
X002627Y013048D01*
X002528Y013147D02*
X001626Y013147D01*
X001618Y013245D02*
X002487Y013245D01*
X002460Y013344D02*
X001717Y013344D01*
X001662Y013289D02*
X001662Y013289D01*
X001770Y013442D02*
X002460Y013442D01*
X002460Y013541D02*
X001770Y013541D01*
X001680Y013639D02*
X002460Y013639D01*
X002460Y013751D02*
X002860Y013751D01*
X002860Y014451D01*
X002820Y014451D01*
X002655Y014520D01*
X002529Y014646D01*
X002460Y014812D01*
X002460Y015151D01*
X002860Y015151D01*
X002960Y015151D01*
X002960Y015251D01*
X003360Y015251D01*
X003360Y015591D01*
X003291Y015756D01*
X003165Y015883D01*
X002999Y015951D01*
X002960Y015951D01*
X002960Y015251D01*
X002860Y015251D01*
X002860Y015151D01*
X002860Y014451D01*
X002820Y014451D01*
X002655Y014383D01*
X002529Y014256D01*
X002460Y014091D01*
X002460Y013751D01*
X002460Y013836D02*
X001967Y013836D01*
X001967Y013935D02*
X002460Y013935D01*
X002460Y014034D02*
X001912Y014034D01*
X001671Y014329D02*
X002602Y014329D01*
X002518Y014231D02*
X001646Y014231D01*
X001564Y014149D02*
X001564Y014149D01*
X001547Y014132D02*
X002477Y014132D01*
X002764Y014428D02*
X001671Y014428D01*
X001671Y014526D02*
X002648Y014526D01*
X002550Y014625D02*
X001671Y014625D01*
X001652Y014723D02*
X002496Y014723D01*
X002460Y014822D02*
X001593Y014822D01*
X001671Y014901D02*
X001671Y014901D01*
X001671Y014920D02*
X002460Y014920D01*
X002460Y015019D02*
X001671Y015019D01*
X001671Y015118D02*
X002460Y015118D01*
X002460Y015251D02*
X002860Y015251D01*
X002860Y015951D01*
X002820Y015951D01*
X002655Y015883D01*
X002529Y015756D01*
X002460Y015591D01*
X002460Y015251D01*
X002460Y015315D02*
X001671Y015315D01*
X001671Y015216D02*
X002860Y015216D01*
X002860Y015118D02*
X002960Y015118D01*
X002960Y015216D02*
X003481Y015216D01*
X003481Y015118D02*
X003360Y015118D01*
X003360Y015019D02*
X003481Y015019D01*
X003481Y014920D02*
X003360Y014920D01*
X003360Y014822D02*
X003481Y014822D01*
X003481Y014816D02*
X003547Y014658D01*
X003667Y014538D01*
X003825Y014472D01*
X003995Y014472D01*
X004153Y014538D01*
X004273Y014658D01*
X004339Y014816D01*
X004339Y015586D01*
X004273Y015744D01*
X004153Y015865D01*
X003995Y015930D01*
X003825Y015930D01*
X003667Y015865D01*
X003547Y015744D01*
X003481Y015586D01*
X003481Y014816D01*
X003520Y014723D02*
X003323Y014723D01*
X003270Y014625D02*
X003580Y014625D01*
X003694Y014526D02*
X003172Y014526D01*
X003056Y014428D02*
X003820Y014428D01*
X003825Y014430D02*
X003667Y014365D01*
X003547Y014244D01*
X003481Y014086D01*
X003481Y013316D01*
X003547Y013158D01*
X003667Y013038D01*
X003825Y012972D01*
X003995Y012972D01*
X004153Y013038D01*
X004273Y013158D01*
X004339Y013316D01*
X004339Y014086D01*
X004273Y014244D01*
X004153Y014365D01*
X003995Y014430D01*
X003825Y014430D01*
X004000Y014428D02*
X004820Y014428D01*
X004825Y014430D02*
X004667Y014365D01*
X004547Y014244D01*
X004481Y014086D01*
X004481Y013316D01*
X004547Y013158D01*
X004667Y013038D01*
X004825Y012972D01*
X004995Y012972D01*
X005153Y013038D01*
X005273Y013158D01*
X005339Y013316D01*
X005339Y014086D01*
X005273Y014244D01*
X005153Y014365D01*
X004995Y014430D01*
X004825Y014430D01*
X004825Y014472D02*
X004667Y014538D01*
X004547Y014658D01*
X004481Y014816D01*
X004481Y015586D01*
X004547Y015744D01*
X004667Y015865D01*
X004825Y015930D01*
X004995Y015930D01*
X005153Y015865D01*
X005273Y015744D01*
X005339Y015586D01*
X005339Y014816D01*
X005273Y014658D01*
X005153Y014538D01*
X004995Y014472D01*
X004825Y014472D01*
X004694Y014526D02*
X004125Y014526D01*
X004240Y014625D02*
X004580Y014625D01*
X004520Y014723D02*
X004300Y014723D01*
X004339Y014822D02*
X004481Y014822D01*
X004481Y014920D02*
X004339Y014920D01*
X004339Y015019D02*
X004481Y015019D01*
X004481Y015118D02*
X004339Y015118D01*
X004339Y015216D02*
X004481Y015216D01*
X004481Y015315D02*
X004339Y015315D01*
X004339Y015413D02*
X004481Y015413D01*
X004481Y015512D02*
X004339Y015512D01*
X004329Y015610D02*
X004491Y015610D01*
X004532Y015709D02*
X004288Y015709D01*
X004210Y015807D02*
X004610Y015807D01*
X004767Y015906D02*
X004053Y015906D01*
X003995Y015972D02*
X003825Y015972D01*
X003667Y016038D01*
X003547Y016158D01*
X003481Y016316D01*
X003481Y017086D01*
X003547Y017244D01*
X003667Y017365D01*
X003825Y017430D01*
X003995Y017430D01*
X004153Y017365D01*
X004273Y017244D01*
X004339Y017086D01*
X004339Y016316D01*
X004273Y016158D01*
X004153Y016038D01*
X003995Y015972D01*
X004073Y016004D02*
X004747Y016004D01*
X004825Y015972D02*
X004667Y016038D01*
X004547Y016158D01*
X004481Y016316D01*
X004481Y017086D01*
X004547Y017244D01*
X004667Y017365D01*
X004825Y017430D01*
X004995Y017430D01*
X005153Y017365D01*
X005273Y017244D01*
X005339Y017086D01*
X005339Y016316D01*
X005273Y016158D01*
X005153Y016038D01*
X004995Y015972D01*
X004825Y015972D01*
X005053Y015906D02*
X017025Y015906D01*
X017025Y016004D02*
X005073Y016004D01*
X005218Y016103D02*
X017025Y016103D01*
X017025Y016202D02*
X005291Y016202D01*
X005332Y016300D02*
X017025Y016300D01*
X017025Y016399D02*
X005339Y016399D01*
X005339Y016497D02*
X017025Y016497D01*
X017025Y016596D02*
X005339Y016596D01*
X005339Y016694D02*
X017025Y016694D01*
X017025Y016793D02*
X005339Y016793D01*
X005339Y016891D02*
X017025Y016891D01*
X017025Y016990D02*
X005339Y016990D01*
X005338Y017088D02*
X017025Y017088D01*
X017025Y017187D02*
X005297Y017187D01*
X005232Y017286D02*
X017025Y017286D01*
X017025Y017384D02*
X005106Y017384D01*
X005020Y017483D02*
X017025Y017483D01*
X017025Y017581D02*
X005196Y017581D01*
X005153Y017538D02*
X005273Y017658D01*
X005339Y017816D01*
X005339Y018586D01*
X005273Y018744D01*
X005153Y018865D01*
X004995Y018930D01*
X004825Y018930D01*
X004667Y018865D01*
X004547Y018744D01*
X004481Y018586D01*
X004481Y017816D01*
X004547Y017658D01*
X004667Y017538D01*
X004825Y017472D01*
X004995Y017472D01*
X005153Y017538D01*
X005282Y017680D02*
X017025Y017680D01*
X017025Y017778D02*
X005323Y017778D01*
X005339Y017877D02*
X017025Y017877D01*
X017025Y017975D02*
X005339Y017975D01*
X005339Y018074D02*
X017025Y018074D01*
X017025Y018172D02*
X005339Y018172D01*
X005339Y018271D02*
X017025Y018271D01*
X017025Y018369D02*
X005339Y018369D01*
X005339Y018468D02*
X017025Y018468D01*
X017025Y018567D02*
X005339Y018567D01*
X005306Y018665D02*
X017025Y018665D01*
X017025Y018764D02*
X005254Y018764D01*
X005155Y018862D02*
X017025Y018862D01*
X017025Y018961D02*
X016265Y018961D01*
X016569Y019059D02*
X017025Y019059D01*
X017025Y019158D02*
X016740Y019158D01*
X016847Y019256D02*
X017025Y019256D01*
X017025Y019355D02*
X016945Y019355D01*
X017009Y019453D02*
X017025Y019453D01*
X015929Y018961D02*
X003024Y018961D01*
X002999Y018951D02*
X002960Y018951D01*
X002960Y018251D01*
X003360Y018251D01*
X003360Y018591D01*
X003291Y018756D01*
X003165Y018883D01*
X002999Y018951D01*
X002961Y018961D02*
X002861Y018961D01*
X002860Y018951D02*
X002820Y018951D01*
X002655Y018883D01*
X002529Y018756D01*
X002460Y018591D01*
X002460Y018251D01*
X002860Y018251D01*
X002860Y018151D01*
X002960Y018151D01*
X002960Y017451D01*
X002960Y016751D01*
X003360Y016751D01*
X003360Y017091D01*
X003291Y017256D01*
X003165Y017383D01*
X002999Y017451D01*
X003165Y017520D01*
X003291Y017646D01*
X003360Y017812D01*
X003360Y018151D01*
X002960Y018151D01*
X002960Y018251D01*
X002860Y018251D01*
X002860Y018951D01*
X002798Y018961D02*
X001747Y018961D01*
X002051Y019059D02*
X002617Y019059D01*
X002525Y019158D02*
X002222Y019158D01*
X002329Y019256D02*
X002484Y019256D01*
X002461Y019355D02*
X002428Y019355D01*
X002861Y019355D02*
X002961Y019355D01*
X002961Y019453D02*
X002861Y019453D01*
X002861Y019552D02*
X002961Y019552D01*
X002961Y019651D02*
X002861Y019651D01*
X002961Y019749D02*
X003482Y019749D01*
X003482Y019651D02*
X003361Y019651D01*
X003361Y019552D02*
X003482Y019552D01*
X003482Y019453D02*
X003361Y019453D01*
X003361Y019355D02*
X003482Y019355D01*
X003482Y019316D02*
X003548Y019158D01*
X003297Y019158D01*
X003338Y019256D02*
X003507Y019256D01*
X003482Y019316D02*
X003482Y020086D01*
X003548Y020244D01*
X003668Y020365D01*
X003826Y020430D01*
X003996Y020430D01*
X004154Y020365D01*
X004275Y020244D01*
X004340Y020086D01*
X004340Y019316D01*
X004275Y019158D01*
X004154Y019038D01*
X003996Y018972D01*
X003826Y018972D01*
X003668Y019038D01*
X003548Y019158D01*
X003647Y019059D02*
X003206Y019059D01*
X003185Y018862D02*
X003665Y018862D01*
X003667Y018865D02*
X003547Y018744D01*
X003481Y018586D01*
X003481Y017816D01*
X003547Y017658D01*
X003667Y017538D01*
X003825Y017472D01*
X003995Y017472D01*
X004153Y017538D01*
X004273Y017658D01*
X004339Y017816D01*
X004339Y018586D01*
X004273Y018744D01*
X004153Y018865D01*
X003995Y018930D01*
X003825Y018930D01*
X003667Y018865D01*
X003566Y018764D02*
X003284Y018764D01*
X003329Y018665D02*
X003514Y018665D01*
X003481Y018567D02*
X003360Y018567D01*
X003360Y018468D02*
X003481Y018468D01*
X003481Y018369D02*
X003360Y018369D01*
X003360Y018271D02*
X003481Y018271D01*
X003481Y018172D02*
X002960Y018172D01*
X002960Y018074D02*
X002860Y018074D01*
X002860Y018151D02*
X002860Y017451D01*
X002820Y017451D01*
X002655Y017520D01*
X002529Y017646D01*
X002460Y017812D01*
X002460Y018151D01*
X002860Y018151D01*
X002860Y018172D02*
X000602Y018172D01*
X000602Y018074D02*
X002460Y018074D01*
X002460Y017975D02*
X000602Y017975D01*
X000602Y017877D02*
X002460Y017877D01*
X002474Y017778D02*
X000602Y017778D01*
X000602Y017680D02*
X002515Y017680D01*
X002594Y017581D02*
X001587Y017581D01*
X001671Y017483D02*
X002744Y017483D01*
X002820Y017451D02*
X002655Y017383D01*
X002529Y017256D01*
X002460Y017091D01*
X002460Y016751D01*
X002860Y016751D01*
X002860Y016651D01*
X002960Y016651D01*
X002960Y015951D01*
X002999Y015951D01*
X003165Y016020D01*
X003291Y016146D01*
X003360Y016312D01*
X003360Y016651D01*
X002960Y016651D01*
X002960Y016751D01*
X002860Y016751D01*
X002860Y017451D01*
X002820Y017451D01*
X002860Y017483D02*
X002960Y017483D01*
X002960Y017451D02*
X002999Y017451D01*
X002960Y017451D01*
X002960Y017384D02*
X002860Y017384D01*
X002860Y017286D02*
X002960Y017286D01*
X002960Y017187D02*
X002860Y017187D01*
X002860Y017088D02*
X002960Y017088D01*
X002960Y016990D02*
X002860Y016990D01*
X002860Y016891D02*
X002960Y016891D01*
X002960Y016793D02*
X002860Y016793D01*
X002860Y016694D02*
X001671Y016694D01*
X001671Y016793D02*
X002460Y016793D01*
X002460Y016891D02*
X001641Y016891D01*
X001612Y016990D02*
X002460Y016990D01*
X002460Y017088D02*
X001671Y017088D01*
X001671Y017187D02*
X002500Y017187D01*
X002558Y017286D02*
X001671Y017286D01*
X001671Y017384D02*
X002659Y017384D01*
X002860Y017581D02*
X002960Y017581D01*
X002960Y017680D02*
X002860Y017680D01*
X002860Y017778D02*
X002960Y017778D01*
X002960Y017877D02*
X002860Y017877D01*
X002860Y017975D02*
X002960Y017975D01*
X002960Y018271D02*
X002860Y018271D01*
X002860Y018369D02*
X002960Y018369D01*
X002960Y018468D02*
X002860Y018468D01*
X002860Y018567D02*
X002960Y018567D01*
X002960Y018665D02*
X002860Y018665D01*
X002860Y018764D02*
X002960Y018764D01*
X002960Y018862D02*
X002860Y018862D01*
X002861Y019059D02*
X002961Y019059D01*
X002961Y019158D02*
X002861Y019158D01*
X002861Y019256D02*
X002961Y019256D01*
X002635Y018862D02*
X000602Y018862D01*
X000602Y018764D02*
X002536Y018764D01*
X002491Y018665D02*
X000602Y018665D01*
X000602Y018567D02*
X002460Y018567D01*
X002460Y018468D02*
X000602Y018468D01*
X000602Y018369D02*
X002460Y018369D01*
X002460Y018271D02*
X000602Y018271D01*
X000602Y018961D02*
X001411Y018961D01*
X001107Y019059D02*
X000602Y019059D01*
X000602Y019158D02*
X000937Y019158D01*
X000829Y019256D02*
X000602Y019256D01*
X000602Y019355D02*
X000731Y019355D01*
X000667Y019453D02*
X000602Y019453D01*
X000602Y019552D02*
X000610Y019552D01*
X002184Y020932D02*
X015492Y020932D01*
X015369Y020833D02*
X002307Y020833D01*
X002406Y020735D02*
X015271Y020735D01*
X015198Y020636D02*
X002479Y020636D01*
X002535Y020537D02*
X015141Y020537D01*
X015088Y020439D02*
X003030Y020439D01*
X002961Y020439D02*
X002861Y020439D01*
X002792Y020439D02*
X002589Y020439D01*
X002861Y020340D02*
X002961Y020340D01*
X002961Y020242D02*
X002861Y020242D01*
X002861Y020143D02*
X002961Y020143D01*
X002961Y020045D02*
X002861Y020045D01*
X002861Y019946D02*
X002961Y019946D01*
X002961Y019848D02*
X002861Y019848D01*
X003299Y020242D02*
X003547Y020242D01*
X003506Y020143D02*
X003339Y020143D01*
X003361Y020045D02*
X003482Y020045D01*
X003482Y019946D02*
X003361Y019946D01*
X003361Y019848D02*
X003482Y019848D01*
X003644Y020340D02*
X003208Y020340D01*
X004178Y020340D02*
X004644Y020340D01*
X004668Y020365D02*
X004548Y020244D01*
X004482Y020086D01*
X004482Y019316D01*
X004548Y019158D01*
X004274Y019158D01*
X004315Y019256D02*
X004507Y019256D01*
X004482Y019355D02*
X004340Y019355D01*
X004340Y019453D02*
X004482Y019453D01*
X004482Y019552D02*
X004340Y019552D01*
X004340Y019651D02*
X004482Y019651D01*
X004482Y019749D02*
X004340Y019749D01*
X004340Y019848D02*
X004482Y019848D01*
X004482Y019946D02*
X004340Y019946D01*
X004340Y020045D02*
X004482Y020045D01*
X004506Y020143D02*
X004316Y020143D01*
X004276Y020242D02*
X004547Y020242D01*
X004668Y020365D02*
X004826Y020430D01*
X004996Y020430D01*
X005154Y020365D01*
X005275Y020244D01*
X005340Y020086D01*
X005340Y019316D01*
X005275Y019158D01*
X005154Y019038D01*
X004996Y018972D01*
X004826Y018972D01*
X004668Y019038D01*
X004548Y019158D01*
X004647Y019059D02*
X004176Y019059D01*
X004155Y018862D02*
X004665Y018862D01*
X004566Y018764D02*
X004254Y018764D01*
X004306Y018665D02*
X004514Y018665D01*
X004481Y018567D02*
X004339Y018567D01*
X004339Y018468D02*
X004481Y018468D01*
X004481Y018369D02*
X004339Y018369D01*
X004339Y018271D02*
X004481Y018271D01*
X004481Y018172D02*
X004339Y018172D01*
X004339Y018074D02*
X004481Y018074D01*
X004481Y017975D02*
X004339Y017975D01*
X004339Y017877D02*
X004481Y017877D01*
X004497Y017778D02*
X004323Y017778D01*
X004282Y017680D02*
X004538Y017680D01*
X004624Y017581D02*
X004196Y017581D01*
X004020Y017483D02*
X004800Y017483D01*
X004714Y017384D02*
X004106Y017384D01*
X004232Y017286D02*
X004588Y017286D01*
X004523Y017187D02*
X004297Y017187D01*
X004338Y017088D02*
X004482Y017088D01*
X004481Y016990D02*
X004339Y016990D01*
X004339Y016891D02*
X004481Y016891D01*
X004481Y016793D02*
X004339Y016793D01*
X004339Y016694D02*
X004481Y016694D01*
X004481Y016596D02*
X004339Y016596D01*
X004339Y016497D02*
X004481Y016497D01*
X004481Y016399D02*
X004339Y016399D01*
X004332Y016300D02*
X004488Y016300D01*
X004529Y016202D02*
X004291Y016202D01*
X004218Y016103D02*
X004602Y016103D01*
X005210Y015807D02*
X017025Y015807D01*
X017025Y015709D02*
X005288Y015709D01*
X005329Y015610D02*
X017025Y015610D01*
X017025Y015512D02*
X005339Y015512D01*
X005339Y015413D02*
X017025Y015413D01*
X017025Y015315D02*
X005339Y015315D01*
X005339Y015216D02*
X017025Y015216D01*
X017025Y015118D02*
X005339Y015118D01*
X005339Y015019D02*
X017025Y015019D01*
X017025Y014920D02*
X005339Y014920D01*
X005339Y014822D02*
X017025Y014822D01*
X017025Y014723D02*
X005300Y014723D01*
X005240Y014625D02*
X017025Y014625D01*
X017025Y014526D02*
X005125Y014526D01*
X005000Y014428D02*
X017025Y014428D01*
X017025Y014329D02*
X005188Y014329D01*
X005279Y014231D02*
X017025Y014231D01*
X017025Y014132D02*
X005320Y014132D01*
X005339Y014034D02*
X017025Y014034D01*
X017025Y013935D02*
X005339Y013935D01*
X005339Y013836D02*
X017025Y013836D01*
X017025Y013738D02*
X005339Y013738D01*
X005339Y013639D02*
X017025Y013639D01*
X017025Y013541D02*
X005339Y013541D01*
X005339Y013442D02*
X017025Y013442D01*
X017025Y013344D02*
X012472Y013344D01*
X012538Y013245D02*
X013085Y013245D01*
X012970Y013147D02*
X012566Y013147D01*
X012565Y013048D02*
X012927Y013048D01*
X012916Y012950D02*
X012524Y012950D01*
X012438Y012851D02*
X012899Y012851D01*
X013079Y012555D02*
X017025Y012555D01*
X017025Y012457D02*
X012980Y012457D01*
X013365Y012654D02*
X017025Y012654D01*
X017025Y012753D02*
X013500Y012753D01*
X013553Y012851D02*
X017025Y012851D01*
X017025Y012950D02*
X013569Y012950D01*
X013559Y013048D02*
X017025Y013048D01*
X017025Y013147D02*
X013515Y013147D01*
X013401Y013245D02*
X017025Y013245D01*
X017025Y012358D02*
X010382Y012358D01*
X010283Y012260D02*
X017025Y012260D01*
X017025Y012161D02*
X010185Y012161D01*
X010086Y012063D02*
X017025Y012063D01*
X017025Y011964D02*
X009988Y011964D01*
X009889Y011866D02*
X017025Y011866D01*
X017025Y011767D02*
X009790Y011767D01*
X009692Y011669D02*
X017025Y011669D01*
X017025Y011570D02*
X009690Y011570D01*
X009690Y011471D02*
X017025Y011471D01*
X017025Y011373D02*
X009690Y011373D01*
X009690Y011274D02*
X017025Y011274D01*
X017025Y011176D02*
X012710Y011176D01*
X012680Y011206D02*
X012560Y011256D01*
X012430Y011256D01*
X012309Y011206D01*
X012218Y011115D01*
X012168Y010994D01*
X012168Y010864D01*
X012218Y010744D01*
X012309Y010652D01*
X012430Y010603D01*
X012560Y010603D01*
X012680Y010652D01*
X012772Y010744D01*
X012779Y010761D01*
X014019Y010761D01*
X014117Y010664D01*
X014117Y010324D01*
X014192Y010248D01*
X014695Y010248D01*
X014770Y010324D01*
X014770Y010827D01*
X014695Y010902D01*
X014354Y010902D01*
X014159Y011098D01*
X014019Y011098D01*
X012779Y011098D01*
X012772Y011115D01*
X012680Y011206D01*
X012279Y011176D02*
X009690Y011176D01*
X009690Y011077D02*
X012202Y011077D01*
X012168Y010979D02*
X009690Y010979D01*
X009690Y010880D02*
X012168Y010880D01*
X012202Y010782D02*
X009690Y010782D01*
X009690Y010683D02*
X012279Y010683D01*
X012711Y010683D02*
X014098Y010683D01*
X014117Y010585D02*
X009690Y010585D01*
X009690Y010486D02*
X014117Y010486D01*
X014117Y010387D02*
X009690Y010387D01*
X009690Y010289D02*
X014151Y010289D01*
X013908Y010016D02*
X013781Y010142D01*
X013616Y010211D01*
X013576Y010211D01*
X013576Y009511D01*
X013476Y009511D01*
X013476Y009411D01*
X013076Y009411D01*
X013076Y009071D01*
X013145Y008906D01*
X013271Y008779D01*
X013437Y008711D01*
X013476Y008711D01*
X013476Y009411D01*
X013576Y009411D01*
X013576Y008711D01*
X013616Y008711D01*
X013781Y008779D01*
X013908Y008906D01*
X013976Y009071D01*
X013976Y009411D01*
X013576Y009411D01*
X013576Y009511D01*
X013976Y009511D01*
X013976Y009850D01*
X013908Y010016D01*
X013917Y009993D02*
X017025Y009993D01*
X017025Y009895D02*
X013958Y009895D01*
X013976Y009796D02*
X017025Y009796D01*
X017025Y009698D02*
X013976Y009698D01*
X013976Y009599D02*
X017025Y009599D01*
X017025Y009501D02*
X013576Y009501D01*
X013576Y009599D02*
X013476Y009599D01*
X013476Y009511D02*
X013476Y010211D01*
X013437Y010211D01*
X013271Y010142D01*
X013145Y010016D01*
X013076Y009850D01*
X013076Y009511D01*
X013476Y009511D01*
X013476Y009501D02*
X012955Y009501D01*
X012955Y009599D02*
X013076Y009599D01*
X013076Y009698D02*
X012955Y009698D01*
X012955Y009796D02*
X013076Y009796D01*
X013095Y009895D02*
X012935Y009895D01*
X012955Y009846D02*
X012890Y010004D01*
X012769Y010124D01*
X012611Y010190D01*
X012441Y010190D01*
X012283Y010124D01*
X012163Y010004D01*
X012097Y009846D01*
X012097Y009076D01*
X012163Y008918D01*
X012283Y008797D01*
X012441Y008732D01*
X012611Y008732D01*
X012769Y008797D01*
X012890Y008918D01*
X012955Y009076D01*
X012955Y009846D01*
X012894Y009993D02*
X013135Y009993D01*
X013221Y010092D02*
X012801Y010092D01*
X012251Y010092D02*
X011801Y010092D01*
X011769Y010124D02*
X011611Y010190D01*
X011441Y010190D01*
X011283Y010124D01*
X011163Y010004D01*
X011097Y009846D01*
X011097Y009076D01*
X011163Y008918D01*
X011283Y008797D01*
X011441Y008732D01*
X011611Y008732D01*
X011769Y008797D01*
X011890Y008918D01*
X011955Y009076D01*
X011955Y009846D01*
X011890Y010004D01*
X011769Y010124D01*
X011894Y009993D02*
X012158Y009993D01*
X012118Y009895D02*
X011935Y009895D01*
X011955Y009796D02*
X012097Y009796D01*
X012097Y009698D02*
X011955Y009698D01*
X011955Y009599D02*
X012097Y009599D01*
X012097Y009501D02*
X011955Y009501D01*
X011955Y009402D02*
X012097Y009402D01*
X012097Y009304D02*
X011955Y009304D01*
X011955Y009205D02*
X012097Y009205D01*
X012097Y009106D02*
X011955Y009106D01*
X011927Y009008D02*
X012125Y009008D01*
X012171Y008909D02*
X011881Y008909D01*
X011782Y008811D02*
X012270Y008811D01*
X012782Y008811D02*
X013240Y008811D01*
X013143Y008909D02*
X012881Y008909D01*
X012927Y009008D02*
X013102Y009008D01*
X013076Y009106D02*
X012955Y009106D01*
X012955Y009205D02*
X013076Y009205D01*
X013076Y009304D02*
X012955Y009304D01*
X012955Y009402D02*
X013076Y009402D01*
X013476Y009402D02*
X013576Y009402D01*
X013576Y009304D02*
X013476Y009304D01*
X013476Y009205D02*
X013576Y009205D01*
X013576Y009106D02*
X013476Y009106D01*
X013476Y009008D02*
X013576Y009008D01*
X013576Y008909D02*
X013476Y008909D01*
X013476Y008811D02*
X013576Y008811D01*
X013576Y008712D02*
X013476Y008712D01*
X013433Y008712D02*
X009690Y008712D01*
X009690Y008614D02*
X017025Y008614D01*
X017025Y008712D02*
X013619Y008712D01*
X013812Y008811D02*
X017025Y008811D01*
X017025Y008909D02*
X013909Y008909D01*
X013950Y009008D02*
X017025Y009008D01*
X017025Y009106D02*
X013976Y009106D01*
X013976Y009205D02*
X017025Y009205D01*
X017025Y009304D02*
X013976Y009304D01*
X013976Y009402D02*
X017025Y009402D01*
X017025Y010092D02*
X013832Y010092D01*
X013665Y010190D02*
X017025Y010190D01*
X017025Y010289D02*
X014736Y010289D01*
X014770Y010387D02*
X017025Y010387D01*
X017025Y010486D02*
X014770Y010486D01*
X014770Y010585D02*
X017025Y010585D01*
X017025Y010683D02*
X014770Y010683D01*
X014770Y010782D02*
X017025Y010782D01*
X017025Y010880D02*
X014717Y010880D01*
X014278Y010979D02*
X017025Y010979D01*
X017025Y011077D02*
X014179Y011077D01*
X013576Y010190D02*
X013476Y010190D01*
X013387Y010190D02*
X009690Y010190D01*
X009690Y010092D02*
X010251Y010092D01*
X010283Y010124D02*
X010163Y010004D01*
X010097Y009846D01*
X010097Y009076D01*
X010163Y008918D01*
X010283Y008797D01*
X010441Y008732D01*
X010611Y008732D01*
X010769Y008797D01*
X010890Y008918D01*
X010955Y009076D01*
X010955Y009846D01*
X010890Y010004D01*
X010769Y010124D01*
X010611Y010190D01*
X010441Y010190D01*
X010283Y010124D01*
X010158Y009993D02*
X009690Y009993D01*
X009690Y009895D02*
X010118Y009895D01*
X010097Y009796D02*
X009690Y009796D01*
X009690Y009698D02*
X010097Y009698D01*
X010097Y009599D02*
X009690Y009599D01*
X009690Y009501D02*
X010097Y009501D01*
X010097Y009402D02*
X009690Y009402D01*
X009690Y009304D02*
X010097Y009304D01*
X010097Y009205D02*
X009690Y009205D01*
X009690Y009106D02*
X010097Y009106D01*
X010125Y009008D02*
X009690Y009008D01*
X009690Y008909D02*
X010171Y008909D01*
X010270Y008811D02*
X009690Y008811D01*
X009690Y008515D02*
X017025Y008515D01*
X017025Y008417D02*
X009690Y008417D01*
X009690Y008318D02*
X017025Y008318D01*
X017025Y008220D02*
X009690Y008220D01*
X009714Y008121D02*
X017025Y008121D01*
X017025Y008022D02*
X009813Y008022D01*
X009911Y007924D02*
X017025Y007924D01*
X017025Y007825D02*
X012418Y007825D01*
X012452Y007811D02*
X012296Y007876D01*
X012249Y007876D01*
X012249Y007489D01*
X012174Y007489D01*
X012174Y007876D01*
X012127Y007876D01*
X011970Y007811D01*
X011851Y007692D01*
X011786Y007536D01*
X011786Y007489D01*
X012173Y007489D01*
X012173Y007414D01*
X011786Y007414D01*
X011786Y007367D01*
X011851Y007210D01*
X011970Y007091D01*
X012127Y007026D01*
X012174Y007026D01*
X012174Y007413D01*
X012249Y007413D01*
X012249Y007026D01*
X012296Y007026D01*
X012452Y007091D01*
X012571Y007210D01*
X012636Y007367D01*
X012636Y007414D01*
X012249Y007414D01*
X012249Y007489D01*
X012636Y007489D01*
X012636Y007536D01*
X012571Y007692D01*
X012452Y007811D01*
X012536Y007727D02*
X017025Y007727D01*
X017025Y007628D02*
X012598Y007628D01*
X012636Y007530D02*
X017025Y007530D01*
X017025Y007431D02*
X012249Y007431D01*
X012173Y007431D02*
X011615Y007431D01*
X011615Y007371D02*
X011553Y007222D01*
X011440Y007109D01*
X011291Y007047D01*
X011131Y007047D01*
X010982Y007109D01*
X010869Y007222D01*
X010807Y007371D01*
X010807Y007531D01*
X010869Y007680D01*
X010982Y007793D01*
X011131Y007855D01*
X011291Y007855D01*
X011440Y007793D01*
X011553Y007680D01*
X011615Y007531D01*
X011615Y007371D01*
X011599Y007333D02*
X011800Y007333D01*
X011841Y007234D02*
X011558Y007234D01*
X011467Y007136D02*
X011926Y007136D01*
X012100Y007037D02*
X010798Y007037D01*
X010699Y007136D02*
X010956Y007136D01*
X010864Y007234D02*
X010601Y007234D01*
X010502Y007333D02*
X010823Y007333D01*
X010807Y007431D02*
X010404Y007431D01*
X010305Y007530D02*
X010807Y007530D01*
X010848Y007628D02*
X010207Y007628D01*
X010108Y007727D02*
X010916Y007727D01*
X011060Y007825D02*
X010010Y007825D01*
X009436Y007924D02*
X008746Y007924D01*
X008819Y008022D02*
X009354Y008022D01*
X009354Y008121D02*
X008860Y008121D01*
X008862Y008220D02*
X009354Y008220D01*
X009354Y008318D02*
X008862Y008318D01*
X008862Y008417D02*
X009354Y008417D01*
X009354Y008515D02*
X008862Y008515D01*
X008862Y008614D02*
X009354Y008614D01*
X009354Y008712D02*
X008862Y008712D01*
X008851Y008811D02*
X009354Y008811D01*
X009354Y008909D02*
X008810Y008909D01*
X008724Y009008D02*
X009354Y009008D01*
X009354Y009106D02*
X005339Y009106D01*
X005339Y009008D02*
X007429Y009008D01*
X007336Y008909D02*
X005339Y008909D01*
X005339Y008816D02*
X005273Y008658D01*
X005153Y008538D01*
X004995Y008472D01*
X004825Y008472D01*
X004667Y008538D01*
X004547Y008658D01*
X004481Y008816D01*
X004481Y009586D01*
X004547Y009744D01*
X004667Y009865D01*
X004825Y009930D01*
X004995Y009930D01*
X005153Y009865D01*
X005273Y009744D01*
X005339Y009586D01*
X005339Y008816D01*
X005337Y008811D02*
X007295Y008811D01*
X007283Y008712D02*
X005296Y008712D01*
X005229Y008614D02*
X007283Y008614D01*
X007283Y008515D02*
X005099Y008515D01*
X004721Y008515D02*
X004099Y008515D01*
X004153Y008538D02*
X004273Y008658D01*
X004339Y008816D01*
X004339Y009586D01*
X004273Y009744D01*
X004153Y009865D01*
X003995Y009930D01*
X003825Y009930D01*
X003667Y009865D01*
X003547Y009744D01*
X003481Y009586D01*
X003481Y008816D01*
X003547Y008658D01*
X003667Y008538D01*
X003825Y008472D01*
X003995Y008472D01*
X004153Y008538D01*
X004229Y008614D02*
X004591Y008614D01*
X004524Y008712D02*
X004296Y008712D01*
X004337Y008811D02*
X004483Y008811D01*
X004481Y008909D02*
X004339Y008909D01*
X004339Y009008D02*
X004481Y009008D01*
X004481Y009106D02*
X004339Y009106D01*
X004339Y009205D02*
X004481Y009205D01*
X004481Y009304D02*
X004339Y009304D01*
X004339Y009402D02*
X004481Y009402D01*
X004481Y009501D02*
X004339Y009501D01*
X004333Y009599D02*
X004487Y009599D01*
X004527Y009698D02*
X004293Y009698D01*
X004221Y009796D02*
X004599Y009796D01*
X004740Y009895D02*
X004080Y009895D01*
X004046Y009993D02*
X004774Y009993D01*
X004825Y009972D02*
X004667Y010038D01*
X004547Y010158D01*
X004481Y010316D01*
X004481Y011086D01*
X004547Y011244D01*
X004667Y011365D01*
X004825Y011430D01*
X004995Y011430D01*
X005153Y011365D01*
X005273Y011244D01*
X005339Y011086D01*
X005339Y010316D01*
X005273Y010158D01*
X005153Y010038D01*
X004995Y009972D01*
X004825Y009972D01*
X005046Y009993D02*
X009354Y009993D01*
X009354Y009895D02*
X005080Y009895D01*
X005221Y009796D02*
X009354Y009796D01*
X009354Y009698D02*
X005293Y009698D01*
X005333Y009599D02*
X009354Y009599D01*
X009354Y009501D02*
X005339Y009501D01*
X005339Y009402D02*
X009354Y009402D01*
X009354Y009304D02*
X005339Y009304D01*
X005339Y009205D02*
X009354Y009205D01*
X009354Y010092D02*
X005207Y010092D01*
X005287Y010190D02*
X008160Y010190D01*
X008132Y010202D02*
X008271Y010144D01*
X008922Y010144D01*
X009061Y010202D01*
X009168Y010309D01*
X009226Y010448D01*
X009226Y010598D01*
X009168Y010738D01*
X009061Y010844D01*
X008922Y010902D01*
X008271Y010902D01*
X008132Y010844D01*
X008026Y010738D01*
X007968Y010598D01*
X007968Y010448D01*
X008026Y010309D01*
X008132Y010202D01*
X008045Y010289D02*
X005328Y010289D01*
X005339Y010387D02*
X007993Y010387D01*
X007968Y010486D02*
X005339Y010486D01*
X005339Y010585D02*
X007968Y010585D01*
X008003Y010683D02*
X005339Y010683D01*
X005339Y010782D02*
X008070Y010782D01*
X008219Y010880D02*
X005339Y010880D01*
X005339Y010979D02*
X008133Y010979D01*
X008120Y010984D02*
X008267Y010923D01*
X008588Y010923D01*
X008588Y011314D01*
X008606Y011314D01*
X008606Y011332D01*
X009247Y011332D01*
X009247Y011403D01*
X009186Y011550D01*
X009073Y011662D01*
X008926Y011723D01*
X008606Y011723D01*
X008606Y011332D01*
X008588Y011332D01*
X008588Y011723D01*
X008267Y011723D01*
X008120Y011662D01*
X008008Y011550D01*
X007947Y011403D01*
X007947Y011332D01*
X008587Y011332D01*
X008587Y011314D01*
X007947Y011314D01*
X007947Y011244D01*
X008008Y011097D01*
X008120Y010984D01*
X008027Y011077D02*
X005339Y011077D01*
X005302Y011176D02*
X007975Y011176D01*
X007947Y011274D02*
X005243Y011274D01*
X005133Y011373D02*
X007947Y011373D01*
X007975Y011471D02*
X003049Y011471D01*
X002999Y011451D02*
X002960Y011451D01*
X002999Y011451D01*
X002960Y011471D02*
X002860Y011471D01*
X002860Y011373D02*
X002960Y011373D01*
X002960Y011274D02*
X002860Y011274D01*
X002860Y011176D02*
X002960Y011176D01*
X002960Y011077D02*
X002860Y011077D01*
X002860Y010979D02*
X002960Y010979D01*
X002960Y010880D02*
X002860Y010880D01*
X002860Y010782D02*
X002960Y010782D01*
X002960Y010683D02*
X003481Y010683D01*
X003481Y010585D02*
X003360Y010585D01*
X003360Y010486D02*
X003481Y010486D01*
X003481Y010387D02*
X003360Y010387D01*
X003351Y010289D02*
X003492Y010289D01*
X003481Y010316D02*
X003547Y010158D01*
X003667Y010038D01*
X003825Y009972D01*
X003995Y009972D01*
X004153Y010038D01*
X004273Y010158D01*
X004339Y010316D01*
X004339Y011086D01*
X004273Y011244D01*
X004153Y011365D01*
X003995Y011430D01*
X003825Y011430D01*
X003667Y011365D01*
X003547Y011244D01*
X003481Y011086D01*
X003481Y010316D01*
X003533Y010190D02*
X003310Y010190D01*
X003237Y010092D02*
X003613Y010092D01*
X003774Y009993D02*
X003101Y009993D01*
X003135Y009895D02*
X003740Y009895D01*
X003599Y009796D02*
X003251Y009796D01*
X003316Y009698D02*
X003527Y009698D01*
X003487Y009599D02*
X003356Y009599D01*
X003360Y009501D02*
X003481Y009501D01*
X003481Y009402D02*
X003360Y009402D01*
X003360Y009304D02*
X003481Y009304D01*
X003481Y009205D02*
X002960Y009205D01*
X002960Y009106D02*
X002860Y009106D01*
X002860Y009008D02*
X002960Y009008D01*
X002960Y008909D02*
X002860Y008909D01*
X002860Y008811D02*
X002960Y008811D01*
X002960Y008712D02*
X002860Y008712D01*
X002860Y008614D02*
X002960Y008614D01*
X002960Y008515D02*
X002860Y008515D01*
X003154Y008515D02*
X003721Y008515D01*
X003591Y008614D02*
X003259Y008614D01*
X003319Y008712D02*
X003524Y008712D01*
X003483Y008811D02*
X003360Y008811D01*
X003360Y008909D02*
X003481Y008909D01*
X003481Y009008D02*
X003360Y009008D01*
X003360Y009106D02*
X003481Y009106D01*
X002685Y009895D02*
X001671Y009895D01*
X001671Y009993D02*
X002719Y009993D01*
X002583Y010092D02*
X001671Y010092D01*
X001671Y010190D02*
X002510Y010190D01*
X002469Y010289D02*
X001584Y010289D01*
X001661Y010387D02*
X002460Y010387D01*
X002460Y010486D02*
X001760Y010486D01*
X001770Y010585D02*
X002460Y010585D01*
X002569Y009796D02*
X001671Y009796D01*
X001616Y009698D02*
X002504Y009698D01*
X002464Y009599D02*
X001629Y009599D01*
X001573Y009655D02*
X001573Y009655D01*
X001671Y009501D02*
X002460Y009501D01*
X002460Y009402D02*
X001671Y009402D01*
X001009Y009109D02*
X001009Y009109D01*
X001006Y009106D02*
X000602Y009106D01*
X000602Y009008D02*
X000910Y009008D01*
X000910Y008909D02*
X000602Y008909D01*
X000602Y008811D02*
X000910Y008811D01*
X000910Y008712D02*
X000602Y008712D01*
X000602Y008614D02*
X000910Y008614D01*
X000958Y008515D02*
X000602Y008515D01*
X000602Y008417D02*
X000961Y008417D01*
X001009Y008464D02*
X001009Y008464D01*
X000910Y008318D02*
X000602Y008318D01*
X000602Y008220D02*
X000910Y008220D01*
X000910Y008121D02*
X000602Y008121D01*
X000602Y008022D02*
X000910Y008022D01*
X000910Y007924D02*
X000602Y007924D01*
X000602Y007825D02*
X000997Y007825D01*
X000910Y007727D02*
X000602Y007727D01*
X000602Y007628D02*
X000910Y007628D01*
X000968Y007530D02*
X000602Y007530D01*
X000602Y007431D02*
X001066Y007431D01*
X001050Y007333D02*
X000602Y007333D01*
X000602Y007234D02*
X000951Y007234D01*
X000910Y007193D02*
X000910Y007193D01*
X000910Y007136D02*
X000602Y007136D01*
X000602Y007037D02*
X000910Y007037D01*
X000910Y006938D02*
X000602Y006938D01*
X000602Y006840D02*
X000910Y006840D01*
X000915Y006741D02*
X000602Y006741D01*
X000602Y006643D02*
X001013Y006643D01*
X001175Y006643D02*
X001308Y006643D01*
X000913Y009205D02*
X000602Y009205D01*
X000602Y009304D02*
X000910Y009304D01*
X000910Y009402D02*
X000602Y009402D01*
X000602Y009501D02*
X000910Y009501D01*
X000953Y009599D02*
X000602Y009599D01*
X000602Y009698D02*
X000966Y009698D01*
X000910Y009796D02*
X000602Y009796D01*
X000602Y009895D02*
X000910Y009895D01*
X000998Y009993D02*
X000602Y009993D01*
X000602Y010092D02*
X000966Y010092D01*
X000910Y010190D02*
X000602Y010190D01*
X000602Y010289D02*
X000910Y010289D01*
X000998Y010387D02*
X000602Y010387D01*
X000602Y010486D02*
X001019Y010486D01*
X001009Y010496D02*
X001009Y010496D01*
X000921Y010585D02*
X000602Y010585D01*
X000602Y010683D02*
X000910Y010683D01*
X000945Y010782D02*
X000602Y010782D01*
X000602Y010880D02*
X000910Y010880D01*
X000910Y010979D02*
X000602Y010979D01*
X000602Y011077D02*
X001008Y011077D01*
X001099Y011274D02*
X000602Y011274D01*
X000602Y011176D02*
X001303Y011176D01*
X001001Y011373D02*
X000602Y011373D01*
X000602Y011471D02*
X000910Y011471D01*
X000910Y011570D02*
X000602Y011570D01*
X000602Y011669D02*
X000910Y011669D01*
X000910Y011767D02*
X000602Y011767D01*
X000602Y011866D02*
X000964Y011866D01*
X000910Y011812D02*
X000910Y011812D01*
X000956Y011964D02*
X000602Y011964D01*
X000602Y012063D02*
X000910Y012063D01*
X000910Y012161D02*
X000602Y012161D01*
X000602Y012260D02*
X000910Y012260D01*
X000910Y012358D02*
X000602Y012358D01*
X000602Y012457D02*
X000911Y012457D01*
X000910Y012457D02*
X000910Y012457D01*
X001009Y012555D02*
X001009Y012555D01*
X000602Y012555D01*
X000602Y012654D02*
X001009Y012654D01*
X000910Y012753D02*
X000602Y012753D01*
X000602Y012851D02*
X000910Y012851D01*
X000910Y012950D02*
X000602Y012950D01*
X000602Y013048D02*
X000910Y013048D01*
X000910Y013101D02*
X000910Y013101D01*
X000956Y013147D02*
X000602Y013147D01*
X000602Y013245D02*
X001054Y013245D01*
X001062Y013344D02*
X000602Y013344D01*
X000602Y013442D02*
X000963Y013442D01*
X000910Y013541D02*
X000602Y013541D01*
X000602Y013639D02*
X000910Y013639D01*
X000910Y013738D02*
X000602Y013738D01*
X000602Y013836D02*
X000910Y013836D01*
X000910Y013935D02*
X000602Y013935D01*
X000602Y014034D02*
X000910Y014034D01*
X000965Y014132D02*
X000602Y014132D01*
X000602Y014231D02*
X000936Y014231D01*
X000910Y014329D02*
X000602Y014329D01*
X000602Y014428D02*
X000910Y014428D01*
X000910Y014526D02*
X000602Y014526D01*
X000602Y014625D02*
X000910Y014625D01*
X000930Y014723D02*
X000602Y014723D01*
X000602Y014822D02*
X000910Y014822D01*
X000910Y014920D02*
X000602Y014920D01*
X000602Y015019D02*
X000910Y015019D01*
X000910Y015118D02*
X000602Y015118D01*
X000602Y015216D02*
X000910Y015216D01*
X000975Y015315D02*
X000602Y015315D01*
X000602Y015413D02*
X000944Y015413D01*
X001009Y015348D02*
X001009Y015348D01*
X001009Y015348D01*
X000910Y015512D02*
X000602Y015512D01*
X000602Y015610D02*
X000910Y015610D01*
X000922Y015709D02*
X000602Y015709D01*
X000602Y015807D02*
X000970Y015807D01*
X000910Y015906D02*
X000602Y015906D01*
X000602Y016004D02*
X000910Y016004D01*
X000910Y016103D02*
X000602Y016103D01*
X000602Y016202D02*
X000910Y016202D01*
X000994Y016300D02*
X000602Y016300D01*
X000602Y016399D02*
X000925Y016399D01*
X000910Y016497D02*
X000602Y016497D01*
X000602Y016596D02*
X000940Y016596D01*
X001009Y016315D02*
X001009Y016315D01*
X001236Y016694D02*
X000602Y016694D01*
X000602Y016793D02*
X001304Y016793D01*
X001657Y016596D02*
X002460Y016596D01*
X002460Y016651D02*
X002460Y016312D01*
X002529Y016146D01*
X002655Y016020D01*
X002820Y015951D01*
X002860Y015951D01*
X002860Y016651D01*
X002460Y016651D01*
X002460Y016497D02*
X001671Y016497D01*
X001657Y016399D02*
X002460Y016399D01*
X002465Y016300D02*
X001588Y016300D01*
X001671Y016202D02*
X002506Y016202D01*
X002572Y016103D02*
X001671Y016103D01*
X001671Y016004D02*
X002692Y016004D01*
X002711Y015906D02*
X001671Y015906D01*
X001611Y015807D02*
X002580Y015807D01*
X002509Y015709D02*
X001513Y015709D01*
X001564Y015760D02*
X001564Y015760D01*
X001376Y015610D02*
X002468Y015610D01*
X002460Y015512D02*
X001376Y015512D01*
X001369Y015413D02*
X001343Y015413D01*
X001606Y015413D02*
X002460Y015413D01*
X002860Y015413D02*
X002960Y015413D01*
X002960Y015315D02*
X002860Y015315D01*
X002860Y015512D02*
X002960Y015512D01*
X002960Y015610D02*
X002860Y015610D01*
X002860Y015709D02*
X002960Y015709D01*
X002960Y015807D02*
X002860Y015807D01*
X002860Y015906D02*
X002960Y015906D01*
X002960Y016004D02*
X002860Y016004D01*
X002860Y016103D02*
X002960Y016103D01*
X002960Y016202D02*
X002860Y016202D01*
X002860Y016300D02*
X002960Y016300D01*
X002960Y016399D02*
X002860Y016399D01*
X002860Y016497D02*
X002960Y016497D01*
X002960Y016596D02*
X002860Y016596D01*
X002960Y016694D02*
X003481Y016694D01*
X003481Y016596D02*
X003360Y016596D01*
X003360Y016497D02*
X003481Y016497D01*
X003481Y016399D02*
X003360Y016399D01*
X003355Y016300D02*
X003488Y016300D01*
X003529Y016202D02*
X003314Y016202D01*
X003248Y016103D02*
X003602Y016103D01*
X003747Y016004D02*
X003128Y016004D01*
X003109Y015906D02*
X003767Y015906D01*
X003610Y015807D02*
X003240Y015807D01*
X003311Y015709D02*
X003532Y015709D01*
X003491Y015610D02*
X003352Y015610D01*
X003360Y015512D02*
X003481Y015512D01*
X003481Y015413D02*
X003360Y015413D01*
X003360Y015315D02*
X003481Y015315D01*
X002960Y015019D02*
X002860Y015019D01*
X002860Y014920D02*
X002960Y014920D01*
X002960Y014822D02*
X002860Y014822D01*
X002860Y014723D02*
X002960Y014723D01*
X002960Y014625D02*
X002860Y014625D01*
X002860Y014526D02*
X002960Y014526D01*
X002960Y014451D02*
X002999Y014451D01*
X002960Y014451D01*
X002960Y014428D02*
X002860Y014428D01*
X002860Y014329D02*
X002960Y014329D01*
X002960Y014231D02*
X002860Y014231D01*
X002860Y014132D02*
X002960Y014132D01*
X002960Y014034D02*
X002860Y014034D01*
X002860Y013935D02*
X002960Y013935D01*
X002960Y013836D02*
X002860Y013836D01*
X002860Y013738D02*
X001878Y013738D01*
X001671Y012851D02*
X002624Y012851D01*
X002527Y012753D02*
X001671Y012753D01*
X001573Y012654D02*
X002486Y012654D01*
X002460Y012358D02*
X001671Y012358D01*
X001671Y012457D02*
X001564Y012564D01*
X001564Y012645D02*
X001564Y012645D01*
X001770Y012260D02*
X002460Y012260D01*
X002860Y012063D02*
X002960Y012063D01*
X002960Y012161D02*
X003481Y012161D01*
X003481Y012063D02*
X003360Y012063D01*
X003360Y011964D02*
X003481Y011964D01*
X003481Y011866D02*
X003360Y011866D01*
X003341Y011767D02*
X003501Y011767D01*
X003481Y011816D02*
X003547Y011658D01*
X003667Y011538D01*
X003825Y011472D01*
X003995Y011472D01*
X004153Y011538D01*
X004273Y011658D01*
X004339Y011816D01*
X004339Y012586D01*
X004273Y012744D01*
X004153Y012865D01*
X003995Y012930D01*
X003825Y012930D01*
X003667Y012865D01*
X003547Y012744D01*
X003481Y012586D01*
X003481Y011816D01*
X003542Y011669D02*
X003301Y011669D01*
X003215Y011570D02*
X003635Y011570D01*
X003687Y011373D02*
X003175Y011373D01*
X003273Y011274D02*
X003577Y011274D01*
X003518Y011176D02*
X003325Y011176D01*
X003360Y011077D02*
X003481Y011077D01*
X003481Y010979D02*
X003360Y010979D01*
X003360Y010880D02*
X003481Y010880D01*
X003481Y010782D02*
X003360Y010782D01*
X002960Y011570D02*
X002860Y011570D01*
X002860Y011669D02*
X002960Y011669D01*
X002960Y011767D02*
X002860Y011767D01*
X002860Y011866D02*
X002960Y011866D01*
X002960Y011964D02*
X002860Y011964D01*
X003360Y012260D02*
X003481Y012260D01*
X003481Y012358D02*
X003360Y012358D01*
X003360Y012457D02*
X003481Y012457D01*
X003481Y012555D02*
X003360Y012555D01*
X003334Y012654D02*
X003509Y012654D01*
X003555Y012753D02*
X003293Y012753D01*
X003196Y012851D02*
X003654Y012851D01*
X003657Y013048D02*
X003193Y013048D01*
X003292Y013147D02*
X003558Y013147D01*
X003510Y013245D02*
X003332Y013245D01*
X003360Y013344D02*
X003481Y013344D01*
X003481Y013442D02*
X003360Y013442D01*
X003360Y013541D02*
X003481Y013541D01*
X003481Y013639D02*
X003360Y013639D01*
X003481Y013738D02*
X002960Y013738D01*
X002960Y013639D02*
X002860Y013639D01*
X002860Y013541D02*
X002960Y013541D01*
X002960Y013442D02*
X002860Y013442D01*
X002860Y013344D02*
X002960Y013344D01*
X002960Y013245D02*
X002860Y013245D01*
X002860Y013147D02*
X002960Y013147D01*
X002960Y013048D02*
X002860Y013048D01*
X003003Y012950D02*
X009749Y012950D01*
X009708Y013048D02*
X005163Y013048D01*
X005262Y013147D02*
X009707Y013147D01*
X009734Y013245D02*
X005309Y013245D01*
X005339Y013344D02*
X009801Y013344D01*
X010267Y013344D02*
X012006Y013344D01*
X012040Y012851D02*
X010233Y012851D01*
X010300Y012753D02*
X005265Y012753D01*
X005273Y012744D02*
X005153Y012865D01*
X004995Y012930D01*
X004825Y012930D01*
X004667Y012865D01*
X004547Y012744D01*
X004481Y012586D01*
X004481Y011816D01*
X004547Y011658D01*
X004667Y011538D01*
X004825Y011472D01*
X004995Y011472D01*
X005153Y011538D01*
X005273Y011658D01*
X005339Y011816D01*
X005339Y012586D01*
X005273Y012744D01*
X005311Y012654D02*
X010202Y012654D01*
X010103Y012555D02*
X005339Y012555D01*
X005339Y012457D02*
X010005Y012457D01*
X009906Y012358D02*
X005339Y012358D01*
X005339Y012260D02*
X009808Y012260D01*
X009709Y012161D02*
X005339Y012161D01*
X005339Y012063D02*
X009611Y012063D01*
X009512Y011964D02*
X005339Y011964D01*
X005339Y011866D02*
X009414Y011866D01*
X009354Y011767D02*
X005319Y011767D01*
X005278Y011669D02*
X008136Y011669D01*
X008028Y011570D02*
X005185Y011570D01*
X004687Y011373D02*
X004133Y011373D01*
X004243Y011274D02*
X004577Y011274D01*
X004518Y011176D02*
X004302Y011176D01*
X004339Y011077D02*
X004481Y011077D01*
X004481Y010979D02*
X004339Y010979D01*
X004339Y010880D02*
X004481Y010880D01*
X004481Y010782D02*
X004339Y010782D01*
X004339Y010683D02*
X004481Y010683D01*
X004481Y010585D02*
X004339Y010585D01*
X004339Y010486D02*
X004481Y010486D01*
X004481Y010387D02*
X004339Y010387D01*
X004328Y010289D02*
X004492Y010289D01*
X004533Y010190D02*
X004287Y010190D01*
X004207Y010092D02*
X004613Y010092D01*
X004635Y011570D02*
X004185Y011570D01*
X004278Y011669D02*
X004542Y011669D01*
X004501Y011767D02*
X004319Y011767D01*
X004339Y011866D02*
X004481Y011866D01*
X004481Y011964D02*
X004339Y011964D01*
X004339Y012063D02*
X004481Y012063D01*
X004481Y012161D02*
X004339Y012161D01*
X004339Y012260D02*
X004481Y012260D01*
X004481Y012358D02*
X004339Y012358D01*
X004339Y012457D02*
X004481Y012457D01*
X004481Y012555D02*
X004339Y012555D01*
X004311Y012654D02*
X004509Y012654D01*
X004555Y012753D02*
X004265Y012753D01*
X004166Y012851D02*
X004654Y012851D01*
X004657Y013048D02*
X004163Y013048D01*
X004262Y013147D02*
X004558Y013147D01*
X004510Y013245D02*
X004309Y013245D01*
X004339Y013344D02*
X004481Y013344D01*
X004481Y013442D02*
X004339Y013442D01*
X004339Y013541D02*
X004481Y013541D01*
X004481Y013639D02*
X004339Y013639D01*
X004339Y013738D02*
X004481Y013738D01*
X004481Y013836D02*
X004339Y013836D01*
X004339Y013935D02*
X004481Y013935D01*
X004481Y014034D02*
X004339Y014034D01*
X004320Y014132D02*
X004500Y014132D01*
X004541Y014231D02*
X004279Y014231D01*
X004188Y014329D02*
X004632Y014329D01*
X003632Y014329D02*
X003218Y014329D01*
X003302Y014231D02*
X003541Y014231D01*
X003500Y014132D02*
X003343Y014132D01*
X003360Y014034D02*
X003481Y014034D01*
X003481Y013935D02*
X003360Y013935D01*
X003360Y013836D02*
X003481Y013836D01*
X005166Y012851D02*
X009835Y012851D01*
X009354Y011669D02*
X009058Y011669D01*
X009166Y011570D02*
X009354Y011570D01*
X009354Y011471D02*
X009218Y011471D01*
X009247Y011373D02*
X009354Y011373D01*
X009354Y011274D02*
X009247Y011274D01*
X009247Y011244D02*
X009247Y011314D01*
X008606Y011314D01*
X008606Y010923D01*
X008926Y010923D01*
X009073Y010984D01*
X009186Y011097D01*
X009247Y011244D01*
X009219Y011176D02*
X009354Y011176D01*
X009354Y011077D02*
X009167Y011077D01*
X009061Y010979D02*
X009354Y010979D01*
X009354Y010880D02*
X008974Y010880D01*
X009124Y010782D02*
X009354Y010782D01*
X009354Y010683D02*
X009190Y010683D01*
X009226Y010585D02*
X009354Y010585D01*
X009354Y010486D02*
X009226Y010486D01*
X009201Y010387D02*
X009354Y010387D01*
X009354Y010289D02*
X009148Y010289D01*
X009033Y010190D02*
X009354Y010190D01*
X008606Y010979D02*
X008588Y010979D01*
X008588Y011077D02*
X008606Y011077D01*
X008606Y011176D02*
X008588Y011176D01*
X008588Y011274D02*
X008606Y011274D01*
X008606Y011373D02*
X008588Y011373D01*
X008588Y011471D02*
X008606Y011471D01*
X008606Y011570D02*
X008588Y011570D01*
X008588Y011669D02*
X008606Y011669D01*
X010801Y010092D02*
X011251Y010092D01*
X011158Y009993D02*
X010894Y009993D01*
X010935Y009895D02*
X011118Y009895D01*
X011097Y009796D02*
X010955Y009796D01*
X010955Y009698D02*
X011097Y009698D01*
X011097Y009599D02*
X010955Y009599D01*
X010955Y009501D02*
X011097Y009501D01*
X011097Y009402D02*
X010955Y009402D01*
X010955Y009304D02*
X011097Y009304D01*
X011097Y009205D02*
X010955Y009205D01*
X010955Y009106D02*
X011097Y009106D01*
X011125Y009008D02*
X010927Y009008D01*
X010881Y008909D02*
X011171Y008909D01*
X011270Y008811D02*
X010782Y008811D01*
X011363Y007825D02*
X012004Y007825D01*
X011886Y007727D02*
X011506Y007727D01*
X011575Y007628D02*
X011825Y007628D01*
X011786Y007530D02*
X011615Y007530D01*
X011595Y006840D02*
X010995Y006840D01*
X010897Y006938D02*
X017025Y006938D01*
X017025Y006840D02*
X012827Y006840D01*
X012992Y006741D02*
X017025Y006741D01*
X017025Y006643D02*
X013069Y006643D01*
X013110Y006544D02*
X017025Y006544D01*
X017025Y006446D02*
X013115Y006446D01*
X013105Y006347D02*
X017025Y006347D01*
X017025Y006249D02*
X013064Y006249D01*
X012981Y006150D02*
X017025Y006150D01*
X017025Y007037D02*
X012322Y007037D01*
X012249Y007037D02*
X012174Y007037D01*
X012174Y007136D02*
X012249Y007136D01*
X012249Y007234D02*
X012174Y007234D01*
X012174Y007333D02*
X012249Y007333D01*
X012249Y007530D02*
X012174Y007530D01*
X012174Y007628D02*
X012249Y007628D01*
X012249Y007727D02*
X012174Y007727D01*
X012174Y007825D02*
X012249Y007825D01*
X012622Y007333D02*
X017025Y007333D01*
X017025Y007234D02*
X012581Y007234D01*
X012497Y007136D02*
X017025Y007136D01*
X017025Y004869D02*
X016521Y004869D01*
X016691Y004771D02*
X017025Y004771D01*
X017025Y004672D02*
X016815Y004672D01*
X016913Y004573D02*
X017025Y004573D01*
X017025Y004475D02*
X016986Y004475D01*
X016999Y003292D02*
X017025Y003292D01*
X017025Y003194D02*
X016936Y003194D01*
X017025Y003095D02*
X016837Y003095D01*
X016730Y002997D02*
X017025Y002997D01*
X017025Y002898D02*
X016560Y002898D01*
X016256Y002800D02*
X017025Y002800D01*
X013179Y002898D02*
X010743Y002898D01*
X010988Y002997D02*
X012934Y002997D01*
X012775Y003095D02*
X011147Y003095D01*
X011245Y003194D02*
X012677Y003194D01*
X012583Y003292D02*
X011339Y003292D01*
X011396Y003391D02*
X012526Y003391D01*
X012469Y003489D02*
X011453Y003489D01*
X011492Y003588D02*
X012430Y003588D01*
X012404Y003687D02*
X011519Y003687D01*
X011545Y003785D02*
X012377Y003785D01*
X012371Y003884D02*
X011551Y003884D01*
X011551Y003982D02*
X012371Y003982D01*
X012371Y004081D02*
X011551Y004081D01*
X011528Y004179D02*
X012394Y004179D01*
X012420Y004278D02*
X011502Y004278D01*
X011474Y004376D02*
X012448Y004376D01*
X012505Y004475D02*
X011417Y004475D01*
X011361Y004573D02*
X012562Y004573D01*
X012641Y004672D02*
X011282Y004672D01*
X011183Y004771D02*
X012739Y004771D01*
X012871Y004869D02*
X011051Y004869D01*
X010879Y004968D02*
X013044Y004968D01*
X012441Y006150D02*
X011981Y006150D01*
X012064Y006249D02*
X012358Y006249D01*
X012317Y006347D02*
X012105Y006347D01*
X012115Y006446D02*
X012307Y006446D01*
X012313Y006544D02*
X012110Y006544D01*
X012069Y006643D02*
X012354Y006643D01*
X012431Y006741D02*
X011992Y006741D01*
X011827Y006840D02*
X012595Y006840D01*
X011431Y006741D02*
X011094Y006741D01*
X011192Y006643D02*
X011354Y006643D01*
X013476Y009698D02*
X013576Y009698D01*
X013576Y009796D02*
X013476Y009796D01*
X013476Y009895D02*
X013576Y009895D01*
X013576Y009993D02*
X013476Y009993D01*
X013476Y010092D02*
X013576Y010092D01*
X006640Y003884D02*
X004696Y003884D01*
X004737Y003982D02*
X006599Y003982D01*
X006563Y004081D02*
X004775Y004081D01*
X004775Y004179D02*
X006563Y004179D01*
X006563Y004278D02*
X004775Y004278D01*
X004775Y004376D02*
X006563Y004376D01*
X006563Y004475D02*
X004775Y004475D01*
X004775Y004573D02*
X006563Y004573D01*
X006720Y003785D02*
X004609Y003785D01*
X004488Y003687D02*
X006818Y003687D01*
X003481Y016793D02*
X003360Y016793D01*
X003360Y016891D02*
X003481Y016891D01*
X003481Y016990D02*
X003360Y016990D01*
X003360Y017088D02*
X003482Y017088D01*
X003523Y017187D02*
X003320Y017187D01*
X003262Y017286D02*
X003588Y017286D01*
X003714Y017384D02*
X003161Y017384D01*
X003076Y017483D02*
X003800Y017483D01*
X003624Y017581D02*
X003226Y017581D01*
X003305Y017680D02*
X003538Y017680D01*
X003497Y017778D02*
X003346Y017778D01*
X003360Y017877D02*
X003481Y017877D01*
X003481Y017975D02*
X003360Y017975D01*
X003360Y018074D02*
X003481Y018074D01*
X005176Y019059D02*
X015625Y019059D01*
X015454Y019158D02*
X005274Y019158D01*
X005315Y019256D02*
X015347Y019256D01*
X015249Y019355D02*
X005340Y019355D01*
X005340Y019453D02*
X015185Y019453D01*
X015128Y019552D02*
X005340Y019552D01*
X005340Y019651D02*
X015082Y019651D01*
X015055Y019749D02*
X005340Y019749D01*
X005340Y019848D02*
X015029Y019848D01*
X015017Y019946D02*
X005340Y019946D01*
X005340Y020045D02*
X015017Y020045D01*
X015017Y020143D02*
X005316Y020143D01*
X005276Y020242D02*
X015035Y020242D01*
X015061Y020340D02*
X005178Y020340D01*
X001068Y016891D02*
X000602Y016891D01*
X000602Y016990D02*
X000970Y016990D01*
X000773Y017088D02*
X000602Y017088D01*
X000602Y017187D02*
X000714Y017187D01*
X000714Y017286D02*
X000602Y017286D01*
X000602Y017384D02*
X000714Y017384D01*
X000798Y017483D02*
X000602Y017483D01*
X000602Y017581D02*
X000897Y017581D01*
D16*
X006333Y009729D02*
X006333Y009355D01*
X006333Y009729D02*
X008597Y011323D01*
D17*
X009522Y011737D02*
X009522Y008075D01*
X011156Y006441D01*
X011727Y006441D01*
X011717Y006451D01*
X011711Y006451D01*
X011711Y006465D01*
X012233Y006022D02*
X011884Y005674D01*
X011274Y005654D01*
X008473Y008455D01*
X008462Y008455D01*
X008462Y008447D01*
X008440Y008469D01*
X008440Y008863D01*
X007947Y009355D01*
X006333Y009355D01*
X008462Y008447D02*
X008479Y008429D01*
X009522Y011737D02*
X010408Y012622D01*
X012908Y012622D01*
X013243Y012957D01*
X012239Y013114D02*
X010034Y013114D01*
X009916Y015674D02*
X009581Y015674D01*
X009916Y015674D02*
X010211Y015969D01*
X010231Y019374D01*
X011215Y020359D01*
X012495Y010929D02*
X014089Y010929D01*
X014443Y010575D01*
X013550Y009461D02*
X013526Y009461D01*
X013550Y009461D02*
X013577Y009433D01*
X013538Y009394D01*
X013538Y008528D01*
X012461Y007451D01*
X012233Y007451D01*
X012233Y006022D01*
X012239Y007445D02*
X012233Y007451D01*
X012211Y007451D01*
D18*
X012495Y010929D03*
X013243Y012957D03*
X012239Y013114D03*
X010034Y013114D03*
X009581Y015674D03*
X011215Y020359D03*
D19*
X014443Y010575D03*
M02*
