%
M48
M72
T01C0.0236
T02C0.0350
T03C0.0400
T04C0.0591
%
T01
X7662Y8455
X8462Y8455
X8597Y10523
X8597Y11323
X10034Y13114
X12239Y13114
X13243Y12957
X12495Y10929
X14443Y10575
X9581Y15674
X11215Y20359
T02
X11211Y7451
X11711Y6451
X12711Y6451
X12211Y7451
T03
X12526Y9461
X11526Y9461
X10526Y9461
X13526Y9461
X4910Y9201
X3910Y9201
X2910Y9201
X2910Y10701
X3910Y10701
X4910Y10701
X4910Y12201
X3910Y12201
X2910Y12201
X2910Y13701
X3910Y13701
X4910Y13701
X4910Y15201
X3910Y15201
X2910Y15201
X2910Y16701
X3910Y16701
X4910Y16701
X4910Y18201
X3910Y18201
X2910Y18201
X2911Y19701
X3911Y19701
X4911Y19701
T04
X4203Y4630
X7156Y4630
M30
