%
M48
M72
T01C0.0197
T02C0.0236
T03C0.0320
T04C0.0350
T05C0.0400
T06C0.0591
%
T01
X5455Y7113
X5455Y8688
X5455Y10184
X7109Y10184
X8132Y10578
X7739Y11286
X7817Y12704
X7266Y12861
X6794Y13806
X7266Y14436
X7817Y14436
X8290Y14436
X8841Y14436
X9313Y14121
X9865Y13530
X9235Y12310
X6243Y14593
X6124Y15696
X5494Y16168
X7975Y15538
X7581Y8845
X8132Y8452
T02
X9313Y10105
X11715Y8137
X16046Y8412
X16046Y9318
X16085Y7428
X16085Y6444
X18487Y5932
X18526Y6916
X18526Y7940
X18526Y8452
X18723Y9593
T03
X14302Y9645
X13302Y9645
X13302Y10645
X14302Y10645
X14302Y11645
X13302Y11645
X13302Y12645
X14302Y12645
X14302Y13645
X13302Y13645
X8254Y11109
X7254Y11109
X13302Y8645
X14302Y8645
X14302Y7645
X13302Y7645
X13302Y6645
X14302Y6645
T04
X8683Y6454
X7683Y6454
X7183Y7454
X8183Y7454
T05
X2819Y3849
X3819Y3849
X4819Y3849
X4819Y5349
X3819Y5349
X2819Y5349
X2819Y6849
X3819Y6849
X4819Y6849
X4819Y8349
X3819Y8349
X2819Y8349
X2819Y9849
X3819Y9849
X4819Y9849
X4819Y11349
X3819Y11349
X2819Y11349
X2819Y12849
X3819Y12849
X4819Y12849
X4820Y14349
X3820Y14349
X2820Y14349
X10928Y6251
X10928Y5251
X10928Y4251
X10928Y3251
T06
X6955Y16129
X4002Y16129
M30
