G75*
G70*
%OFA0B0*%
%FSLAX24Y24*%
%IPPOS*%
%LPD*%
%AMOC8*
5,1,8,0,0,1.08239X$1,22.5*
%
%ADD10C,0.0000*%
D10*
X000258Y002467D02*
X019943Y002467D01*
X019943Y018215D01*
X000258Y018215D01*
X000258Y002467D01*
X000455Y003649D02*
X000491Y003851D01*
X000593Y004029D01*
X000750Y004161D01*
X000943Y004231D01*
X001149Y004231D01*
X001341Y004161D01*
X001499Y004029D01*
X001601Y003851D01*
X001637Y003649D01*
X001601Y003447D01*
X001499Y003269D01*
X001342Y003137D01*
X001149Y003067D01*
X000943Y003067D01*
X000750Y003137D01*
X000593Y003269D01*
X000491Y003447D01*
X000455Y003649D01*
X005793Y003954D02*
X005832Y004173D01*
X005943Y004365D01*
X006113Y004508D01*
X006322Y004584D01*
X006544Y004584D01*
X006753Y004508D01*
X006923Y004365D01*
X007034Y004173D01*
X007073Y003954D01*
X007034Y003735D01*
X006923Y003543D01*
X006753Y003400D01*
X006544Y003324D01*
X006322Y003324D01*
X006113Y003400D01*
X005943Y003543D01*
X005832Y003735D01*
X005793Y003954D01*
X008793Y003954D02*
X008832Y004173D01*
X008943Y004365D01*
X009113Y004508D01*
X009322Y004584D01*
X009544Y004584D01*
X009753Y004508D01*
X009923Y004365D01*
X010034Y004173D01*
X010073Y003954D01*
X010034Y003735D01*
X009923Y003543D01*
X009753Y003400D01*
X009544Y003324D01*
X009322Y003324D01*
X009113Y003400D01*
X008943Y003543D01*
X008832Y003735D01*
X008793Y003954D01*
X016203Y003649D02*
X016239Y003851D01*
X016341Y004029D01*
X016498Y004161D01*
X016691Y004231D01*
X016897Y004231D01*
X017089Y004161D01*
X017247Y004029D01*
X017349Y003851D01*
X017385Y003649D01*
X017349Y003447D01*
X017247Y003269D01*
X017090Y003137D01*
X016897Y003067D01*
X016691Y003067D01*
X016498Y003137D01*
X016341Y003269D01*
X016239Y003447D01*
X016203Y003649D01*
X016203Y014672D02*
X016239Y014874D01*
X016341Y015052D01*
X016498Y015184D01*
X016691Y015254D01*
X016897Y015254D01*
X017089Y015184D01*
X017247Y015052D01*
X017349Y014874D01*
X017385Y014672D01*
X017349Y014470D01*
X017247Y014292D01*
X017090Y014160D01*
X016897Y014090D01*
X016691Y014090D01*
X016498Y014160D01*
X016341Y014292D01*
X016239Y014470D01*
X016203Y014672D01*
X000455Y014672D02*
X000491Y014874D01*
X000593Y015052D01*
X000750Y015184D01*
X000943Y015254D01*
X001149Y015254D01*
X001341Y015184D01*
X001499Y015052D01*
X001601Y014874D01*
X001637Y014672D01*
X001601Y014470D01*
X001499Y014292D01*
X001342Y014160D01*
X001149Y014090D01*
X000943Y014090D01*
X000750Y014160D01*
X000593Y014292D01*
X000491Y014470D01*
X000455Y014672D01*
M02*
