G75*
G70*
%OFA0B0*%
%FSLAX24Y24*%
%IPPOS*%
%LPD*%
%AMOC8*
5,1,8,0,0,1.08239X$1,22.5*
%
%ADD10C,0.1261*%
%ADD11C,0.0605*%
%ADD12C,0.1360*%
%ADD13C,0.0680*%
%ADD14R,0.0505X0.0493*%
%ADD15R,0.0493X0.0505*%
%ADD16R,0.0513X0.0474*%
%ADD17R,0.0533X0.0198*%
%ADD18C,0.0966*%
%ADD19R,0.0592X0.0671*%
%ADD20R,0.0671X0.0592*%
%ADD21R,0.0560X0.0560*%
%ADD22R,0.0474X0.0513*%
%ADD23C,0.0560*%
%ADD24OC8,0.0434*%
%ADD25OC8,0.0474*%
%ADD26R,0.0474X0.0474*%
D10*
X001046Y003649D03*
X001046Y014672D03*
X016794Y014672D03*
X016794Y003649D03*
D11*
X008683Y006454D03*
X007683Y006454D03*
X007183Y007454D03*
X008183Y007454D03*
D12*
X009433Y003954D03*
X006433Y003954D03*
D13*
X002819Y004149D02*
X002819Y003549D01*
X003819Y003549D02*
X003819Y004149D01*
X003819Y005049D02*
X003819Y005649D01*
X004819Y005649D02*
X004819Y005049D01*
X004819Y004149D02*
X004819Y003549D01*
X002819Y005049D02*
X002819Y005649D01*
X002819Y006549D02*
X002819Y007149D01*
X002819Y008049D02*
X002819Y008649D01*
X002819Y009549D02*
X002819Y010149D01*
X002819Y011049D02*
X002819Y011649D01*
X002819Y012549D02*
X002819Y013149D01*
X002820Y014049D02*
X002820Y014649D01*
X003820Y014649D02*
X003820Y014049D01*
X003819Y013149D02*
X003819Y012549D01*
X004819Y012549D02*
X004819Y013149D01*
X004820Y014049D02*
X004820Y014649D01*
X004819Y011649D02*
X004819Y011049D01*
X004819Y010149D02*
X004819Y009549D01*
X003819Y009549D02*
X003819Y010149D01*
X003819Y011049D02*
X003819Y011649D01*
X003819Y008649D02*
X003819Y008049D01*
X003819Y007149D02*
X003819Y006549D01*
X004819Y006549D02*
X004819Y007149D01*
X004819Y008049D02*
X004819Y008649D01*
X010628Y006251D02*
X011228Y006251D01*
X011228Y005251D02*
X010628Y005251D01*
X010628Y004251D02*
X011228Y004251D01*
X011228Y003251D02*
X010628Y003251D01*
D14*
X009235Y007162D03*
X009235Y007851D03*
D15*
X005485Y016168D03*
X004796Y016168D03*
D16*
X006124Y016149D03*
X006124Y016818D03*
X007975Y016267D03*
X008526Y016267D03*
X008526Y015597D03*
X007975Y015597D03*
X005455Y014692D03*
X005455Y014023D03*
X005455Y013196D03*
X005455Y012526D03*
X005455Y011700D03*
X005455Y011030D03*
X005455Y010204D03*
X005455Y009534D03*
X005455Y008708D03*
X005455Y008038D03*
X005455Y007133D03*
X005455Y006463D03*
X015022Y006778D03*
X015022Y007448D03*
X015022Y007881D03*
X015022Y008550D03*
X017916Y008452D03*
X018585Y008452D03*
D17*
X009821Y008668D03*
X009821Y008924D03*
X009821Y009180D03*
X009821Y009436D03*
X009821Y009692D03*
X009821Y009948D03*
X009821Y010204D03*
X009821Y010460D03*
X009821Y010715D03*
X009821Y010971D03*
X009821Y011227D03*
X009821Y011483D03*
X009821Y011739D03*
X009821Y011995D03*
X009821Y012251D03*
X009821Y012507D03*
X009821Y012763D03*
X009821Y013019D03*
X009821Y013274D03*
X006652Y013274D03*
X006652Y013019D03*
X006652Y012763D03*
X006652Y012507D03*
X006652Y012251D03*
X006652Y011995D03*
X006652Y011739D03*
X006652Y011483D03*
X006652Y011227D03*
X006652Y010971D03*
X006652Y010715D03*
X006652Y010460D03*
X006652Y010204D03*
X006652Y009948D03*
X006652Y009692D03*
X006652Y009436D03*
X006652Y009180D03*
X006652Y008924D03*
X006652Y008668D03*
D18*
X006955Y015686D02*
X006955Y016572D01*
X004002Y016572D02*
X004002Y015686D01*
D19*
X004766Y016719D03*
X005514Y016719D03*
D20*
X009865Y007881D03*
X009865Y007133D03*
D21*
X013302Y006645D03*
X014302Y006645D03*
X014302Y007645D03*
X013302Y007645D03*
X013302Y008645D03*
X014302Y008645D03*
X014302Y009645D03*
X013302Y009645D03*
X013302Y010645D03*
X014302Y010645D03*
X014302Y011645D03*
X013302Y011645D03*
X013302Y012645D03*
X014302Y012645D03*
X014302Y013645D03*
X013302Y013645D03*
D22*
X016061Y009314D03*
X016731Y009314D03*
X016735Y008412D03*
X016065Y008412D03*
X016105Y007428D03*
X016774Y007428D03*
X016774Y006404D03*
X016105Y006404D03*
X017916Y005932D03*
X018585Y005932D03*
X018585Y006916D03*
X017916Y006916D03*
X017916Y007940D03*
X018585Y007940D03*
D23*
X008254Y011109D03*
X007254Y011109D03*
D24*
X007739Y011286D03*
X008132Y010578D03*
X007109Y010184D03*
X007581Y008845D03*
X008132Y008452D03*
X005455Y008688D03*
X005455Y007113D03*
X005455Y010184D03*
X007817Y012704D03*
X007266Y012861D03*
X006794Y013806D03*
X007266Y014436D03*
X007817Y014436D03*
X008290Y014436D03*
X008841Y014436D03*
X009313Y014121D03*
X009865Y013530D03*
X009235Y012310D03*
X006243Y014593D03*
X006124Y015696D03*
X005494Y016168D03*
X007975Y015538D03*
D25*
X011715Y008137D03*
X016046Y008412D03*
X016046Y009318D03*
X016085Y007428D03*
X016085Y006444D03*
X018487Y005932D03*
X018526Y006916D03*
X018526Y007940D03*
X018526Y008452D03*
X018723Y009593D03*
D26*
X009313Y010105D03*
M02*
