G75*
G70*
%OFA0B0*%
%FSLAX24Y24*%
%IPPOS*%
%LPD*%
%AMOC8*
5,1,8,0,0,1.08239X$1,22.5*
%
%ADD10C,0.1340*%
%ADD11C,0.0867*%
%ADD12C,0.0710*%
%ADD13OC8,0.0710*%
%ADD14C,0.0630*%
%ADD15C,0.1360*%
%ADD16C,0.0600*%
%ADD17R,0.0198X0.0533*%
%ADD18O,0.1280X0.0680*%
%ADD19OC8,0.0600*%
%ADD20R,0.0867X0.0710*%
%ADD21R,0.0710X0.0867*%
%ADD22C,0.0476*%
D10*
X003572Y016871D03*
X020752Y016911D03*
X030682Y012191D03*
X030662Y002901D03*
D11*
X030212Y015891D03*
X029212Y015891D03*
X028212Y015891D03*
X026212Y015891D03*
X025212Y015891D03*
X024212Y015891D03*
X023212Y015891D03*
X023212Y017887D03*
X024212Y017887D03*
X025212Y017887D03*
X026212Y017887D03*
X028212Y017887D03*
X029212Y017887D03*
X030212Y017887D03*
X031212Y017887D03*
X031212Y015891D03*
X018212Y015891D03*
X017212Y015891D03*
X016212Y015891D03*
X015212Y015891D03*
X014212Y015891D03*
X013212Y015891D03*
X012212Y015891D03*
X011212Y015891D03*
X008712Y015891D03*
X007712Y015891D03*
X006712Y015891D03*
X005712Y015891D03*
X005712Y017887D03*
X006712Y017887D03*
X007712Y017887D03*
X008712Y017887D03*
X011212Y017887D03*
X012212Y017887D03*
X013212Y017887D03*
X014212Y017887D03*
X015212Y017887D03*
X016212Y017887D03*
X017212Y017887D03*
X018212Y017887D03*
D12*
X009342Y002751D03*
D13*
X009342Y003751D03*
D14*
X007452Y003361D03*
X006452Y003861D03*
X007452Y004361D03*
X006452Y004861D03*
D15*
X003952Y002611D03*
X003952Y005611D03*
D16*
X007562Y006971D03*
X008562Y006971D03*
D17*
X009042Y007851D03*
X009298Y007851D03*
X009554Y007851D03*
X009810Y007851D03*
X010065Y007851D03*
X010321Y007851D03*
X010577Y007851D03*
X010833Y007851D03*
X011089Y007851D03*
X011345Y007851D03*
X011601Y007851D03*
X011857Y007851D03*
X012113Y007851D03*
X012369Y007851D03*
X012624Y007851D03*
X012880Y007851D03*
X013136Y007851D03*
X013392Y007851D03*
X013648Y007851D03*
X013648Y004682D03*
X013392Y004682D03*
X013136Y004682D03*
X012880Y004682D03*
X012624Y004682D03*
X012369Y004682D03*
X012113Y004682D03*
X011857Y004682D03*
X011601Y004682D03*
X011345Y004682D03*
X011089Y004682D03*
X010833Y004682D03*
X010577Y004682D03*
X010321Y004682D03*
X010065Y004682D03*
X009810Y004682D03*
X009554Y004682D03*
X009298Y004682D03*
X009042Y004682D03*
D18*
X005582Y007611D03*
X005582Y008611D03*
X005582Y009611D03*
X005582Y010611D03*
D19*
X005962Y013541D03*
X004962Y013541D03*
X016992Y004411D03*
X016992Y003411D03*
X018992Y003511D03*
X018992Y004511D03*
X021985Y004529D03*
X021985Y003529D03*
X023977Y003521D03*
X023977Y004521D03*
X025981Y004521D03*
X025981Y003521D03*
X027981Y003521D03*
X027981Y004521D03*
X013252Y003291D03*
X012252Y003291D03*
D20*
X014602Y003310D03*
X014602Y004412D03*
X003912Y009530D03*
X003912Y010632D03*
D21*
X025922Y008663D03*
X027024Y008663D03*
X026993Y007423D03*
X025890Y007423D03*
D22*
X024972Y007311D03*
X024942Y008671D03*
X021862Y008671D03*
X020712Y009391D03*
X022402Y010521D03*
X019442Y011071D03*
X017962Y011061D03*
X016442Y011101D03*
X014962Y011091D03*
X013442Y011161D03*
X011962Y011101D03*
X010472Y011071D03*
X009722Y008961D03*
X012012Y008491D03*
X012882Y008521D03*
X013742Y008711D03*
X014612Y008891D03*
X015882Y007361D03*
X015462Y006781D03*
X011352Y003751D03*
X010612Y003751D03*
X025172Y002971D03*
X030847Y009517D03*
X027842Y012781D03*
M02*
