G75*
G70*
%OFA0B0*%
%FSLAX24Y24*%
%IPPOS*%
%LPD*%
%AMOC8*
5,1,8,0,0,1.08239X$1,22.5*
%
%ADD10C,0.0000*%
D10*
X002398Y001017D02*
X002398Y019128D01*
X032319Y019128D01*
X032319Y001017D01*
X002398Y001017D01*
X003312Y002611D02*
X003315Y002669D01*
X003323Y002727D01*
X003336Y002784D01*
X003354Y002839D01*
X003377Y002892D01*
X003405Y002944D01*
X003438Y002992D01*
X003474Y003037D01*
X003515Y003079D01*
X003560Y003117D01*
X003607Y003150D01*
X003658Y003179D01*
X003710Y003204D01*
X003765Y003223D01*
X003822Y003238D01*
X003879Y003247D01*
X003937Y003251D01*
X003996Y003250D01*
X004054Y003243D01*
X004111Y003231D01*
X004166Y003214D01*
X004220Y003192D01*
X004272Y003165D01*
X004321Y003134D01*
X004367Y003098D01*
X004410Y003058D01*
X004448Y003015D01*
X004483Y002968D01*
X004513Y002918D01*
X004539Y002866D01*
X004560Y002812D01*
X004575Y002755D01*
X004586Y002698D01*
X004591Y002640D01*
X004591Y002582D01*
X004586Y002524D01*
X004575Y002467D01*
X004560Y002410D01*
X004539Y002356D01*
X004513Y002304D01*
X004483Y002254D01*
X004448Y002207D01*
X004410Y002164D01*
X004367Y002124D01*
X004321Y002088D01*
X004272Y002057D01*
X004220Y002030D01*
X004166Y002008D01*
X004111Y001991D01*
X004054Y001979D01*
X003996Y001972D01*
X003937Y001971D01*
X003879Y001975D01*
X003822Y001984D01*
X003765Y001999D01*
X003710Y002018D01*
X003658Y002043D01*
X003607Y002072D01*
X003560Y002105D01*
X003515Y002143D01*
X003474Y002185D01*
X003438Y002230D01*
X003405Y002278D01*
X003377Y002330D01*
X003354Y002383D01*
X003336Y002438D01*
X003323Y002495D01*
X003315Y002553D01*
X003312Y002611D01*
X003312Y005611D02*
X003315Y005669D01*
X003323Y005727D01*
X003336Y005784D01*
X003354Y005839D01*
X003377Y005892D01*
X003405Y005944D01*
X003438Y005992D01*
X003474Y006037D01*
X003515Y006079D01*
X003560Y006117D01*
X003607Y006150D01*
X003658Y006179D01*
X003710Y006204D01*
X003765Y006223D01*
X003822Y006238D01*
X003879Y006247D01*
X003937Y006251D01*
X003996Y006250D01*
X004054Y006243D01*
X004111Y006231D01*
X004166Y006214D01*
X004220Y006192D01*
X004272Y006165D01*
X004321Y006134D01*
X004367Y006098D01*
X004410Y006058D01*
X004448Y006015D01*
X004483Y005968D01*
X004513Y005918D01*
X004539Y005866D01*
X004560Y005812D01*
X004575Y005755D01*
X004586Y005698D01*
X004591Y005640D01*
X004591Y005582D01*
X004586Y005524D01*
X004575Y005467D01*
X004560Y005410D01*
X004539Y005356D01*
X004513Y005304D01*
X004483Y005254D01*
X004448Y005207D01*
X004410Y005164D01*
X004367Y005124D01*
X004321Y005088D01*
X004272Y005057D01*
X004220Y005030D01*
X004166Y005008D01*
X004111Y004991D01*
X004054Y004979D01*
X003996Y004972D01*
X003937Y004971D01*
X003879Y004975D01*
X003822Y004984D01*
X003765Y004999D01*
X003710Y005018D01*
X003658Y005043D01*
X003607Y005072D01*
X003560Y005105D01*
X003515Y005143D01*
X003474Y005185D01*
X003438Y005230D01*
X003405Y005278D01*
X003377Y005330D01*
X003354Y005383D01*
X003336Y005438D01*
X003323Y005495D01*
X003315Y005553D01*
X003312Y005611D01*
X002942Y016871D02*
X002945Y016928D01*
X002952Y016985D01*
X002965Y017041D01*
X002983Y017095D01*
X003006Y017148D01*
X003034Y017198D01*
X003066Y017246D01*
X003102Y017290D01*
X003142Y017331D01*
X003186Y017369D01*
X003232Y017402D01*
X003282Y017430D01*
X003334Y017454D01*
X003388Y017474D01*
X003444Y017488D01*
X003500Y017497D01*
X003558Y017501D01*
X003615Y017500D01*
X003672Y017493D01*
X003728Y017481D01*
X003783Y017465D01*
X003836Y017443D01*
X003887Y017417D01*
X003935Y017386D01*
X003981Y017351D01*
X004023Y017311D01*
X004061Y017269D01*
X004095Y017222D01*
X004125Y017173D01*
X004150Y017122D01*
X004170Y017068D01*
X004186Y017013D01*
X004196Y016957D01*
X004201Y016900D01*
X004201Y016842D01*
X004196Y016785D01*
X004186Y016729D01*
X004170Y016674D01*
X004150Y016620D01*
X004125Y016569D01*
X004095Y016520D01*
X004061Y016473D01*
X004023Y016431D01*
X003981Y016391D01*
X003935Y016356D01*
X003887Y016325D01*
X003836Y016299D01*
X003783Y016277D01*
X003728Y016261D01*
X003672Y016249D01*
X003615Y016242D01*
X003558Y016241D01*
X003500Y016245D01*
X003444Y016254D01*
X003388Y016268D01*
X003334Y016288D01*
X003282Y016312D01*
X003232Y016340D01*
X003186Y016373D01*
X003142Y016411D01*
X003102Y016452D01*
X003066Y016496D01*
X003034Y016544D01*
X003006Y016594D01*
X002983Y016647D01*
X002965Y016701D01*
X002952Y016757D01*
X002945Y016814D01*
X002942Y016871D01*
X020122Y016911D02*
X020125Y016968D01*
X020132Y017025D01*
X020145Y017081D01*
X020163Y017135D01*
X020186Y017188D01*
X020214Y017238D01*
X020246Y017286D01*
X020282Y017330D01*
X020322Y017371D01*
X020366Y017409D01*
X020412Y017442D01*
X020462Y017470D01*
X020514Y017494D01*
X020568Y017514D01*
X020624Y017528D01*
X020680Y017537D01*
X020738Y017541D01*
X020795Y017540D01*
X020852Y017533D01*
X020908Y017521D01*
X020963Y017505D01*
X021016Y017483D01*
X021067Y017457D01*
X021115Y017426D01*
X021161Y017391D01*
X021203Y017351D01*
X021241Y017309D01*
X021275Y017262D01*
X021305Y017213D01*
X021330Y017162D01*
X021350Y017108D01*
X021366Y017053D01*
X021376Y016997D01*
X021381Y016940D01*
X021381Y016882D01*
X021376Y016825D01*
X021366Y016769D01*
X021350Y016714D01*
X021330Y016660D01*
X021305Y016609D01*
X021275Y016560D01*
X021241Y016513D01*
X021203Y016471D01*
X021161Y016431D01*
X021115Y016396D01*
X021067Y016365D01*
X021016Y016339D01*
X020963Y016317D01*
X020908Y016301D01*
X020852Y016289D01*
X020795Y016282D01*
X020738Y016281D01*
X020680Y016285D01*
X020624Y016294D01*
X020568Y016308D01*
X020514Y016328D01*
X020462Y016352D01*
X020412Y016380D01*
X020366Y016413D01*
X020322Y016451D01*
X020282Y016492D01*
X020246Y016536D01*
X020214Y016584D01*
X020186Y016634D01*
X020163Y016687D01*
X020145Y016741D01*
X020132Y016797D01*
X020125Y016854D01*
X020122Y016911D01*
X030052Y012191D02*
X030055Y012248D01*
X030062Y012305D01*
X030075Y012361D01*
X030093Y012415D01*
X030116Y012468D01*
X030144Y012518D01*
X030176Y012566D01*
X030212Y012610D01*
X030252Y012651D01*
X030296Y012689D01*
X030342Y012722D01*
X030392Y012750D01*
X030444Y012774D01*
X030498Y012794D01*
X030554Y012808D01*
X030610Y012817D01*
X030668Y012821D01*
X030725Y012820D01*
X030782Y012813D01*
X030838Y012801D01*
X030893Y012785D01*
X030946Y012763D01*
X030997Y012737D01*
X031045Y012706D01*
X031091Y012671D01*
X031133Y012631D01*
X031171Y012589D01*
X031205Y012542D01*
X031235Y012493D01*
X031260Y012442D01*
X031280Y012388D01*
X031296Y012333D01*
X031306Y012277D01*
X031311Y012220D01*
X031311Y012162D01*
X031306Y012105D01*
X031296Y012049D01*
X031280Y011994D01*
X031260Y011940D01*
X031235Y011889D01*
X031205Y011840D01*
X031171Y011793D01*
X031133Y011751D01*
X031091Y011711D01*
X031045Y011676D01*
X030997Y011645D01*
X030946Y011619D01*
X030893Y011597D01*
X030838Y011581D01*
X030782Y011569D01*
X030725Y011562D01*
X030668Y011561D01*
X030610Y011565D01*
X030554Y011574D01*
X030498Y011588D01*
X030444Y011608D01*
X030392Y011632D01*
X030342Y011660D01*
X030296Y011693D01*
X030252Y011731D01*
X030212Y011772D01*
X030176Y011816D01*
X030144Y011864D01*
X030116Y011914D01*
X030093Y011967D01*
X030075Y012021D01*
X030062Y012077D01*
X030055Y012134D01*
X030052Y012191D01*
X030032Y002901D02*
X030035Y002958D01*
X030042Y003015D01*
X030055Y003071D01*
X030073Y003125D01*
X030096Y003178D01*
X030124Y003228D01*
X030156Y003276D01*
X030192Y003320D01*
X030232Y003361D01*
X030276Y003399D01*
X030322Y003432D01*
X030372Y003460D01*
X030424Y003484D01*
X030478Y003504D01*
X030534Y003518D01*
X030590Y003527D01*
X030648Y003531D01*
X030705Y003530D01*
X030762Y003523D01*
X030818Y003511D01*
X030873Y003495D01*
X030926Y003473D01*
X030977Y003447D01*
X031025Y003416D01*
X031071Y003381D01*
X031113Y003341D01*
X031151Y003299D01*
X031185Y003252D01*
X031215Y003203D01*
X031240Y003152D01*
X031260Y003098D01*
X031276Y003043D01*
X031286Y002987D01*
X031291Y002930D01*
X031291Y002872D01*
X031286Y002815D01*
X031276Y002759D01*
X031260Y002704D01*
X031240Y002650D01*
X031215Y002599D01*
X031185Y002550D01*
X031151Y002503D01*
X031113Y002461D01*
X031071Y002421D01*
X031025Y002386D01*
X030977Y002355D01*
X030926Y002329D01*
X030873Y002307D01*
X030818Y002291D01*
X030762Y002279D01*
X030705Y002272D01*
X030648Y002271D01*
X030590Y002275D01*
X030534Y002284D01*
X030478Y002298D01*
X030424Y002318D01*
X030372Y002342D01*
X030322Y002370D01*
X030276Y002403D01*
X030232Y002441D01*
X030192Y002482D01*
X030156Y002526D01*
X030124Y002574D01*
X030096Y002624D01*
X030073Y002677D01*
X030055Y002731D01*
X030042Y002787D01*
X030035Y002844D01*
X030032Y002901D01*
M02*
