G75*
G70*
%OFA0B0*%
%FSLAX24Y24*%
%IPPOS*%
%LPD*%
%AMOC8*
5,1,8,0,0,1.08239X$1,22.5*
%
%ADD10C,0.0060*%
%ADD11C,0.0030*%
%ADD12C,0.0030*%
D10*
X005626Y013557D02*
X005846Y013557D01*
X005626Y013557D02*
X005626Y013877D01*
X006526Y013557D02*
X006746Y013557D01*
X006746Y013877D01*
X007126Y013877D02*
X007126Y013557D01*
X007346Y013557D01*
X008026Y013557D02*
X008246Y013557D01*
X008246Y013877D01*
X008626Y013877D02*
X008626Y013557D01*
X008846Y013557D01*
X009526Y013557D02*
X009746Y013557D01*
X009746Y013877D01*
X010126Y013877D02*
X010126Y013557D01*
X010346Y013557D01*
X011026Y013557D02*
X011246Y013557D01*
X011246Y013877D01*
X011626Y013877D02*
X011626Y013557D01*
X011846Y013557D01*
X012526Y013557D02*
X012746Y013557D01*
X012746Y013877D01*
X013126Y013877D02*
X013126Y013557D01*
X013346Y013557D01*
X014026Y013557D02*
X014246Y013557D01*
X014246Y013877D01*
X014626Y013877D02*
X014626Y013557D01*
X014846Y013557D01*
X015526Y013557D02*
X015746Y013557D01*
X015746Y013877D01*
X016126Y013877D02*
X016126Y013557D01*
X016346Y013557D01*
X017026Y013557D02*
X017246Y013557D01*
X017246Y013877D01*
D11*
X017299Y014493D02*
X017114Y014493D01*
X017052Y014555D01*
X017052Y014801D01*
X017114Y014863D01*
X017299Y014863D01*
X017299Y014493D01*
X016931Y014555D02*
X016931Y014616D01*
X016869Y014678D01*
X016745Y014678D01*
X016684Y014616D01*
X016684Y014555D01*
X016745Y014493D01*
X016869Y014493D01*
X016931Y014555D01*
X016869Y014678D02*
X016931Y014740D01*
X016931Y014801D01*
X016869Y014863D01*
X016745Y014863D01*
X016684Y014801D01*
X016684Y014740D01*
X016745Y014678D01*
X015799Y014808D02*
X015799Y014438D01*
X015614Y014438D01*
X015552Y014499D01*
X015552Y014746D01*
X015614Y014808D01*
X015799Y014808D01*
X015431Y014808D02*
X015184Y014808D01*
X015184Y014746D01*
X015431Y014499D01*
X015431Y014438D01*
X014267Y014473D02*
X014082Y014473D01*
X014021Y014535D01*
X014021Y014782D01*
X014082Y014844D01*
X014267Y014844D01*
X014267Y014473D01*
X013899Y014535D02*
X013837Y014473D01*
X013714Y014473D01*
X013652Y014535D01*
X013652Y014597D01*
X013714Y014658D01*
X013899Y014658D01*
X013899Y014535D01*
X013899Y014658D02*
X013776Y014782D01*
X013652Y014844D01*
X012712Y014847D02*
X012712Y014477D01*
X012527Y014477D01*
X012465Y014539D01*
X012465Y014786D01*
X012527Y014847D01*
X012712Y014847D01*
X012344Y014847D02*
X012344Y014662D01*
X012221Y014724D01*
X012159Y014724D01*
X012097Y014662D01*
X012097Y014539D01*
X012159Y014477D01*
X012282Y014477D01*
X012344Y014539D01*
X012344Y014847D02*
X012097Y014847D01*
X011374Y014828D02*
X011374Y014457D01*
X011189Y014457D01*
X011127Y014519D01*
X011127Y014766D01*
X011189Y014828D01*
X011374Y014828D01*
X011005Y014643D02*
X010759Y014643D01*
X010820Y014828D02*
X011005Y014643D01*
X010820Y014828D02*
X010820Y014457D01*
X009858Y014473D02*
X009673Y014473D01*
X009611Y014535D01*
X009611Y014782D01*
X009673Y014844D01*
X009858Y014844D01*
X009858Y014473D01*
X009490Y014535D02*
X009428Y014473D01*
X009304Y014473D01*
X009243Y014535D01*
X009243Y014597D01*
X009304Y014658D01*
X009366Y014658D01*
X009304Y014658D02*
X009243Y014720D01*
X009243Y014782D01*
X009304Y014844D01*
X009428Y014844D01*
X009490Y014782D01*
X008322Y014828D02*
X008322Y014457D01*
X008137Y014457D01*
X008076Y014519D01*
X008076Y014766D01*
X008137Y014828D01*
X008322Y014828D01*
X007954Y014766D02*
X007892Y014828D01*
X007769Y014828D01*
X007707Y014766D01*
X007707Y014704D01*
X007954Y014457D01*
X007707Y014457D01*
X006732Y014489D02*
X006547Y014489D01*
X006485Y014551D01*
X006485Y014798D01*
X006547Y014859D01*
X006732Y014859D01*
X006732Y014489D01*
X006364Y014489D02*
X006117Y014489D01*
X006240Y014489D02*
X006240Y014859D01*
X006364Y014736D01*
X005715Y011871D02*
X005653Y011871D01*
X005406Y011624D01*
X005406Y011871D01*
X005715Y011871D02*
X005776Y011809D01*
X005776Y011685D01*
X005715Y011624D01*
X005715Y011502D02*
X005776Y011441D01*
X005776Y011317D01*
X005715Y011255D01*
X005468Y011255D01*
X005406Y011317D01*
X005406Y011441D01*
X005468Y011502D01*
X005406Y011133D02*
X005406Y011010D01*
X005406Y011072D02*
X005776Y011072D01*
X005776Y011133D02*
X005776Y011010D01*
X012858Y010434D02*
X012858Y010372D01*
X012919Y010311D01*
X012858Y010249D01*
X012858Y010187D01*
X012919Y010125D01*
X013043Y010125D01*
X013105Y010187D01*
X013226Y010125D02*
X013473Y010125D01*
X013594Y010125D02*
X013718Y010249D01*
X013841Y010187D02*
X013780Y010125D01*
X013656Y010125D01*
X013594Y010187D01*
X013594Y010434D01*
X013656Y010496D01*
X013780Y010496D01*
X013841Y010434D01*
X013841Y010187D01*
X013890Y009817D02*
X013890Y009447D01*
X013767Y009447D02*
X014014Y009447D01*
X014135Y009447D02*
X014259Y009570D01*
X014320Y009447D02*
X014382Y009508D01*
X014382Y009755D01*
X014320Y009817D01*
X014197Y009817D01*
X014135Y009755D01*
X014135Y009508D01*
X014197Y009447D01*
X014320Y009447D01*
X014014Y009694D02*
X013890Y009817D01*
X013645Y009755D02*
X013584Y009817D01*
X013460Y009817D01*
X013399Y009755D01*
X013399Y009694D01*
X013645Y009447D01*
X013399Y009447D01*
X013326Y009078D02*
X013326Y008708D01*
X013449Y008708D02*
X013202Y008708D01*
X013081Y008770D02*
X012834Y009017D01*
X012834Y008770D01*
X012896Y008708D01*
X013019Y008708D01*
X013081Y008770D01*
X013081Y009017D01*
X013019Y009078D01*
X012896Y009078D01*
X012834Y009017D01*
X013326Y009078D02*
X013449Y008955D01*
X013571Y009017D02*
X013571Y008770D01*
X013632Y008708D01*
X013756Y008708D01*
X013818Y008770D01*
X013818Y009017D01*
X013756Y009078D01*
X013632Y009078D01*
X013571Y009017D01*
X013694Y008831D02*
X013571Y008708D01*
X013458Y008612D02*
X013704Y008612D01*
X013704Y008427D01*
X013581Y008489D01*
X013519Y008489D01*
X013458Y008427D01*
X013458Y008304D01*
X013519Y008242D01*
X013643Y008242D01*
X013704Y008304D01*
X013826Y008242D02*
X014073Y008242D01*
X014194Y008242D02*
X014318Y008365D01*
X014379Y008242D02*
X014441Y008304D01*
X014441Y008551D01*
X014379Y008612D01*
X014256Y008612D01*
X014194Y008551D01*
X014194Y008304D01*
X014256Y008242D01*
X014379Y008242D01*
X014073Y008489D02*
X013949Y008612D01*
X013949Y008242D01*
X013350Y010125D02*
X013350Y010496D01*
X013473Y010372D01*
X013105Y010434D02*
X013043Y010496D01*
X012919Y010496D01*
X012858Y010434D01*
X012919Y010311D02*
X012981Y010311D01*
D12*
X010669Y008753D02*
X006067Y008753D01*
X006067Y011914D01*
X010669Y011914D01*
X010669Y008753D01*
X006255Y011571D02*
X006257Y011588D01*
X006263Y011605D01*
X006273Y011619D01*
X006285Y011631D01*
X006300Y011640D01*
X006317Y011645D01*
X006334Y011646D01*
X006352Y011643D01*
X006367Y011636D01*
X006381Y011626D01*
X006393Y011612D01*
X006400Y011597D01*
X006404Y011580D01*
X006404Y011562D01*
X006400Y011545D01*
X006393Y011530D01*
X006381Y011516D01*
X006368Y011506D01*
X006352Y011499D01*
X006334Y011496D01*
X006317Y011497D01*
X006300Y011502D01*
X006285Y011511D01*
X006273Y011523D01*
X006263Y011537D01*
X006257Y011554D01*
X006255Y011571D01*
M02*
